G04 #@! TF.GenerationSoftware,KiCad,Pcbnew,8.0.7*
G04 #@! TF.CreationDate,2025-10-04T20:43:22+01:00*
G04 #@! TF.ProjectId,PulseOximeter,50756c73-654f-4786-996d-657465722e6b,rev?*
G04 #@! TF.SameCoordinates,Original*
G04 #@! TF.FileFunction,Soldermask,Top*
G04 #@! TF.FilePolarity,Negative*
%FSLAX46Y46*%
G04 Gerber Fmt 4.6, Leading zero omitted, Abs format (unit mm)*
G04 Created by KiCad (PCBNEW 8.0.7) date 2025-10-04 20:43:22*
%MOMM*%
%LPD*%
G01*
G04 APERTURE LIST*
G04 APERTURE END LIST*
G36*
X90348076Y-124654735D02*
G01*
X90396860Y-124654735D01*
X90451187Y-124664890D01*
X90504845Y-124670175D01*
X90545606Y-124682539D01*
X90587276Y-124690329D01*
X90644985Y-124712685D01*
X90701818Y-124729926D01*
X90734294Y-124747284D01*
X90767910Y-124760308D01*
X90826323Y-124796476D01*
X90883349Y-124826957D01*
X90907306Y-124846618D01*
X90932609Y-124862285D01*
X90988674Y-124913395D01*
X91042462Y-124957538D01*
X91058401Y-124976960D01*
X91075769Y-124992793D01*
X91126187Y-125059557D01*
X91173043Y-125116651D01*
X91182103Y-125133602D01*
X91192509Y-125147381D01*
X91233895Y-125230498D01*
X91270074Y-125298182D01*
X91273933Y-125310905D01*
X91278854Y-125320787D01*
X91307927Y-125422969D01*
X91329825Y-125495155D01*
X91330544Y-125502456D01*
X91331869Y-125507113D01*
X91345653Y-125655868D01*
X91350000Y-125700000D01*
X91345653Y-125744135D01*
X91331869Y-125892886D01*
X91330544Y-125897541D01*
X91329825Y-125904845D01*
X91307923Y-125977045D01*
X91278854Y-126079212D01*
X91273934Y-126089092D01*
X91270074Y-126101818D01*
X91233888Y-126169515D01*
X91192509Y-126252618D01*
X91182105Y-126266394D01*
X91173043Y-126283349D01*
X91126177Y-126340454D01*
X91075769Y-126407206D01*
X91058405Y-126423035D01*
X91042462Y-126442462D01*
X90988663Y-126486613D01*
X90932609Y-126537714D01*
X90907311Y-126553377D01*
X90883349Y-126573043D01*
X90826312Y-126603530D01*
X90767910Y-126639691D01*
X90734300Y-126652711D01*
X90701818Y-126670074D01*
X90644973Y-126687317D01*
X90587276Y-126709670D01*
X90545613Y-126717458D01*
X90504845Y-126729825D01*
X90451184Y-126735109D01*
X90396860Y-126745265D01*
X90348076Y-126745265D01*
X90300000Y-126750000D01*
X90251924Y-126745265D01*
X90203140Y-126745265D01*
X90148814Y-126735109D01*
X90095155Y-126729825D01*
X90054388Y-126717458D01*
X90012723Y-126709670D01*
X89955022Y-126687316D01*
X89898182Y-126670074D01*
X89865701Y-126652712D01*
X89832089Y-126639691D01*
X89773680Y-126603526D01*
X89716651Y-126573043D01*
X89692691Y-126553380D01*
X89667390Y-126537714D01*
X89611326Y-126486605D01*
X89557538Y-126442462D01*
X89541597Y-126423038D01*
X89524230Y-126407206D01*
X89473809Y-126340438D01*
X89426957Y-126283349D01*
X89417896Y-126266398D01*
X89407490Y-126252618D01*
X89366096Y-126169488D01*
X89329926Y-126101818D01*
X89326067Y-126089097D01*
X89321145Y-126079212D01*
X89292060Y-125976992D01*
X89270175Y-125904845D01*
X89269456Y-125897547D01*
X89268130Y-125892886D01*
X89254329Y-125743963D01*
X89250000Y-125700000D01*
X89254329Y-125656039D01*
X89268130Y-125507113D01*
X89269456Y-125502451D01*
X89270175Y-125495155D01*
X89292056Y-125423022D01*
X89321145Y-125320787D01*
X89326067Y-125310900D01*
X89329926Y-125298182D01*
X89366089Y-125230525D01*
X89407490Y-125147381D01*
X89417898Y-125133597D01*
X89426957Y-125116651D01*
X89473800Y-125059572D01*
X89524230Y-124992793D01*
X89541601Y-124976957D01*
X89557538Y-124957538D01*
X89611315Y-124913403D01*
X89667390Y-124862285D01*
X89692696Y-124846615D01*
X89716651Y-124826957D01*
X89773668Y-124796480D01*
X89832089Y-124760308D01*
X89865708Y-124747283D01*
X89898182Y-124729926D01*
X89955010Y-124712687D01*
X90012723Y-124690329D01*
X90054394Y-124682539D01*
X90095155Y-124670175D01*
X90148811Y-124664890D01*
X90203140Y-124654735D01*
X90251924Y-124654735D01*
X90300000Y-124650000D01*
X90348076Y-124654735D01*
G37*
G36*
X167748076Y-124654735D02*
G01*
X167796860Y-124654735D01*
X167851187Y-124664890D01*
X167904845Y-124670175D01*
X167945606Y-124682539D01*
X167987276Y-124690329D01*
X168044985Y-124712685D01*
X168101818Y-124729926D01*
X168134294Y-124747284D01*
X168167910Y-124760308D01*
X168226323Y-124796476D01*
X168283349Y-124826957D01*
X168307306Y-124846618D01*
X168332609Y-124862285D01*
X168388674Y-124913395D01*
X168442462Y-124957538D01*
X168458401Y-124976960D01*
X168475769Y-124992793D01*
X168526187Y-125059557D01*
X168573043Y-125116651D01*
X168582103Y-125133602D01*
X168592509Y-125147381D01*
X168633895Y-125230498D01*
X168670074Y-125298182D01*
X168673933Y-125310905D01*
X168678854Y-125320787D01*
X168707927Y-125422969D01*
X168729825Y-125495155D01*
X168730544Y-125502456D01*
X168731869Y-125507113D01*
X168745653Y-125655868D01*
X168750000Y-125700000D01*
X168745653Y-125744135D01*
X168731869Y-125892886D01*
X168730544Y-125897541D01*
X168729825Y-125904845D01*
X168707923Y-125977045D01*
X168678854Y-126079212D01*
X168673934Y-126089092D01*
X168670074Y-126101818D01*
X168633888Y-126169515D01*
X168592509Y-126252618D01*
X168582105Y-126266394D01*
X168573043Y-126283349D01*
X168526177Y-126340454D01*
X168475769Y-126407206D01*
X168458405Y-126423035D01*
X168442462Y-126442462D01*
X168388663Y-126486613D01*
X168332609Y-126537714D01*
X168307311Y-126553377D01*
X168283349Y-126573043D01*
X168226312Y-126603530D01*
X168167910Y-126639691D01*
X168134300Y-126652711D01*
X168101818Y-126670074D01*
X168044973Y-126687317D01*
X167987276Y-126709670D01*
X167945613Y-126717458D01*
X167904845Y-126729825D01*
X167851184Y-126735109D01*
X167796860Y-126745265D01*
X167748076Y-126745265D01*
X167700000Y-126750000D01*
X167651924Y-126745265D01*
X167603140Y-126745265D01*
X167548814Y-126735109D01*
X167495155Y-126729825D01*
X167454388Y-126717458D01*
X167412723Y-126709670D01*
X167355022Y-126687316D01*
X167298182Y-126670074D01*
X167265701Y-126652712D01*
X167232089Y-126639691D01*
X167173680Y-126603526D01*
X167116651Y-126573043D01*
X167092691Y-126553380D01*
X167067390Y-126537714D01*
X167011326Y-126486605D01*
X166957538Y-126442462D01*
X166941597Y-126423038D01*
X166924230Y-126407206D01*
X166873809Y-126340438D01*
X166826957Y-126283349D01*
X166817896Y-126266398D01*
X166807490Y-126252618D01*
X166766096Y-126169488D01*
X166729926Y-126101818D01*
X166726067Y-126089097D01*
X166721145Y-126079212D01*
X166692060Y-125976992D01*
X166670175Y-125904845D01*
X166669456Y-125897547D01*
X166668130Y-125892886D01*
X166654329Y-125743963D01*
X166650000Y-125700000D01*
X166654329Y-125656039D01*
X166668130Y-125507113D01*
X166669456Y-125502451D01*
X166670175Y-125495155D01*
X166692056Y-125423022D01*
X166721145Y-125320787D01*
X166726067Y-125310900D01*
X166729926Y-125298182D01*
X166766089Y-125230525D01*
X166807490Y-125147381D01*
X166817898Y-125133597D01*
X166826957Y-125116651D01*
X166873800Y-125059572D01*
X166924230Y-124992793D01*
X166941601Y-124976957D01*
X166957538Y-124957538D01*
X167011315Y-124913403D01*
X167067390Y-124862285D01*
X167092696Y-124846615D01*
X167116651Y-124826957D01*
X167173668Y-124796480D01*
X167232089Y-124760308D01*
X167265708Y-124747283D01*
X167298182Y-124729926D01*
X167355010Y-124712687D01*
X167412723Y-124690329D01*
X167454394Y-124682539D01*
X167495155Y-124670175D01*
X167548811Y-124664890D01*
X167603140Y-124654735D01*
X167651924Y-124654735D01*
X167700000Y-124650000D01*
X167748076Y-124654735D01*
G37*
G36*
X163351811Y-121014711D02*
G01*
X163393588Y-121014711D01*
X163440718Y-121024728D01*
X163488017Y-121030058D01*
X163522408Y-121042092D01*
X163557110Y-121049468D01*
X163607117Y-121071733D01*
X163657107Y-121089225D01*
X163683128Y-121105575D01*
X163709835Y-121117466D01*
X163759633Y-121153646D01*
X163808792Y-121184535D01*
X163826444Y-121202187D01*
X163845084Y-121215730D01*
X163891165Y-121266908D01*
X163935465Y-121311208D01*
X163945654Y-121327424D01*
X163956946Y-121339965D01*
X163995573Y-121406870D01*
X164030775Y-121462893D01*
X164035170Y-121475453D01*
X164040535Y-121484746D01*
X164068010Y-121569305D01*
X164089942Y-121631983D01*
X164090773Y-121639363D01*
X164092195Y-121643738D01*
X164105076Y-121766306D01*
X164110000Y-121810000D01*
X164105076Y-121853697D01*
X164092195Y-121976261D01*
X164090773Y-121980635D01*
X164089942Y-121988017D01*
X164068005Y-122050707D01*
X164040535Y-122135253D01*
X164035171Y-122144543D01*
X164030775Y-122157107D01*
X163995566Y-122213140D01*
X163956946Y-122280034D01*
X163945656Y-122292572D01*
X163935465Y-122308792D01*
X163891155Y-122353101D01*
X163845084Y-122404269D01*
X163826448Y-122417808D01*
X163808792Y-122435465D01*
X163759623Y-122466359D01*
X163709835Y-122502533D01*
X163683134Y-122514421D01*
X163657107Y-122530775D01*
X163607107Y-122548270D01*
X163557110Y-122570531D01*
X163522414Y-122577905D01*
X163488017Y-122589942D01*
X163440715Y-122595271D01*
X163393588Y-122605289D01*
X163351811Y-122605289D01*
X163310000Y-122610000D01*
X163268189Y-122605289D01*
X163226412Y-122605289D01*
X163179284Y-122595271D01*
X163131983Y-122589942D01*
X163097586Y-122577906D01*
X163062889Y-122570531D01*
X163012887Y-122548268D01*
X162962893Y-122530775D01*
X162936868Y-122514422D01*
X162910164Y-122502533D01*
X162860369Y-122466355D01*
X162811208Y-122435465D01*
X162793554Y-122417811D01*
X162774915Y-122404269D01*
X162728833Y-122353090D01*
X162684535Y-122308792D01*
X162674345Y-122292575D01*
X162663053Y-122280034D01*
X162624420Y-122213120D01*
X162589225Y-122157107D01*
X162584830Y-122144547D01*
X162579464Y-122135253D01*
X162551980Y-122050667D01*
X162530058Y-121988017D01*
X162529226Y-121980639D01*
X162527804Y-121976261D01*
X162514908Y-121853565D01*
X162510000Y-121810000D01*
X162514908Y-121766438D01*
X162527804Y-121643738D01*
X162529226Y-121639358D01*
X162530058Y-121631983D01*
X162551975Y-121569345D01*
X162579464Y-121484746D01*
X162584831Y-121475449D01*
X162589225Y-121462893D01*
X162624413Y-121406890D01*
X162663053Y-121339965D01*
X162674347Y-121327421D01*
X162684535Y-121311208D01*
X162728826Y-121266916D01*
X162774917Y-121215728D01*
X162793559Y-121202183D01*
X162811208Y-121184535D01*
X162860354Y-121153654D01*
X162910162Y-121117467D01*
X162936873Y-121105574D01*
X162962893Y-121089225D01*
X163012877Y-121071734D01*
X163062889Y-121049468D01*
X163097592Y-121042091D01*
X163131983Y-121030058D01*
X163179281Y-121024728D01*
X163226412Y-121014711D01*
X163268189Y-121014711D01*
X163310000Y-121010000D01*
X163351811Y-121014711D01*
G37*
G36*
X158351811Y-119204711D02*
G01*
X158393588Y-119204711D01*
X158440718Y-119214728D01*
X158488017Y-119220058D01*
X158522408Y-119232092D01*
X158557110Y-119239468D01*
X158607117Y-119261733D01*
X158657107Y-119279225D01*
X158683128Y-119295575D01*
X158709835Y-119307466D01*
X158759633Y-119343646D01*
X158808792Y-119374535D01*
X158826444Y-119392187D01*
X158845084Y-119405730D01*
X158891165Y-119456908D01*
X158935465Y-119501208D01*
X158945654Y-119517424D01*
X158956946Y-119529965D01*
X158995573Y-119596870D01*
X159030775Y-119652893D01*
X159035170Y-119665453D01*
X159040535Y-119674746D01*
X159068010Y-119759305D01*
X159089942Y-119821983D01*
X159090773Y-119829363D01*
X159092195Y-119833738D01*
X159105076Y-119956306D01*
X159110000Y-120000000D01*
X159105076Y-120043697D01*
X159092195Y-120166261D01*
X159090773Y-120170635D01*
X159089942Y-120178017D01*
X159068005Y-120240707D01*
X159040535Y-120325253D01*
X159035171Y-120334543D01*
X159030775Y-120347107D01*
X158995566Y-120403140D01*
X158956946Y-120470034D01*
X158945656Y-120482572D01*
X158935465Y-120498792D01*
X158891155Y-120543101D01*
X158845084Y-120594269D01*
X158826448Y-120607808D01*
X158808792Y-120625465D01*
X158759623Y-120656359D01*
X158709835Y-120692533D01*
X158683134Y-120704421D01*
X158657107Y-120720775D01*
X158607107Y-120738270D01*
X158557110Y-120760531D01*
X158522414Y-120767905D01*
X158488017Y-120779942D01*
X158440715Y-120785271D01*
X158393588Y-120795289D01*
X158351811Y-120795289D01*
X158310000Y-120800000D01*
X158268189Y-120795289D01*
X158226412Y-120795289D01*
X158179284Y-120785271D01*
X158131983Y-120779942D01*
X158097586Y-120767906D01*
X158062889Y-120760531D01*
X158012887Y-120738268D01*
X157962893Y-120720775D01*
X157936868Y-120704422D01*
X157910164Y-120692533D01*
X157860369Y-120656355D01*
X157811208Y-120625465D01*
X157793554Y-120607811D01*
X157774915Y-120594269D01*
X157728833Y-120543090D01*
X157684535Y-120498792D01*
X157674345Y-120482575D01*
X157663053Y-120470034D01*
X157624420Y-120403120D01*
X157589225Y-120347107D01*
X157584830Y-120334547D01*
X157579464Y-120325253D01*
X157551980Y-120240667D01*
X157530058Y-120178017D01*
X157529226Y-120170639D01*
X157527804Y-120166261D01*
X157514908Y-120043565D01*
X157510000Y-120000000D01*
X157514908Y-119956438D01*
X157527804Y-119833738D01*
X157529226Y-119829358D01*
X157530058Y-119821983D01*
X157551975Y-119759345D01*
X157579464Y-119674746D01*
X157584831Y-119665449D01*
X157589225Y-119652893D01*
X157624413Y-119596890D01*
X157663053Y-119529965D01*
X157674347Y-119517421D01*
X157684535Y-119501208D01*
X157728826Y-119456916D01*
X157774917Y-119405728D01*
X157793559Y-119392183D01*
X157811208Y-119374535D01*
X157860354Y-119343654D01*
X157910162Y-119307467D01*
X157936873Y-119295574D01*
X157962893Y-119279225D01*
X158012877Y-119261734D01*
X158062889Y-119239468D01*
X158097592Y-119232091D01*
X158131983Y-119220058D01*
X158179281Y-119214728D01*
X158226412Y-119204711D01*
X158268189Y-119204711D01*
X158310000Y-119200000D01*
X158351811Y-119204711D01*
G37*
G36*
X147255090Y-118769215D02*
G01*
X147442683Y-118826120D01*
X147615570Y-118918530D01*
X147767107Y-119042893D01*
X147891470Y-119194430D01*
X147983880Y-119367317D01*
X148040785Y-119554910D01*
X148060000Y-119750000D01*
X148040785Y-119945090D01*
X147983880Y-120132683D01*
X147891470Y-120305570D01*
X147767107Y-120457107D01*
X147615570Y-120581470D01*
X147442683Y-120673880D01*
X147255090Y-120730785D01*
X147060000Y-120750000D01*
X146864910Y-120730785D01*
X146677317Y-120673880D01*
X146504430Y-120581470D01*
X146352893Y-120457107D01*
X146228530Y-120305570D01*
X146136120Y-120132683D01*
X146079215Y-119945090D01*
X146060000Y-119750000D01*
X146079215Y-119554910D01*
X146136120Y-119367317D01*
X146228530Y-119194430D01*
X146352893Y-119042893D01*
X146504430Y-118918530D01*
X146677317Y-118826120D01*
X146864910Y-118769215D01*
X147060000Y-118750000D01*
X147255090Y-118769215D01*
G37*
G36*
X153755090Y-118769215D02*
G01*
X153942683Y-118826120D01*
X154115570Y-118918530D01*
X154267107Y-119042893D01*
X154391470Y-119194430D01*
X154483880Y-119367317D01*
X154540785Y-119554910D01*
X154560000Y-119750000D01*
X154540785Y-119945090D01*
X154483880Y-120132683D01*
X154391470Y-120305570D01*
X154267107Y-120457107D01*
X154115570Y-120581470D01*
X153942683Y-120673880D01*
X153755090Y-120730785D01*
X153560000Y-120750000D01*
X153364910Y-120730785D01*
X153177317Y-120673880D01*
X153004430Y-120581470D01*
X152852893Y-120457107D01*
X152728530Y-120305570D01*
X152636120Y-120132683D01*
X152579215Y-119945090D01*
X152560000Y-119750000D01*
X152579215Y-119554910D01*
X152636120Y-119367317D01*
X152728530Y-119194430D01*
X152852893Y-119042893D01*
X153004430Y-118918530D01*
X153177317Y-118826120D01*
X153364910Y-118769215D01*
X153560000Y-118750000D01*
X153755090Y-118769215D01*
G37*
G36*
X126301811Y-117944711D02*
G01*
X126343588Y-117944711D01*
X126390718Y-117954728D01*
X126438017Y-117960058D01*
X126472408Y-117972092D01*
X126507110Y-117979468D01*
X126557117Y-118001733D01*
X126607107Y-118019225D01*
X126633128Y-118035575D01*
X126659835Y-118047466D01*
X126709633Y-118083646D01*
X126758792Y-118114535D01*
X126776444Y-118132187D01*
X126795084Y-118145730D01*
X126841165Y-118196908D01*
X126885465Y-118241208D01*
X126895654Y-118257424D01*
X126906946Y-118269965D01*
X126945573Y-118336870D01*
X126980775Y-118392893D01*
X126985170Y-118405453D01*
X126990535Y-118414746D01*
X127018010Y-118499305D01*
X127039942Y-118561983D01*
X127040773Y-118569363D01*
X127042195Y-118573738D01*
X127055076Y-118696306D01*
X127060000Y-118740000D01*
X127055076Y-118783697D01*
X127042195Y-118906261D01*
X127040773Y-118910635D01*
X127039942Y-118918017D01*
X127018005Y-118980707D01*
X126990535Y-119065253D01*
X126985171Y-119074543D01*
X126980775Y-119087107D01*
X126945566Y-119143140D01*
X126906946Y-119210034D01*
X126895656Y-119222572D01*
X126885465Y-119238792D01*
X126841155Y-119283101D01*
X126795084Y-119334269D01*
X126776448Y-119347808D01*
X126758792Y-119365465D01*
X126709623Y-119396359D01*
X126659835Y-119432533D01*
X126633134Y-119444421D01*
X126607107Y-119460775D01*
X126557107Y-119478270D01*
X126507110Y-119500531D01*
X126472414Y-119507905D01*
X126438017Y-119519942D01*
X126390715Y-119525271D01*
X126343588Y-119535289D01*
X126301811Y-119535289D01*
X126260000Y-119540000D01*
X126218189Y-119535289D01*
X126176412Y-119535289D01*
X126129284Y-119525271D01*
X126081983Y-119519942D01*
X126047586Y-119507906D01*
X126012889Y-119500531D01*
X125962887Y-119478268D01*
X125912893Y-119460775D01*
X125886868Y-119444422D01*
X125860164Y-119432533D01*
X125810369Y-119396355D01*
X125761208Y-119365465D01*
X125743554Y-119347811D01*
X125724915Y-119334269D01*
X125678833Y-119283090D01*
X125634535Y-119238792D01*
X125624345Y-119222575D01*
X125613053Y-119210034D01*
X125574420Y-119143120D01*
X125539225Y-119087107D01*
X125534830Y-119074547D01*
X125529464Y-119065253D01*
X125501980Y-118980667D01*
X125480058Y-118918017D01*
X125479226Y-118910639D01*
X125477804Y-118906261D01*
X125464908Y-118783565D01*
X125460000Y-118740000D01*
X125464908Y-118696438D01*
X125477804Y-118573738D01*
X125479226Y-118569358D01*
X125480058Y-118561983D01*
X125501975Y-118499345D01*
X125529464Y-118414746D01*
X125534831Y-118405449D01*
X125539225Y-118392893D01*
X125574413Y-118336890D01*
X125613053Y-118269965D01*
X125624347Y-118257421D01*
X125634535Y-118241208D01*
X125678826Y-118196916D01*
X125724917Y-118145728D01*
X125743559Y-118132183D01*
X125761208Y-118114535D01*
X125810354Y-118083654D01*
X125860162Y-118047467D01*
X125886873Y-118035574D01*
X125912893Y-118019225D01*
X125962877Y-118001734D01*
X126012889Y-117979468D01*
X126047592Y-117972091D01*
X126081983Y-117960058D01*
X126129281Y-117954728D01*
X126176412Y-117944711D01*
X126218189Y-117944711D01*
X126260000Y-117940000D01*
X126301811Y-117944711D01*
G37*
G36*
X142300000Y-119540000D02*
G01*
X140700000Y-119540000D01*
X140700000Y-117940000D01*
X142300000Y-117940000D01*
X142300000Y-119540000D01*
G37*
G36*
X126301811Y-115404711D02*
G01*
X126343588Y-115404711D01*
X126390718Y-115414728D01*
X126438017Y-115420058D01*
X126472408Y-115432092D01*
X126507110Y-115439468D01*
X126557117Y-115461733D01*
X126607107Y-115479225D01*
X126633128Y-115495575D01*
X126659835Y-115507466D01*
X126709633Y-115543646D01*
X126758792Y-115574535D01*
X126776444Y-115592187D01*
X126795084Y-115605730D01*
X126841165Y-115656908D01*
X126885465Y-115701208D01*
X126895654Y-115717424D01*
X126906946Y-115729965D01*
X126945573Y-115796870D01*
X126980775Y-115852893D01*
X126985170Y-115865453D01*
X126990535Y-115874746D01*
X127018010Y-115959305D01*
X127039942Y-116021983D01*
X127040773Y-116029363D01*
X127042195Y-116033738D01*
X127055076Y-116156306D01*
X127060000Y-116200000D01*
X127055076Y-116243697D01*
X127042195Y-116366261D01*
X127040773Y-116370635D01*
X127039942Y-116378017D01*
X127018005Y-116440707D01*
X126990535Y-116525253D01*
X126985171Y-116534543D01*
X126980775Y-116547107D01*
X126945566Y-116603140D01*
X126906946Y-116670034D01*
X126895656Y-116682572D01*
X126885465Y-116698792D01*
X126841155Y-116743101D01*
X126795084Y-116794269D01*
X126776448Y-116807808D01*
X126758792Y-116825465D01*
X126709623Y-116856359D01*
X126659835Y-116892533D01*
X126633134Y-116904421D01*
X126607107Y-116920775D01*
X126557107Y-116938270D01*
X126507110Y-116960531D01*
X126472414Y-116967905D01*
X126438017Y-116979942D01*
X126390715Y-116985271D01*
X126343588Y-116995289D01*
X126301811Y-116995289D01*
X126260000Y-117000000D01*
X126218189Y-116995289D01*
X126176412Y-116995289D01*
X126129284Y-116985271D01*
X126081983Y-116979942D01*
X126047586Y-116967906D01*
X126012889Y-116960531D01*
X125962887Y-116938268D01*
X125912893Y-116920775D01*
X125886868Y-116904422D01*
X125860164Y-116892533D01*
X125810369Y-116856355D01*
X125761208Y-116825465D01*
X125743554Y-116807811D01*
X125724915Y-116794269D01*
X125678833Y-116743090D01*
X125634535Y-116698792D01*
X125624345Y-116682575D01*
X125613053Y-116670034D01*
X125574420Y-116603120D01*
X125539225Y-116547107D01*
X125534830Y-116534547D01*
X125529464Y-116525253D01*
X125501980Y-116440667D01*
X125480058Y-116378017D01*
X125479226Y-116370639D01*
X125477804Y-116366261D01*
X125464908Y-116243565D01*
X125460000Y-116200000D01*
X125464908Y-116156438D01*
X125477804Y-116033738D01*
X125479226Y-116029358D01*
X125480058Y-116021983D01*
X125501975Y-115959345D01*
X125529464Y-115874746D01*
X125534831Y-115865449D01*
X125539225Y-115852893D01*
X125574413Y-115796890D01*
X125613053Y-115729965D01*
X125624347Y-115717421D01*
X125634535Y-115701208D01*
X125678826Y-115656916D01*
X125724917Y-115605728D01*
X125743559Y-115592183D01*
X125761208Y-115574535D01*
X125810354Y-115543654D01*
X125860162Y-115507467D01*
X125886873Y-115495574D01*
X125912893Y-115479225D01*
X125962877Y-115461734D01*
X126012889Y-115439468D01*
X126047592Y-115432091D01*
X126081983Y-115420058D01*
X126129281Y-115414728D01*
X126176412Y-115404711D01*
X126218189Y-115404711D01*
X126260000Y-115400000D01*
X126301811Y-115404711D01*
G37*
G36*
X141541811Y-115404711D02*
G01*
X141583588Y-115404711D01*
X141630718Y-115414728D01*
X141678017Y-115420058D01*
X141712408Y-115432092D01*
X141747110Y-115439468D01*
X141797117Y-115461733D01*
X141847107Y-115479225D01*
X141873128Y-115495575D01*
X141899835Y-115507466D01*
X141949633Y-115543646D01*
X141998792Y-115574535D01*
X142016444Y-115592187D01*
X142035084Y-115605730D01*
X142081165Y-115656908D01*
X142125465Y-115701208D01*
X142135654Y-115717424D01*
X142146946Y-115729965D01*
X142185573Y-115796870D01*
X142220775Y-115852893D01*
X142225170Y-115865453D01*
X142230535Y-115874746D01*
X142258010Y-115959305D01*
X142279942Y-116021983D01*
X142280773Y-116029363D01*
X142282195Y-116033738D01*
X142295076Y-116156306D01*
X142300000Y-116200000D01*
X142295076Y-116243697D01*
X142282195Y-116366261D01*
X142280773Y-116370635D01*
X142279942Y-116378017D01*
X142258005Y-116440707D01*
X142230535Y-116525253D01*
X142225171Y-116534543D01*
X142220775Y-116547107D01*
X142185566Y-116603140D01*
X142146946Y-116670034D01*
X142135656Y-116682572D01*
X142125465Y-116698792D01*
X142081155Y-116743101D01*
X142035084Y-116794269D01*
X142016448Y-116807808D01*
X141998792Y-116825465D01*
X141949623Y-116856359D01*
X141899835Y-116892533D01*
X141873134Y-116904421D01*
X141847107Y-116920775D01*
X141797107Y-116938270D01*
X141747110Y-116960531D01*
X141712414Y-116967905D01*
X141678017Y-116979942D01*
X141630715Y-116985271D01*
X141583588Y-116995289D01*
X141541811Y-116995289D01*
X141500000Y-117000000D01*
X141458189Y-116995289D01*
X141416412Y-116995289D01*
X141369284Y-116985271D01*
X141321983Y-116979942D01*
X141287586Y-116967906D01*
X141252889Y-116960531D01*
X141202887Y-116938268D01*
X141152893Y-116920775D01*
X141126868Y-116904422D01*
X141100164Y-116892533D01*
X141050369Y-116856355D01*
X141001208Y-116825465D01*
X140983554Y-116807811D01*
X140964915Y-116794269D01*
X140918833Y-116743090D01*
X140874535Y-116698792D01*
X140864345Y-116682575D01*
X140853053Y-116670034D01*
X140814420Y-116603120D01*
X140779225Y-116547107D01*
X140774830Y-116534547D01*
X140769464Y-116525253D01*
X140741980Y-116440667D01*
X140720058Y-116378017D01*
X140719226Y-116370639D01*
X140717804Y-116366261D01*
X140704908Y-116243565D01*
X140700000Y-116200000D01*
X140704908Y-116156438D01*
X140717804Y-116033738D01*
X140719226Y-116029358D01*
X140720058Y-116021983D01*
X140741975Y-115959345D01*
X140769464Y-115874746D01*
X140774831Y-115865449D01*
X140779225Y-115852893D01*
X140814413Y-115796890D01*
X140853053Y-115729965D01*
X140864347Y-115717421D01*
X140874535Y-115701208D01*
X140918826Y-115656916D01*
X140964917Y-115605728D01*
X140983559Y-115592183D01*
X141001208Y-115574535D01*
X141050354Y-115543654D01*
X141100162Y-115507467D01*
X141126873Y-115495574D01*
X141152893Y-115479225D01*
X141202877Y-115461734D01*
X141252889Y-115439468D01*
X141287592Y-115432091D01*
X141321983Y-115420058D01*
X141369281Y-115414728D01*
X141416412Y-115404711D01*
X141458189Y-115404711D01*
X141500000Y-115400000D01*
X141541811Y-115404711D01*
G37*
G36*
X147255090Y-114269215D02*
G01*
X147442683Y-114326120D01*
X147615570Y-114418530D01*
X147767107Y-114542893D01*
X147891470Y-114694430D01*
X147983880Y-114867317D01*
X148040785Y-115054910D01*
X148060000Y-115250000D01*
X148040785Y-115445090D01*
X147983880Y-115632683D01*
X147891470Y-115805570D01*
X147767107Y-115957107D01*
X147615570Y-116081470D01*
X147442683Y-116173880D01*
X147255090Y-116230785D01*
X147060000Y-116250000D01*
X146864910Y-116230785D01*
X146677317Y-116173880D01*
X146504430Y-116081470D01*
X146352893Y-115957107D01*
X146228530Y-115805570D01*
X146136120Y-115632683D01*
X146079215Y-115445090D01*
X146060000Y-115250000D01*
X146079215Y-115054910D01*
X146136120Y-114867317D01*
X146228530Y-114694430D01*
X146352893Y-114542893D01*
X146504430Y-114418530D01*
X146677317Y-114326120D01*
X146864910Y-114269215D01*
X147060000Y-114250000D01*
X147255090Y-114269215D01*
G37*
G36*
X153755090Y-114269215D02*
G01*
X153942683Y-114326120D01*
X154115570Y-114418530D01*
X154267107Y-114542893D01*
X154391470Y-114694430D01*
X154483880Y-114867317D01*
X154540785Y-115054910D01*
X154560000Y-115250000D01*
X154540785Y-115445090D01*
X154483880Y-115632683D01*
X154391470Y-115805570D01*
X154267107Y-115957107D01*
X154115570Y-116081470D01*
X153942683Y-116173880D01*
X153755090Y-116230785D01*
X153560000Y-116250000D01*
X153364910Y-116230785D01*
X153177317Y-116173880D01*
X153004430Y-116081470D01*
X152852893Y-115957107D01*
X152728530Y-115805570D01*
X152636120Y-115632683D01*
X152579215Y-115445090D01*
X152560000Y-115250000D01*
X152579215Y-115054910D01*
X152636120Y-114867317D01*
X152728530Y-114694430D01*
X152852893Y-114542893D01*
X153004430Y-114418530D01*
X153177317Y-114326120D01*
X153364910Y-114269215D01*
X153560000Y-114250000D01*
X153755090Y-114269215D01*
G37*
G36*
X158351811Y-114204711D02*
G01*
X158393588Y-114204711D01*
X158440718Y-114214728D01*
X158488017Y-114220058D01*
X158522408Y-114232092D01*
X158557110Y-114239468D01*
X158607117Y-114261733D01*
X158657107Y-114279225D01*
X158683128Y-114295575D01*
X158709835Y-114307466D01*
X158759633Y-114343646D01*
X158808792Y-114374535D01*
X158826444Y-114392187D01*
X158845084Y-114405730D01*
X158891165Y-114456908D01*
X158935465Y-114501208D01*
X158945654Y-114517424D01*
X158956946Y-114529965D01*
X158995573Y-114596870D01*
X159030775Y-114652893D01*
X159035170Y-114665453D01*
X159040535Y-114674746D01*
X159068010Y-114759305D01*
X159089942Y-114821983D01*
X159090773Y-114829363D01*
X159092195Y-114833738D01*
X159105076Y-114956306D01*
X159110000Y-115000000D01*
X159105076Y-115043697D01*
X159092195Y-115166261D01*
X159090773Y-115170635D01*
X159089942Y-115178017D01*
X159068005Y-115240707D01*
X159040535Y-115325253D01*
X159035171Y-115334543D01*
X159030775Y-115347107D01*
X158995566Y-115403140D01*
X158956946Y-115470034D01*
X158945656Y-115482572D01*
X158935465Y-115498792D01*
X158891155Y-115543101D01*
X158845084Y-115594269D01*
X158826448Y-115607808D01*
X158808792Y-115625465D01*
X158759623Y-115656359D01*
X158709835Y-115692533D01*
X158683134Y-115704421D01*
X158657107Y-115720775D01*
X158607107Y-115738270D01*
X158557110Y-115760531D01*
X158522414Y-115767905D01*
X158488017Y-115779942D01*
X158440715Y-115785271D01*
X158393588Y-115795289D01*
X158351811Y-115795289D01*
X158310000Y-115800000D01*
X158268189Y-115795289D01*
X158226412Y-115795289D01*
X158179284Y-115785271D01*
X158131983Y-115779942D01*
X158097586Y-115767906D01*
X158062889Y-115760531D01*
X158012887Y-115738268D01*
X157962893Y-115720775D01*
X157936868Y-115704422D01*
X157910164Y-115692533D01*
X157860369Y-115656355D01*
X157811208Y-115625465D01*
X157793554Y-115607811D01*
X157774915Y-115594269D01*
X157728833Y-115543090D01*
X157684535Y-115498792D01*
X157674345Y-115482575D01*
X157663053Y-115470034D01*
X157624420Y-115403120D01*
X157589225Y-115347107D01*
X157584830Y-115334547D01*
X157579464Y-115325253D01*
X157551980Y-115240667D01*
X157530058Y-115178017D01*
X157529226Y-115170639D01*
X157527804Y-115166261D01*
X157514908Y-115043565D01*
X157510000Y-115000000D01*
X157514908Y-114956438D01*
X157527804Y-114833738D01*
X157529226Y-114829358D01*
X157530058Y-114821983D01*
X157551975Y-114759345D01*
X157579464Y-114674746D01*
X157584831Y-114665449D01*
X157589225Y-114652893D01*
X157624413Y-114596890D01*
X157663053Y-114529965D01*
X157674347Y-114517421D01*
X157684535Y-114501208D01*
X157728826Y-114456916D01*
X157774917Y-114405728D01*
X157793559Y-114392183D01*
X157811208Y-114374535D01*
X157860354Y-114343654D01*
X157910162Y-114307467D01*
X157936873Y-114295574D01*
X157962893Y-114279225D01*
X158012877Y-114261734D01*
X158062889Y-114239468D01*
X158097592Y-114232091D01*
X158131983Y-114220058D01*
X158179281Y-114214728D01*
X158226412Y-114204711D01*
X158268189Y-114204711D01*
X158310000Y-114200000D01*
X158351811Y-114204711D01*
G37*
G36*
X163351811Y-113394711D02*
G01*
X163393588Y-113394711D01*
X163440718Y-113404728D01*
X163488017Y-113410058D01*
X163522408Y-113422092D01*
X163557110Y-113429468D01*
X163607117Y-113451733D01*
X163657107Y-113469225D01*
X163683128Y-113485575D01*
X163709835Y-113497466D01*
X163759633Y-113533646D01*
X163808792Y-113564535D01*
X163826444Y-113582187D01*
X163845084Y-113595730D01*
X163891165Y-113646908D01*
X163935465Y-113691208D01*
X163945654Y-113707424D01*
X163956946Y-113719965D01*
X163995573Y-113786870D01*
X164030775Y-113842893D01*
X164035170Y-113855453D01*
X164040535Y-113864746D01*
X164068010Y-113949305D01*
X164089942Y-114011983D01*
X164090773Y-114019363D01*
X164092195Y-114023738D01*
X164105076Y-114146306D01*
X164110000Y-114190000D01*
X164105076Y-114233697D01*
X164092195Y-114356261D01*
X164090773Y-114360635D01*
X164089942Y-114368017D01*
X164068005Y-114430707D01*
X164040535Y-114515253D01*
X164035171Y-114524543D01*
X164030775Y-114537107D01*
X163995566Y-114593140D01*
X163956946Y-114660034D01*
X163945656Y-114672572D01*
X163935465Y-114688792D01*
X163891155Y-114733101D01*
X163845084Y-114784269D01*
X163826448Y-114797808D01*
X163808792Y-114815465D01*
X163759623Y-114846359D01*
X163709835Y-114882533D01*
X163683134Y-114894421D01*
X163657107Y-114910775D01*
X163607107Y-114928270D01*
X163557110Y-114950531D01*
X163522414Y-114957905D01*
X163488017Y-114969942D01*
X163440715Y-114975271D01*
X163393588Y-114985289D01*
X163351811Y-114985289D01*
X163310000Y-114990000D01*
X163268189Y-114985289D01*
X163226412Y-114985289D01*
X163179284Y-114975271D01*
X163131983Y-114969942D01*
X163097586Y-114957906D01*
X163062889Y-114950531D01*
X163012887Y-114928268D01*
X162962893Y-114910775D01*
X162936868Y-114894422D01*
X162910164Y-114882533D01*
X162860369Y-114846355D01*
X162811208Y-114815465D01*
X162793554Y-114797811D01*
X162774915Y-114784269D01*
X162728833Y-114733090D01*
X162684535Y-114688792D01*
X162674345Y-114672575D01*
X162663053Y-114660034D01*
X162624420Y-114593120D01*
X162589225Y-114537107D01*
X162584830Y-114524547D01*
X162579464Y-114515253D01*
X162551980Y-114430667D01*
X162530058Y-114368017D01*
X162529226Y-114360639D01*
X162527804Y-114356261D01*
X162514908Y-114233565D01*
X162510000Y-114190000D01*
X162514908Y-114146438D01*
X162527804Y-114023738D01*
X162529226Y-114019358D01*
X162530058Y-114011983D01*
X162551975Y-113949345D01*
X162579464Y-113864746D01*
X162584831Y-113855449D01*
X162589225Y-113842893D01*
X162624413Y-113786890D01*
X162663053Y-113719965D01*
X162674347Y-113707421D01*
X162684535Y-113691208D01*
X162728826Y-113646916D01*
X162774917Y-113595728D01*
X162793559Y-113582183D01*
X162811208Y-113564535D01*
X162860354Y-113533654D01*
X162910162Y-113497467D01*
X162936873Y-113485574D01*
X162962893Y-113469225D01*
X163012877Y-113451734D01*
X163062889Y-113429468D01*
X163097592Y-113422091D01*
X163131983Y-113410058D01*
X163179281Y-113404728D01*
X163226412Y-113394711D01*
X163268189Y-113394711D01*
X163310000Y-113390000D01*
X163351811Y-113394711D01*
G37*
G36*
X126301811Y-112864711D02*
G01*
X126343588Y-112864711D01*
X126390718Y-112874728D01*
X126438017Y-112880058D01*
X126472408Y-112892092D01*
X126507110Y-112899468D01*
X126557117Y-112921733D01*
X126607107Y-112939225D01*
X126633128Y-112955575D01*
X126659835Y-112967466D01*
X126709633Y-113003646D01*
X126758792Y-113034535D01*
X126776444Y-113052187D01*
X126795084Y-113065730D01*
X126841165Y-113116908D01*
X126885465Y-113161208D01*
X126895654Y-113177424D01*
X126906946Y-113189965D01*
X126945573Y-113256870D01*
X126980775Y-113312893D01*
X126985170Y-113325453D01*
X126990535Y-113334746D01*
X127018010Y-113419305D01*
X127039942Y-113481983D01*
X127040773Y-113489363D01*
X127042195Y-113493738D01*
X127055076Y-113616306D01*
X127060000Y-113660000D01*
X127055076Y-113703697D01*
X127042195Y-113826261D01*
X127040773Y-113830635D01*
X127039942Y-113838017D01*
X127018005Y-113900707D01*
X126990535Y-113985253D01*
X126985171Y-113994543D01*
X126980775Y-114007107D01*
X126945566Y-114063140D01*
X126906946Y-114130034D01*
X126895656Y-114142572D01*
X126885465Y-114158792D01*
X126841155Y-114203101D01*
X126795084Y-114254269D01*
X126776448Y-114267808D01*
X126758792Y-114285465D01*
X126709623Y-114316359D01*
X126659835Y-114352533D01*
X126633134Y-114364421D01*
X126607107Y-114380775D01*
X126557107Y-114398270D01*
X126507110Y-114420531D01*
X126472414Y-114427905D01*
X126438017Y-114439942D01*
X126390715Y-114445271D01*
X126343588Y-114455289D01*
X126301811Y-114455289D01*
X126260000Y-114460000D01*
X126218189Y-114455289D01*
X126176412Y-114455289D01*
X126129284Y-114445271D01*
X126081983Y-114439942D01*
X126047586Y-114427906D01*
X126012889Y-114420531D01*
X125962887Y-114398268D01*
X125912893Y-114380775D01*
X125886868Y-114364422D01*
X125860164Y-114352533D01*
X125810369Y-114316355D01*
X125761208Y-114285465D01*
X125743554Y-114267811D01*
X125724915Y-114254269D01*
X125678833Y-114203090D01*
X125634535Y-114158792D01*
X125624345Y-114142575D01*
X125613053Y-114130034D01*
X125574420Y-114063120D01*
X125539225Y-114007107D01*
X125534830Y-113994547D01*
X125529464Y-113985253D01*
X125501980Y-113900667D01*
X125480058Y-113838017D01*
X125479226Y-113830639D01*
X125477804Y-113826261D01*
X125464908Y-113703565D01*
X125460000Y-113660000D01*
X125464908Y-113616438D01*
X125477804Y-113493738D01*
X125479226Y-113489358D01*
X125480058Y-113481983D01*
X125501975Y-113419345D01*
X125529464Y-113334746D01*
X125534831Y-113325449D01*
X125539225Y-113312893D01*
X125574413Y-113256890D01*
X125613053Y-113189965D01*
X125624347Y-113177421D01*
X125634535Y-113161208D01*
X125678826Y-113116916D01*
X125724917Y-113065728D01*
X125743559Y-113052183D01*
X125761208Y-113034535D01*
X125810354Y-113003654D01*
X125860162Y-112967467D01*
X125886873Y-112955574D01*
X125912893Y-112939225D01*
X125962877Y-112921734D01*
X126012889Y-112899468D01*
X126047592Y-112892091D01*
X126081983Y-112880058D01*
X126129281Y-112874728D01*
X126176412Y-112864711D01*
X126218189Y-112864711D01*
X126260000Y-112860000D01*
X126301811Y-112864711D01*
G37*
G36*
X141541811Y-112864711D02*
G01*
X141583588Y-112864711D01*
X141630718Y-112874728D01*
X141678017Y-112880058D01*
X141712408Y-112892092D01*
X141747110Y-112899468D01*
X141797117Y-112921733D01*
X141847107Y-112939225D01*
X141873128Y-112955575D01*
X141899835Y-112967466D01*
X141949633Y-113003646D01*
X141998792Y-113034535D01*
X142016444Y-113052187D01*
X142035084Y-113065730D01*
X142081165Y-113116908D01*
X142125465Y-113161208D01*
X142135654Y-113177424D01*
X142146946Y-113189965D01*
X142185573Y-113256870D01*
X142220775Y-113312893D01*
X142225170Y-113325453D01*
X142230535Y-113334746D01*
X142258010Y-113419305D01*
X142279942Y-113481983D01*
X142280773Y-113489363D01*
X142282195Y-113493738D01*
X142295076Y-113616306D01*
X142300000Y-113660000D01*
X142295076Y-113703697D01*
X142282195Y-113826261D01*
X142280773Y-113830635D01*
X142279942Y-113838017D01*
X142258005Y-113900707D01*
X142230535Y-113985253D01*
X142225171Y-113994543D01*
X142220775Y-114007107D01*
X142185566Y-114063140D01*
X142146946Y-114130034D01*
X142135656Y-114142572D01*
X142125465Y-114158792D01*
X142081155Y-114203101D01*
X142035084Y-114254269D01*
X142016448Y-114267808D01*
X141998792Y-114285465D01*
X141949623Y-114316359D01*
X141899835Y-114352533D01*
X141873134Y-114364421D01*
X141847107Y-114380775D01*
X141797107Y-114398270D01*
X141747110Y-114420531D01*
X141712414Y-114427905D01*
X141678017Y-114439942D01*
X141630715Y-114445271D01*
X141583588Y-114455289D01*
X141541811Y-114455289D01*
X141500000Y-114460000D01*
X141458189Y-114455289D01*
X141416412Y-114455289D01*
X141369284Y-114445271D01*
X141321983Y-114439942D01*
X141287586Y-114427906D01*
X141252889Y-114420531D01*
X141202887Y-114398268D01*
X141152893Y-114380775D01*
X141126868Y-114364422D01*
X141100164Y-114352533D01*
X141050369Y-114316355D01*
X141001208Y-114285465D01*
X140983554Y-114267811D01*
X140964915Y-114254269D01*
X140918833Y-114203090D01*
X140874535Y-114158792D01*
X140864345Y-114142575D01*
X140853053Y-114130034D01*
X140814420Y-114063120D01*
X140779225Y-114007107D01*
X140774830Y-113994547D01*
X140769464Y-113985253D01*
X140741980Y-113900667D01*
X140720058Y-113838017D01*
X140719226Y-113830639D01*
X140717804Y-113826261D01*
X140704908Y-113703565D01*
X140700000Y-113660000D01*
X140704908Y-113616438D01*
X140717804Y-113493738D01*
X140719226Y-113489358D01*
X140720058Y-113481983D01*
X140741975Y-113419345D01*
X140769464Y-113334746D01*
X140774831Y-113325449D01*
X140779225Y-113312893D01*
X140814413Y-113256890D01*
X140853053Y-113189965D01*
X140864347Y-113177421D01*
X140874535Y-113161208D01*
X140918826Y-113116916D01*
X140964917Y-113065728D01*
X140983559Y-113052183D01*
X141001208Y-113034535D01*
X141050354Y-113003654D01*
X141100162Y-112967467D01*
X141126873Y-112955574D01*
X141152893Y-112939225D01*
X141202877Y-112921734D01*
X141252889Y-112899468D01*
X141287592Y-112892091D01*
X141321983Y-112880058D01*
X141369281Y-112874728D01*
X141416412Y-112864711D01*
X141458189Y-112864711D01*
X141500000Y-112860000D01*
X141541811Y-112864711D01*
G37*
G36*
X126301811Y-110324711D02*
G01*
X126343588Y-110324711D01*
X126390718Y-110334728D01*
X126438017Y-110340058D01*
X126472408Y-110352092D01*
X126507110Y-110359468D01*
X126557117Y-110381733D01*
X126607107Y-110399225D01*
X126633128Y-110415575D01*
X126659835Y-110427466D01*
X126709633Y-110463646D01*
X126758792Y-110494535D01*
X126776444Y-110512187D01*
X126795084Y-110525730D01*
X126841165Y-110576908D01*
X126885465Y-110621208D01*
X126895654Y-110637424D01*
X126906946Y-110649965D01*
X126945573Y-110716870D01*
X126980775Y-110772893D01*
X126985170Y-110785453D01*
X126990535Y-110794746D01*
X127018010Y-110879305D01*
X127039942Y-110941983D01*
X127040773Y-110949363D01*
X127042195Y-110953738D01*
X127055076Y-111076306D01*
X127060000Y-111120000D01*
X127055076Y-111163697D01*
X127042195Y-111286261D01*
X127040773Y-111290635D01*
X127039942Y-111298017D01*
X127018005Y-111360707D01*
X126990535Y-111445253D01*
X126985171Y-111454543D01*
X126980775Y-111467107D01*
X126945566Y-111523140D01*
X126906946Y-111590034D01*
X126895656Y-111602572D01*
X126885465Y-111618792D01*
X126841155Y-111663101D01*
X126795084Y-111714269D01*
X126776448Y-111727808D01*
X126758792Y-111745465D01*
X126709623Y-111776359D01*
X126659835Y-111812533D01*
X126633134Y-111824421D01*
X126607107Y-111840775D01*
X126557107Y-111858270D01*
X126507110Y-111880531D01*
X126472414Y-111887905D01*
X126438017Y-111899942D01*
X126390715Y-111905271D01*
X126343588Y-111915289D01*
X126301811Y-111915289D01*
X126260000Y-111920000D01*
X126218189Y-111915289D01*
X126176412Y-111915289D01*
X126129284Y-111905271D01*
X126081983Y-111899942D01*
X126047586Y-111887906D01*
X126012889Y-111880531D01*
X125962887Y-111858268D01*
X125912893Y-111840775D01*
X125886868Y-111824422D01*
X125860164Y-111812533D01*
X125810369Y-111776355D01*
X125761208Y-111745465D01*
X125743554Y-111727811D01*
X125724915Y-111714269D01*
X125678833Y-111663090D01*
X125634535Y-111618792D01*
X125624345Y-111602575D01*
X125613053Y-111590034D01*
X125574420Y-111523120D01*
X125539225Y-111467107D01*
X125534830Y-111454547D01*
X125529464Y-111445253D01*
X125501980Y-111360667D01*
X125480058Y-111298017D01*
X125479226Y-111290639D01*
X125477804Y-111286261D01*
X125464908Y-111163565D01*
X125460000Y-111120000D01*
X125464908Y-111076438D01*
X125477804Y-110953738D01*
X125479226Y-110949358D01*
X125480058Y-110941983D01*
X125501975Y-110879345D01*
X125529464Y-110794746D01*
X125534831Y-110785449D01*
X125539225Y-110772893D01*
X125574413Y-110716890D01*
X125613053Y-110649965D01*
X125624347Y-110637421D01*
X125634535Y-110621208D01*
X125678826Y-110576916D01*
X125724917Y-110525728D01*
X125743559Y-110512183D01*
X125761208Y-110494535D01*
X125810354Y-110463654D01*
X125860162Y-110427467D01*
X125886873Y-110415574D01*
X125912893Y-110399225D01*
X125962877Y-110381734D01*
X126012889Y-110359468D01*
X126047592Y-110352091D01*
X126081983Y-110340058D01*
X126129281Y-110334728D01*
X126176412Y-110324711D01*
X126218189Y-110324711D01*
X126260000Y-110320000D01*
X126301811Y-110324711D01*
G37*
G36*
X141541811Y-110324711D02*
G01*
X141583588Y-110324711D01*
X141630718Y-110334728D01*
X141678017Y-110340058D01*
X141712408Y-110352092D01*
X141747110Y-110359468D01*
X141797117Y-110381733D01*
X141847107Y-110399225D01*
X141873128Y-110415575D01*
X141899835Y-110427466D01*
X141949633Y-110463646D01*
X141998792Y-110494535D01*
X142016444Y-110512187D01*
X142035084Y-110525730D01*
X142081165Y-110576908D01*
X142125465Y-110621208D01*
X142135654Y-110637424D01*
X142146946Y-110649965D01*
X142185573Y-110716870D01*
X142220775Y-110772893D01*
X142225170Y-110785453D01*
X142230535Y-110794746D01*
X142258010Y-110879305D01*
X142279942Y-110941983D01*
X142280773Y-110949363D01*
X142282195Y-110953738D01*
X142295076Y-111076306D01*
X142300000Y-111120000D01*
X142295076Y-111163697D01*
X142282195Y-111286261D01*
X142280773Y-111290635D01*
X142279942Y-111298017D01*
X142258005Y-111360707D01*
X142230535Y-111445253D01*
X142225171Y-111454543D01*
X142220775Y-111467107D01*
X142185566Y-111523140D01*
X142146946Y-111590034D01*
X142135656Y-111602572D01*
X142125465Y-111618792D01*
X142081155Y-111663101D01*
X142035084Y-111714269D01*
X142016448Y-111727808D01*
X141998792Y-111745465D01*
X141949623Y-111776359D01*
X141899835Y-111812533D01*
X141873134Y-111824421D01*
X141847107Y-111840775D01*
X141797107Y-111858270D01*
X141747110Y-111880531D01*
X141712414Y-111887905D01*
X141678017Y-111899942D01*
X141630715Y-111905271D01*
X141583588Y-111915289D01*
X141541811Y-111915289D01*
X141500000Y-111920000D01*
X141458189Y-111915289D01*
X141416412Y-111915289D01*
X141369284Y-111905271D01*
X141321983Y-111899942D01*
X141287586Y-111887906D01*
X141252889Y-111880531D01*
X141202887Y-111858268D01*
X141152893Y-111840775D01*
X141126868Y-111824422D01*
X141100164Y-111812533D01*
X141050369Y-111776355D01*
X141001208Y-111745465D01*
X140983554Y-111727811D01*
X140964915Y-111714269D01*
X140918833Y-111663090D01*
X140874535Y-111618792D01*
X140864345Y-111602575D01*
X140853053Y-111590034D01*
X140814420Y-111523120D01*
X140779225Y-111467107D01*
X140774830Y-111454547D01*
X140769464Y-111445253D01*
X140741980Y-111360667D01*
X140720058Y-111298017D01*
X140719226Y-111290639D01*
X140717804Y-111286261D01*
X140704908Y-111163565D01*
X140700000Y-111120000D01*
X140704908Y-111076438D01*
X140717804Y-110953738D01*
X140719226Y-110949358D01*
X140720058Y-110941983D01*
X140741975Y-110879345D01*
X140769464Y-110794746D01*
X140774831Y-110785449D01*
X140779225Y-110772893D01*
X140814413Y-110716890D01*
X140853053Y-110649965D01*
X140864347Y-110637421D01*
X140874535Y-110621208D01*
X140918826Y-110576916D01*
X140964917Y-110525728D01*
X140983559Y-110512183D01*
X141001208Y-110494535D01*
X141050354Y-110463654D01*
X141100162Y-110427467D01*
X141126873Y-110415574D01*
X141152893Y-110399225D01*
X141202877Y-110381734D01*
X141252889Y-110359468D01*
X141287592Y-110352091D01*
X141321983Y-110340058D01*
X141369281Y-110334728D01*
X141416412Y-110324711D01*
X141458189Y-110324711D01*
X141500000Y-110320000D01*
X141541811Y-110324711D01*
G37*
G36*
X101182000Y-111292000D02*
G01*
X99658000Y-111292000D01*
X99658000Y-109768000D01*
X101182000Y-109768000D01*
X101182000Y-111292000D01*
G37*
G36*
X103129561Y-109787105D02*
G01*
X103290619Y-109843462D01*
X103435099Y-109934244D01*
X103555756Y-110054901D01*
X103646538Y-110199381D01*
X103702895Y-110360439D01*
X103722000Y-110530000D01*
X103702895Y-110699561D01*
X103646538Y-110860619D01*
X103555756Y-111005099D01*
X103435099Y-111125756D01*
X103290619Y-111216538D01*
X103129561Y-111272895D01*
X102960000Y-111292000D01*
X102790439Y-111272895D01*
X102629381Y-111216538D01*
X102484901Y-111125756D01*
X102364244Y-111005099D01*
X102273462Y-110860619D01*
X102217105Y-110699561D01*
X102198000Y-110530000D01*
X102217105Y-110360439D01*
X102273462Y-110199381D01*
X102364244Y-110054901D01*
X102484901Y-109934244D01*
X102629381Y-109843462D01*
X102790439Y-109787105D01*
X102960000Y-109768000D01*
X103129561Y-109787105D01*
G37*
G36*
X105669561Y-109787105D02*
G01*
X105830619Y-109843462D01*
X105975099Y-109934244D01*
X106095756Y-110054901D01*
X106186538Y-110199381D01*
X106242895Y-110360439D01*
X106262000Y-110530000D01*
X106242895Y-110699561D01*
X106186538Y-110860619D01*
X106095756Y-111005099D01*
X105975099Y-111125756D01*
X105830619Y-111216538D01*
X105669561Y-111272895D01*
X105500000Y-111292000D01*
X105330439Y-111272895D01*
X105169381Y-111216538D01*
X105024901Y-111125756D01*
X104904244Y-111005099D01*
X104813462Y-110860619D01*
X104757105Y-110699561D01*
X104738000Y-110530000D01*
X104757105Y-110360439D01*
X104813462Y-110199381D01*
X104904244Y-110054901D01*
X105024901Y-109934244D01*
X105169381Y-109843462D01*
X105330439Y-109787105D01*
X105500000Y-109768000D01*
X105669561Y-109787105D01*
G37*
G36*
X108209561Y-109787105D02*
G01*
X108370619Y-109843462D01*
X108515099Y-109934244D01*
X108635756Y-110054901D01*
X108726538Y-110199381D01*
X108782895Y-110360439D01*
X108802000Y-110530000D01*
X108782895Y-110699561D01*
X108726538Y-110860619D01*
X108635756Y-111005099D01*
X108515099Y-111125756D01*
X108370619Y-111216538D01*
X108209561Y-111272895D01*
X108040000Y-111292000D01*
X107870439Y-111272895D01*
X107709381Y-111216538D01*
X107564901Y-111125756D01*
X107444244Y-111005099D01*
X107353462Y-110860619D01*
X107297105Y-110699561D01*
X107278000Y-110530000D01*
X107297105Y-110360439D01*
X107353462Y-110199381D01*
X107444244Y-110054901D01*
X107564901Y-109934244D01*
X107709381Y-109843462D01*
X107870439Y-109787105D01*
X108040000Y-109768000D01*
X108209561Y-109787105D01*
G37*
G36*
X110749561Y-109787105D02*
G01*
X110910619Y-109843462D01*
X111055099Y-109934244D01*
X111175756Y-110054901D01*
X111266538Y-110199381D01*
X111322895Y-110360439D01*
X111342000Y-110530000D01*
X111322895Y-110699561D01*
X111266538Y-110860619D01*
X111175756Y-111005099D01*
X111055099Y-111125756D01*
X110910619Y-111216538D01*
X110749561Y-111272895D01*
X110580000Y-111292000D01*
X110410439Y-111272895D01*
X110249381Y-111216538D01*
X110104901Y-111125756D01*
X109984244Y-111005099D01*
X109893462Y-110860619D01*
X109837105Y-110699561D01*
X109818000Y-110530000D01*
X109837105Y-110360439D01*
X109893462Y-110199381D01*
X109984244Y-110054901D01*
X110104901Y-109934244D01*
X110249381Y-109843462D01*
X110410439Y-109787105D01*
X110580000Y-109768000D01*
X110749561Y-109787105D01*
G37*
G36*
X163351811Y-108014711D02*
G01*
X163393588Y-108014711D01*
X163440718Y-108024728D01*
X163488017Y-108030058D01*
X163522408Y-108042092D01*
X163557110Y-108049468D01*
X163607117Y-108071733D01*
X163657107Y-108089225D01*
X163683128Y-108105575D01*
X163709835Y-108117466D01*
X163759633Y-108153646D01*
X163808792Y-108184535D01*
X163826444Y-108202187D01*
X163845084Y-108215730D01*
X163891165Y-108266908D01*
X163935465Y-108311208D01*
X163945654Y-108327424D01*
X163956946Y-108339965D01*
X163995573Y-108406870D01*
X164030775Y-108462893D01*
X164035170Y-108475453D01*
X164040535Y-108484746D01*
X164068010Y-108569305D01*
X164089942Y-108631983D01*
X164090773Y-108639363D01*
X164092195Y-108643738D01*
X164105076Y-108766306D01*
X164110000Y-108810000D01*
X164105076Y-108853697D01*
X164092195Y-108976261D01*
X164090773Y-108980635D01*
X164089942Y-108988017D01*
X164068005Y-109050707D01*
X164040535Y-109135253D01*
X164035171Y-109144543D01*
X164030775Y-109157107D01*
X163995566Y-109213140D01*
X163956946Y-109280034D01*
X163945656Y-109292572D01*
X163935465Y-109308792D01*
X163891155Y-109353101D01*
X163845084Y-109404269D01*
X163826448Y-109417808D01*
X163808792Y-109435465D01*
X163759623Y-109466359D01*
X163709835Y-109502533D01*
X163683134Y-109514421D01*
X163657107Y-109530775D01*
X163607107Y-109548270D01*
X163557110Y-109570531D01*
X163522414Y-109577905D01*
X163488017Y-109589942D01*
X163440715Y-109595271D01*
X163393588Y-109605289D01*
X163351811Y-109605289D01*
X163310000Y-109610000D01*
X163268189Y-109605289D01*
X163226412Y-109605289D01*
X163179284Y-109595271D01*
X163131983Y-109589942D01*
X163097586Y-109577906D01*
X163062889Y-109570531D01*
X163012887Y-109548268D01*
X162962893Y-109530775D01*
X162936868Y-109514422D01*
X162910164Y-109502533D01*
X162860369Y-109466355D01*
X162811208Y-109435465D01*
X162793554Y-109417811D01*
X162774915Y-109404269D01*
X162728833Y-109353090D01*
X162684535Y-109308792D01*
X162674345Y-109292575D01*
X162663053Y-109280034D01*
X162624420Y-109213120D01*
X162589225Y-109157107D01*
X162584830Y-109144547D01*
X162579464Y-109135253D01*
X162551980Y-109050667D01*
X162530058Y-108988017D01*
X162529226Y-108980639D01*
X162527804Y-108976261D01*
X162514908Y-108853565D01*
X162510000Y-108810000D01*
X162514908Y-108766438D01*
X162527804Y-108643738D01*
X162529226Y-108639358D01*
X162530058Y-108631983D01*
X162551975Y-108569345D01*
X162579464Y-108484746D01*
X162584831Y-108475449D01*
X162589225Y-108462893D01*
X162624413Y-108406890D01*
X162663053Y-108339965D01*
X162674347Y-108327421D01*
X162684535Y-108311208D01*
X162728826Y-108266916D01*
X162774917Y-108215728D01*
X162793559Y-108202183D01*
X162811208Y-108184535D01*
X162860354Y-108153654D01*
X162910162Y-108117467D01*
X162936873Y-108105574D01*
X162962893Y-108089225D01*
X163012877Y-108071734D01*
X163062889Y-108049468D01*
X163097592Y-108042091D01*
X163131983Y-108030058D01*
X163179281Y-108024728D01*
X163226412Y-108014711D01*
X163268189Y-108014711D01*
X163310000Y-108010000D01*
X163351811Y-108014711D01*
G37*
G36*
X126301811Y-107784711D02*
G01*
X126343588Y-107784711D01*
X126390718Y-107794728D01*
X126438017Y-107800058D01*
X126472408Y-107812092D01*
X126507110Y-107819468D01*
X126557117Y-107841733D01*
X126607107Y-107859225D01*
X126633128Y-107875575D01*
X126659835Y-107887466D01*
X126709633Y-107923646D01*
X126758792Y-107954535D01*
X126776444Y-107972187D01*
X126795084Y-107985730D01*
X126841165Y-108036908D01*
X126885465Y-108081208D01*
X126895654Y-108097424D01*
X126906946Y-108109965D01*
X126945573Y-108176870D01*
X126980775Y-108232893D01*
X126985170Y-108245453D01*
X126990535Y-108254746D01*
X127018010Y-108339305D01*
X127039942Y-108401983D01*
X127040773Y-108409363D01*
X127042195Y-108413738D01*
X127055076Y-108536306D01*
X127060000Y-108580000D01*
X127055076Y-108623697D01*
X127042195Y-108746261D01*
X127040773Y-108750635D01*
X127039942Y-108758017D01*
X127018005Y-108820707D01*
X126990535Y-108905253D01*
X126985171Y-108914543D01*
X126980775Y-108927107D01*
X126945566Y-108983140D01*
X126906946Y-109050034D01*
X126895656Y-109062572D01*
X126885465Y-109078792D01*
X126841155Y-109123101D01*
X126795084Y-109174269D01*
X126776448Y-109187808D01*
X126758792Y-109205465D01*
X126709623Y-109236359D01*
X126659835Y-109272533D01*
X126633134Y-109284421D01*
X126607107Y-109300775D01*
X126557107Y-109318270D01*
X126507110Y-109340531D01*
X126472414Y-109347905D01*
X126438017Y-109359942D01*
X126390715Y-109365271D01*
X126343588Y-109375289D01*
X126301811Y-109375289D01*
X126260000Y-109380000D01*
X126218189Y-109375289D01*
X126176412Y-109375289D01*
X126129284Y-109365271D01*
X126081983Y-109359942D01*
X126047586Y-109347906D01*
X126012889Y-109340531D01*
X125962887Y-109318268D01*
X125912893Y-109300775D01*
X125886868Y-109284422D01*
X125860164Y-109272533D01*
X125810369Y-109236355D01*
X125761208Y-109205465D01*
X125743554Y-109187811D01*
X125724915Y-109174269D01*
X125678833Y-109123090D01*
X125634535Y-109078792D01*
X125624345Y-109062575D01*
X125613053Y-109050034D01*
X125574420Y-108983120D01*
X125539225Y-108927107D01*
X125534830Y-108914547D01*
X125529464Y-108905253D01*
X125501980Y-108820667D01*
X125480058Y-108758017D01*
X125479226Y-108750639D01*
X125477804Y-108746261D01*
X125464908Y-108623565D01*
X125460000Y-108580000D01*
X125464908Y-108536438D01*
X125477804Y-108413738D01*
X125479226Y-108409358D01*
X125480058Y-108401983D01*
X125501975Y-108339345D01*
X125529464Y-108254746D01*
X125534831Y-108245449D01*
X125539225Y-108232893D01*
X125574413Y-108176890D01*
X125613053Y-108109965D01*
X125624347Y-108097421D01*
X125634535Y-108081208D01*
X125678826Y-108036916D01*
X125724917Y-107985728D01*
X125743559Y-107972183D01*
X125761208Y-107954535D01*
X125810354Y-107923654D01*
X125860162Y-107887467D01*
X125886873Y-107875574D01*
X125912893Y-107859225D01*
X125962877Y-107841734D01*
X126012889Y-107819468D01*
X126047592Y-107812091D01*
X126081983Y-107800058D01*
X126129281Y-107794728D01*
X126176412Y-107784711D01*
X126218189Y-107784711D01*
X126260000Y-107780000D01*
X126301811Y-107784711D01*
G37*
G36*
X141541811Y-107784711D02*
G01*
X141583588Y-107784711D01*
X141630718Y-107794728D01*
X141678017Y-107800058D01*
X141712408Y-107812092D01*
X141747110Y-107819468D01*
X141797117Y-107841733D01*
X141847107Y-107859225D01*
X141873128Y-107875575D01*
X141899835Y-107887466D01*
X141949633Y-107923646D01*
X141998792Y-107954535D01*
X142016444Y-107972187D01*
X142035084Y-107985730D01*
X142081165Y-108036908D01*
X142125465Y-108081208D01*
X142135654Y-108097424D01*
X142146946Y-108109965D01*
X142185573Y-108176870D01*
X142220775Y-108232893D01*
X142225170Y-108245453D01*
X142230535Y-108254746D01*
X142258010Y-108339305D01*
X142279942Y-108401983D01*
X142280773Y-108409363D01*
X142282195Y-108413738D01*
X142295076Y-108536306D01*
X142300000Y-108580000D01*
X142295076Y-108623697D01*
X142282195Y-108746261D01*
X142280773Y-108750635D01*
X142279942Y-108758017D01*
X142258005Y-108820707D01*
X142230535Y-108905253D01*
X142225171Y-108914543D01*
X142220775Y-108927107D01*
X142185566Y-108983140D01*
X142146946Y-109050034D01*
X142135656Y-109062572D01*
X142125465Y-109078792D01*
X142081155Y-109123101D01*
X142035084Y-109174269D01*
X142016448Y-109187808D01*
X141998792Y-109205465D01*
X141949623Y-109236359D01*
X141899835Y-109272533D01*
X141873134Y-109284421D01*
X141847107Y-109300775D01*
X141797107Y-109318270D01*
X141747110Y-109340531D01*
X141712414Y-109347905D01*
X141678017Y-109359942D01*
X141630715Y-109365271D01*
X141583588Y-109375289D01*
X141541811Y-109375289D01*
X141500000Y-109380000D01*
X141458189Y-109375289D01*
X141416412Y-109375289D01*
X141369284Y-109365271D01*
X141321983Y-109359942D01*
X141287586Y-109347906D01*
X141252889Y-109340531D01*
X141202887Y-109318268D01*
X141152893Y-109300775D01*
X141126868Y-109284422D01*
X141100164Y-109272533D01*
X141050369Y-109236355D01*
X141001208Y-109205465D01*
X140983554Y-109187811D01*
X140964915Y-109174269D01*
X140918833Y-109123090D01*
X140874535Y-109078792D01*
X140864345Y-109062575D01*
X140853053Y-109050034D01*
X140814420Y-108983120D01*
X140779225Y-108927107D01*
X140774830Y-108914547D01*
X140769464Y-108905253D01*
X140741980Y-108820667D01*
X140720058Y-108758017D01*
X140719226Y-108750639D01*
X140717804Y-108746261D01*
X140704908Y-108623565D01*
X140700000Y-108580000D01*
X140704908Y-108536438D01*
X140717804Y-108413738D01*
X140719226Y-108409358D01*
X140720058Y-108401983D01*
X140741975Y-108339345D01*
X140769464Y-108254746D01*
X140774831Y-108245449D01*
X140779225Y-108232893D01*
X140814413Y-108176890D01*
X140853053Y-108109965D01*
X140864347Y-108097421D01*
X140874535Y-108081208D01*
X140918826Y-108036916D01*
X140964917Y-107985728D01*
X140983559Y-107972183D01*
X141001208Y-107954535D01*
X141050354Y-107923654D01*
X141100162Y-107887467D01*
X141126873Y-107875574D01*
X141152893Y-107859225D01*
X141202877Y-107841734D01*
X141252889Y-107819468D01*
X141287592Y-107812091D01*
X141321983Y-107800058D01*
X141369281Y-107794728D01*
X141416412Y-107784711D01*
X141458189Y-107784711D01*
X141500000Y-107780000D01*
X141541811Y-107784711D01*
G37*
G36*
X158351811Y-106204711D02*
G01*
X158393588Y-106204711D01*
X158440718Y-106214728D01*
X158488017Y-106220058D01*
X158522408Y-106232092D01*
X158557110Y-106239468D01*
X158607117Y-106261733D01*
X158657107Y-106279225D01*
X158683128Y-106295575D01*
X158709835Y-106307466D01*
X158759633Y-106343646D01*
X158808792Y-106374535D01*
X158826444Y-106392187D01*
X158845084Y-106405730D01*
X158891165Y-106456908D01*
X158935465Y-106501208D01*
X158945654Y-106517424D01*
X158956946Y-106529965D01*
X158995573Y-106596870D01*
X159030775Y-106652893D01*
X159035170Y-106665453D01*
X159040535Y-106674746D01*
X159068010Y-106759305D01*
X159089942Y-106821983D01*
X159090773Y-106829363D01*
X159092195Y-106833738D01*
X159105076Y-106956306D01*
X159110000Y-107000000D01*
X159105076Y-107043697D01*
X159092195Y-107166261D01*
X159090773Y-107170635D01*
X159089942Y-107178017D01*
X159068005Y-107240707D01*
X159040535Y-107325253D01*
X159035171Y-107334543D01*
X159030775Y-107347107D01*
X158995566Y-107403140D01*
X158956946Y-107470034D01*
X158945656Y-107482572D01*
X158935465Y-107498792D01*
X158891155Y-107543101D01*
X158845084Y-107594269D01*
X158826448Y-107607808D01*
X158808792Y-107625465D01*
X158759623Y-107656359D01*
X158709835Y-107692533D01*
X158683134Y-107704421D01*
X158657107Y-107720775D01*
X158607107Y-107738270D01*
X158557110Y-107760531D01*
X158522414Y-107767905D01*
X158488017Y-107779942D01*
X158440715Y-107785271D01*
X158393588Y-107795289D01*
X158351811Y-107795289D01*
X158310000Y-107800000D01*
X158268189Y-107795289D01*
X158226412Y-107795289D01*
X158179284Y-107785271D01*
X158131983Y-107779942D01*
X158097586Y-107767906D01*
X158062889Y-107760531D01*
X158012887Y-107738268D01*
X157962893Y-107720775D01*
X157936868Y-107704422D01*
X157910164Y-107692533D01*
X157860369Y-107656355D01*
X157811208Y-107625465D01*
X157793554Y-107607811D01*
X157774915Y-107594269D01*
X157728833Y-107543090D01*
X157684535Y-107498792D01*
X157674345Y-107482575D01*
X157663053Y-107470034D01*
X157624420Y-107403120D01*
X157589225Y-107347107D01*
X157584830Y-107334547D01*
X157579464Y-107325253D01*
X157551980Y-107240667D01*
X157530058Y-107178017D01*
X157529226Y-107170639D01*
X157527804Y-107166261D01*
X157514908Y-107043565D01*
X157510000Y-107000000D01*
X157514908Y-106956438D01*
X157527804Y-106833738D01*
X157529226Y-106829358D01*
X157530058Y-106821983D01*
X157551975Y-106759345D01*
X157579464Y-106674746D01*
X157584831Y-106665449D01*
X157589225Y-106652893D01*
X157624413Y-106596890D01*
X157663053Y-106529965D01*
X157674347Y-106517421D01*
X157684535Y-106501208D01*
X157728826Y-106456916D01*
X157774917Y-106405728D01*
X157793559Y-106392183D01*
X157811208Y-106374535D01*
X157860354Y-106343654D01*
X157910162Y-106307467D01*
X157936873Y-106295574D01*
X157962893Y-106279225D01*
X158012877Y-106261734D01*
X158062889Y-106239468D01*
X158097592Y-106232091D01*
X158131983Y-106220058D01*
X158179281Y-106214728D01*
X158226412Y-106204711D01*
X158268189Y-106204711D01*
X158310000Y-106200000D01*
X158351811Y-106204711D01*
G37*
G36*
X147255090Y-105769215D02*
G01*
X147442683Y-105826120D01*
X147615570Y-105918530D01*
X147767107Y-106042893D01*
X147891470Y-106194430D01*
X147983880Y-106367317D01*
X148040785Y-106554910D01*
X148060000Y-106750000D01*
X148040785Y-106945090D01*
X147983880Y-107132683D01*
X147891470Y-107305570D01*
X147767107Y-107457107D01*
X147615570Y-107581470D01*
X147442683Y-107673880D01*
X147255090Y-107730785D01*
X147060000Y-107750000D01*
X146864910Y-107730785D01*
X146677317Y-107673880D01*
X146504430Y-107581470D01*
X146352893Y-107457107D01*
X146228530Y-107305570D01*
X146136120Y-107132683D01*
X146079215Y-106945090D01*
X146060000Y-106750000D01*
X146079215Y-106554910D01*
X146136120Y-106367317D01*
X146228530Y-106194430D01*
X146352893Y-106042893D01*
X146504430Y-105918530D01*
X146677317Y-105826120D01*
X146864910Y-105769215D01*
X147060000Y-105750000D01*
X147255090Y-105769215D01*
G37*
G36*
X153755090Y-105769215D02*
G01*
X153942683Y-105826120D01*
X154115570Y-105918530D01*
X154267107Y-106042893D01*
X154391470Y-106194430D01*
X154483880Y-106367317D01*
X154540785Y-106554910D01*
X154560000Y-106750000D01*
X154540785Y-106945090D01*
X154483880Y-107132683D01*
X154391470Y-107305570D01*
X154267107Y-107457107D01*
X154115570Y-107581470D01*
X153942683Y-107673880D01*
X153755090Y-107730785D01*
X153560000Y-107750000D01*
X153364910Y-107730785D01*
X153177317Y-107673880D01*
X153004430Y-107581470D01*
X152852893Y-107457107D01*
X152728530Y-107305570D01*
X152636120Y-107132683D01*
X152579215Y-106945090D01*
X152560000Y-106750000D01*
X152579215Y-106554910D01*
X152636120Y-106367317D01*
X152728530Y-106194430D01*
X152852893Y-106042893D01*
X153004430Y-105918530D01*
X153177317Y-105826120D01*
X153364910Y-105769215D01*
X153560000Y-105750000D01*
X153755090Y-105769215D01*
G37*
G36*
X126301811Y-105244711D02*
G01*
X126343588Y-105244711D01*
X126390718Y-105254728D01*
X126438017Y-105260058D01*
X126472408Y-105272092D01*
X126507110Y-105279468D01*
X126557117Y-105301733D01*
X126607107Y-105319225D01*
X126633128Y-105335575D01*
X126659835Y-105347466D01*
X126709633Y-105383646D01*
X126758792Y-105414535D01*
X126776444Y-105432187D01*
X126795084Y-105445730D01*
X126841165Y-105496908D01*
X126885465Y-105541208D01*
X126895654Y-105557424D01*
X126906946Y-105569965D01*
X126945573Y-105636870D01*
X126980775Y-105692893D01*
X126985170Y-105705453D01*
X126990535Y-105714746D01*
X127018010Y-105799305D01*
X127039942Y-105861983D01*
X127040773Y-105869363D01*
X127042195Y-105873738D01*
X127055076Y-105996306D01*
X127060000Y-106040000D01*
X127055076Y-106083697D01*
X127042195Y-106206261D01*
X127040773Y-106210635D01*
X127039942Y-106218017D01*
X127018005Y-106280707D01*
X126990535Y-106365253D01*
X126985171Y-106374543D01*
X126980775Y-106387107D01*
X126945566Y-106443140D01*
X126906946Y-106510034D01*
X126895656Y-106522572D01*
X126885465Y-106538792D01*
X126841155Y-106583101D01*
X126795084Y-106634269D01*
X126776448Y-106647808D01*
X126758792Y-106665465D01*
X126709623Y-106696359D01*
X126659835Y-106732533D01*
X126633134Y-106744421D01*
X126607107Y-106760775D01*
X126557107Y-106778270D01*
X126507110Y-106800531D01*
X126472414Y-106807905D01*
X126438017Y-106819942D01*
X126390715Y-106825271D01*
X126343588Y-106835289D01*
X126301811Y-106835289D01*
X126260000Y-106840000D01*
X126218189Y-106835289D01*
X126176412Y-106835289D01*
X126129284Y-106825271D01*
X126081983Y-106819942D01*
X126047586Y-106807906D01*
X126012889Y-106800531D01*
X125962887Y-106778268D01*
X125912893Y-106760775D01*
X125886868Y-106744422D01*
X125860164Y-106732533D01*
X125810369Y-106696355D01*
X125761208Y-106665465D01*
X125743554Y-106647811D01*
X125724915Y-106634269D01*
X125678833Y-106583090D01*
X125634535Y-106538792D01*
X125624345Y-106522575D01*
X125613053Y-106510034D01*
X125574420Y-106443120D01*
X125539225Y-106387107D01*
X125534830Y-106374547D01*
X125529464Y-106365253D01*
X125501980Y-106280667D01*
X125480058Y-106218017D01*
X125479226Y-106210639D01*
X125477804Y-106206261D01*
X125464908Y-106083565D01*
X125460000Y-106040000D01*
X125464908Y-105996438D01*
X125477804Y-105873738D01*
X125479226Y-105869358D01*
X125480058Y-105861983D01*
X125501975Y-105799345D01*
X125529464Y-105714746D01*
X125534831Y-105705449D01*
X125539225Y-105692893D01*
X125574413Y-105636890D01*
X125613053Y-105569965D01*
X125624347Y-105557421D01*
X125634535Y-105541208D01*
X125678826Y-105496916D01*
X125724917Y-105445728D01*
X125743559Y-105432183D01*
X125761208Y-105414535D01*
X125810354Y-105383654D01*
X125860162Y-105347467D01*
X125886873Y-105335574D01*
X125912893Y-105319225D01*
X125962877Y-105301734D01*
X126012889Y-105279468D01*
X126047592Y-105272091D01*
X126081983Y-105260058D01*
X126129281Y-105254728D01*
X126176412Y-105244711D01*
X126218189Y-105244711D01*
X126260000Y-105240000D01*
X126301811Y-105244711D01*
G37*
G36*
X141541811Y-105244711D02*
G01*
X141583588Y-105244711D01*
X141630718Y-105254728D01*
X141678017Y-105260058D01*
X141712408Y-105272092D01*
X141747110Y-105279468D01*
X141797117Y-105301733D01*
X141847107Y-105319225D01*
X141873128Y-105335575D01*
X141899835Y-105347466D01*
X141949633Y-105383646D01*
X141998792Y-105414535D01*
X142016444Y-105432187D01*
X142035084Y-105445730D01*
X142081165Y-105496908D01*
X142125465Y-105541208D01*
X142135654Y-105557424D01*
X142146946Y-105569965D01*
X142185573Y-105636870D01*
X142220775Y-105692893D01*
X142225170Y-105705453D01*
X142230535Y-105714746D01*
X142258010Y-105799305D01*
X142279942Y-105861983D01*
X142280773Y-105869363D01*
X142282195Y-105873738D01*
X142295076Y-105996306D01*
X142300000Y-106040000D01*
X142295076Y-106083697D01*
X142282195Y-106206261D01*
X142280773Y-106210635D01*
X142279942Y-106218017D01*
X142258005Y-106280707D01*
X142230535Y-106365253D01*
X142225171Y-106374543D01*
X142220775Y-106387107D01*
X142185566Y-106443140D01*
X142146946Y-106510034D01*
X142135656Y-106522572D01*
X142125465Y-106538792D01*
X142081155Y-106583101D01*
X142035084Y-106634269D01*
X142016448Y-106647808D01*
X141998792Y-106665465D01*
X141949623Y-106696359D01*
X141899835Y-106732533D01*
X141873134Y-106744421D01*
X141847107Y-106760775D01*
X141797107Y-106778270D01*
X141747110Y-106800531D01*
X141712414Y-106807905D01*
X141678017Y-106819942D01*
X141630715Y-106825271D01*
X141583588Y-106835289D01*
X141541811Y-106835289D01*
X141500000Y-106840000D01*
X141458189Y-106835289D01*
X141416412Y-106835289D01*
X141369284Y-106825271D01*
X141321983Y-106819942D01*
X141287586Y-106807906D01*
X141252889Y-106800531D01*
X141202887Y-106778268D01*
X141152893Y-106760775D01*
X141126868Y-106744422D01*
X141100164Y-106732533D01*
X141050369Y-106696355D01*
X141001208Y-106665465D01*
X140983554Y-106647811D01*
X140964915Y-106634269D01*
X140918833Y-106583090D01*
X140874535Y-106538792D01*
X140864345Y-106522575D01*
X140853053Y-106510034D01*
X140814420Y-106443120D01*
X140779225Y-106387107D01*
X140774830Y-106374547D01*
X140769464Y-106365253D01*
X140741980Y-106280667D01*
X140720058Y-106218017D01*
X140719226Y-106210639D01*
X140717804Y-106206261D01*
X140704908Y-106083565D01*
X140700000Y-106040000D01*
X140704908Y-105996438D01*
X140717804Y-105873738D01*
X140719226Y-105869358D01*
X140720058Y-105861983D01*
X140741975Y-105799345D01*
X140769464Y-105714746D01*
X140774831Y-105705449D01*
X140779225Y-105692893D01*
X140814413Y-105636890D01*
X140853053Y-105569965D01*
X140864347Y-105557421D01*
X140874535Y-105541208D01*
X140918826Y-105496916D01*
X140964917Y-105445728D01*
X140983559Y-105432183D01*
X141001208Y-105414535D01*
X141050354Y-105383654D01*
X141100162Y-105347467D01*
X141126873Y-105335574D01*
X141152893Y-105319225D01*
X141202877Y-105301734D01*
X141252889Y-105279468D01*
X141287592Y-105272091D01*
X141321983Y-105260058D01*
X141369281Y-105254728D01*
X141416412Y-105244711D01*
X141458189Y-105244711D01*
X141500000Y-105240000D01*
X141541811Y-105244711D01*
G37*
G36*
X126301811Y-102704711D02*
G01*
X126343588Y-102704711D01*
X126390718Y-102714728D01*
X126438017Y-102720058D01*
X126472408Y-102732092D01*
X126507110Y-102739468D01*
X126557117Y-102761733D01*
X126607107Y-102779225D01*
X126633128Y-102795575D01*
X126659835Y-102807466D01*
X126709633Y-102843646D01*
X126758792Y-102874535D01*
X126776444Y-102892187D01*
X126795084Y-102905730D01*
X126841165Y-102956908D01*
X126885465Y-103001208D01*
X126895654Y-103017424D01*
X126906946Y-103029965D01*
X126945573Y-103096870D01*
X126980775Y-103152893D01*
X126985170Y-103165453D01*
X126990535Y-103174746D01*
X127018010Y-103259305D01*
X127039942Y-103321983D01*
X127040773Y-103329363D01*
X127042195Y-103333738D01*
X127055076Y-103456306D01*
X127060000Y-103500000D01*
X127055076Y-103543697D01*
X127042195Y-103666261D01*
X127040773Y-103670635D01*
X127039942Y-103678017D01*
X127018005Y-103740707D01*
X126990535Y-103825253D01*
X126985171Y-103834543D01*
X126980775Y-103847107D01*
X126945566Y-103903140D01*
X126906946Y-103970034D01*
X126895656Y-103982572D01*
X126885465Y-103998792D01*
X126841155Y-104043101D01*
X126795084Y-104094269D01*
X126776448Y-104107808D01*
X126758792Y-104125465D01*
X126709623Y-104156359D01*
X126659835Y-104192533D01*
X126633134Y-104204421D01*
X126607107Y-104220775D01*
X126557107Y-104238270D01*
X126507110Y-104260531D01*
X126472414Y-104267905D01*
X126438017Y-104279942D01*
X126390715Y-104285271D01*
X126343588Y-104295289D01*
X126301811Y-104295289D01*
X126260000Y-104300000D01*
X126218189Y-104295289D01*
X126176412Y-104295289D01*
X126129284Y-104285271D01*
X126081983Y-104279942D01*
X126047586Y-104267906D01*
X126012889Y-104260531D01*
X125962887Y-104238268D01*
X125912893Y-104220775D01*
X125886868Y-104204422D01*
X125860164Y-104192533D01*
X125810369Y-104156355D01*
X125761208Y-104125465D01*
X125743554Y-104107811D01*
X125724915Y-104094269D01*
X125678833Y-104043090D01*
X125634535Y-103998792D01*
X125624345Y-103982575D01*
X125613053Y-103970034D01*
X125574420Y-103903120D01*
X125539225Y-103847107D01*
X125534830Y-103834547D01*
X125529464Y-103825253D01*
X125501980Y-103740667D01*
X125480058Y-103678017D01*
X125479226Y-103670639D01*
X125477804Y-103666261D01*
X125464908Y-103543565D01*
X125460000Y-103500000D01*
X125464908Y-103456438D01*
X125477804Y-103333738D01*
X125479226Y-103329358D01*
X125480058Y-103321983D01*
X125501975Y-103259345D01*
X125529464Y-103174746D01*
X125534831Y-103165449D01*
X125539225Y-103152893D01*
X125574413Y-103096890D01*
X125613053Y-103029965D01*
X125624347Y-103017421D01*
X125634535Y-103001208D01*
X125678826Y-102956916D01*
X125724917Y-102905728D01*
X125743559Y-102892183D01*
X125761208Y-102874535D01*
X125810354Y-102843654D01*
X125860162Y-102807467D01*
X125886873Y-102795574D01*
X125912893Y-102779225D01*
X125962877Y-102761734D01*
X126012889Y-102739468D01*
X126047592Y-102732091D01*
X126081983Y-102720058D01*
X126129281Y-102714728D01*
X126176412Y-102704711D01*
X126218189Y-102704711D01*
X126260000Y-102700000D01*
X126301811Y-102704711D01*
G37*
G36*
X141541811Y-102704711D02*
G01*
X141583588Y-102704711D01*
X141630718Y-102714728D01*
X141678017Y-102720058D01*
X141712408Y-102732092D01*
X141747110Y-102739468D01*
X141797117Y-102761733D01*
X141847107Y-102779225D01*
X141873128Y-102795575D01*
X141899835Y-102807466D01*
X141949633Y-102843646D01*
X141998792Y-102874535D01*
X142016444Y-102892187D01*
X142035084Y-102905730D01*
X142081165Y-102956908D01*
X142125465Y-103001208D01*
X142135654Y-103017424D01*
X142146946Y-103029965D01*
X142185573Y-103096870D01*
X142220775Y-103152893D01*
X142225170Y-103165453D01*
X142230535Y-103174746D01*
X142258010Y-103259305D01*
X142279942Y-103321983D01*
X142280773Y-103329363D01*
X142282195Y-103333738D01*
X142295076Y-103456306D01*
X142300000Y-103500000D01*
X142295076Y-103543697D01*
X142282195Y-103666261D01*
X142280773Y-103670635D01*
X142279942Y-103678017D01*
X142258005Y-103740707D01*
X142230535Y-103825253D01*
X142225171Y-103834543D01*
X142220775Y-103847107D01*
X142185566Y-103903140D01*
X142146946Y-103970034D01*
X142135656Y-103982572D01*
X142125465Y-103998792D01*
X142081155Y-104043101D01*
X142035084Y-104094269D01*
X142016448Y-104107808D01*
X141998792Y-104125465D01*
X141949623Y-104156359D01*
X141899835Y-104192533D01*
X141873134Y-104204421D01*
X141847107Y-104220775D01*
X141797107Y-104238270D01*
X141747110Y-104260531D01*
X141712414Y-104267905D01*
X141678017Y-104279942D01*
X141630715Y-104285271D01*
X141583588Y-104295289D01*
X141541811Y-104295289D01*
X141500000Y-104300000D01*
X141458189Y-104295289D01*
X141416412Y-104295289D01*
X141369284Y-104285271D01*
X141321983Y-104279942D01*
X141287586Y-104267906D01*
X141252889Y-104260531D01*
X141202887Y-104238268D01*
X141152893Y-104220775D01*
X141126868Y-104204422D01*
X141100164Y-104192533D01*
X141050369Y-104156355D01*
X141001208Y-104125465D01*
X140983554Y-104107811D01*
X140964915Y-104094269D01*
X140918833Y-104043090D01*
X140874535Y-103998792D01*
X140864345Y-103982575D01*
X140853053Y-103970034D01*
X140814420Y-103903120D01*
X140779225Y-103847107D01*
X140774830Y-103834547D01*
X140769464Y-103825253D01*
X140741980Y-103740667D01*
X140720058Y-103678017D01*
X140719226Y-103670639D01*
X140717804Y-103666261D01*
X140704908Y-103543565D01*
X140700000Y-103500000D01*
X140704908Y-103456438D01*
X140717804Y-103333738D01*
X140719226Y-103329358D01*
X140720058Y-103321983D01*
X140741975Y-103259345D01*
X140769464Y-103174746D01*
X140774831Y-103165449D01*
X140779225Y-103152893D01*
X140814413Y-103096890D01*
X140853053Y-103029965D01*
X140864347Y-103017421D01*
X140874535Y-103001208D01*
X140918826Y-102956916D01*
X140964917Y-102905728D01*
X140983559Y-102892183D01*
X141001208Y-102874535D01*
X141050354Y-102843654D01*
X141100162Y-102807467D01*
X141126873Y-102795574D01*
X141152893Y-102779225D01*
X141202877Y-102761734D01*
X141252889Y-102739468D01*
X141287592Y-102732091D01*
X141321983Y-102720058D01*
X141369281Y-102714728D01*
X141416412Y-102704711D01*
X141458189Y-102704711D01*
X141500000Y-102700000D01*
X141541811Y-102704711D01*
G37*
G36*
X147255090Y-101269215D02*
G01*
X147442683Y-101326120D01*
X147615570Y-101418530D01*
X147767107Y-101542893D01*
X147891470Y-101694430D01*
X147983880Y-101867317D01*
X148040785Y-102054910D01*
X148060000Y-102250000D01*
X148040785Y-102445090D01*
X147983880Y-102632683D01*
X147891470Y-102805570D01*
X147767107Y-102957107D01*
X147615570Y-103081470D01*
X147442683Y-103173880D01*
X147255090Y-103230785D01*
X147060000Y-103250000D01*
X146864910Y-103230785D01*
X146677317Y-103173880D01*
X146504430Y-103081470D01*
X146352893Y-102957107D01*
X146228530Y-102805570D01*
X146136120Y-102632683D01*
X146079215Y-102445090D01*
X146060000Y-102250000D01*
X146079215Y-102054910D01*
X146136120Y-101867317D01*
X146228530Y-101694430D01*
X146352893Y-101542893D01*
X146504430Y-101418530D01*
X146677317Y-101326120D01*
X146864910Y-101269215D01*
X147060000Y-101250000D01*
X147255090Y-101269215D01*
G37*
G36*
X153755090Y-101269215D02*
G01*
X153942683Y-101326120D01*
X154115570Y-101418530D01*
X154267107Y-101542893D01*
X154391470Y-101694430D01*
X154483880Y-101867317D01*
X154540785Y-102054910D01*
X154560000Y-102250000D01*
X154540785Y-102445090D01*
X154483880Y-102632683D01*
X154391470Y-102805570D01*
X154267107Y-102957107D01*
X154115570Y-103081470D01*
X153942683Y-103173880D01*
X153755090Y-103230785D01*
X153560000Y-103250000D01*
X153364910Y-103230785D01*
X153177317Y-103173880D01*
X153004430Y-103081470D01*
X152852893Y-102957107D01*
X152728530Y-102805570D01*
X152636120Y-102632683D01*
X152579215Y-102445090D01*
X152560000Y-102250000D01*
X152579215Y-102054910D01*
X152636120Y-101867317D01*
X152728530Y-101694430D01*
X152852893Y-101542893D01*
X153004430Y-101418530D01*
X153177317Y-101326120D01*
X153364910Y-101269215D01*
X153560000Y-101250000D01*
X153755090Y-101269215D01*
G37*
G36*
X158351811Y-101204711D02*
G01*
X158393588Y-101204711D01*
X158440718Y-101214728D01*
X158488017Y-101220058D01*
X158522408Y-101232092D01*
X158557110Y-101239468D01*
X158607117Y-101261733D01*
X158657107Y-101279225D01*
X158683128Y-101295575D01*
X158709835Y-101307466D01*
X158759633Y-101343646D01*
X158808792Y-101374535D01*
X158826444Y-101392187D01*
X158845084Y-101405730D01*
X158891165Y-101456908D01*
X158935465Y-101501208D01*
X158945654Y-101517424D01*
X158956946Y-101529965D01*
X158995573Y-101596870D01*
X159030775Y-101652893D01*
X159035170Y-101665453D01*
X159040535Y-101674746D01*
X159068010Y-101759305D01*
X159089942Y-101821983D01*
X159090773Y-101829363D01*
X159092195Y-101833738D01*
X159105076Y-101956306D01*
X159110000Y-102000000D01*
X159105076Y-102043697D01*
X159092195Y-102166261D01*
X159090773Y-102170635D01*
X159089942Y-102178017D01*
X159068005Y-102240707D01*
X159040535Y-102325253D01*
X159035171Y-102334543D01*
X159030775Y-102347107D01*
X158995566Y-102403140D01*
X158956946Y-102470034D01*
X158945656Y-102482572D01*
X158935465Y-102498792D01*
X158891155Y-102543101D01*
X158845084Y-102594269D01*
X158826448Y-102607808D01*
X158808792Y-102625465D01*
X158759623Y-102656359D01*
X158709835Y-102692533D01*
X158683134Y-102704421D01*
X158657107Y-102720775D01*
X158607107Y-102738270D01*
X158557110Y-102760531D01*
X158522414Y-102767905D01*
X158488017Y-102779942D01*
X158440715Y-102785271D01*
X158393588Y-102795289D01*
X158351811Y-102795289D01*
X158310000Y-102800000D01*
X158268189Y-102795289D01*
X158226412Y-102795289D01*
X158179284Y-102785271D01*
X158131983Y-102779942D01*
X158097586Y-102767906D01*
X158062889Y-102760531D01*
X158012887Y-102738268D01*
X157962893Y-102720775D01*
X157936868Y-102704422D01*
X157910164Y-102692533D01*
X157860369Y-102656355D01*
X157811208Y-102625465D01*
X157793554Y-102607811D01*
X157774915Y-102594269D01*
X157728833Y-102543090D01*
X157684535Y-102498792D01*
X157674345Y-102482575D01*
X157663053Y-102470034D01*
X157624420Y-102403120D01*
X157589225Y-102347107D01*
X157584830Y-102334547D01*
X157579464Y-102325253D01*
X157551980Y-102240667D01*
X157530058Y-102178017D01*
X157529226Y-102170639D01*
X157527804Y-102166261D01*
X157514908Y-102043565D01*
X157510000Y-102000000D01*
X157514908Y-101956438D01*
X157527804Y-101833738D01*
X157529226Y-101829358D01*
X157530058Y-101821983D01*
X157551975Y-101759345D01*
X157579464Y-101674746D01*
X157584831Y-101665449D01*
X157589225Y-101652893D01*
X157624413Y-101596890D01*
X157663053Y-101529965D01*
X157674347Y-101517421D01*
X157684535Y-101501208D01*
X157728826Y-101456916D01*
X157774917Y-101405728D01*
X157793559Y-101392183D01*
X157811208Y-101374535D01*
X157860354Y-101343654D01*
X157910162Y-101307467D01*
X157936873Y-101295574D01*
X157962893Y-101279225D01*
X158012877Y-101261734D01*
X158062889Y-101239468D01*
X158097592Y-101232091D01*
X158131983Y-101220058D01*
X158179281Y-101214728D01*
X158226412Y-101204711D01*
X158268189Y-101204711D01*
X158310000Y-101200000D01*
X158351811Y-101204711D01*
G37*
G36*
X163351811Y-100394711D02*
G01*
X163393588Y-100394711D01*
X163440718Y-100404728D01*
X163488017Y-100410058D01*
X163522408Y-100422092D01*
X163557110Y-100429468D01*
X163607117Y-100451733D01*
X163657107Y-100469225D01*
X163683128Y-100485575D01*
X163709835Y-100497466D01*
X163759633Y-100533646D01*
X163808792Y-100564535D01*
X163826444Y-100582187D01*
X163845084Y-100595730D01*
X163891165Y-100646908D01*
X163935465Y-100691208D01*
X163945654Y-100707424D01*
X163956946Y-100719965D01*
X163995573Y-100786870D01*
X164030775Y-100842893D01*
X164035170Y-100855453D01*
X164040535Y-100864746D01*
X164068010Y-100949305D01*
X164089942Y-101011983D01*
X164090773Y-101019363D01*
X164092195Y-101023738D01*
X164105076Y-101146306D01*
X164110000Y-101190000D01*
X164105076Y-101233697D01*
X164092195Y-101356261D01*
X164090773Y-101360635D01*
X164089942Y-101368017D01*
X164068005Y-101430707D01*
X164040535Y-101515253D01*
X164035171Y-101524543D01*
X164030775Y-101537107D01*
X163995566Y-101593140D01*
X163956946Y-101660034D01*
X163945656Y-101672572D01*
X163935465Y-101688792D01*
X163891155Y-101733101D01*
X163845084Y-101784269D01*
X163826448Y-101797808D01*
X163808792Y-101815465D01*
X163759623Y-101846359D01*
X163709835Y-101882533D01*
X163683134Y-101894421D01*
X163657107Y-101910775D01*
X163607107Y-101928270D01*
X163557110Y-101950531D01*
X163522414Y-101957905D01*
X163488017Y-101969942D01*
X163440715Y-101975271D01*
X163393588Y-101985289D01*
X163351811Y-101985289D01*
X163310000Y-101990000D01*
X163268189Y-101985289D01*
X163226412Y-101985289D01*
X163179284Y-101975271D01*
X163131983Y-101969942D01*
X163097586Y-101957906D01*
X163062889Y-101950531D01*
X163012887Y-101928268D01*
X162962893Y-101910775D01*
X162936868Y-101894422D01*
X162910164Y-101882533D01*
X162860369Y-101846355D01*
X162811208Y-101815465D01*
X162793554Y-101797811D01*
X162774915Y-101784269D01*
X162728833Y-101733090D01*
X162684535Y-101688792D01*
X162674345Y-101672575D01*
X162663053Y-101660034D01*
X162624420Y-101593120D01*
X162589225Y-101537107D01*
X162584830Y-101524547D01*
X162579464Y-101515253D01*
X162551980Y-101430667D01*
X162530058Y-101368017D01*
X162529226Y-101360639D01*
X162527804Y-101356261D01*
X162514908Y-101233565D01*
X162510000Y-101190000D01*
X162514908Y-101146438D01*
X162527804Y-101023738D01*
X162529226Y-101019358D01*
X162530058Y-101011983D01*
X162551975Y-100949345D01*
X162579464Y-100864746D01*
X162584831Y-100855449D01*
X162589225Y-100842893D01*
X162624413Y-100786890D01*
X162663053Y-100719965D01*
X162674347Y-100707421D01*
X162684535Y-100691208D01*
X162728826Y-100646916D01*
X162774917Y-100595728D01*
X162793559Y-100582183D01*
X162811208Y-100564535D01*
X162860354Y-100533654D01*
X162910162Y-100497467D01*
X162936873Y-100485574D01*
X162962893Y-100469225D01*
X163012877Y-100451734D01*
X163062889Y-100429468D01*
X163097592Y-100422091D01*
X163131983Y-100410058D01*
X163179281Y-100404728D01*
X163226412Y-100394711D01*
X163268189Y-100394711D01*
X163310000Y-100390000D01*
X163351811Y-100394711D01*
G37*
G36*
X126301811Y-100164711D02*
G01*
X126343588Y-100164711D01*
X126390718Y-100174728D01*
X126438017Y-100180058D01*
X126472408Y-100192092D01*
X126507110Y-100199468D01*
X126557117Y-100221733D01*
X126607107Y-100239225D01*
X126633128Y-100255575D01*
X126659835Y-100267466D01*
X126709633Y-100303646D01*
X126758792Y-100334535D01*
X126776444Y-100352187D01*
X126795084Y-100365730D01*
X126841165Y-100416908D01*
X126885465Y-100461208D01*
X126895654Y-100477424D01*
X126906946Y-100489965D01*
X126945573Y-100556870D01*
X126980775Y-100612893D01*
X126985170Y-100625453D01*
X126990535Y-100634746D01*
X127018010Y-100719305D01*
X127039942Y-100781983D01*
X127040773Y-100789363D01*
X127042195Y-100793738D01*
X127055076Y-100916306D01*
X127060000Y-100960000D01*
X127055076Y-101003697D01*
X127042195Y-101126261D01*
X127040773Y-101130635D01*
X127039942Y-101138017D01*
X127018005Y-101200707D01*
X126990535Y-101285253D01*
X126985171Y-101294543D01*
X126980775Y-101307107D01*
X126945566Y-101363140D01*
X126906946Y-101430034D01*
X126895656Y-101442572D01*
X126885465Y-101458792D01*
X126841155Y-101503101D01*
X126795084Y-101554269D01*
X126776448Y-101567808D01*
X126758792Y-101585465D01*
X126709623Y-101616359D01*
X126659835Y-101652533D01*
X126633134Y-101664421D01*
X126607107Y-101680775D01*
X126557107Y-101698270D01*
X126507110Y-101720531D01*
X126472414Y-101727905D01*
X126438017Y-101739942D01*
X126390715Y-101745271D01*
X126343588Y-101755289D01*
X126301811Y-101755289D01*
X126260000Y-101760000D01*
X126218189Y-101755289D01*
X126176412Y-101755289D01*
X126129284Y-101745271D01*
X126081983Y-101739942D01*
X126047586Y-101727906D01*
X126012889Y-101720531D01*
X125962887Y-101698268D01*
X125912893Y-101680775D01*
X125886868Y-101664422D01*
X125860164Y-101652533D01*
X125810369Y-101616355D01*
X125761208Y-101585465D01*
X125743554Y-101567811D01*
X125724915Y-101554269D01*
X125678833Y-101503090D01*
X125634535Y-101458792D01*
X125624345Y-101442575D01*
X125613053Y-101430034D01*
X125574420Y-101363120D01*
X125539225Y-101307107D01*
X125534830Y-101294547D01*
X125529464Y-101285253D01*
X125501980Y-101200667D01*
X125480058Y-101138017D01*
X125479226Y-101130639D01*
X125477804Y-101126261D01*
X125464908Y-101003565D01*
X125460000Y-100960000D01*
X125464908Y-100916438D01*
X125477804Y-100793738D01*
X125479226Y-100789358D01*
X125480058Y-100781983D01*
X125501975Y-100719345D01*
X125529464Y-100634746D01*
X125534831Y-100625449D01*
X125539225Y-100612893D01*
X125574413Y-100556890D01*
X125613053Y-100489965D01*
X125624347Y-100477421D01*
X125634535Y-100461208D01*
X125678826Y-100416916D01*
X125724917Y-100365728D01*
X125743559Y-100352183D01*
X125761208Y-100334535D01*
X125810354Y-100303654D01*
X125860162Y-100267467D01*
X125886873Y-100255574D01*
X125912893Y-100239225D01*
X125962877Y-100221734D01*
X126012889Y-100199468D01*
X126047592Y-100192091D01*
X126081983Y-100180058D01*
X126129281Y-100174728D01*
X126176412Y-100164711D01*
X126218189Y-100164711D01*
X126260000Y-100160000D01*
X126301811Y-100164711D01*
G37*
G36*
X141541811Y-100164711D02*
G01*
X141583588Y-100164711D01*
X141630718Y-100174728D01*
X141678017Y-100180058D01*
X141712408Y-100192092D01*
X141747110Y-100199468D01*
X141797117Y-100221733D01*
X141847107Y-100239225D01*
X141873128Y-100255575D01*
X141899835Y-100267466D01*
X141949633Y-100303646D01*
X141998792Y-100334535D01*
X142016444Y-100352187D01*
X142035084Y-100365730D01*
X142081165Y-100416908D01*
X142125465Y-100461208D01*
X142135654Y-100477424D01*
X142146946Y-100489965D01*
X142185573Y-100556870D01*
X142220775Y-100612893D01*
X142225170Y-100625453D01*
X142230535Y-100634746D01*
X142258010Y-100719305D01*
X142279942Y-100781983D01*
X142280773Y-100789363D01*
X142282195Y-100793738D01*
X142295076Y-100916306D01*
X142300000Y-100960000D01*
X142295076Y-101003697D01*
X142282195Y-101126261D01*
X142280773Y-101130635D01*
X142279942Y-101138017D01*
X142258005Y-101200707D01*
X142230535Y-101285253D01*
X142225171Y-101294543D01*
X142220775Y-101307107D01*
X142185566Y-101363140D01*
X142146946Y-101430034D01*
X142135656Y-101442572D01*
X142125465Y-101458792D01*
X142081155Y-101503101D01*
X142035084Y-101554269D01*
X142016448Y-101567808D01*
X141998792Y-101585465D01*
X141949623Y-101616359D01*
X141899835Y-101652533D01*
X141873134Y-101664421D01*
X141847107Y-101680775D01*
X141797107Y-101698270D01*
X141747110Y-101720531D01*
X141712414Y-101727905D01*
X141678017Y-101739942D01*
X141630715Y-101745271D01*
X141583588Y-101755289D01*
X141541811Y-101755289D01*
X141500000Y-101760000D01*
X141458189Y-101755289D01*
X141416412Y-101755289D01*
X141369284Y-101745271D01*
X141321983Y-101739942D01*
X141287586Y-101727906D01*
X141252889Y-101720531D01*
X141202887Y-101698268D01*
X141152893Y-101680775D01*
X141126868Y-101664422D01*
X141100164Y-101652533D01*
X141050369Y-101616355D01*
X141001208Y-101585465D01*
X140983554Y-101567811D01*
X140964915Y-101554269D01*
X140918833Y-101503090D01*
X140874535Y-101458792D01*
X140864345Y-101442575D01*
X140853053Y-101430034D01*
X140814420Y-101363120D01*
X140779225Y-101307107D01*
X140774830Y-101294547D01*
X140769464Y-101285253D01*
X140741980Y-101200667D01*
X140720058Y-101138017D01*
X140719226Y-101130639D01*
X140717804Y-101126261D01*
X140704908Y-101003565D01*
X140700000Y-100960000D01*
X140704908Y-100916438D01*
X140717804Y-100793738D01*
X140719226Y-100789358D01*
X140720058Y-100781983D01*
X140741975Y-100719345D01*
X140769464Y-100634746D01*
X140774831Y-100625449D01*
X140779225Y-100612893D01*
X140814413Y-100556890D01*
X140853053Y-100489965D01*
X140864347Y-100477421D01*
X140874535Y-100461208D01*
X140918826Y-100416916D01*
X140964917Y-100365728D01*
X140983559Y-100352183D01*
X141001208Y-100334535D01*
X141050354Y-100303654D01*
X141100162Y-100267467D01*
X141126873Y-100255574D01*
X141152893Y-100239225D01*
X141202877Y-100221734D01*
X141252889Y-100199468D01*
X141287592Y-100192091D01*
X141321983Y-100180058D01*
X141369281Y-100174728D01*
X141416412Y-100164711D01*
X141458189Y-100164711D01*
X141500000Y-100160000D01*
X141541811Y-100164711D01*
G37*
G36*
X126301811Y-97624711D02*
G01*
X126343588Y-97624711D01*
X126390718Y-97634728D01*
X126438017Y-97640058D01*
X126472408Y-97652092D01*
X126507110Y-97659468D01*
X126557117Y-97681733D01*
X126607107Y-97699225D01*
X126633128Y-97715575D01*
X126659835Y-97727466D01*
X126709633Y-97763646D01*
X126758792Y-97794535D01*
X126776444Y-97812187D01*
X126795084Y-97825730D01*
X126841165Y-97876908D01*
X126885465Y-97921208D01*
X126895654Y-97937424D01*
X126906946Y-97949965D01*
X126945573Y-98016870D01*
X126980775Y-98072893D01*
X126985170Y-98085453D01*
X126990535Y-98094746D01*
X127018010Y-98179305D01*
X127039942Y-98241983D01*
X127040773Y-98249363D01*
X127042195Y-98253738D01*
X127055076Y-98376306D01*
X127060000Y-98420000D01*
X127055076Y-98463697D01*
X127042195Y-98586261D01*
X127040773Y-98590635D01*
X127039942Y-98598017D01*
X127018005Y-98660707D01*
X126990535Y-98745253D01*
X126985171Y-98754543D01*
X126980775Y-98767107D01*
X126945566Y-98823140D01*
X126906946Y-98890034D01*
X126895656Y-98902572D01*
X126885465Y-98918792D01*
X126841155Y-98963101D01*
X126795084Y-99014269D01*
X126776448Y-99027808D01*
X126758792Y-99045465D01*
X126709623Y-99076359D01*
X126659835Y-99112533D01*
X126633134Y-99124421D01*
X126607107Y-99140775D01*
X126557107Y-99158270D01*
X126507110Y-99180531D01*
X126472414Y-99187905D01*
X126438017Y-99199942D01*
X126390715Y-99205271D01*
X126343588Y-99215289D01*
X126301811Y-99215289D01*
X126260000Y-99220000D01*
X126218189Y-99215289D01*
X126176412Y-99215289D01*
X126129284Y-99205271D01*
X126081983Y-99199942D01*
X126047586Y-99187906D01*
X126012889Y-99180531D01*
X125962887Y-99158268D01*
X125912893Y-99140775D01*
X125886868Y-99124422D01*
X125860164Y-99112533D01*
X125810369Y-99076355D01*
X125761208Y-99045465D01*
X125743554Y-99027811D01*
X125724915Y-99014269D01*
X125678833Y-98963090D01*
X125634535Y-98918792D01*
X125624345Y-98902575D01*
X125613053Y-98890034D01*
X125574420Y-98823120D01*
X125539225Y-98767107D01*
X125534830Y-98754547D01*
X125529464Y-98745253D01*
X125501980Y-98660667D01*
X125480058Y-98598017D01*
X125479226Y-98590639D01*
X125477804Y-98586261D01*
X125464908Y-98463565D01*
X125460000Y-98420000D01*
X125464908Y-98376438D01*
X125477804Y-98253738D01*
X125479226Y-98249358D01*
X125480058Y-98241983D01*
X125501975Y-98179345D01*
X125529464Y-98094746D01*
X125534831Y-98085449D01*
X125539225Y-98072893D01*
X125574413Y-98016890D01*
X125613053Y-97949965D01*
X125624347Y-97937421D01*
X125634535Y-97921208D01*
X125678826Y-97876916D01*
X125724917Y-97825728D01*
X125743559Y-97812183D01*
X125761208Y-97794535D01*
X125810354Y-97763654D01*
X125860162Y-97727467D01*
X125886873Y-97715574D01*
X125912893Y-97699225D01*
X125962877Y-97681734D01*
X126012889Y-97659468D01*
X126047592Y-97652091D01*
X126081983Y-97640058D01*
X126129281Y-97634728D01*
X126176412Y-97624711D01*
X126218189Y-97624711D01*
X126260000Y-97620000D01*
X126301811Y-97624711D01*
G37*
G36*
X141541811Y-97624711D02*
G01*
X141583588Y-97624711D01*
X141630718Y-97634728D01*
X141678017Y-97640058D01*
X141712408Y-97652092D01*
X141747110Y-97659468D01*
X141797117Y-97681733D01*
X141847107Y-97699225D01*
X141873128Y-97715575D01*
X141899835Y-97727466D01*
X141949633Y-97763646D01*
X141998792Y-97794535D01*
X142016444Y-97812187D01*
X142035084Y-97825730D01*
X142081165Y-97876908D01*
X142125465Y-97921208D01*
X142135654Y-97937424D01*
X142146946Y-97949965D01*
X142185573Y-98016870D01*
X142220775Y-98072893D01*
X142225170Y-98085453D01*
X142230535Y-98094746D01*
X142258010Y-98179305D01*
X142279942Y-98241983D01*
X142280773Y-98249363D01*
X142282195Y-98253738D01*
X142295076Y-98376306D01*
X142300000Y-98420000D01*
X142295076Y-98463697D01*
X142282195Y-98586261D01*
X142280773Y-98590635D01*
X142279942Y-98598017D01*
X142258005Y-98660707D01*
X142230535Y-98745253D01*
X142225171Y-98754543D01*
X142220775Y-98767107D01*
X142185566Y-98823140D01*
X142146946Y-98890034D01*
X142135656Y-98902572D01*
X142125465Y-98918792D01*
X142081155Y-98963101D01*
X142035084Y-99014269D01*
X142016448Y-99027808D01*
X141998792Y-99045465D01*
X141949623Y-99076359D01*
X141899835Y-99112533D01*
X141873134Y-99124421D01*
X141847107Y-99140775D01*
X141797107Y-99158270D01*
X141747110Y-99180531D01*
X141712414Y-99187905D01*
X141678017Y-99199942D01*
X141630715Y-99205271D01*
X141583588Y-99215289D01*
X141541811Y-99215289D01*
X141500000Y-99220000D01*
X141458189Y-99215289D01*
X141416412Y-99215289D01*
X141369284Y-99205271D01*
X141321983Y-99199942D01*
X141287586Y-99187906D01*
X141252889Y-99180531D01*
X141202887Y-99158268D01*
X141152893Y-99140775D01*
X141126868Y-99124422D01*
X141100164Y-99112533D01*
X141050369Y-99076355D01*
X141001208Y-99045465D01*
X140983554Y-99027811D01*
X140964915Y-99014269D01*
X140918833Y-98963090D01*
X140874535Y-98918792D01*
X140864345Y-98902575D01*
X140853053Y-98890034D01*
X140814420Y-98823120D01*
X140779225Y-98767107D01*
X140774830Y-98754547D01*
X140769464Y-98745253D01*
X140741980Y-98660667D01*
X140720058Y-98598017D01*
X140719226Y-98590639D01*
X140717804Y-98586261D01*
X140704908Y-98463565D01*
X140700000Y-98420000D01*
X140704908Y-98376438D01*
X140717804Y-98253738D01*
X140719226Y-98249358D01*
X140720058Y-98241983D01*
X140741975Y-98179345D01*
X140769464Y-98094746D01*
X140774831Y-98085449D01*
X140779225Y-98072893D01*
X140814413Y-98016890D01*
X140853053Y-97949965D01*
X140864347Y-97937421D01*
X140874535Y-97921208D01*
X140918826Y-97876916D01*
X140964917Y-97825728D01*
X140983559Y-97812183D01*
X141001208Y-97794535D01*
X141050354Y-97763654D01*
X141100162Y-97727467D01*
X141126873Y-97715574D01*
X141152893Y-97699225D01*
X141202877Y-97681734D01*
X141252889Y-97659468D01*
X141287592Y-97652091D01*
X141321983Y-97640058D01*
X141369281Y-97634728D01*
X141416412Y-97624711D01*
X141458189Y-97624711D01*
X141500000Y-97620000D01*
X141541811Y-97624711D01*
G37*
G36*
X126301811Y-95084711D02*
G01*
X126343588Y-95084711D01*
X126390718Y-95094728D01*
X126438017Y-95100058D01*
X126472408Y-95112092D01*
X126507110Y-95119468D01*
X126557117Y-95141733D01*
X126607107Y-95159225D01*
X126633128Y-95175575D01*
X126659835Y-95187466D01*
X126709633Y-95223646D01*
X126758792Y-95254535D01*
X126776444Y-95272187D01*
X126795084Y-95285730D01*
X126841165Y-95336908D01*
X126885465Y-95381208D01*
X126895654Y-95397424D01*
X126906946Y-95409965D01*
X126945573Y-95476870D01*
X126980775Y-95532893D01*
X126985170Y-95545453D01*
X126990535Y-95554746D01*
X127018010Y-95639305D01*
X127039942Y-95701983D01*
X127040773Y-95709363D01*
X127042195Y-95713738D01*
X127055076Y-95836306D01*
X127060000Y-95880000D01*
X127055076Y-95923697D01*
X127042195Y-96046261D01*
X127040773Y-96050635D01*
X127039942Y-96058017D01*
X127018005Y-96120707D01*
X126990535Y-96205253D01*
X126985171Y-96214543D01*
X126980775Y-96227107D01*
X126945566Y-96283140D01*
X126906946Y-96350034D01*
X126895656Y-96362572D01*
X126885465Y-96378792D01*
X126841155Y-96423101D01*
X126795084Y-96474269D01*
X126776448Y-96487808D01*
X126758792Y-96505465D01*
X126709623Y-96536359D01*
X126659835Y-96572533D01*
X126633134Y-96584421D01*
X126607107Y-96600775D01*
X126557107Y-96618270D01*
X126507110Y-96640531D01*
X126472414Y-96647905D01*
X126438017Y-96659942D01*
X126390715Y-96665271D01*
X126343588Y-96675289D01*
X126301811Y-96675289D01*
X126260000Y-96680000D01*
X126218189Y-96675289D01*
X126176412Y-96675289D01*
X126129284Y-96665271D01*
X126081983Y-96659942D01*
X126047586Y-96647906D01*
X126012889Y-96640531D01*
X125962887Y-96618268D01*
X125912893Y-96600775D01*
X125886868Y-96584422D01*
X125860164Y-96572533D01*
X125810369Y-96536355D01*
X125761208Y-96505465D01*
X125743554Y-96487811D01*
X125724915Y-96474269D01*
X125678833Y-96423090D01*
X125634535Y-96378792D01*
X125624345Y-96362575D01*
X125613053Y-96350034D01*
X125574420Y-96283120D01*
X125539225Y-96227107D01*
X125534830Y-96214547D01*
X125529464Y-96205253D01*
X125501980Y-96120667D01*
X125480058Y-96058017D01*
X125479226Y-96050639D01*
X125477804Y-96046261D01*
X125464908Y-95923565D01*
X125460000Y-95880000D01*
X125464908Y-95836438D01*
X125477804Y-95713738D01*
X125479226Y-95709358D01*
X125480058Y-95701983D01*
X125501975Y-95639345D01*
X125529464Y-95554746D01*
X125534831Y-95545449D01*
X125539225Y-95532893D01*
X125574413Y-95476890D01*
X125613053Y-95409965D01*
X125624347Y-95397421D01*
X125634535Y-95381208D01*
X125678826Y-95336916D01*
X125724917Y-95285728D01*
X125743559Y-95272183D01*
X125761208Y-95254535D01*
X125810354Y-95223654D01*
X125860162Y-95187467D01*
X125886873Y-95175574D01*
X125912893Y-95159225D01*
X125962877Y-95141734D01*
X126012889Y-95119468D01*
X126047592Y-95112091D01*
X126081983Y-95100058D01*
X126129281Y-95094728D01*
X126176412Y-95084711D01*
X126218189Y-95084711D01*
X126260000Y-95080000D01*
X126301811Y-95084711D01*
G37*
G36*
X141541811Y-95084711D02*
G01*
X141583588Y-95084711D01*
X141630718Y-95094728D01*
X141678017Y-95100058D01*
X141712408Y-95112092D01*
X141747110Y-95119468D01*
X141797117Y-95141733D01*
X141847107Y-95159225D01*
X141873128Y-95175575D01*
X141899835Y-95187466D01*
X141949633Y-95223646D01*
X141998792Y-95254535D01*
X142016444Y-95272187D01*
X142035084Y-95285730D01*
X142081165Y-95336908D01*
X142125465Y-95381208D01*
X142135654Y-95397424D01*
X142146946Y-95409965D01*
X142185573Y-95476870D01*
X142220775Y-95532893D01*
X142225170Y-95545453D01*
X142230535Y-95554746D01*
X142258010Y-95639305D01*
X142279942Y-95701983D01*
X142280773Y-95709363D01*
X142282195Y-95713738D01*
X142295076Y-95836306D01*
X142300000Y-95880000D01*
X142295076Y-95923697D01*
X142282195Y-96046261D01*
X142280773Y-96050635D01*
X142279942Y-96058017D01*
X142258005Y-96120707D01*
X142230535Y-96205253D01*
X142225171Y-96214543D01*
X142220775Y-96227107D01*
X142185566Y-96283140D01*
X142146946Y-96350034D01*
X142135656Y-96362572D01*
X142125465Y-96378792D01*
X142081155Y-96423101D01*
X142035084Y-96474269D01*
X142016448Y-96487808D01*
X141998792Y-96505465D01*
X141949623Y-96536359D01*
X141899835Y-96572533D01*
X141873134Y-96584421D01*
X141847107Y-96600775D01*
X141797107Y-96618270D01*
X141747110Y-96640531D01*
X141712414Y-96647905D01*
X141678017Y-96659942D01*
X141630715Y-96665271D01*
X141583588Y-96675289D01*
X141541811Y-96675289D01*
X141500000Y-96680000D01*
X141458189Y-96675289D01*
X141416412Y-96675289D01*
X141369284Y-96665271D01*
X141321983Y-96659942D01*
X141287586Y-96647906D01*
X141252889Y-96640531D01*
X141202887Y-96618268D01*
X141152893Y-96600775D01*
X141126868Y-96584422D01*
X141100164Y-96572533D01*
X141050369Y-96536355D01*
X141001208Y-96505465D01*
X140983554Y-96487811D01*
X140964915Y-96474269D01*
X140918833Y-96423090D01*
X140874535Y-96378792D01*
X140864345Y-96362575D01*
X140853053Y-96350034D01*
X140814420Y-96283120D01*
X140779225Y-96227107D01*
X140774830Y-96214547D01*
X140769464Y-96205253D01*
X140741980Y-96120667D01*
X140720058Y-96058017D01*
X140719226Y-96050639D01*
X140717804Y-96046261D01*
X140704908Y-95923565D01*
X140700000Y-95880000D01*
X140704908Y-95836438D01*
X140717804Y-95713738D01*
X140719226Y-95709358D01*
X140720058Y-95701983D01*
X140741975Y-95639345D01*
X140769464Y-95554746D01*
X140774831Y-95545449D01*
X140779225Y-95532893D01*
X140814413Y-95476890D01*
X140853053Y-95409965D01*
X140864347Y-95397421D01*
X140874535Y-95381208D01*
X140918826Y-95336916D01*
X140964917Y-95285728D01*
X140983559Y-95272183D01*
X141001208Y-95254535D01*
X141050354Y-95223654D01*
X141100162Y-95187467D01*
X141126873Y-95175574D01*
X141152893Y-95159225D01*
X141202877Y-95141734D01*
X141252889Y-95119468D01*
X141287592Y-95112091D01*
X141321983Y-95100058D01*
X141369281Y-95094728D01*
X141416412Y-95084711D01*
X141458189Y-95084711D01*
X141500000Y-95080000D01*
X141541811Y-95084711D01*
G37*
G36*
X163351811Y-94514711D02*
G01*
X163393588Y-94514711D01*
X163440718Y-94524728D01*
X163488017Y-94530058D01*
X163522408Y-94542092D01*
X163557110Y-94549468D01*
X163607117Y-94571733D01*
X163657107Y-94589225D01*
X163683128Y-94605575D01*
X163709835Y-94617466D01*
X163759633Y-94653646D01*
X163808792Y-94684535D01*
X163826444Y-94702187D01*
X163845084Y-94715730D01*
X163891165Y-94766908D01*
X163935465Y-94811208D01*
X163945654Y-94827424D01*
X163956946Y-94839965D01*
X163995573Y-94906870D01*
X164030775Y-94962893D01*
X164035170Y-94975453D01*
X164040535Y-94984746D01*
X164068010Y-95069305D01*
X164089942Y-95131983D01*
X164090773Y-95139363D01*
X164092195Y-95143738D01*
X164105076Y-95266306D01*
X164110000Y-95310000D01*
X164105076Y-95353697D01*
X164092195Y-95476261D01*
X164090773Y-95480635D01*
X164089942Y-95488017D01*
X164068005Y-95550707D01*
X164040535Y-95635253D01*
X164035171Y-95644543D01*
X164030775Y-95657107D01*
X163995566Y-95713140D01*
X163956946Y-95780034D01*
X163945656Y-95792572D01*
X163935465Y-95808792D01*
X163891155Y-95853101D01*
X163845084Y-95904269D01*
X163826448Y-95917808D01*
X163808792Y-95935465D01*
X163759623Y-95966359D01*
X163709835Y-96002533D01*
X163683134Y-96014421D01*
X163657107Y-96030775D01*
X163607107Y-96048270D01*
X163557110Y-96070531D01*
X163522414Y-96077905D01*
X163488017Y-96089942D01*
X163440715Y-96095271D01*
X163393588Y-96105289D01*
X163351811Y-96105289D01*
X163310000Y-96110000D01*
X163268189Y-96105289D01*
X163226412Y-96105289D01*
X163179284Y-96095271D01*
X163131983Y-96089942D01*
X163097586Y-96077906D01*
X163062889Y-96070531D01*
X163012887Y-96048268D01*
X162962893Y-96030775D01*
X162936868Y-96014422D01*
X162910164Y-96002533D01*
X162860369Y-95966355D01*
X162811208Y-95935465D01*
X162793554Y-95917811D01*
X162774915Y-95904269D01*
X162728833Y-95853090D01*
X162684535Y-95808792D01*
X162674345Y-95792575D01*
X162663053Y-95780034D01*
X162624420Y-95713120D01*
X162589225Y-95657107D01*
X162584830Y-95644547D01*
X162579464Y-95635253D01*
X162551980Y-95550667D01*
X162530058Y-95488017D01*
X162529226Y-95480639D01*
X162527804Y-95476261D01*
X162514908Y-95353565D01*
X162510000Y-95310000D01*
X162514908Y-95266438D01*
X162527804Y-95143738D01*
X162529226Y-95139358D01*
X162530058Y-95131983D01*
X162551975Y-95069345D01*
X162579464Y-94984746D01*
X162584831Y-94975449D01*
X162589225Y-94962893D01*
X162624413Y-94906890D01*
X162663053Y-94839965D01*
X162674347Y-94827421D01*
X162684535Y-94811208D01*
X162728826Y-94766916D01*
X162774917Y-94715728D01*
X162793559Y-94702183D01*
X162811208Y-94684535D01*
X162860354Y-94653654D01*
X162910162Y-94617467D01*
X162936873Y-94605574D01*
X162962893Y-94589225D01*
X163012877Y-94571734D01*
X163062889Y-94549468D01*
X163097592Y-94542091D01*
X163131983Y-94530058D01*
X163179281Y-94524728D01*
X163226412Y-94514711D01*
X163268189Y-94514711D01*
X163310000Y-94510000D01*
X163351811Y-94514711D01*
G37*
G36*
X158351811Y-93204711D02*
G01*
X158393588Y-93204711D01*
X158440718Y-93214728D01*
X158488017Y-93220058D01*
X158522408Y-93232092D01*
X158557110Y-93239468D01*
X158607117Y-93261733D01*
X158657107Y-93279225D01*
X158683128Y-93295575D01*
X158709835Y-93307466D01*
X158759633Y-93343646D01*
X158808792Y-93374535D01*
X158826444Y-93392187D01*
X158845084Y-93405730D01*
X158891165Y-93456908D01*
X158935465Y-93501208D01*
X158945654Y-93517424D01*
X158956946Y-93529965D01*
X158995573Y-93596870D01*
X159030775Y-93652893D01*
X159035170Y-93665453D01*
X159040535Y-93674746D01*
X159068010Y-93759305D01*
X159089942Y-93821983D01*
X159090773Y-93829363D01*
X159092195Y-93833738D01*
X159105076Y-93956306D01*
X159110000Y-94000000D01*
X159105076Y-94043697D01*
X159092195Y-94166261D01*
X159090773Y-94170635D01*
X159089942Y-94178017D01*
X159068005Y-94240707D01*
X159040535Y-94325253D01*
X159035171Y-94334543D01*
X159030775Y-94347107D01*
X158995566Y-94403140D01*
X158956946Y-94470034D01*
X158945656Y-94482572D01*
X158935465Y-94498792D01*
X158891155Y-94543101D01*
X158845084Y-94594269D01*
X158826448Y-94607808D01*
X158808792Y-94625465D01*
X158759623Y-94656359D01*
X158709835Y-94692533D01*
X158683134Y-94704421D01*
X158657107Y-94720775D01*
X158607107Y-94738270D01*
X158557110Y-94760531D01*
X158522414Y-94767905D01*
X158488017Y-94779942D01*
X158440715Y-94785271D01*
X158393588Y-94795289D01*
X158351811Y-94795289D01*
X158310000Y-94800000D01*
X158268189Y-94795289D01*
X158226412Y-94795289D01*
X158179284Y-94785271D01*
X158131983Y-94779942D01*
X158097586Y-94767906D01*
X158062889Y-94760531D01*
X158012887Y-94738268D01*
X157962893Y-94720775D01*
X157936868Y-94704422D01*
X157910164Y-94692533D01*
X157860369Y-94656355D01*
X157811208Y-94625465D01*
X157793554Y-94607811D01*
X157774915Y-94594269D01*
X157728833Y-94543090D01*
X157684535Y-94498792D01*
X157674345Y-94482575D01*
X157663053Y-94470034D01*
X157624420Y-94403120D01*
X157589225Y-94347107D01*
X157584830Y-94334547D01*
X157579464Y-94325253D01*
X157551980Y-94240667D01*
X157530058Y-94178017D01*
X157529226Y-94170639D01*
X157527804Y-94166261D01*
X157514908Y-94043565D01*
X157510000Y-94000000D01*
X157514908Y-93956438D01*
X157527804Y-93833738D01*
X157529226Y-93829358D01*
X157530058Y-93821983D01*
X157551975Y-93759345D01*
X157579464Y-93674746D01*
X157584831Y-93665449D01*
X157589225Y-93652893D01*
X157624413Y-93596890D01*
X157663053Y-93529965D01*
X157674347Y-93517421D01*
X157684535Y-93501208D01*
X157728826Y-93456916D01*
X157774917Y-93405728D01*
X157793559Y-93392183D01*
X157811208Y-93374535D01*
X157860354Y-93343654D01*
X157910162Y-93307467D01*
X157936873Y-93295574D01*
X157962893Y-93279225D01*
X158012877Y-93261734D01*
X158062889Y-93239468D01*
X158097592Y-93232091D01*
X158131983Y-93220058D01*
X158179281Y-93214728D01*
X158226412Y-93204711D01*
X158268189Y-93204711D01*
X158310000Y-93200000D01*
X158351811Y-93204711D01*
G37*
G36*
X146995090Y-92769215D02*
G01*
X147182683Y-92826120D01*
X147355570Y-92918530D01*
X147507107Y-93042893D01*
X147631470Y-93194430D01*
X147723880Y-93367317D01*
X147780785Y-93554910D01*
X147800000Y-93750000D01*
X147780785Y-93945090D01*
X147723880Y-94132683D01*
X147631470Y-94305570D01*
X147507107Y-94457107D01*
X147355570Y-94581470D01*
X147182683Y-94673880D01*
X146995090Y-94730785D01*
X146800000Y-94750000D01*
X146604910Y-94730785D01*
X146417317Y-94673880D01*
X146244430Y-94581470D01*
X146092893Y-94457107D01*
X145968530Y-94305570D01*
X145876120Y-94132683D01*
X145819215Y-93945090D01*
X145800000Y-93750000D01*
X145819215Y-93554910D01*
X145876120Y-93367317D01*
X145968530Y-93194430D01*
X146092893Y-93042893D01*
X146244430Y-92918530D01*
X146417317Y-92826120D01*
X146604910Y-92769215D01*
X146800000Y-92750000D01*
X146995090Y-92769215D01*
G37*
G36*
X153495090Y-92769215D02*
G01*
X153682683Y-92826120D01*
X153855570Y-92918530D01*
X154007107Y-93042893D01*
X154131470Y-93194430D01*
X154223880Y-93367317D01*
X154280785Y-93554910D01*
X154300000Y-93750000D01*
X154280785Y-93945090D01*
X154223880Y-94132683D01*
X154131470Y-94305570D01*
X154007107Y-94457107D01*
X153855570Y-94581470D01*
X153682683Y-94673880D01*
X153495090Y-94730785D01*
X153300000Y-94750000D01*
X153104910Y-94730785D01*
X152917317Y-94673880D01*
X152744430Y-94581470D01*
X152592893Y-94457107D01*
X152468530Y-94305570D01*
X152376120Y-94132683D01*
X152319215Y-93945090D01*
X152300000Y-93750000D01*
X152319215Y-93554910D01*
X152376120Y-93367317D01*
X152468530Y-93194430D01*
X152592893Y-93042893D01*
X152744430Y-92918530D01*
X152917317Y-92826120D01*
X153104910Y-92769215D01*
X153300000Y-92750000D01*
X153495090Y-92769215D01*
G37*
G36*
X126301811Y-92544711D02*
G01*
X126343588Y-92544711D01*
X126390718Y-92554728D01*
X126438017Y-92560058D01*
X126472408Y-92572092D01*
X126507110Y-92579468D01*
X126557117Y-92601733D01*
X126607107Y-92619225D01*
X126633128Y-92635575D01*
X126659835Y-92647466D01*
X126709633Y-92683646D01*
X126758792Y-92714535D01*
X126776444Y-92732187D01*
X126795084Y-92745730D01*
X126841165Y-92796908D01*
X126885465Y-92841208D01*
X126895654Y-92857424D01*
X126906946Y-92869965D01*
X126945573Y-92936870D01*
X126980775Y-92992893D01*
X126985170Y-93005453D01*
X126990535Y-93014746D01*
X127018010Y-93099305D01*
X127039942Y-93161983D01*
X127040773Y-93169363D01*
X127042195Y-93173738D01*
X127055076Y-93296306D01*
X127060000Y-93340000D01*
X127055076Y-93383697D01*
X127042195Y-93506261D01*
X127040773Y-93510635D01*
X127039942Y-93518017D01*
X127018005Y-93580707D01*
X126990535Y-93665253D01*
X126985171Y-93674543D01*
X126980775Y-93687107D01*
X126945566Y-93743140D01*
X126906946Y-93810034D01*
X126895656Y-93822572D01*
X126885465Y-93838792D01*
X126841155Y-93883101D01*
X126795084Y-93934269D01*
X126776448Y-93947808D01*
X126758792Y-93965465D01*
X126709623Y-93996359D01*
X126659835Y-94032533D01*
X126633134Y-94044421D01*
X126607107Y-94060775D01*
X126557107Y-94078270D01*
X126507110Y-94100531D01*
X126472414Y-94107905D01*
X126438017Y-94119942D01*
X126390715Y-94125271D01*
X126343588Y-94135289D01*
X126301811Y-94135289D01*
X126260000Y-94140000D01*
X126218189Y-94135289D01*
X126176412Y-94135289D01*
X126129284Y-94125271D01*
X126081983Y-94119942D01*
X126047586Y-94107906D01*
X126012889Y-94100531D01*
X125962887Y-94078268D01*
X125912893Y-94060775D01*
X125886868Y-94044422D01*
X125860164Y-94032533D01*
X125810369Y-93996355D01*
X125761208Y-93965465D01*
X125743554Y-93947811D01*
X125724915Y-93934269D01*
X125678833Y-93883090D01*
X125634535Y-93838792D01*
X125624345Y-93822575D01*
X125613053Y-93810034D01*
X125574420Y-93743120D01*
X125539225Y-93687107D01*
X125534830Y-93674547D01*
X125529464Y-93665253D01*
X125501980Y-93580667D01*
X125480058Y-93518017D01*
X125479226Y-93510639D01*
X125477804Y-93506261D01*
X125464908Y-93383565D01*
X125460000Y-93340000D01*
X125464908Y-93296438D01*
X125477804Y-93173738D01*
X125479226Y-93169358D01*
X125480058Y-93161983D01*
X125501975Y-93099345D01*
X125529464Y-93014746D01*
X125534831Y-93005449D01*
X125539225Y-92992893D01*
X125574413Y-92936890D01*
X125613053Y-92869965D01*
X125624347Y-92857421D01*
X125634535Y-92841208D01*
X125678826Y-92796916D01*
X125724917Y-92745728D01*
X125743559Y-92732183D01*
X125761208Y-92714535D01*
X125810354Y-92683654D01*
X125860162Y-92647467D01*
X125886873Y-92635574D01*
X125912893Y-92619225D01*
X125962877Y-92601734D01*
X126012889Y-92579468D01*
X126047592Y-92572091D01*
X126081983Y-92560058D01*
X126129281Y-92554728D01*
X126176412Y-92544711D01*
X126218189Y-92544711D01*
X126260000Y-92540000D01*
X126301811Y-92544711D01*
G37*
G36*
X141541811Y-92544711D02*
G01*
X141583588Y-92544711D01*
X141630718Y-92554728D01*
X141678017Y-92560058D01*
X141712408Y-92572092D01*
X141747110Y-92579468D01*
X141797117Y-92601733D01*
X141847107Y-92619225D01*
X141873128Y-92635575D01*
X141899835Y-92647466D01*
X141949633Y-92683646D01*
X141998792Y-92714535D01*
X142016444Y-92732187D01*
X142035084Y-92745730D01*
X142081165Y-92796908D01*
X142125465Y-92841208D01*
X142135654Y-92857424D01*
X142146946Y-92869965D01*
X142185573Y-92936870D01*
X142220775Y-92992893D01*
X142225170Y-93005453D01*
X142230535Y-93014746D01*
X142258010Y-93099305D01*
X142279942Y-93161983D01*
X142280773Y-93169363D01*
X142282195Y-93173738D01*
X142295076Y-93296306D01*
X142300000Y-93340000D01*
X142295076Y-93383697D01*
X142282195Y-93506261D01*
X142280773Y-93510635D01*
X142279942Y-93518017D01*
X142258005Y-93580707D01*
X142230535Y-93665253D01*
X142225171Y-93674543D01*
X142220775Y-93687107D01*
X142185566Y-93743140D01*
X142146946Y-93810034D01*
X142135656Y-93822572D01*
X142125465Y-93838792D01*
X142081155Y-93883101D01*
X142035084Y-93934269D01*
X142016448Y-93947808D01*
X141998792Y-93965465D01*
X141949623Y-93996359D01*
X141899835Y-94032533D01*
X141873134Y-94044421D01*
X141847107Y-94060775D01*
X141797107Y-94078270D01*
X141747110Y-94100531D01*
X141712414Y-94107905D01*
X141678017Y-94119942D01*
X141630715Y-94125271D01*
X141583588Y-94135289D01*
X141541811Y-94135289D01*
X141500000Y-94140000D01*
X141458189Y-94135289D01*
X141416412Y-94135289D01*
X141369284Y-94125271D01*
X141321983Y-94119942D01*
X141287586Y-94107906D01*
X141252889Y-94100531D01*
X141202887Y-94078268D01*
X141152893Y-94060775D01*
X141126868Y-94044422D01*
X141100164Y-94032533D01*
X141050369Y-93996355D01*
X141001208Y-93965465D01*
X140983554Y-93947811D01*
X140964915Y-93934269D01*
X140918833Y-93883090D01*
X140874535Y-93838792D01*
X140864345Y-93822575D01*
X140853053Y-93810034D01*
X140814420Y-93743120D01*
X140779225Y-93687107D01*
X140774830Y-93674547D01*
X140769464Y-93665253D01*
X140741980Y-93580667D01*
X140720058Y-93518017D01*
X140719226Y-93510639D01*
X140717804Y-93506261D01*
X140704908Y-93383565D01*
X140700000Y-93340000D01*
X140704908Y-93296438D01*
X140717804Y-93173738D01*
X140719226Y-93169358D01*
X140720058Y-93161983D01*
X140741975Y-93099345D01*
X140769464Y-93014746D01*
X140774831Y-93005449D01*
X140779225Y-92992893D01*
X140814413Y-92936890D01*
X140853053Y-92869965D01*
X140864347Y-92857421D01*
X140874535Y-92841208D01*
X140918826Y-92796916D01*
X140964917Y-92745728D01*
X140983559Y-92732183D01*
X141001208Y-92714535D01*
X141050354Y-92683654D01*
X141100162Y-92647467D01*
X141126873Y-92635574D01*
X141152893Y-92619225D01*
X141202877Y-92601734D01*
X141252889Y-92579468D01*
X141287592Y-92572091D01*
X141321983Y-92560058D01*
X141369281Y-92554728D01*
X141416412Y-92544711D01*
X141458189Y-92544711D01*
X141500000Y-92540000D01*
X141541811Y-92544711D01*
G37*
G36*
X126301811Y-90004711D02*
G01*
X126343588Y-90004711D01*
X126390718Y-90014728D01*
X126438017Y-90020058D01*
X126472408Y-90032092D01*
X126507110Y-90039468D01*
X126557117Y-90061733D01*
X126607107Y-90079225D01*
X126633128Y-90095575D01*
X126659835Y-90107466D01*
X126709633Y-90143646D01*
X126758792Y-90174535D01*
X126776444Y-90192187D01*
X126795084Y-90205730D01*
X126841165Y-90256908D01*
X126885465Y-90301208D01*
X126895654Y-90317424D01*
X126906946Y-90329965D01*
X126945573Y-90396870D01*
X126980775Y-90452893D01*
X126985170Y-90465453D01*
X126990535Y-90474746D01*
X127018010Y-90559305D01*
X127039942Y-90621983D01*
X127040773Y-90629363D01*
X127042195Y-90633738D01*
X127055076Y-90756306D01*
X127060000Y-90800000D01*
X127055076Y-90843697D01*
X127042195Y-90966261D01*
X127040773Y-90970635D01*
X127039942Y-90978017D01*
X127018005Y-91040707D01*
X126990535Y-91125253D01*
X126985171Y-91134543D01*
X126980775Y-91147107D01*
X126945566Y-91203140D01*
X126906946Y-91270034D01*
X126895656Y-91282572D01*
X126885465Y-91298792D01*
X126841155Y-91343101D01*
X126795084Y-91394269D01*
X126776448Y-91407808D01*
X126758792Y-91425465D01*
X126709623Y-91456359D01*
X126659835Y-91492533D01*
X126633134Y-91504421D01*
X126607107Y-91520775D01*
X126557107Y-91538270D01*
X126507110Y-91560531D01*
X126472414Y-91567905D01*
X126438017Y-91579942D01*
X126390715Y-91585271D01*
X126343588Y-91595289D01*
X126301811Y-91595289D01*
X126260000Y-91600000D01*
X126218189Y-91595289D01*
X126176412Y-91595289D01*
X126129284Y-91585271D01*
X126081983Y-91579942D01*
X126047586Y-91567906D01*
X126012889Y-91560531D01*
X125962887Y-91538268D01*
X125912893Y-91520775D01*
X125886868Y-91504422D01*
X125860164Y-91492533D01*
X125810369Y-91456355D01*
X125761208Y-91425465D01*
X125743554Y-91407811D01*
X125724915Y-91394269D01*
X125678833Y-91343090D01*
X125634535Y-91298792D01*
X125624345Y-91282575D01*
X125613053Y-91270034D01*
X125574420Y-91203120D01*
X125539225Y-91147107D01*
X125534830Y-91134547D01*
X125529464Y-91125253D01*
X125501980Y-91040667D01*
X125480058Y-90978017D01*
X125479226Y-90970639D01*
X125477804Y-90966261D01*
X125464908Y-90843565D01*
X125460000Y-90800000D01*
X125464908Y-90756438D01*
X125477804Y-90633738D01*
X125479226Y-90629358D01*
X125480058Y-90621983D01*
X125501975Y-90559345D01*
X125529464Y-90474746D01*
X125534831Y-90465449D01*
X125539225Y-90452893D01*
X125574413Y-90396890D01*
X125613053Y-90329965D01*
X125624347Y-90317421D01*
X125634535Y-90301208D01*
X125678826Y-90256916D01*
X125724917Y-90205728D01*
X125743559Y-90192183D01*
X125761208Y-90174535D01*
X125810354Y-90143654D01*
X125860162Y-90107467D01*
X125886873Y-90095574D01*
X125912893Y-90079225D01*
X125962877Y-90061734D01*
X126012889Y-90039468D01*
X126047592Y-90032091D01*
X126081983Y-90020058D01*
X126129281Y-90014728D01*
X126176412Y-90004711D01*
X126218189Y-90004711D01*
X126260000Y-90000000D01*
X126301811Y-90004711D01*
G37*
G36*
X141541811Y-90004711D02*
G01*
X141583588Y-90004711D01*
X141630718Y-90014728D01*
X141678017Y-90020058D01*
X141712408Y-90032092D01*
X141747110Y-90039468D01*
X141797117Y-90061733D01*
X141847107Y-90079225D01*
X141873128Y-90095575D01*
X141899835Y-90107466D01*
X141949633Y-90143646D01*
X141998792Y-90174535D01*
X142016444Y-90192187D01*
X142035084Y-90205730D01*
X142081165Y-90256908D01*
X142125465Y-90301208D01*
X142135654Y-90317424D01*
X142146946Y-90329965D01*
X142185573Y-90396870D01*
X142220775Y-90452893D01*
X142225170Y-90465453D01*
X142230535Y-90474746D01*
X142258010Y-90559305D01*
X142279942Y-90621983D01*
X142280773Y-90629363D01*
X142282195Y-90633738D01*
X142295076Y-90756306D01*
X142300000Y-90800000D01*
X142295076Y-90843697D01*
X142282195Y-90966261D01*
X142280773Y-90970635D01*
X142279942Y-90978017D01*
X142258005Y-91040707D01*
X142230535Y-91125253D01*
X142225171Y-91134543D01*
X142220775Y-91147107D01*
X142185566Y-91203140D01*
X142146946Y-91270034D01*
X142135656Y-91282572D01*
X142125465Y-91298792D01*
X142081155Y-91343101D01*
X142035084Y-91394269D01*
X142016448Y-91407808D01*
X141998792Y-91425465D01*
X141949623Y-91456359D01*
X141899835Y-91492533D01*
X141873134Y-91504421D01*
X141847107Y-91520775D01*
X141797107Y-91538270D01*
X141747110Y-91560531D01*
X141712414Y-91567905D01*
X141678017Y-91579942D01*
X141630715Y-91585271D01*
X141583588Y-91595289D01*
X141541811Y-91595289D01*
X141500000Y-91600000D01*
X141458189Y-91595289D01*
X141416412Y-91595289D01*
X141369284Y-91585271D01*
X141321983Y-91579942D01*
X141287586Y-91567906D01*
X141252889Y-91560531D01*
X141202887Y-91538268D01*
X141152893Y-91520775D01*
X141126868Y-91504422D01*
X141100164Y-91492533D01*
X141050369Y-91456355D01*
X141001208Y-91425465D01*
X140983554Y-91407811D01*
X140964915Y-91394269D01*
X140918833Y-91343090D01*
X140874535Y-91298792D01*
X140864345Y-91282575D01*
X140853053Y-91270034D01*
X140814420Y-91203120D01*
X140779225Y-91147107D01*
X140774830Y-91134547D01*
X140769464Y-91125253D01*
X140741980Y-91040667D01*
X140720058Y-90978017D01*
X140719226Y-90970639D01*
X140717804Y-90966261D01*
X140704908Y-90843565D01*
X140700000Y-90800000D01*
X140704908Y-90756438D01*
X140717804Y-90633738D01*
X140719226Y-90629358D01*
X140720058Y-90621983D01*
X140741975Y-90559345D01*
X140769464Y-90474746D01*
X140774831Y-90465449D01*
X140779225Y-90452893D01*
X140814413Y-90396890D01*
X140853053Y-90329965D01*
X140864347Y-90317421D01*
X140874535Y-90301208D01*
X140918826Y-90256916D01*
X140964917Y-90205728D01*
X140983559Y-90192183D01*
X141001208Y-90174535D01*
X141050354Y-90143654D01*
X141100162Y-90107467D01*
X141126873Y-90095574D01*
X141152893Y-90079225D01*
X141202877Y-90061734D01*
X141252889Y-90039468D01*
X141287592Y-90032091D01*
X141321983Y-90020058D01*
X141369281Y-90014728D01*
X141416412Y-90004711D01*
X141458189Y-90004711D01*
X141500000Y-90000000D01*
X141541811Y-90004711D01*
G37*
G36*
X146995090Y-88269215D02*
G01*
X147182683Y-88326120D01*
X147355570Y-88418530D01*
X147507107Y-88542893D01*
X147631470Y-88694430D01*
X147723880Y-88867317D01*
X147780785Y-89054910D01*
X147800000Y-89250000D01*
X147780785Y-89445090D01*
X147723880Y-89632683D01*
X147631470Y-89805570D01*
X147507107Y-89957107D01*
X147355570Y-90081470D01*
X147182683Y-90173880D01*
X146995090Y-90230785D01*
X146800000Y-90250000D01*
X146604910Y-90230785D01*
X146417317Y-90173880D01*
X146244430Y-90081470D01*
X146092893Y-89957107D01*
X145968530Y-89805570D01*
X145876120Y-89632683D01*
X145819215Y-89445090D01*
X145800000Y-89250000D01*
X145819215Y-89054910D01*
X145876120Y-88867317D01*
X145968530Y-88694430D01*
X146092893Y-88542893D01*
X146244430Y-88418530D01*
X146417317Y-88326120D01*
X146604910Y-88269215D01*
X146800000Y-88250000D01*
X146995090Y-88269215D01*
G37*
G36*
X153495090Y-88269215D02*
G01*
X153682683Y-88326120D01*
X153855570Y-88418530D01*
X154007107Y-88542893D01*
X154131470Y-88694430D01*
X154223880Y-88867317D01*
X154280785Y-89054910D01*
X154300000Y-89250000D01*
X154280785Y-89445090D01*
X154223880Y-89632683D01*
X154131470Y-89805570D01*
X154007107Y-89957107D01*
X153855570Y-90081470D01*
X153682683Y-90173880D01*
X153495090Y-90230785D01*
X153300000Y-90250000D01*
X153104910Y-90230785D01*
X152917317Y-90173880D01*
X152744430Y-90081470D01*
X152592893Y-89957107D01*
X152468530Y-89805570D01*
X152376120Y-89632683D01*
X152319215Y-89445090D01*
X152300000Y-89250000D01*
X152319215Y-89054910D01*
X152376120Y-88867317D01*
X152468530Y-88694430D01*
X152592893Y-88542893D01*
X152744430Y-88418530D01*
X152917317Y-88326120D01*
X153104910Y-88269215D01*
X153300000Y-88250000D01*
X153495090Y-88269215D01*
G37*
G36*
X158351811Y-88204711D02*
G01*
X158393588Y-88204711D01*
X158440718Y-88214728D01*
X158488017Y-88220058D01*
X158522408Y-88232092D01*
X158557110Y-88239468D01*
X158607117Y-88261733D01*
X158657107Y-88279225D01*
X158683128Y-88295575D01*
X158709835Y-88307466D01*
X158759633Y-88343646D01*
X158808792Y-88374535D01*
X158826444Y-88392187D01*
X158845084Y-88405730D01*
X158891165Y-88456908D01*
X158935465Y-88501208D01*
X158945654Y-88517424D01*
X158956946Y-88529965D01*
X158995573Y-88596870D01*
X159030775Y-88652893D01*
X159035170Y-88665453D01*
X159040535Y-88674746D01*
X159068010Y-88759305D01*
X159089942Y-88821983D01*
X159090773Y-88829363D01*
X159092195Y-88833738D01*
X159105076Y-88956306D01*
X159110000Y-89000000D01*
X159105076Y-89043697D01*
X159092195Y-89166261D01*
X159090773Y-89170635D01*
X159089942Y-89178017D01*
X159068005Y-89240707D01*
X159040535Y-89325253D01*
X159035171Y-89334543D01*
X159030775Y-89347107D01*
X158995566Y-89403140D01*
X158956946Y-89470034D01*
X158945656Y-89482572D01*
X158935465Y-89498792D01*
X158891155Y-89543101D01*
X158845084Y-89594269D01*
X158826448Y-89607808D01*
X158808792Y-89625465D01*
X158759623Y-89656359D01*
X158709835Y-89692533D01*
X158683134Y-89704421D01*
X158657107Y-89720775D01*
X158607107Y-89738270D01*
X158557110Y-89760531D01*
X158522414Y-89767905D01*
X158488017Y-89779942D01*
X158440715Y-89785271D01*
X158393588Y-89795289D01*
X158351811Y-89795289D01*
X158310000Y-89800000D01*
X158268189Y-89795289D01*
X158226412Y-89795289D01*
X158179284Y-89785271D01*
X158131983Y-89779942D01*
X158097586Y-89767906D01*
X158062889Y-89760531D01*
X158012887Y-89738268D01*
X157962893Y-89720775D01*
X157936868Y-89704422D01*
X157910164Y-89692533D01*
X157860369Y-89656355D01*
X157811208Y-89625465D01*
X157793554Y-89607811D01*
X157774915Y-89594269D01*
X157728833Y-89543090D01*
X157684535Y-89498792D01*
X157674345Y-89482575D01*
X157663053Y-89470034D01*
X157624420Y-89403120D01*
X157589225Y-89347107D01*
X157584830Y-89334547D01*
X157579464Y-89325253D01*
X157551980Y-89240667D01*
X157530058Y-89178017D01*
X157529226Y-89170639D01*
X157527804Y-89166261D01*
X157514908Y-89043565D01*
X157510000Y-89000000D01*
X157514908Y-88956438D01*
X157527804Y-88833738D01*
X157529226Y-88829358D01*
X157530058Y-88821983D01*
X157551975Y-88759345D01*
X157579464Y-88674746D01*
X157584831Y-88665449D01*
X157589225Y-88652893D01*
X157624413Y-88596890D01*
X157663053Y-88529965D01*
X157674347Y-88517421D01*
X157684535Y-88501208D01*
X157728826Y-88456916D01*
X157774917Y-88405728D01*
X157793559Y-88392183D01*
X157811208Y-88374535D01*
X157860354Y-88343654D01*
X157910162Y-88307467D01*
X157936873Y-88295574D01*
X157962893Y-88279225D01*
X158012877Y-88261734D01*
X158062889Y-88239468D01*
X158097592Y-88232091D01*
X158131983Y-88220058D01*
X158179281Y-88214728D01*
X158226412Y-88204711D01*
X158268189Y-88204711D01*
X158310000Y-88200000D01*
X158351811Y-88204711D01*
G37*
G36*
X126301811Y-87464711D02*
G01*
X126343588Y-87464711D01*
X126390718Y-87474728D01*
X126438017Y-87480058D01*
X126472408Y-87492092D01*
X126507110Y-87499468D01*
X126557117Y-87521733D01*
X126607107Y-87539225D01*
X126633128Y-87555575D01*
X126659835Y-87567466D01*
X126709633Y-87603646D01*
X126758792Y-87634535D01*
X126776444Y-87652187D01*
X126795084Y-87665730D01*
X126841165Y-87716908D01*
X126885465Y-87761208D01*
X126895654Y-87777424D01*
X126906946Y-87789965D01*
X126945573Y-87856870D01*
X126980775Y-87912893D01*
X126985170Y-87925453D01*
X126990535Y-87934746D01*
X127018010Y-88019305D01*
X127039942Y-88081983D01*
X127040773Y-88089363D01*
X127042195Y-88093738D01*
X127055076Y-88216306D01*
X127060000Y-88260000D01*
X127055076Y-88303697D01*
X127042195Y-88426261D01*
X127040773Y-88430635D01*
X127039942Y-88438017D01*
X127018005Y-88500707D01*
X126990535Y-88585253D01*
X126985171Y-88594543D01*
X126980775Y-88607107D01*
X126945566Y-88663140D01*
X126906946Y-88730034D01*
X126895656Y-88742572D01*
X126885465Y-88758792D01*
X126841155Y-88803101D01*
X126795084Y-88854269D01*
X126776448Y-88867808D01*
X126758792Y-88885465D01*
X126709623Y-88916359D01*
X126659835Y-88952533D01*
X126633134Y-88964421D01*
X126607107Y-88980775D01*
X126557107Y-88998270D01*
X126507110Y-89020531D01*
X126472414Y-89027905D01*
X126438017Y-89039942D01*
X126390715Y-89045271D01*
X126343588Y-89055289D01*
X126301811Y-89055289D01*
X126260000Y-89060000D01*
X126218189Y-89055289D01*
X126176412Y-89055289D01*
X126129284Y-89045271D01*
X126081983Y-89039942D01*
X126047586Y-89027906D01*
X126012889Y-89020531D01*
X125962887Y-88998268D01*
X125912893Y-88980775D01*
X125886868Y-88964422D01*
X125860164Y-88952533D01*
X125810369Y-88916355D01*
X125761208Y-88885465D01*
X125743554Y-88867811D01*
X125724915Y-88854269D01*
X125678833Y-88803090D01*
X125634535Y-88758792D01*
X125624345Y-88742575D01*
X125613053Y-88730034D01*
X125574420Y-88663120D01*
X125539225Y-88607107D01*
X125534830Y-88594547D01*
X125529464Y-88585253D01*
X125501980Y-88500667D01*
X125480058Y-88438017D01*
X125479226Y-88430639D01*
X125477804Y-88426261D01*
X125464908Y-88303565D01*
X125460000Y-88260000D01*
X125464908Y-88216438D01*
X125477804Y-88093738D01*
X125479226Y-88089358D01*
X125480058Y-88081983D01*
X125501975Y-88019345D01*
X125529464Y-87934746D01*
X125534831Y-87925449D01*
X125539225Y-87912893D01*
X125574413Y-87856890D01*
X125613053Y-87789965D01*
X125624347Y-87777421D01*
X125634535Y-87761208D01*
X125678826Y-87716916D01*
X125724917Y-87665728D01*
X125743559Y-87652183D01*
X125761208Y-87634535D01*
X125810354Y-87603654D01*
X125860162Y-87567467D01*
X125886873Y-87555574D01*
X125912893Y-87539225D01*
X125962877Y-87521734D01*
X126012889Y-87499468D01*
X126047592Y-87492091D01*
X126081983Y-87480058D01*
X126129281Y-87474728D01*
X126176412Y-87464711D01*
X126218189Y-87464711D01*
X126260000Y-87460000D01*
X126301811Y-87464711D01*
G37*
G36*
X141541811Y-87464711D02*
G01*
X141583588Y-87464711D01*
X141630718Y-87474728D01*
X141678017Y-87480058D01*
X141712408Y-87492092D01*
X141747110Y-87499468D01*
X141797117Y-87521733D01*
X141847107Y-87539225D01*
X141873128Y-87555575D01*
X141899835Y-87567466D01*
X141949633Y-87603646D01*
X141998792Y-87634535D01*
X142016444Y-87652187D01*
X142035084Y-87665730D01*
X142081165Y-87716908D01*
X142125465Y-87761208D01*
X142135654Y-87777424D01*
X142146946Y-87789965D01*
X142185573Y-87856870D01*
X142220775Y-87912893D01*
X142225170Y-87925453D01*
X142230535Y-87934746D01*
X142258010Y-88019305D01*
X142279942Y-88081983D01*
X142280773Y-88089363D01*
X142282195Y-88093738D01*
X142295076Y-88216306D01*
X142300000Y-88260000D01*
X142295076Y-88303697D01*
X142282195Y-88426261D01*
X142280773Y-88430635D01*
X142279942Y-88438017D01*
X142258005Y-88500707D01*
X142230535Y-88585253D01*
X142225171Y-88594543D01*
X142220775Y-88607107D01*
X142185566Y-88663140D01*
X142146946Y-88730034D01*
X142135656Y-88742572D01*
X142125465Y-88758792D01*
X142081155Y-88803101D01*
X142035084Y-88854269D01*
X142016448Y-88867808D01*
X141998792Y-88885465D01*
X141949623Y-88916359D01*
X141899835Y-88952533D01*
X141873134Y-88964421D01*
X141847107Y-88980775D01*
X141797107Y-88998270D01*
X141747110Y-89020531D01*
X141712414Y-89027905D01*
X141678017Y-89039942D01*
X141630715Y-89045271D01*
X141583588Y-89055289D01*
X141541811Y-89055289D01*
X141500000Y-89060000D01*
X141458189Y-89055289D01*
X141416412Y-89055289D01*
X141369284Y-89045271D01*
X141321983Y-89039942D01*
X141287586Y-89027906D01*
X141252889Y-89020531D01*
X141202887Y-88998268D01*
X141152893Y-88980775D01*
X141126868Y-88964422D01*
X141100164Y-88952533D01*
X141050369Y-88916355D01*
X141001208Y-88885465D01*
X140983554Y-88867811D01*
X140964915Y-88854269D01*
X140918833Y-88803090D01*
X140874535Y-88758792D01*
X140864345Y-88742575D01*
X140853053Y-88730034D01*
X140814420Y-88663120D01*
X140779225Y-88607107D01*
X140774830Y-88594547D01*
X140769464Y-88585253D01*
X140741980Y-88500667D01*
X140720058Y-88438017D01*
X140719226Y-88430639D01*
X140717804Y-88426261D01*
X140704908Y-88303565D01*
X140700000Y-88260000D01*
X140704908Y-88216438D01*
X140717804Y-88093738D01*
X140719226Y-88089358D01*
X140720058Y-88081983D01*
X140741975Y-88019345D01*
X140769464Y-87934746D01*
X140774831Y-87925449D01*
X140779225Y-87912893D01*
X140814413Y-87856890D01*
X140853053Y-87789965D01*
X140864347Y-87777421D01*
X140874535Y-87761208D01*
X140918826Y-87716916D01*
X140964917Y-87665728D01*
X140983559Y-87652183D01*
X141001208Y-87634535D01*
X141050354Y-87603654D01*
X141100162Y-87567467D01*
X141126873Y-87555574D01*
X141152893Y-87539225D01*
X141202877Y-87521734D01*
X141252889Y-87499468D01*
X141287592Y-87492091D01*
X141321983Y-87480058D01*
X141369281Y-87474728D01*
X141416412Y-87464711D01*
X141458189Y-87464711D01*
X141500000Y-87460000D01*
X141541811Y-87464711D01*
G37*
G36*
X163351811Y-86894711D02*
G01*
X163393588Y-86894711D01*
X163440718Y-86904728D01*
X163488017Y-86910058D01*
X163522408Y-86922092D01*
X163557110Y-86929468D01*
X163607117Y-86951733D01*
X163657107Y-86969225D01*
X163683128Y-86985575D01*
X163709835Y-86997466D01*
X163759633Y-87033646D01*
X163808792Y-87064535D01*
X163826444Y-87082187D01*
X163845084Y-87095730D01*
X163891165Y-87146908D01*
X163935465Y-87191208D01*
X163945654Y-87207424D01*
X163956946Y-87219965D01*
X163995573Y-87286870D01*
X164030775Y-87342893D01*
X164035170Y-87355453D01*
X164040535Y-87364746D01*
X164068010Y-87449305D01*
X164089942Y-87511983D01*
X164090773Y-87519363D01*
X164092195Y-87523738D01*
X164105076Y-87646306D01*
X164110000Y-87690000D01*
X164105076Y-87733697D01*
X164092195Y-87856261D01*
X164090773Y-87860635D01*
X164089942Y-87868017D01*
X164068005Y-87930707D01*
X164040535Y-88015253D01*
X164035171Y-88024543D01*
X164030775Y-88037107D01*
X163995566Y-88093140D01*
X163956946Y-88160034D01*
X163945656Y-88172572D01*
X163935465Y-88188792D01*
X163891155Y-88233101D01*
X163845084Y-88284269D01*
X163826448Y-88297808D01*
X163808792Y-88315465D01*
X163759623Y-88346359D01*
X163709835Y-88382533D01*
X163683134Y-88394421D01*
X163657107Y-88410775D01*
X163607107Y-88428270D01*
X163557110Y-88450531D01*
X163522414Y-88457905D01*
X163488017Y-88469942D01*
X163440715Y-88475271D01*
X163393588Y-88485289D01*
X163351811Y-88485289D01*
X163310000Y-88490000D01*
X163268189Y-88485289D01*
X163226412Y-88485289D01*
X163179284Y-88475271D01*
X163131983Y-88469942D01*
X163097586Y-88457906D01*
X163062889Y-88450531D01*
X163012887Y-88428268D01*
X162962893Y-88410775D01*
X162936868Y-88394422D01*
X162910164Y-88382533D01*
X162860369Y-88346355D01*
X162811208Y-88315465D01*
X162793554Y-88297811D01*
X162774915Y-88284269D01*
X162728833Y-88233090D01*
X162684535Y-88188792D01*
X162674345Y-88172575D01*
X162663053Y-88160034D01*
X162624420Y-88093120D01*
X162589225Y-88037107D01*
X162584830Y-88024547D01*
X162579464Y-88015253D01*
X162551980Y-87930667D01*
X162530058Y-87868017D01*
X162529226Y-87860639D01*
X162527804Y-87856261D01*
X162514908Y-87733565D01*
X162510000Y-87690000D01*
X162514908Y-87646438D01*
X162527804Y-87523738D01*
X162529226Y-87519358D01*
X162530058Y-87511983D01*
X162551975Y-87449345D01*
X162579464Y-87364746D01*
X162584831Y-87355449D01*
X162589225Y-87342893D01*
X162624413Y-87286890D01*
X162663053Y-87219965D01*
X162674347Y-87207421D01*
X162684535Y-87191208D01*
X162728826Y-87146916D01*
X162774917Y-87095728D01*
X162793559Y-87082183D01*
X162811208Y-87064535D01*
X162860354Y-87033654D01*
X162910162Y-86997467D01*
X162936873Y-86985574D01*
X162962893Y-86969225D01*
X163012877Y-86951734D01*
X163062889Y-86929468D01*
X163097592Y-86922091D01*
X163131983Y-86910058D01*
X163179281Y-86904728D01*
X163226412Y-86894711D01*
X163268189Y-86894711D01*
X163310000Y-86890000D01*
X163351811Y-86894711D01*
G37*
G36*
X126301811Y-84924711D02*
G01*
X126343588Y-84924711D01*
X126390718Y-84934728D01*
X126438017Y-84940058D01*
X126472408Y-84952092D01*
X126507110Y-84959468D01*
X126557117Y-84981733D01*
X126607107Y-84999225D01*
X126633128Y-85015575D01*
X126659835Y-85027466D01*
X126709633Y-85063646D01*
X126758792Y-85094535D01*
X126776444Y-85112187D01*
X126795084Y-85125730D01*
X126841165Y-85176908D01*
X126885465Y-85221208D01*
X126895654Y-85237424D01*
X126906946Y-85249965D01*
X126945573Y-85316870D01*
X126980775Y-85372893D01*
X126985170Y-85385453D01*
X126990535Y-85394746D01*
X127018010Y-85479305D01*
X127039942Y-85541983D01*
X127040773Y-85549363D01*
X127042195Y-85553738D01*
X127055076Y-85676306D01*
X127060000Y-85720000D01*
X127055076Y-85763697D01*
X127042195Y-85886261D01*
X127040773Y-85890635D01*
X127039942Y-85898017D01*
X127018005Y-85960707D01*
X126990535Y-86045253D01*
X126985171Y-86054543D01*
X126980775Y-86067107D01*
X126945566Y-86123140D01*
X126906946Y-86190034D01*
X126895656Y-86202572D01*
X126885465Y-86218792D01*
X126841155Y-86263101D01*
X126795084Y-86314269D01*
X126776448Y-86327808D01*
X126758792Y-86345465D01*
X126709623Y-86376359D01*
X126659835Y-86412533D01*
X126633134Y-86424421D01*
X126607107Y-86440775D01*
X126557107Y-86458270D01*
X126507110Y-86480531D01*
X126472414Y-86487905D01*
X126438017Y-86499942D01*
X126390715Y-86505271D01*
X126343588Y-86515289D01*
X126301811Y-86515289D01*
X126260000Y-86520000D01*
X126218189Y-86515289D01*
X126176412Y-86515289D01*
X126129284Y-86505271D01*
X126081983Y-86499942D01*
X126047586Y-86487906D01*
X126012889Y-86480531D01*
X125962887Y-86458268D01*
X125912893Y-86440775D01*
X125886868Y-86424422D01*
X125860164Y-86412533D01*
X125810369Y-86376355D01*
X125761208Y-86345465D01*
X125743554Y-86327811D01*
X125724915Y-86314269D01*
X125678833Y-86263090D01*
X125634535Y-86218792D01*
X125624345Y-86202575D01*
X125613053Y-86190034D01*
X125574420Y-86123120D01*
X125539225Y-86067107D01*
X125534830Y-86054547D01*
X125529464Y-86045253D01*
X125501980Y-85960667D01*
X125480058Y-85898017D01*
X125479226Y-85890639D01*
X125477804Y-85886261D01*
X125464908Y-85763565D01*
X125460000Y-85720000D01*
X125464908Y-85676438D01*
X125477804Y-85553738D01*
X125479226Y-85549358D01*
X125480058Y-85541983D01*
X125501975Y-85479345D01*
X125529464Y-85394746D01*
X125534831Y-85385449D01*
X125539225Y-85372893D01*
X125574413Y-85316890D01*
X125613053Y-85249965D01*
X125624347Y-85237421D01*
X125634535Y-85221208D01*
X125678826Y-85176916D01*
X125724917Y-85125728D01*
X125743559Y-85112183D01*
X125761208Y-85094535D01*
X125810354Y-85063654D01*
X125860162Y-85027467D01*
X125886873Y-85015574D01*
X125912893Y-84999225D01*
X125962877Y-84981734D01*
X126012889Y-84959468D01*
X126047592Y-84952091D01*
X126081983Y-84940058D01*
X126129281Y-84934728D01*
X126176412Y-84924711D01*
X126218189Y-84924711D01*
X126260000Y-84920000D01*
X126301811Y-84924711D01*
G37*
G36*
X141541811Y-84924711D02*
G01*
X141583588Y-84924711D01*
X141630718Y-84934728D01*
X141678017Y-84940058D01*
X141712408Y-84952092D01*
X141747110Y-84959468D01*
X141797117Y-84981733D01*
X141847107Y-84999225D01*
X141873128Y-85015575D01*
X141899835Y-85027466D01*
X141949633Y-85063646D01*
X141998792Y-85094535D01*
X142016444Y-85112187D01*
X142035084Y-85125730D01*
X142081165Y-85176908D01*
X142125465Y-85221208D01*
X142135654Y-85237424D01*
X142146946Y-85249965D01*
X142185573Y-85316870D01*
X142220775Y-85372893D01*
X142225170Y-85385453D01*
X142230535Y-85394746D01*
X142258010Y-85479305D01*
X142279942Y-85541983D01*
X142280773Y-85549363D01*
X142282195Y-85553738D01*
X142295076Y-85676306D01*
X142300000Y-85720000D01*
X142295076Y-85763697D01*
X142282195Y-85886261D01*
X142280773Y-85890635D01*
X142279942Y-85898017D01*
X142258005Y-85960707D01*
X142230535Y-86045253D01*
X142225171Y-86054543D01*
X142220775Y-86067107D01*
X142185566Y-86123140D01*
X142146946Y-86190034D01*
X142135656Y-86202572D01*
X142125465Y-86218792D01*
X142081155Y-86263101D01*
X142035084Y-86314269D01*
X142016448Y-86327808D01*
X141998792Y-86345465D01*
X141949623Y-86376359D01*
X141899835Y-86412533D01*
X141873134Y-86424421D01*
X141847107Y-86440775D01*
X141797107Y-86458270D01*
X141747110Y-86480531D01*
X141712414Y-86487905D01*
X141678017Y-86499942D01*
X141630715Y-86505271D01*
X141583588Y-86515289D01*
X141541811Y-86515289D01*
X141500000Y-86520000D01*
X141458189Y-86515289D01*
X141416412Y-86515289D01*
X141369284Y-86505271D01*
X141321983Y-86499942D01*
X141287586Y-86487906D01*
X141252889Y-86480531D01*
X141202887Y-86458268D01*
X141152893Y-86440775D01*
X141126868Y-86424422D01*
X141100164Y-86412533D01*
X141050369Y-86376355D01*
X141001208Y-86345465D01*
X140983554Y-86327811D01*
X140964915Y-86314269D01*
X140918833Y-86263090D01*
X140874535Y-86218792D01*
X140864345Y-86202575D01*
X140853053Y-86190034D01*
X140814420Y-86123120D01*
X140779225Y-86067107D01*
X140774830Y-86054547D01*
X140769464Y-86045253D01*
X140741980Y-85960667D01*
X140720058Y-85898017D01*
X140719226Y-85890639D01*
X140717804Y-85886261D01*
X140704908Y-85763565D01*
X140700000Y-85720000D01*
X140704908Y-85676438D01*
X140717804Y-85553738D01*
X140719226Y-85549358D01*
X140720058Y-85541983D01*
X140741975Y-85479345D01*
X140769464Y-85394746D01*
X140774831Y-85385449D01*
X140779225Y-85372893D01*
X140814413Y-85316890D01*
X140853053Y-85249965D01*
X140864347Y-85237421D01*
X140874535Y-85221208D01*
X140918826Y-85176916D01*
X140964917Y-85125728D01*
X140983559Y-85112183D01*
X141001208Y-85094535D01*
X141050354Y-85063654D01*
X141100162Y-85027467D01*
X141126873Y-85015574D01*
X141152893Y-84999225D01*
X141202877Y-84981734D01*
X141252889Y-84959468D01*
X141287592Y-84952091D01*
X141321983Y-84940058D01*
X141369281Y-84934728D01*
X141416412Y-84924711D01*
X141458189Y-84924711D01*
X141500000Y-84920000D01*
X141541811Y-84924711D01*
G37*
G36*
X126301811Y-82384711D02*
G01*
X126343588Y-82384711D01*
X126390718Y-82394728D01*
X126438017Y-82400058D01*
X126472408Y-82412092D01*
X126507110Y-82419468D01*
X126557117Y-82441733D01*
X126607107Y-82459225D01*
X126633128Y-82475575D01*
X126659835Y-82487466D01*
X126709633Y-82523646D01*
X126758792Y-82554535D01*
X126776444Y-82572187D01*
X126795084Y-82585730D01*
X126841165Y-82636908D01*
X126885465Y-82681208D01*
X126895654Y-82697424D01*
X126906946Y-82709965D01*
X126945573Y-82776870D01*
X126980775Y-82832893D01*
X126985170Y-82845453D01*
X126990535Y-82854746D01*
X127018010Y-82939305D01*
X127039942Y-83001983D01*
X127040773Y-83009363D01*
X127042195Y-83013738D01*
X127055076Y-83136306D01*
X127060000Y-83180000D01*
X127055076Y-83223697D01*
X127042195Y-83346261D01*
X127040773Y-83350635D01*
X127039942Y-83358017D01*
X127018005Y-83420707D01*
X126990535Y-83505253D01*
X126985171Y-83514543D01*
X126980775Y-83527107D01*
X126945566Y-83583140D01*
X126906946Y-83650034D01*
X126895656Y-83662572D01*
X126885465Y-83678792D01*
X126841155Y-83723101D01*
X126795084Y-83774269D01*
X126776448Y-83787808D01*
X126758792Y-83805465D01*
X126709623Y-83836359D01*
X126659835Y-83872533D01*
X126633134Y-83884421D01*
X126607107Y-83900775D01*
X126557107Y-83918270D01*
X126507110Y-83940531D01*
X126472414Y-83947905D01*
X126438017Y-83959942D01*
X126390715Y-83965271D01*
X126343588Y-83975289D01*
X126301811Y-83975289D01*
X126260000Y-83980000D01*
X126218189Y-83975289D01*
X126176412Y-83975289D01*
X126129284Y-83965271D01*
X126081983Y-83959942D01*
X126047586Y-83947906D01*
X126012889Y-83940531D01*
X125962887Y-83918268D01*
X125912893Y-83900775D01*
X125886868Y-83884422D01*
X125860164Y-83872533D01*
X125810369Y-83836355D01*
X125761208Y-83805465D01*
X125743554Y-83787811D01*
X125724915Y-83774269D01*
X125678833Y-83723090D01*
X125634535Y-83678792D01*
X125624345Y-83662575D01*
X125613053Y-83650034D01*
X125574420Y-83583120D01*
X125539225Y-83527107D01*
X125534830Y-83514547D01*
X125529464Y-83505253D01*
X125501980Y-83420667D01*
X125480058Y-83358017D01*
X125479226Y-83350639D01*
X125477804Y-83346261D01*
X125464908Y-83223565D01*
X125460000Y-83180000D01*
X125464908Y-83136438D01*
X125477804Y-83013738D01*
X125479226Y-83009358D01*
X125480058Y-83001983D01*
X125501975Y-82939345D01*
X125529464Y-82854746D01*
X125534831Y-82845449D01*
X125539225Y-82832893D01*
X125574413Y-82776890D01*
X125613053Y-82709965D01*
X125624347Y-82697421D01*
X125634535Y-82681208D01*
X125678826Y-82636916D01*
X125724917Y-82585728D01*
X125743559Y-82572183D01*
X125761208Y-82554535D01*
X125810354Y-82523654D01*
X125860162Y-82487467D01*
X125886873Y-82475574D01*
X125912893Y-82459225D01*
X125962877Y-82441734D01*
X126012889Y-82419468D01*
X126047592Y-82412091D01*
X126081983Y-82400058D01*
X126129281Y-82394728D01*
X126176412Y-82384711D01*
X126218189Y-82384711D01*
X126260000Y-82380000D01*
X126301811Y-82384711D01*
G37*
G36*
X141541811Y-82384711D02*
G01*
X141583588Y-82384711D01*
X141630718Y-82394728D01*
X141678017Y-82400058D01*
X141712408Y-82412092D01*
X141747110Y-82419468D01*
X141797117Y-82441733D01*
X141847107Y-82459225D01*
X141873128Y-82475575D01*
X141899835Y-82487466D01*
X141949633Y-82523646D01*
X141998792Y-82554535D01*
X142016444Y-82572187D01*
X142035084Y-82585730D01*
X142081165Y-82636908D01*
X142125465Y-82681208D01*
X142135654Y-82697424D01*
X142146946Y-82709965D01*
X142185573Y-82776870D01*
X142220775Y-82832893D01*
X142225170Y-82845453D01*
X142230535Y-82854746D01*
X142258010Y-82939305D01*
X142279942Y-83001983D01*
X142280773Y-83009363D01*
X142282195Y-83013738D01*
X142295076Y-83136306D01*
X142300000Y-83180000D01*
X142295076Y-83223697D01*
X142282195Y-83346261D01*
X142280773Y-83350635D01*
X142279942Y-83358017D01*
X142258005Y-83420707D01*
X142230535Y-83505253D01*
X142225171Y-83514543D01*
X142220775Y-83527107D01*
X142185566Y-83583140D01*
X142146946Y-83650034D01*
X142135656Y-83662572D01*
X142125465Y-83678792D01*
X142081155Y-83723101D01*
X142035084Y-83774269D01*
X142016448Y-83787808D01*
X141998792Y-83805465D01*
X141949623Y-83836359D01*
X141899835Y-83872533D01*
X141873134Y-83884421D01*
X141847107Y-83900775D01*
X141797107Y-83918270D01*
X141747110Y-83940531D01*
X141712414Y-83947905D01*
X141678017Y-83959942D01*
X141630715Y-83965271D01*
X141583588Y-83975289D01*
X141541811Y-83975289D01*
X141500000Y-83980000D01*
X141458189Y-83975289D01*
X141416412Y-83975289D01*
X141369284Y-83965271D01*
X141321983Y-83959942D01*
X141287586Y-83947906D01*
X141252889Y-83940531D01*
X141202887Y-83918268D01*
X141152893Y-83900775D01*
X141126868Y-83884422D01*
X141100164Y-83872533D01*
X141050369Y-83836355D01*
X141001208Y-83805465D01*
X140983554Y-83787811D01*
X140964915Y-83774269D01*
X140918833Y-83723090D01*
X140874535Y-83678792D01*
X140864345Y-83662575D01*
X140853053Y-83650034D01*
X140814420Y-83583120D01*
X140779225Y-83527107D01*
X140774830Y-83514547D01*
X140769464Y-83505253D01*
X140741980Y-83420667D01*
X140720058Y-83358017D01*
X140719226Y-83350639D01*
X140717804Y-83346261D01*
X140704908Y-83223565D01*
X140700000Y-83180000D01*
X140704908Y-83136438D01*
X140717804Y-83013738D01*
X140719226Y-83009358D01*
X140720058Y-83001983D01*
X140741975Y-82939345D01*
X140769464Y-82854746D01*
X140774831Y-82845449D01*
X140779225Y-82832893D01*
X140814413Y-82776890D01*
X140853053Y-82709965D01*
X140864347Y-82697421D01*
X140874535Y-82681208D01*
X140918826Y-82636916D01*
X140964917Y-82585728D01*
X140983559Y-82572183D01*
X141001208Y-82554535D01*
X141050354Y-82523654D01*
X141100162Y-82487467D01*
X141126873Y-82475574D01*
X141152893Y-82459225D01*
X141202877Y-82441734D01*
X141252889Y-82419468D01*
X141287592Y-82412091D01*
X141321983Y-82400058D01*
X141369281Y-82394728D01*
X141416412Y-82384711D01*
X141458189Y-82384711D01*
X141500000Y-82380000D01*
X141541811Y-82384711D01*
G37*
G36*
X162980000Y-80400000D02*
G01*
X161180000Y-80400000D01*
X161180000Y-78600000D01*
X162980000Y-78600000D01*
X162980000Y-80400000D01*
G37*
G36*
X159587113Y-78604930D02*
G01*
X159634076Y-78604930D01*
X159674622Y-78613548D01*
X159715526Y-78617577D01*
X159766916Y-78633166D01*
X159818115Y-78644049D01*
X159850879Y-78658636D01*
X159884304Y-78668776D01*
X159937420Y-78697166D01*
X159990000Y-78720577D01*
X160014445Y-78738337D01*
X160039849Y-78751916D01*
X160091669Y-78794444D01*
X160142218Y-78831170D01*
X160158631Y-78849398D01*
X160176190Y-78863809D01*
X160223379Y-78921308D01*
X160268115Y-78970993D01*
X160277512Y-78987269D01*
X160288083Y-79000150D01*
X160327183Y-79073302D01*
X160362191Y-79133937D01*
X160366218Y-79146331D01*
X160371223Y-79155695D01*
X160398821Y-79246672D01*
X160420333Y-79312879D01*
X160421090Y-79320082D01*
X160422422Y-79324473D01*
X160435377Y-79456021D01*
X160440000Y-79500000D01*
X160435377Y-79543982D01*
X160422422Y-79675526D01*
X160421090Y-79679916D01*
X160420333Y-79687121D01*
X160398816Y-79753341D01*
X160371223Y-79844304D01*
X160366219Y-79853665D01*
X160362191Y-79866063D01*
X160327176Y-79926709D01*
X160288083Y-79999849D01*
X160277514Y-80012726D01*
X160268115Y-80029007D01*
X160223369Y-80078701D01*
X160176190Y-80136190D01*
X160158634Y-80150597D01*
X160142218Y-80168830D01*
X160091659Y-80205563D01*
X160039849Y-80248083D01*
X160014450Y-80261658D01*
X159990000Y-80279423D01*
X159937408Y-80302838D01*
X159884304Y-80331223D01*
X159850886Y-80341360D01*
X159818115Y-80355951D01*
X159766905Y-80366836D01*
X159715526Y-80382422D01*
X159674631Y-80386449D01*
X159634076Y-80395070D01*
X159587103Y-80395070D01*
X159540000Y-80399709D01*
X159492897Y-80395070D01*
X159445924Y-80395070D01*
X159405368Y-80386449D01*
X159364473Y-80382422D01*
X159313091Y-80366835D01*
X159261885Y-80355951D01*
X159229115Y-80341361D01*
X159195695Y-80331223D01*
X159142585Y-80302835D01*
X159090000Y-80279423D01*
X159065552Y-80261660D01*
X159040150Y-80248083D01*
X158988332Y-80205556D01*
X158937782Y-80168830D01*
X158921368Y-80150600D01*
X158903809Y-80136190D01*
X158856618Y-80078688D01*
X158811885Y-80029007D01*
X158802487Y-80012730D01*
X158791916Y-79999849D01*
X158752810Y-79926686D01*
X158717809Y-79866063D01*
X158713782Y-79853670D01*
X158708776Y-79844304D01*
X158681168Y-79753294D01*
X158659667Y-79687121D01*
X158658910Y-79679921D01*
X158657577Y-79675526D01*
X158644606Y-79543831D01*
X158640000Y-79500000D01*
X158644606Y-79456172D01*
X158657577Y-79324473D01*
X158658910Y-79320077D01*
X158659667Y-79312879D01*
X158681163Y-79246719D01*
X158708776Y-79155695D01*
X158713783Y-79146327D01*
X158717809Y-79133937D01*
X158752802Y-79073326D01*
X158791916Y-79000150D01*
X158802489Y-78987265D01*
X158811885Y-78970993D01*
X158856609Y-78921321D01*
X158903809Y-78863809D01*
X158921371Y-78849395D01*
X158937782Y-78831170D01*
X158988321Y-78794450D01*
X159040150Y-78751916D01*
X159065557Y-78738335D01*
X159090000Y-78720577D01*
X159142573Y-78697169D01*
X159195695Y-78668776D01*
X159229122Y-78658635D01*
X159261885Y-78644049D01*
X159313080Y-78633166D01*
X159364473Y-78617577D01*
X159405377Y-78613548D01*
X159445924Y-78604930D01*
X159492887Y-78604930D01*
X159540000Y-78600290D01*
X159587113Y-78604930D01*
G37*
G36*
X147731811Y-78704711D02*
G01*
X147773588Y-78704711D01*
X147820718Y-78714728D01*
X147868017Y-78720058D01*
X147902408Y-78732092D01*
X147937110Y-78739468D01*
X147987117Y-78761733D01*
X148037107Y-78779225D01*
X148063128Y-78795575D01*
X148089835Y-78807466D01*
X148139633Y-78843646D01*
X148188792Y-78874535D01*
X148206444Y-78892187D01*
X148225084Y-78905730D01*
X148271165Y-78956908D01*
X148315465Y-79001208D01*
X148325654Y-79017424D01*
X148336946Y-79029965D01*
X148375573Y-79096870D01*
X148410775Y-79152893D01*
X148415170Y-79165453D01*
X148420535Y-79174746D01*
X148448010Y-79259305D01*
X148469942Y-79321983D01*
X148470773Y-79329363D01*
X148472195Y-79333738D01*
X148485076Y-79456306D01*
X148490000Y-79500000D01*
X148485076Y-79543697D01*
X148472195Y-79666261D01*
X148470773Y-79670635D01*
X148469942Y-79678017D01*
X148448005Y-79740707D01*
X148420535Y-79825253D01*
X148415171Y-79834543D01*
X148410775Y-79847107D01*
X148375566Y-79903140D01*
X148336946Y-79970034D01*
X148325656Y-79982572D01*
X148315465Y-79998792D01*
X148271155Y-80043101D01*
X148225084Y-80094269D01*
X148206448Y-80107808D01*
X148188792Y-80125465D01*
X148139623Y-80156359D01*
X148089835Y-80192533D01*
X148063134Y-80204421D01*
X148037107Y-80220775D01*
X147987107Y-80238270D01*
X147937110Y-80260531D01*
X147902414Y-80267905D01*
X147868017Y-80279942D01*
X147820715Y-80285271D01*
X147773588Y-80295289D01*
X147731811Y-80295289D01*
X147690000Y-80300000D01*
X147648189Y-80295289D01*
X147606412Y-80295289D01*
X147559284Y-80285271D01*
X147511983Y-80279942D01*
X147477586Y-80267906D01*
X147442889Y-80260531D01*
X147392887Y-80238268D01*
X147342893Y-80220775D01*
X147316868Y-80204422D01*
X147290164Y-80192533D01*
X147240369Y-80156355D01*
X147191208Y-80125465D01*
X147173554Y-80107811D01*
X147154915Y-80094269D01*
X147108833Y-80043090D01*
X147064535Y-79998792D01*
X147054345Y-79982575D01*
X147043053Y-79970034D01*
X147004420Y-79903120D01*
X146969225Y-79847107D01*
X146964830Y-79834547D01*
X146959464Y-79825253D01*
X146931980Y-79740667D01*
X146910058Y-79678017D01*
X146909226Y-79670639D01*
X146907804Y-79666261D01*
X146894908Y-79543565D01*
X146890000Y-79500000D01*
X146894908Y-79456438D01*
X146907804Y-79333738D01*
X146909226Y-79329358D01*
X146910058Y-79321983D01*
X146931975Y-79259345D01*
X146959464Y-79174746D01*
X146964831Y-79165449D01*
X146969225Y-79152893D01*
X147004413Y-79096890D01*
X147043053Y-79029965D01*
X147054347Y-79017421D01*
X147064535Y-79001208D01*
X147108826Y-78956916D01*
X147154917Y-78905728D01*
X147173559Y-78892183D01*
X147191208Y-78874535D01*
X147240354Y-78843654D01*
X147290162Y-78807467D01*
X147316873Y-78795574D01*
X147342893Y-78779225D01*
X147392877Y-78761734D01*
X147442889Y-78739468D01*
X147477592Y-78732091D01*
X147511983Y-78720058D01*
X147559281Y-78714728D01*
X147606412Y-78704711D01*
X147648189Y-78704711D01*
X147690000Y-78700000D01*
X147731811Y-78704711D01*
G37*
G36*
X155351811Y-78704711D02*
G01*
X155393588Y-78704711D01*
X155440718Y-78714728D01*
X155488017Y-78720058D01*
X155522408Y-78732092D01*
X155557110Y-78739468D01*
X155607117Y-78761733D01*
X155657107Y-78779225D01*
X155683128Y-78795575D01*
X155709835Y-78807466D01*
X155759633Y-78843646D01*
X155808792Y-78874535D01*
X155826444Y-78892187D01*
X155845084Y-78905730D01*
X155891165Y-78956908D01*
X155935465Y-79001208D01*
X155945654Y-79017424D01*
X155956946Y-79029965D01*
X155995573Y-79096870D01*
X156030775Y-79152893D01*
X156035170Y-79165453D01*
X156040535Y-79174746D01*
X156068010Y-79259305D01*
X156089942Y-79321983D01*
X156090773Y-79329363D01*
X156092195Y-79333738D01*
X156105076Y-79456306D01*
X156110000Y-79500000D01*
X156105076Y-79543697D01*
X156092195Y-79666261D01*
X156090773Y-79670635D01*
X156089942Y-79678017D01*
X156068005Y-79740707D01*
X156040535Y-79825253D01*
X156035171Y-79834543D01*
X156030775Y-79847107D01*
X155995566Y-79903140D01*
X155956946Y-79970034D01*
X155945656Y-79982572D01*
X155935465Y-79998792D01*
X155891155Y-80043101D01*
X155845084Y-80094269D01*
X155826448Y-80107808D01*
X155808792Y-80125465D01*
X155759623Y-80156359D01*
X155709835Y-80192533D01*
X155683134Y-80204421D01*
X155657107Y-80220775D01*
X155607107Y-80238270D01*
X155557110Y-80260531D01*
X155522414Y-80267905D01*
X155488017Y-80279942D01*
X155440715Y-80285271D01*
X155393588Y-80295289D01*
X155351811Y-80295289D01*
X155310000Y-80300000D01*
X155268189Y-80295289D01*
X155226412Y-80295289D01*
X155179284Y-80285271D01*
X155131983Y-80279942D01*
X155097586Y-80267906D01*
X155062889Y-80260531D01*
X155012887Y-80238268D01*
X154962893Y-80220775D01*
X154936868Y-80204422D01*
X154910164Y-80192533D01*
X154860369Y-80156355D01*
X154811208Y-80125465D01*
X154793554Y-80107811D01*
X154774915Y-80094269D01*
X154728833Y-80043090D01*
X154684535Y-79998792D01*
X154674345Y-79982575D01*
X154663053Y-79970034D01*
X154624420Y-79903120D01*
X154589225Y-79847107D01*
X154584830Y-79834547D01*
X154579464Y-79825253D01*
X154551980Y-79740667D01*
X154530058Y-79678017D01*
X154529226Y-79670639D01*
X154527804Y-79666261D01*
X154514908Y-79543565D01*
X154510000Y-79500000D01*
X154514908Y-79456438D01*
X154527804Y-79333738D01*
X154529226Y-79329358D01*
X154530058Y-79321983D01*
X154551975Y-79259345D01*
X154579464Y-79174746D01*
X154584831Y-79165449D01*
X154589225Y-79152893D01*
X154624413Y-79096890D01*
X154663053Y-79029965D01*
X154674347Y-79017421D01*
X154684535Y-79001208D01*
X154728826Y-78956916D01*
X154774917Y-78905728D01*
X154793559Y-78892183D01*
X154811208Y-78874535D01*
X154860354Y-78843654D01*
X154910162Y-78807467D01*
X154936873Y-78795574D01*
X154962893Y-78779225D01*
X155012877Y-78761734D01*
X155062889Y-78739468D01*
X155097592Y-78732091D01*
X155131983Y-78720058D01*
X155179281Y-78714728D01*
X155226412Y-78704711D01*
X155268189Y-78704711D01*
X155310000Y-78700000D01*
X155351811Y-78704711D01*
G37*
G36*
X102452000Y-79762000D02*
G01*
X100928000Y-79762000D01*
X100928000Y-78238000D01*
X102452000Y-78238000D01*
X102452000Y-79762000D01*
G37*
G36*
X104399561Y-78257105D02*
G01*
X104560619Y-78313462D01*
X104705099Y-78404244D01*
X104825756Y-78524901D01*
X104916538Y-78669381D01*
X104972895Y-78830439D01*
X104992000Y-79000000D01*
X104972895Y-79169561D01*
X104916538Y-79330619D01*
X104825756Y-79475099D01*
X104705099Y-79595756D01*
X104560619Y-79686538D01*
X104399561Y-79742895D01*
X104230000Y-79762000D01*
X104060439Y-79742895D01*
X103899381Y-79686538D01*
X103754901Y-79595756D01*
X103634244Y-79475099D01*
X103543462Y-79330619D01*
X103487105Y-79169561D01*
X103468000Y-79000000D01*
X103487105Y-78830439D01*
X103543462Y-78669381D01*
X103634244Y-78524901D01*
X103754901Y-78404244D01*
X103899381Y-78313462D01*
X104060439Y-78257105D01*
X104230000Y-78238000D01*
X104399561Y-78257105D01*
G37*
G36*
X106939561Y-78257105D02*
G01*
X107100619Y-78313462D01*
X107245099Y-78404244D01*
X107365756Y-78524901D01*
X107456538Y-78669381D01*
X107512895Y-78830439D01*
X107532000Y-79000000D01*
X107512895Y-79169561D01*
X107456538Y-79330619D01*
X107365756Y-79475099D01*
X107245099Y-79595756D01*
X107100619Y-79686538D01*
X106939561Y-79742895D01*
X106770000Y-79762000D01*
X106600439Y-79742895D01*
X106439381Y-79686538D01*
X106294901Y-79595756D01*
X106174244Y-79475099D01*
X106083462Y-79330619D01*
X106027105Y-79169561D01*
X106008000Y-79000000D01*
X106027105Y-78830439D01*
X106083462Y-78669381D01*
X106174244Y-78524901D01*
X106294901Y-78404244D01*
X106439381Y-78313462D01*
X106600439Y-78257105D01*
X106770000Y-78238000D01*
X106939561Y-78257105D01*
G37*
G36*
X109479561Y-78257105D02*
G01*
X109640619Y-78313462D01*
X109785099Y-78404244D01*
X109905756Y-78524901D01*
X109996538Y-78669381D01*
X110052895Y-78830439D01*
X110072000Y-79000000D01*
X110052895Y-79169561D01*
X109996538Y-79330619D01*
X109905756Y-79475099D01*
X109785099Y-79595756D01*
X109640619Y-79686538D01*
X109479561Y-79742895D01*
X109310000Y-79762000D01*
X109140439Y-79742895D01*
X108979381Y-79686538D01*
X108834901Y-79595756D01*
X108714244Y-79475099D01*
X108623462Y-79330619D01*
X108567105Y-79169561D01*
X108548000Y-79000000D01*
X108567105Y-78830439D01*
X108623462Y-78669381D01*
X108714244Y-78524901D01*
X108834901Y-78404244D01*
X108979381Y-78313462D01*
X109140439Y-78257105D01*
X109310000Y-78238000D01*
X109479561Y-78257105D01*
G37*
G36*
X90348076Y-74254735D02*
G01*
X90396860Y-74254735D01*
X90451187Y-74264890D01*
X90504845Y-74270175D01*
X90545606Y-74282539D01*
X90587276Y-74290329D01*
X90644985Y-74312685D01*
X90701818Y-74329926D01*
X90734294Y-74347284D01*
X90767910Y-74360308D01*
X90826323Y-74396476D01*
X90883349Y-74426957D01*
X90907306Y-74446618D01*
X90932609Y-74462285D01*
X90988674Y-74513395D01*
X91042462Y-74557538D01*
X91058401Y-74576960D01*
X91075769Y-74592793D01*
X91126187Y-74659557D01*
X91173043Y-74716651D01*
X91182103Y-74733602D01*
X91192509Y-74747381D01*
X91233895Y-74830498D01*
X91270074Y-74898182D01*
X91273933Y-74910905D01*
X91278854Y-74920787D01*
X91307927Y-75022969D01*
X91329825Y-75095155D01*
X91330544Y-75102456D01*
X91331869Y-75107113D01*
X91345653Y-75255868D01*
X91350000Y-75300000D01*
X91345653Y-75344135D01*
X91331869Y-75492886D01*
X91330544Y-75497541D01*
X91329825Y-75504845D01*
X91307923Y-75577045D01*
X91278854Y-75679212D01*
X91273934Y-75689092D01*
X91270074Y-75701818D01*
X91233888Y-75769515D01*
X91192509Y-75852618D01*
X91182105Y-75866394D01*
X91173043Y-75883349D01*
X91126177Y-75940454D01*
X91075769Y-76007206D01*
X91058405Y-76023035D01*
X91042462Y-76042462D01*
X90988663Y-76086613D01*
X90932609Y-76137714D01*
X90907311Y-76153377D01*
X90883349Y-76173043D01*
X90826312Y-76203530D01*
X90767910Y-76239691D01*
X90734300Y-76252711D01*
X90701818Y-76270074D01*
X90644973Y-76287317D01*
X90587276Y-76309670D01*
X90545613Y-76317458D01*
X90504845Y-76329825D01*
X90451184Y-76335109D01*
X90396860Y-76345265D01*
X90348076Y-76345265D01*
X90300000Y-76350000D01*
X90251924Y-76345265D01*
X90203140Y-76345265D01*
X90148814Y-76335109D01*
X90095155Y-76329825D01*
X90054388Y-76317458D01*
X90012723Y-76309670D01*
X89955022Y-76287316D01*
X89898182Y-76270074D01*
X89865701Y-76252712D01*
X89832089Y-76239691D01*
X89773680Y-76203526D01*
X89716651Y-76173043D01*
X89692691Y-76153380D01*
X89667390Y-76137714D01*
X89611326Y-76086605D01*
X89557538Y-76042462D01*
X89541597Y-76023038D01*
X89524230Y-76007206D01*
X89473809Y-75940438D01*
X89426957Y-75883349D01*
X89417896Y-75866398D01*
X89407490Y-75852618D01*
X89366096Y-75769488D01*
X89329926Y-75701818D01*
X89326067Y-75689097D01*
X89321145Y-75679212D01*
X89292060Y-75576992D01*
X89270175Y-75504845D01*
X89269456Y-75497547D01*
X89268130Y-75492886D01*
X89254329Y-75343963D01*
X89250000Y-75300000D01*
X89254329Y-75256039D01*
X89268130Y-75107113D01*
X89269456Y-75102451D01*
X89270175Y-75095155D01*
X89292056Y-75023022D01*
X89321145Y-74920787D01*
X89326067Y-74910900D01*
X89329926Y-74898182D01*
X89366089Y-74830525D01*
X89407490Y-74747381D01*
X89417898Y-74733597D01*
X89426957Y-74716651D01*
X89473800Y-74659572D01*
X89524230Y-74592793D01*
X89541601Y-74576957D01*
X89557538Y-74557538D01*
X89611315Y-74513403D01*
X89667390Y-74462285D01*
X89692696Y-74446615D01*
X89716651Y-74426957D01*
X89773668Y-74396480D01*
X89832089Y-74360308D01*
X89865708Y-74347283D01*
X89898182Y-74329926D01*
X89955010Y-74312687D01*
X90012723Y-74290329D01*
X90054394Y-74282539D01*
X90095155Y-74270175D01*
X90148811Y-74264890D01*
X90203140Y-74254735D01*
X90251924Y-74254735D01*
X90300000Y-74250000D01*
X90348076Y-74254735D01*
G37*
G36*
X167748076Y-74254735D02*
G01*
X167796860Y-74254735D01*
X167851187Y-74264890D01*
X167904845Y-74270175D01*
X167945606Y-74282539D01*
X167987276Y-74290329D01*
X168044985Y-74312685D01*
X168101818Y-74329926D01*
X168134294Y-74347284D01*
X168167910Y-74360308D01*
X168226323Y-74396476D01*
X168283349Y-74426957D01*
X168307306Y-74446618D01*
X168332609Y-74462285D01*
X168388674Y-74513395D01*
X168442462Y-74557538D01*
X168458401Y-74576960D01*
X168475769Y-74592793D01*
X168526187Y-74659557D01*
X168573043Y-74716651D01*
X168582103Y-74733602D01*
X168592509Y-74747381D01*
X168633895Y-74830498D01*
X168670074Y-74898182D01*
X168673933Y-74910905D01*
X168678854Y-74920787D01*
X168707927Y-75022969D01*
X168729825Y-75095155D01*
X168730544Y-75102456D01*
X168731869Y-75107113D01*
X168745653Y-75255868D01*
X168750000Y-75300000D01*
X168745653Y-75344135D01*
X168731869Y-75492886D01*
X168730544Y-75497541D01*
X168729825Y-75504845D01*
X168707923Y-75577045D01*
X168678854Y-75679212D01*
X168673934Y-75689092D01*
X168670074Y-75701818D01*
X168633888Y-75769515D01*
X168592509Y-75852618D01*
X168582105Y-75866394D01*
X168573043Y-75883349D01*
X168526177Y-75940454D01*
X168475769Y-76007206D01*
X168458405Y-76023035D01*
X168442462Y-76042462D01*
X168388663Y-76086613D01*
X168332609Y-76137714D01*
X168307311Y-76153377D01*
X168283349Y-76173043D01*
X168226312Y-76203530D01*
X168167910Y-76239691D01*
X168134300Y-76252711D01*
X168101818Y-76270074D01*
X168044973Y-76287317D01*
X167987276Y-76309670D01*
X167945613Y-76317458D01*
X167904845Y-76329825D01*
X167851184Y-76335109D01*
X167796860Y-76345265D01*
X167748076Y-76345265D01*
X167700000Y-76350000D01*
X167651924Y-76345265D01*
X167603140Y-76345265D01*
X167548814Y-76335109D01*
X167495155Y-76329825D01*
X167454388Y-76317458D01*
X167412723Y-76309670D01*
X167355022Y-76287316D01*
X167298182Y-76270074D01*
X167265701Y-76252712D01*
X167232089Y-76239691D01*
X167173680Y-76203526D01*
X167116651Y-76173043D01*
X167092691Y-76153380D01*
X167067390Y-76137714D01*
X167011326Y-76086605D01*
X166957538Y-76042462D01*
X166941597Y-76023038D01*
X166924230Y-76007206D01*
X166873809Y-75940438D01*
X166826957Y-75883349D01*
X166817896Y-75866398D01*
X166807490Y-75852618D01*
X166766096Y-75769488D01*
X166729926Y-75701818D01*
X166726067Y-75689097D01*
X166721145Y-75679212D01*
X166692060Y-75576992D01*
X166670175Y-75504845D01*
X166669456Y-75497547D01*
X166668130Y-75492886D01*
X166654329Y-75343963D01*
X166650000Y-75300000D01*
X166654329Y-75256039D01*
X166668130Y-75107113D01*
X166669456Y-75102451D01*
X166670175Y-75095155D01*
X166692056Y-75023022D01*
X166721145Y-74920787D01*
X166726067Y-74910900D01*
X166729926Y-74898182D01*
X166766089Y-74830525D01*
X166807490Y-74747381D01*
X166817898Y-74733597D01*
X166826957Y-74716651D01*
X166873800Y-74659572D01*
X166924230Y-74592793D01*
X166941601Y-74576957D01*
X166957538Y-74557538D01*
X167011315Y-74513403D01*
X167067390Y-74462285D01*
X167092696Y-74446615D01*
X167116651Y-74426957D01*
X167173668Y-74396480D01*
X167232089Y-74360308D01*
X167265708Y-74347283D01*
X167298182Y-74329926D01*
X167355010Y-74312687D01*
X167412723Y-74290329D01*
X167454394Y-74282539D01*
X167495155Y-74270175D01*
X167548811Y-74264890D01*
X167603140Y-74254735D01*
X167651924Y-74254735D01*
X167700000Y-74250000D01*
X167748076Y-74254735D01*
G37*
M02*
