G04 #@! TF.GenerationSoftware,KiCad,Pcbnew,8.0.7*
G04 #@! TF.CreationDate,2025-10-04T20:43:22+01:00*
G04 #@! TF.ProjectId,PulseOximeter,50756c73-654f-4786-996d-657465722e6b,rev?*
G04 #@! TF.SameCoordinates,Original*
G04 #@! TF.FileFunction,Copper,L2,Inr*
G04 #@! TF.FilePolarity,Positive*
%FSLAX46Y46*%
G04 Gerber Fmt 4.6, Leading zero omitted, Abs format (unit mm)*
G04 Created by KiCad (PCBNEW 8.0.7) date 2025-10-04 20:43:22*
%MOMM*%
%LPD*%
G01*
G04 APERTURE LIST*
G04 #@! TA.AperFunction,ComponentPad*
%ADD10R,1.524000X1.524000*%
G04 #@! TD*
G04 #@! TA.AperFunction,ComponentPad*
%ADD11C,1.524000*%
G04 #@! TD*
G04 #@! TA.AperFunction,ComponentPad*
%ADD12C,1.600000*%
G04 #@! TD*
G04 #@! TA.AperFunction,ComponentPad*
%ADD13O,1.600000X1.600000*%
G04 #@! TD*
G04 #@! TA.AperFunction,ComponentPad*
%ADD14C,2.000000*%
G04 #@! TD*
G04 #@! TA.AperFunction,ComponentPad*
%ADD15R,1.800000X1.800000*%
G04 #@! TD*
G04 #@! TA.AperFunction,ComponentPad*
%ADD16C,1.800000*%
G04 #@! TD*
G04 #@! TA.AperFunction,ComponentPad*
%ADD17R,1.600000X1.600000*%
G04 #@! TD*
G04 #@! TA.AperFunction,ViaPad*
%ADD18C,0.600000*%
G04 #@! TD*
G04 APERTURE END LIST*
D10*
X100420000Y-110530000D03*
D11*
X102960000Y-110530000D03*
X105500000Y-110530000D03*
X108040000Y-110530000D03*
X110580000Y-110530000D03*
D12*
X163310000Y-87690000D03*
D13*
X163310000Y-95310000D03*
D14*
X147060000Y-115250000D03*
X153560000Y-115250000D03*
X147060000Y-119750000D03*
X153560000Y-119750000D03*
D12*
X163310000Y-101190000D03*
D13*
X163310000Y-108810000D03*
D12*
X158310000Y-94000000D03*
X158310000Y-89000000D03*
X158310000Y-120000000D03*
X158310000Y-115000000D03*
D14*
X146800000Y-89250000D03*
X153300000Y-89250000D03*
X146800000Y-93750000D03*
X153300000Y-93750000D03*
D12*
X147690000Y-79500000D03*
D13*
X155310000Y-79500000D03*
D12*
X158310000Y-107000000D03*
X158310000Y-102000000D03*
D10*
X101690000Y-79000000D03*
D11*
X104230000Y-79000000D03*
X106770000Y-79000000D03*
X109310000Y-79000000D03*
D15*
X162080000Y-79500000D03*
D16*
X159540000Y-79500000D03*
D14*
X147060000Y-102250000D03*
X153560000Y-102250000D03*
X147060000Y-106750000D03*
X153560000Y-106750000D03*
D17*
X141500000Y-118740000D03*
D13*
X141500000Y-116200000D03*
X141500000Y-113660000D03*
X141500000Y-111120000D03*
X141500000Y-108580000D03*
X141500000Y-106040000D03*
X141500000Y-103500000D03*
X141500000Y-100960000D03*
X141500000Y-98420000D03*
X141500000Y-95880000D03*
X141500000Y-93340000D03*
X141500000Y-90800000D03*
X141500000Y-88260000D03*
X141500000Y-85720000D03*
X141500000Y-83180000D03*
X126260000Y-83180000D03*
X126260000Y-85720000D03*
X126260000Y-88260000D03*
X126260000Y-90800000D03*
X126260000Y-93340000D03*
X126260000Y-95880000D03*
X126260000Y-98420000D03*
X126260000Y-100960000D03*
X126260000Y-103500000D03*
X126260000Y-106040000D03*
X126260000Y-108580000D03*
X126260000Y-111120000D03*
X126260000Y-113660000D03*
X126260000Y-116200000D03*
X126260000Y-118740000D03*
D12*
X163310000Y-114190000D03*
D13*
X163310000Y-121810000D03*
D18*
X166000000Y-101200000D03*
X118000000Y-110800000D03*
X118000000Y-124200000D03*
X110600000Y-98100000D03*
X166000000Y-114200000D03*
X165900000Y-124200000D03*
X166000000Y-87700000D03*
X104230000Y-98100000D03*
X106770000Y-103430000D03*
X144000000Y-103400000D03*
X144000000Y-93800000D03*
X109310000Y-100950000D03*
X105800000Y-100960000D03*
X144700000Y-79500000D03*
X144700000Y-83200000D03*
X144000000Y-108600000D03*
X144000000Y-119750000D03*
M02*
