M48
; DRILL file {KiCad 8.0.7} date 2025-10-04T20:37:59+0100
; FORMAT={-:-/ absolute / metric / decimal}
; #@! TF.CreationDate,2025-10-04T20:37:59+01:00
; #@! TF.GenerationSoftware,Kicad,Pcbnew,8.0.7
; #@! TF.FileFunction,Plated,1,4,PTH
FMAT,2
METRIC
; #@! TA.AperFunction,Plated,PTH,ViaDrill
T1C0.300
; #@! TA.AperFunction,Plated,PTH,ComponentDrill
T2C0.762
; #@! TA.AperFunction,Plated,PTH,ComponentDrill
T3C0.800
; #@! TA.AperFunction,Plated,PTH,ComponentDrill
T4C0.900
; #@! TA.AperFunction,Plated,PTH,ComponentDrill
T5C1.000
; #@! TA.AperFunction,Plated,PTH,ComponentDrill
T6C1.100
%
G90
G05
T1
X104.23Y-98.1
X105.8Y-100.96
X106.77Y-103.43
X109.31Y-100.95
X110.6Y-98.1
X118.0Y-110.8
X118.0Y-124.2
X144.0Y-93.8
X144.0Y-103.4
X144.0Y-108.6
X144.0Y-119.75
X144.7Y-79.5
X144.7Y-83.2
X165.9Y-124.2
X166.0Y-87.7
X166.0Y-101.2
X166.0Y-114.2
T2
X100.42Y-110.53
X101.69Y-79.0
X102.96Y-110.53
X104.23Y-79.0
X105.5Y-110.53
X106.77Y-79.0
X108.04Y-110.53
X109.31Y-79.0
X110.58Y-110.53
T3
X147.69Y-79.5
X155.31Y-79.5
X158.31Y-89.0
X158.31Y-94.0
X158.31Y-102.0
X158.31Y-107.0
X158.31Y-115.0
X158.31Y-120.0
X163.31Y-87.69
X163.31Y-95.31
X163.31Y-101.19
X163.31Y-108.81
X163.31Y-114.19
X163.31Y-121.81
T4
X159.54Y-79.5
X162.08Y-79.5
T5
X126.26Y-83.18
X126.26Y-85.72
X126.26Y-88.26
X126.26Y-90.8
X126.26Y-93.34
X126.26Y-95.88
X126.26Y-98.42
X126.26Y-100.96
X126.26Y-103.5
X126.26Y-106.04
X126.26Y-108.58
X126.26Y-111.12
X126.26Y-113.66
X126.26Y-116.2
X126.26Y-118.74
X141.5Y-83.18
X141.5Y-85.72
X141.5Y-88.26
X141.5Y-90.8
X141.5Y-93.34
X141.5Y-95.88
X141.5Y-98.42
X141.5Y-100.96
X141.5Y-103.5
X141.5Y-106.04
X141.5Y-108.58
X141.5Y-111.12
X141.5Y-113.66
X141.5Y-116.2
X141.5Y-118.74
T6
X146.8Y-89.25
X146.8Y-93.75
X147.06Y-102.25
X147.06Y-106.75
X147.06Y-115.25
X147.06Y-119.75
X153.3Y-89.25
X153.3Y-93.75
X153.56Y-102.25
X153.56Y-106.75
X153.56Y-115.25
X153.56Y-119.75
M30
