G04*
G04 #@! TF.GenerationSoftware,Altium Limited,Altium Designer,24.1.2 (44)*
G04*
G04 Layer_Color=2752767*
%FSLAX44Y44*%
%MOMM*%
G71*
G04*
G04 #@! TF.SameCoordinates,BD343A0D-4BD6-4D64-9A7B-49F0AB29FDDA*
G04*
G04*
G04 #@! TF.FilePolarity,Positive*
G04*
G01*
G75*
%ADD38C,0.1270*%
%ADD39C,0.1693*%
D38*
X617982Y85090D02*
X620522Y87630D01*
X623062D01*
X620522Y90170D01*
X623062Y92710D01*
X620522D01*
X617982Y95250D01*
X615442Y92710D01*
X612902D01*
X615442Y90170D01*
X612902Y87630D01*
X615442D01*
X617982Y85090D01*
Y59690D02*
X620522Y62230D01*
X623062D01*
X620522Y64770D01*
X623062Y67310D01*
X620522D01*
X617982Y69850D01*
X615442Y67310D01*
X612902D01*
X615442Y64770D01*
X612902Y62230D01*
X615442D01*
X617982Y59690D01*
X53594Y70866D02*
X48514Y81026D01*
X58674D01*
X53594Y70866D01*
X104394D02*
X99314Y81026D01*
X109474D01*
X104394Y70866D01*
X78994Y45466D02*
X73914Y55626D01*
X84074D01*
X78994Y45466D01*
X46736Y265176D02*
Y275336D01*
X56896D01*
Y265176D01*
X46736D01*
X613918Y239776D02*
Y249936D01*
X624078D01*
Y239776D01*
X613918D01*
Y265176D02*
Y275336D01*
X624078D01*
Y265176D01*
X613918D01*
X550898Y239776D02*
Y249936D01*
X561058D01*
Y239776D01*
X550898D01*
Y265176D02*
Y275336D01*
X561058D01*
Y265176D01*
X550898D01*
X487878Y239776D02*
Y249936D01*
X498038D01*
Y239776D01*
X487878D01*
Y265176D02*
Y275336D01*
X498038D01*
Y265176D01*
X487878D01*
X424857Y239776D02*
Y249936D01*
X435017D01*
Y239776D01*
X424857D01*
Y265176D02*
Y275336D01*
X435017D01*
Y265176D01*
X424857D01*
X361837Y239776D02*
Y249936D01*
X371997D01*
Y239776D01*
X361837D01*
Y265176D02*
Y275336D01*
X371997D01*
Y265176D01*
X361837D01*
X298817Y239776D02*
Y249936D01*
X308977D01*
Y239776D01*
X298817D01*
Y265176D02*
Y275336D01*
X308977D01*
Y265176D01*
X298817D01*
X235797Y239776D02*
Y249936D01*
X245957D01*
Y239776D01*
X235797D01*
Y265176D02*
Y275336D01*
X245957D01*
Y265176D01*
X235797D01*
X172776Y239776D02*
Y249936D01*
X182936D01*
Y239776D01*
X172776D01*
Y265176D02*
Y275336D01*
X182936D01*
Y265176D01*
X172776D01*
X109756Y239776D02*
Y249936D01*
X119916D01*
Y239776D01*
X109756D01*
Y265176D02*
Y275336D01*
X119916D01*
Y265176D01*
X109756D01*
X46736Y239776D02*
Y249936D01*
X56896D01*
Y239776D01*
X46736D01*
X423926Y91440D02*
X426466Y96520D01*
X423926Y101600D01*
X429006Y99060D01*
X434086Y101600D01*
X431546Y96520D01*
X434086Y91440D01*
X429006Y93980D01*
X423926Y91440D01*
X407416Y80010D02*
X409956Y85090D01*
X407416Y90170D01*
X412496Y87630D01*
X417576Y90170D01*
X415036Y85090D01*
X417576Y80010D01*
X412496Y82550D01*
X407416Y80010D01*
X420878Y118110D02*
X423418Y123190D01*
X420878Y128270D01*
X425958Y125730D01*
X431038Y128270D01*
X428498Y123190D01*
X431038Y118110D01*
X425958Y120650D01*
X420878Y118110D01*
X374904Y80010D02*
X377444Y85090D01*
X374904Y90170D01*
X379984Y87630D01*
X385064Y90170D01*
X382524Y85090D01*
X385064Y80010D01*
X379984Y82550D01*
X374904Y80010D01*
X356108Y61468D02*
X358648Y66548D01*
X356108Y71628D01*
X361188Y69088D01*
X366268Y71628D01*
X363728Y66548D01*
X366268Y61468D01*
X361188Y64008D01*
X356108Y61468D01*
X297180D02*
X299720Y66548D01*
X297180Y71628D01*
X302260Y69088D01*
X307340Y71628D01*
X304800Y66548D01*
X307340Y61468D01*
X302260Y64008D01*
X297180Y61468D01*
X367792Y29464D02*
X370332Y34544D01*
X367792Y39624D01*
X372872Y37084D01*
X377952Y39624D01*
X375412Y34544D01*
X377952Y29464D01*
X372872Y32004D01*
X367792Y29464D01*
X286258Y55372D02*
X288798Y60452D01*
X286258Y65532D01*
X291338Y62992D01*
X296418Y65532D01*
X293878Y60452D01*
X296418Y55372D01*
X291338Y57912D01*
X286258Y55372D01*
X531622Y45466D02*
X534162Y50546D01*
X531622Y55626D01*
X536702Y53086D01*
X541782Y55626D01*
X539242Y50546D01*
X541782Y45466D01*
X536702Y48006D01*
X531622Y45466D01*
X521113Y74581D02*
X523653Y79661D01*
X521113Y84741D01*
X526193Y82201D01*
X531273Y84741D01*
X528733Y79661D01*
X531273Y74581D01*
X526193Y77121D01*
X521113Y74581D01*
X54356Y89154D02*
X56896Y94234D01*
X54356Y99314D01*
X59436Y96774D01*
X64516Y99314D01*
X61976Y94234D01*
X64516Y89154D01*
X59436Y91694D01*
X54356Y89154D01*
X422148Y68072D02*
X424688Y73152D01*
X422148Y78232D01*
X427228Y75692D01*
X432308Y78232D01*
X429768Y73152D01*
X432308Y68072D01*
X427228Y70612D01*
X422148Y68072D01*
X288290Y87122D02*
X290830Y92202D01*
X288290Y97282D01*
X293370Y94742D01*
X298450Y97282D01*
X295910Y92202D01*
X298450Y87122D01*
X293370Y89662D01*
X288290Y87122D01*
X307848Y127254D02*
X310388Y132334D01*
X307848Y137414D01*
X312928Y134874D01*
X318008Y137414D01*
X315468Y132334D01*
X318008Y127254D01*
X312928Y129794D01*
X307848Y127254D01*
X373126Y128016D02*
X375666Y133096D01*
X373126Y138176D01*
X378206Y135636D01*
X383286Y138176D01*
X380746Y133096D01*
X383286Y128016D01*
X378206Y130556D01*
X373126Y128016D01*
Y137922D02*
X375666Y143002D01*
X373126Y148082D01*
X378206Y145542D01*
X383286Y148082D01*
X380746Y143002D01*
X383286Y137922D01*
X378206Y140462D01*
X373126Y137922D01*
X260858Y138684D02*
X263398Y143764D01*
X260858Y148844D01*
X265938Y146304D01*
X271018Y148844D01*
X268478Y143764D01*
X271018Y138684D01*
X265938Y141224D01*
X260858Y138684D01*
X372872Y147320D02*
X375412Y152400D01*
X372872Y157480D01*
X377952Y154940D01*
X383032Y157480D01*
X380492Y152400D01*
X383032Y147320D01*
X377952Y149860D01*
X372872Y147320D01*
X193548Y126238D02*
X196088Y131318D01*
X193548Y136398D01*
X198628Y133858D01*
X203708Y136398D01*
X201168Y131318D01*
X203708Y126238D01*
X198628Y128778D01*
X193548Y126238D01*
D39*
X165354Y38862D02*
G03*
X165354Y38862I-5080J0D01*
G01*
X190754D02*
G03*
X190754Y38862I-5080J0D01*
G01*
X216154D02*
G03*
X216154Y38862I-5080J0D01*
G01*
X241554D02*
G03*
X241554Y38862I-5080J0D01*
G01*
X266954D02*
G03*
X266954Y38862I-5080J0D01*
G01*
X292354D02*
G03*
X292354Y38862I-5080J0D01*
G01*
X317754D02*
G03*
X317754Y38862I-5080J0D01*
G01*
X343154D02*
G03*
X343154Y38862I-5080J0D01*
G01*
X165354Y115062D02*
G03*
X165354Y115062I-5080J0D01*
G01*
X190754D02*
G03*
X190754Y115062I-5080J0D01*
G01*
X216154D02*
G03*
X216154Y115062I-5080J0D01*
G01*
X241554D02*
G03*
X241554Y115062I-5080J0D01*
G01*
X266954D02*
G03*
X266954Y115062I-5080J0D01*
G01*
X292354D02*
G03*
X292354Y115062I-5080J0D01*
G01*
X317754D02*
G03*
X317754Y115062I-5080J0D01*
G01*
X343154D02*
G03*
X343154Y115062I-5080J0D01*
G01*
M02*
