G04*
G04 #@! TF.GenerationSoftware,Altium Limited,Altium Designer,24.1.2 (44)*
G04*
G04 Layer_Color=128*
%FSLAX44Y44*%
%MOMM*%
G71*
G04*
G04 #@! TF.SameCoordinates,BD343A0D-4BD6-4D64-9A7B-49F0AB29FDDA*
G04*
G04*
G04 #@! TF.FilePolarity,Positive*
G04*
G01*
G75*
%ADD38C,0.1270*%
D38*
X612882Y90170D02*
X623082D01*
X617982Y85070D02*
Y95270D01*
X612882Y64770D02*
X623082D01*
X617982Y59670D02*
Y69870D01*
X49844Y75946D02*
X57344D01*
X53594Y72196D02*
Y79696D01*
X100644Y75946D02*
X108144D01*
X104394Y72196D02*
Y79696D01*
X75244Y50546D02*
X82744D01*
X78994Y46796D02*
Y54296D01*
X47066Y270256D02*
X56566D01*
X51816Y265506D02*
Y275006D01*
X614248Y244856D02*
X623748D01*
X618998Y240106D02*
Y249606D01*
X614248Y270256D02*
X623748D01*
X618998Y265506D02*
Y275006D01*
X551227Y244856D02*
X560728D01*
X555978Y240106D02*
Y249606D01*
X551227Y270256D02*
X560728D01*
X555978Y265506D02*
Y275006D01*
X488208Y244856D02*
X497708D01*
X492958Y240106D02*
Y249606D01*
X488208Y270256D02*
X497708D01*
X492958Y265506D02*
Y275006D01*
X425187Y244856D02*
X434687D01*
X429937Y240106D02*
Y249606D01*
X425187Y270256D02*
X434687D01*
X429937Y265506D02*
Y275006D01*
X362167Y244856D02*
X371667D01*
X366917Y240106D02*
Y249606D01*
X362167Y270256D02*
X371667D01*
X366917Y265506D02*
Y275006D01*
X155774Y38862D02*
X164774D01*
X160274Y34362D02*
Y43362D01*
X181174Y38862D02*
X190174D01*
X185674Y34362D02*
Y43362D01*
X206574Y38862D02*
X215574D01*
X211074Y34362D02*
Y43362D01*
X231974Y38862D02*
X240974D01*
X236474Y34362D02*
Y43362D01*
X257374Y38862D02*
X266374D01*
X261874Y34362D02*
Y43362D01*
X282774Y38862D02*
X291774D01*
X287274Y34362D02*
Y43362D01*
X308174Y38862D02*
X317174D01*
X312674Y34362D02*
Y43362D01*
X333574Y38862D02*
X342574D01*
X338074Y34362D02*
Y43362D01*
X155774Y115062D02*
X164774D01*
X160274Y110562D02*
Y119562D01*
X181174Y115062D02*
X190174D01*
X185674Y110562D02*
Y119562D01*
X206574Y115062D02*
X215574D01*
X211074Y110562D02*
Y119562D01*
X231974Y115062D02*
X240974D01*
X236474Y110562D02*
Y119562D01*
X257374Y115062D02*
X266374D01*
X261874Y110562D02*
Y119562D01*
X282774Y115062D02*
X291774D01*
X287274Y110562D02*
Y119562D01*
X308174Y115062D02*
X317174D01*
X312674Y110562D02*
Y119562D01*
X333574Y115062D02*
X342574D01*
X338074Y110562D02*
Y119562D01*
X299147Y244856D02*
X308647D01*
X303897Y240106D02*
Y249606D01*
X299147Y270256D02*
X308647D01*
X303897Y265506D02*
Y275006D01*
X236127Y244856D02*
X245627D01*
X240877Y240106D02*
Y249606D01*
X236127Y270256D02*
X245627D01*
X240877Y265506D02*
Y275006D01*
X173106Y244856D02*
X182606D01*
X177856Y240106D02*
Y249606D01*
X173106Y270256D02*
X182606D01*
X177856Y265506D02*
Y275006D01*
X110086Y244856D02*
X119586D01*
X114836Y240106D02*
Y249606D01*
X110086Y270256D02*
X119586D01*
X114836Y265506D02*
Y275006D01*
X47066Y244856D02*
X56566D01*
X51816Y240106D02*
Y249606D01*
X427506Y96520D02*
X430506D01*
X429006Y95020D02*
Y98020D01*
X410996Y85090D02*
X413996D01*
X412496Y83590D02*
Y86590D01*
X424458Y123190D02*
X427458D01*
X425958Y121690D02*
Y124690D01*
X378484Y85090D02*
X381484D01*
X379984Y83590D02*
Y86590D01*
X359688Y66548D02*
X362688D01*
X361188Y65048D02*
Y68048D01*
X300760Y66548D02*
X303760D01*
X302260Y65048D02*
Y68048D01*
X371372Y34544D02*
X374372D01*
X372872Y33044D02*
Y36044D01*
X289838Y60452D02*
X292838D01*
X291338Y58952D02*
Y61952D01*
X535202Y50546D02*
X538202D01*
X536702Y49046D02*
Y52046D01*
X524693Y79661D02*
X527693D01*
X526193Y78161D02*
Y81161D01*
X57936Y94234D02*
X60936D01*
X59436Y92734D02*
Y95734D01*
X425728Y73152D02*
X428728D01*
X427228Y71652D02*
Y74652D01*
X291870Y92202D02*
X294870D01*
X293370Y90702D02*
Y93702D01*
X311428Y132334D02*
X314428D01*
X312928Y130834D02*
Y133834D01*
X376706Y133096D02*
X379706D01*
X378206Y131596D02*
Y134596D01*
X376706Y143002D02*
X379706D01*
X378206Y141502D02*
Y144502D01*
X264438Y143764D02*
X267438D01*
X265938Y142264D02*
Y145264D01*
X376452Y152400D02*
X379452D01*
X377952Y150900D02*
Y153900D01*
X197128Y131318D02*
X200128D01*
X198628Y129818D02*
Y132818D01*
M02*
