G04*
G04 #@! TF.GenerationSoftware,Altium Limited,Altium Designer,24.1.2 (44)*
G04*
G04 Layer_Color=8388736*
%FSLAX44Y44*%
%MOMM*%
G71*
G04*
G04 #@! TF.SameCoordinates,BD343A0D-4BD6-4D64-9A7B-49F0AB29FDDA*
G04*
G04*
G04 #@! TF.FilePolarity,Negative*
G04*
G01*
G75*
G04:AMPARAMS|DCode=16|XSize=2.4692mm|YSize=0.6221mm|CornerRadius=0.3111mm|HoleSize=0mm|Usage=FLASHONLY|Rotation=0.000|XOffset=0mm|YOffset=0mm|HoleType=Round|Shape=RoundedRectangle|*
%AMROUNDEDRECTD16*
21,1,2.4692,0.0000,0,0,0.0*
21,1,1.8470,0.6221,0,0,0.0*
1,1,0.6221,0.9235,0.0000*
1,1,0.6221,-0.9235,0.0000*
1,1,0.6221,-0.9235,0.0000*
1,1,0.6221,0.9235,0.0000*
%
%ADD16ROUNDEDRECTD16*%
%ADD17R,2.4692X0.6221*%
%ADD19R,1.6532X1.4032*%
%ADD20R,1.4032X1.6532*%
%ADD21R,1.3032X1.5532*%
%ADD22C,1.5700*%
%ADD23R,1.5700X1.5700*%
%ADD24R,1.2500X1.2500*%
%ADD25C,1.2500*%
%ADD26R,1.4500X1.4500*%
%ADD27C,1.4500*%
%ADD28C,1.7032*%
%ADD29R,1.7032X1.7032*%
%ADD30C,0.8032*%
D16*
X502164Y96012D02*
D03*
Y83312D02*
D03*
Y70612D02*
D03*
Y57912D02*
D03*
X453892D02*
D03*
Y70612D02*
D03*
Y83312D02*
D03*
D17*
Y96012D02*
D03*
D19*
X617220Y188308D02*
D03*
Y168308D02*
D03*
X555188Y188308D02*
D03*
Y168308D02*
D03*
X493155Y188308D02*
D03*
Y168308D02*
D03*
X430022Y189324D02*
D03*
Y169324D02*
D03*
X366522Y188562D02*
D03*
Y168562D02*
D03*
X304292Y189070D02*
D03*
Y169070D02*
D03*
X241300Y188308D02*
D03*
Y168308D02*
D03*
X178054Y187800D02*
D03*
Y167800D02*
D03*
X115062Y187800D02*
D03*
Y167800D02*
D03*
X51054Y187800D02*
D03*
Y167800D02*
D03*
D20*
X379288Y59182D02*
D03*
X399288D02*
D03*
X379288Y105926D02*
D03*
X399288D02*
D03*
D21*
X553466Y101600D02*
D03*
X567466D02*
D03*
X553832Y57150D02*
D03*
X567832D02*
D03*
D22*
X617982Y90170D02*
D03*
D23*
Y64770D02*
D03*
D24*
X53594Y75946D02*
D03*
D25*
X104394D02*
D03*
X78994Y50546D02*
D03*
D26*
X51816Y270256D02*
D03*
X618998D02*
D03*
X555978D02*
D03*
X492958D02*
D03*
X429937D02*
D03*
X366917D02*
D03*
X303897D02*
D03*
X240877D02*
D03*
X177856D02*
D03*
X114836D02*
D03*
D27*
X618998Y244856D02*
D03*
X555978D02*
D03*
X492958D02*
D03*
X429937D02*
D03*
X366917D02*
D03*
X303897D02*
D03*
X240877D02*
D03*
X177856D02*
D03*
X114836D02*
D03*
X51816D02*
D03*
D28*
X160274Y38862D02*
D03*
X185674D02*
D03*
X211074D02*
D03*
X236474D02*
D03*
X261874D02*
D03*
X287274D02*
D03*
X312674D02*
D03*
X338074D02*
D03*
X160274Y115062D02*
D03*
X185674D02*
D03*
X211074D02*
D03*
X236474D02*
D03*
X261874D02*
D03*
X287274D02*
D03*
X312674D02*
D03*
D29*
X338074D02*
D03*
D30*
X429006Y96520D02*
D03*
X412496Y85090D02*
D03*
X425958Y123190D02*
D03*
X379984Y85090D02*
D03*
X361188Y66548D02*
D03*
X302260D02*
D03*
X372872Y34544D02*
D03*
X291338Y60452D02*
D03*
X536702Y50546D02*
D03*
X526193Y79661D02*
D03*
X59436Y94234D02*
D03*
X427228Y73152D02*
D03*
X293370Y92202D02*
D03*
X312928Y132334D02*
D03*
X378206Y133096D02*
D03*
Y143002D02*
D03*
X265938Y143764D02*
D03*
X377952Y152400D02*
D03*
X198628Y131318D02*
D03*
M02*
