G04*
G04 #@! TF.GenerationSoftware,Altium Limited,Altium Designer,24.1.2 (44)*
G04*
G04 Layer_Color=65535*
%FSLAX44Y44*%
%MOMM*%
G71*
G04*
G04 #@! TF.SameCoordinates,BD343A0D-4BD6-4D64-9A7B-49F0AB29FDDA*
G04*
G04*
G04 #@! TF.FilePolarity,Positive*
G04*
G01*
G75*
%ADD10C,0.2500*%
%ADD11C,0.2000*%
%ADD12C,0.6000*%
%ADD13C,0.2540*%
D10*
X637232Y64770D02*
G03*
X637232Y64770I-1250J0D01*
G01*
X620248Y283306D02*
G03*
X620248Y283306I-1250J0D01*
G01*
X557228D02*
G03*
X557228Y283306I-1250J0D01*
G01*
X494207D02*
G03*
X494207Y283306I-1250J0D01*
G01*
X431187D02*
G03*
X431187Y283306I-1250J0D01*
G01*
X368167D02*
G03*
X368167Y283306I-1250J0D01*
G01*
X352324Y115062D02*
G03*
X352324Y115062I-1250J0D01*
G01*
X437296Y96012D02*
G03*
X437296Y96012I-1250J0D01*
G01*
X305147Y283306D02*
G03*
X305147Y283306I-1250J0D01*
G01*
X242127D02*
G03*
X242127Y283306I-1250J0D01*
G01*
X179106D02*
G03*
X179106Y283306I-1250J0D01*
G01*
X116086D02*
G03*
X116086Y283306I-1250J0D01*
G01*
X53066D02*
G03*
X53066Y283306I-1250J0D01*
G01*
D11*
X607798Y270556D02*
G03*
X607798Y244556I11186J-13000D01*
G01*
X630198D02*
G03*
X630198Y270556I-11186J13000D01*
G01*
X544778D02*
G03*
X544778Y244556I11186J-13000D01*
G01*
X567178D02*
G03*
X567178Y270556I-11186J13000D01*
G01*
X481758D02*
G03*
X481758Y244556I11186J-13000D01*
G01*
X504157D02*
G03*
X504157Y270556I-11186J13000D01*
G01*
X418737D02*
G03*
X418737Y244556I11186J-13000D01*
G01*
X441137D02*
G03*
X441137Y270556I-11186J13000D01*
G01*
X355717D02*
G03*
X355717Y244556I11186J-13000D01*
G01*
X378117D02*
G03*
X378117Y270556I-11186J13000D01*
G01*
X347674Y83312D02*
G03*
X347674Y70612I0J-6350D01*
G01*
X292697Y270556D02*
G03*
X292697Y244556I11186J-13000D01*
G01*
X315097D02*
G03*
X315097Y270556I-11186J13000D01*
G01*
X229677D02*
G03*
X229677Y244556I11186J-13000D01*
G01*
X252077D02*
G03*
X252077Y270556I-11186J13000D01*
G01*
X166656D02*
G03*
X166656Y244556I11186J-13000D01*
G01*
X189056D02*
G03*
X189056Y270556I-11186J13000D01*
G01*
X103636D02*
G03*
X103636Y244556I11186J-13000D01*
G01*
X126036D02*
G03*
X126036Y270556I-11186J13000D01*
G01*
X40616D02*
G03*
X40616Y244556I11186J-13000D01*
G01*
X63016D02*
G03*
X63016Y270556I-11186J13000D01*
G01*
X604782Y49570D02*
X631182D01*
Y105370D01*
X604782D02*
X631182D01*
X604782Y49570D02*
Y105370D01*
X30094Y124996D02*
X127894D01*
Y27196D02*
Y124996D01*
X30094Y27196D02*
X127894D01*
X30094D02*
Y124996D01*
X623470Y177308D02*
Y179308D01*
X610970Y177308D02*
Y179308D01*
X561437Y177308D02*
Y179308D01*
X548938Y177308D02*
Y179308D01*
X499405Y177308D02*
Y179308D01*
X486905Y177308D02*
Y179308D01*
X436272Y178324D02*
Y180324D01*
X423772Y178324D02*
Y180324D01*
X388288Y65432D02*
X390288D01*
X388288Y52932D02*
X390288D01*
X372772Y177562D02*
Y179562D01*
X360272Y177562D02*
Y179562D01*
X388288Y112176D02*
X390288D01*
X388288Y99676D02*
X390288D01*
X150674Y50462D02*
Y103462D01*
X347674Y50462D02*
Y70612D01*
Y83312D02*
Y103462D01*
X150674Y50462D02*
X347674D01*
X150674Y103462D02*
X347674D01*
X471238Y52437D02*
Y101487D01*
Y52437D02*
X484818D01*
Y101487D01*
X471238D02*
X484818D01*
X310542Y178070D02*
Y180070D01*
X298042Y178070D02*
Y180070D01*
X247550Y177308D02*
Y179308D01*
X235050Y177308D02*
Y179308D01*
X184304Y176800D02*
Y178800D01*
X171804Y176800D02*
Y178800D01*
X121312Y176800D02*
Y178800D01*
X108812Y176800D02*
Y178800D01*
X57304Y176800D02*
Y178800D01*
X44804Y176800D02*
Y178800D01*
D12*
X340674Y93462D02*
G03*
X340674Y93462I-3000J0D01*
G01*
D13*
X617728Y43098D02*
X614396D01*
X616062D01*
Y34768D01*
X614396Y33102D01*
X612730D01*
X611063Y34768D01*
X621060Y33102D02*
X624393D01*
X622726D01*
Y43098D01*
X621060Y41432D01*
X474269Y29128D02*
Y20798D01*
X475936Y19132D01*
X479268D01*
X480934Y20798D01*
Y29128D01*
X490931Y19132D02*
X484266D01*
X490931Y25796D01*
Y27462D01*
X489264Y29128D01*
X485932D01*
X484266Y27462D01*
X236413Y21000D02*
Y12670D01*
X238080Y11004D01*
X241412D01*
X243078Y12670D01*
Y21000D01*
X246410Y11004D02*
X249743D01*
X248076D01*
Y21000D01*
X246410Y19334D01*
X73102Y130130D02*
Y140126D01*
X78100D01*
X79767Y138460D01*
Y135128D01*
X78100Y133462D01*
X73102D01*
X76434D02*
X79767Y130130D01*
X83099D02*
X86431D01*
X84765D01*
Y140126D01*
X83099Y138460D01*
X91430D02*
X93096Y140126D01*
X96428D01*
X98094Y138460D01*
Y136794D01*
X96428Y135128D01*
X94762D01*
X96428D01*
X98094Y133462D01*
Y131796D01*
X96428Y130130D01*
X93096D01*
X91430Y131796D01*
X33830Y167211D02*
X23833D01*
Y172209D01*
X25499Y173875D01*
X28831D01*
X30498Y172209D01*
Y167211D01*
Y170543D02*
X33830Y173875D01*
Y177207D02*
Y180540D01*
Y178874D01*
X23833D01*
X25499Y177207D01*
Y185538D02*
X23833Y187204D01*
Y190536D01*
X25499Y192202D01*
X32164D01*
X33830Y190536D01*
Y187204D01*
X32164Y185538D01*
X25499D01*
X97838Y175541D02*
X87841D01*
Y180540D01*
X89507Y182206D01*
X92839D01*
X94506Y180540D01*
Y175541D01*
Y178874D02*
X97838Y182206D01*
X96172Y185538D02*
X97838Y187204D01*
Y190536D01*
X96172Y192202D01*
X89507D01*
X87841Y190536D01*
Y187204D01*
X89507Y185538D01*
X91173D01*
X92839Y187204D01*
Y192202D01*
X160830Y175541D02*
X150833D01*
Y180540D01*
X152499Y182206D01*
X155831D01*
X157498Y180540D01*
Y175541D01*
Y178874D02*
X160830Y182206D01*
X152499Y185538D02*
X150833Y187204D01*
Y190536D01*
X152499Y192202D01*
X154165D01*
X155831Y190536D01*
X157498Y192202D01*
X159164D01*
X160830Y190536D01*
Y187204D01*
X159164Y185538D01*
X157498D01*
X155831Y187204D01*
X154165Y185538D01*
X152499D01*
X155831Y187204D02*
Y190536D01*
X224076Y176049D02*
X214079D01*
Y181048D01*
X215745Y182714D01*
X219077D01*
X220744Y181048D01*
Y176049D01*
Y179382D02*
X224076Y182714D01*
X214079Y186046D02*
Y192710D01*
X215745D01*
X222410Y186046D01*
X224076D01*
X287068Y176811D02*
X277071D01*
Y181810D01*
X278737Y183476D01*
X282069D01*
X283736Y181810D01*
Y176811D01*
Y180144D02*
X287068Y183476D01*
X277071Y193472D02*
X278737Y190140D01*
X282069Y186808D01*
X285402D01*
X287068Y188474D01*
Y191806D01*
X285402Y193472D01*
X283736D01*
X282069Y191806D01*
Y186808D01*
X349298Y176303D02*
X339301D01*
Y181302D01*
X340967Y182968D01*
X344299D01*
X345966Y181302D01*
Y176303D01*
Y179636D02*
X349298Y182968D01*
X339301Y192964D02*
Y186300D01*
X344299D01*
X342633Y189632D01*
Y191298D01*
X344299Y192964D01*
X347632D01*
X349298Y191298D01*
Y187966D01*
X347632Y186300D01*
X412798Y177065D02*
X402801D01*
Y182064D01*
X404467Y183730D01*
X407799D01*
X409466Y182064D01*
Y177065D01*
Y180397D02*
X412798Y183730D01*
Y192060D02*
X402801D01*
X407799Y187062D01*
Y193727D01*
X475931Y176049D02*
X465934D01*
Y181048D01*
X467600Y182714D01*
X470933D01*
X472599Y181048D01*
Y176049D01*
Y179382D02*
X475931Y182714D01*
X467600Y186046D02*
X465934Y187712D01*
Y191044D01*
X467600Y192710D01*
X469266D01*
X470933Y191044D01*
Y189378D01*
Y191044D01*
X472599Y192710D01*
X474265D01*
X475931Y191044D01*
Y187712D01*
X474265Y186046D01*
X537963Y176049D02*
X527967D01*
Y181048D01*
X529633Y182714D01*
X532965D01*
X534631Y181048D01*
Y176049D01*
Y179382D02*
X537963Y182714D01*
Y192710D02*
Y186046D01*
X531299Y192710D01*
X529633D01*
X527967Y191044D01*
Y187712D01*
X529633Y186046D01*
X599996Y179382D02*
X589999D01*
Y184380D01*
X591665Y186046D01*
X594997D01*
X596664Y184380D01*
Y179382D01*
Y182714D02*
X599996Y186046D01*
Y189378D02*
Y192710D01*
Y191044D01*
X589999D01*
X591665Y189378D01*
X56846Y229026D02*
Y219030D01*
X61844D01*
X63510Y220696D01*
Y227360D01*
X61844Y229026D01*
X56846D01*
X66843Y219030D02*
X70175D01*
X68509D01*
Y229026D01*
X66843Y227360D01*
X75174D02*
X76840Y229026D01*
X80172D01*
X81838Y227360D01*
Y220696D01*
X80172Y219030D01*
X76840D01*
X75174Y220696D01*
Y227360D01*
X119177Y231312D02*
Y221316D01*
X124176D01*
X125842Y222982D01*
Y229646D01*
X124176Y231312D01*
X119177D01*
X129174Y222982D02*
X130840Y221316D01*
X134172D01*
X135839Y222982D01*
Y229646D01*
X134172Y231312D01*
X130840D01*
X129174Y229646D01*
Y227980D01*
X130840Y226314D01*
X135839D01*
X182677Y231820D02*
Y221824D01*
X187676D01*
X189342Y223490D01*
Y230154D01*
X187676Y231820D01*
X182677D01*
X192674Y230154D02*
X194340Y231820D01*
X197673D01*
X199339Y230154D01*
Y228488D01*
X197673Y226822D01*
X199339Y225156D01*
Y223490D01*
X197673Y221824D01*
X194340D01*
X192674Y223490D01*
Y225156D01*
X194340Y226822D01*
X192674Y228488D01*
Y230154D01*
X194340Y226822D02*
X197673D01*
X245161Y231820D02*
Y221824D01*
X250160D01*
X251826Y223490D01*
Y230154D01*
X250160Y231820D01*
X245161D01*
X255158D02*
X261823D01*
Y230154D01*
X255158Y223490D01*
Y221824D01*
X308407Y231312D02*
Y221316D01*
X313406D01*
X315072Y222982D01*
Y229646D01*
X313406Y231312D01*
X308407D01*
X325069D02*
X321736Y229646D01*
X318404Y226314D01*
Y222982D01*
X320070Y221316D01*
X323402D01*
X325069Y222982D01*
Y224648D01*
X323402Y226314D01*
X318404D01*
X371145Y231312D02*
Y221316D01*
X376144D01*
X377810Y222982D01*
Y229646D01*
X376144Y231312D01*
X371145D01*
X387807D02*
X381142D01*
Y226314D01*
X384474Y227980D01*
X386141D01*
X387807Y226314D01*
Y222982D01*
X386141Y221316D01*
X382808D01*
X381142Y222982D01*
X435153Y231820D02*
Y221824D01*
X440152D01*
X441818Y223490D01*
Y230154D01*
X440152Y231820D01*
X435153D01*
X450149Y221824D02*
Y231820D01*
X445150Y226822D01*
X451815D01*
X497129Y231820D02*
Y221824D01*
X502128D01*
X503794Y223490D01*
Y230154D01*
X502128Y231820D01*
X497129D01*
X507126Y230154D02*
X508792Y231820D01*
X512124D01*
X513791Y230154D01*
Y228488D01*
X512124Y226822D01*
X510458D01*
X512124D01*
X513791Y225156D01*
Y223490D01*
X512124Y221824D01*
X508792D01*
X507126Y223490D01*
X560629Y232328D02*
Y222332D01*
X565628D01*
X567294Y223998D01*
Y230662D01*
X565628Y232328D01*
X560629D01*
X577291Y222332D02*
X570626D01*
X577291Y228996D01*
Y230662D01*
X575625Y232328D01*
X572292D01*
X570626Y230662D01*
X623509Y232328D02*
Y222332D01*
X628508D01*
X630174Y223998D01*
Y230662D01*
X628508Y232328D01*
X623509D01*
X633506Y222332D02*
X636838D01*
X635172D01*
Y232328D01*
X633506Y230662D01*
X559674Y28732D02*
X558008Y30398D01*
X554675D01*
X553009Y28732D01*
Y22068D01*
X554675Y20402D01*
X558008D01*
X559674Y22068D01*
X569671Y20402D02*
X563006D01*
X569671Y27066D01*
Y28732D01*
X568004Y30398D01*
X564672D01*
X563006Y28732D01*
X569468Y139222D02*
X567802Y140888D01*
X564470D01*
X562803Y139222D01*
Y132558D01*
X564470Y130892D01*
X567802D01*
X569468Y132558D01*
X572800Y130892D02*
X576133D01*
X574466D01*
Y140888D01*
X572800Y139222D01*
M02*
