G04*
G04 #@! TF.GenerationSoftware,Altium Limited,Altium Designer,24.1.2 (44)*
G04*
G04 Layer_Physical_Order=1*
G04 Layer_Color=255*
%FSLAX44Y44*%
%MOMM*%
G71*
G04*
G04 #@! TF.SameCoordinates,BD343A0D-4BD6-4D64-9A7B-49F0AB29FDDA*
G04*
G04*
G04 #@! TF.FilePolarity,Positive*
G04*
G01*
G75*
%ADD14R,1.4500X1.2000*%
%ADD15R,1.2000X1.4500*%
G04:AMPARAMS|DCode=16|XSize=2.4692mm|YSize=0.6221mm|CornerRadius=0.3111mm|HoleSize=0mm|Usage=FLASHONLY|Rotation=0.000|XOffset=0mm|YOffset=0mm|HoleType=Round|Shape=RoundedRectangle|*
%AMROUNDEDRECTD16*
21,1,2.4692,0.0000,0,0,0.0*
21,1,1.8470,0.6221,0,0,0.0*
1,1,0.6221,0.9235,0.0000*
1,1,0.6221,-0.9235,0.0000*
1,1,0.6221,-0.9235,0.0000*
1,1,0.6221,0.9235,0.0000*
%
%ADD16ROUNDEDRECTD16*%
%ADD17R,2.4692X0.6221*%
%ADD18R,1.1000X1.3500*%
%ADD22C,1.5700*%
%ADD23R,1.5700X1.5700*%
%ADD24R,1.2500X1.2500*%
%ADD25C,1.2500*%
%ADD26R,1.4500X1.4500*%
%ADD27C,1.4500*%
%ADD31C,0.3810*%
%ADD32C,1.5000*%
%ADD33R,1.5000X1.5000*%
%ADD34C,0.6000*%
D14*
X617220Y188308D02*
D03*
Y168308D02*
D03*
X555188Y188308D02*
D03*
Y168308D02*
D03*
X493155Y188308D02*
D03*
Y168308D02*
D03*
X430022Y189324D02*
D03*
Y169324D02*
D03*
X366522Y188562D02*
D03*
Y168562D02*
D03*
X304292Y189070D02*
D03*
Y169070D02*
D03*
X241300Y188308D02*
D03*
Y168308D02*
D03*
X178054Y187800D02*
D03*
Y167800D02*
D03*
X115062Y187800D02*
D03*
Y167800D02*
D03*
X51054Y187800D02*
D03*
Y167800D02*
D03*
D15*
X379288Y59182D02*
D03*
X399288D02*
D03*
X379288Y105926D02*
D03*
X399288D02*
D03*
D16*
X502164Y96012D02*
D03*
Y83312D02*
D03*
Y70612D02*
D03*
Y57912D02*
D03*
X453892D02*
D03*
Y70612D02*
D03*
Y83312D02*
D03*
D17*
Y96012D02*
D03*
D18*
X553466Y101600D02*
D03*
X567466D02*
D03*
X553832Y57150D02*
D03*
X567832D02*
D03*
D22*
X617982Y90170D02*
D03*
D23*
Y64770D02*
D03*
D24*
X53594Y75946D02*
D03*
D25*
X104394D02*
D03*
X78994Y50546D02*
D03*
D26*
X51816Y270256D02*
D03*
X618998D02*
D03*
X555978D02*
D03*
X492958D02*
D03*
X429937D02*
D03*
X366917D02*
D03*
X303897D02*
D03*
X240877D02*
D03*
X177856D02*
D03*
X114836D02*
D03*
D27*
X618998Y244856D02*
D03*
X555978D02*
D03*
X492958D02*
D03*
X429937D02*
D03*
X366917D02*
D03*
X303897D02*
D03*
X240877D02*
D03*
X177856D02*
D03*
X114836D02*
D03*
X51816D02*
D03*
D31*
X412496Y85090D02*
X423507Y96101D01*
X428587D02*
X429006Y96520D01*
X429260Y96266D01*
X423507Y96101D02*
X428587D01*
X453638Y96266D02*
X453892Y96012D01*
X429260Y96266D02*
X453638D01*
X453892Y96012D02*
X463127D01*
X521770Y114046D02*
X524002Y111814D01*
Y89154D02*
Y111814D01*
X431038Y114046D02*
X521770D01*
X399288Y59182D02*
Y82296D01*
X431038Y114046D01*
X399288Y82296D02*
Y89154D01*
Y89716D01*
X381520Y91948D02*
X397056D01*
X399288Y89716D01*
X425958Y123190D02*
X515054D01*
X516070Y124206D01*
X614988D01*
X361188Y66548D02*
X361315D01*
X379857Y85090D01*
X379984D01*
X379288Y94180D02*
X381520Y91948D01*
X379288Y94180D02*
Y105926D01*
X323342Y53086D02*
X361696Y91440D01*
Y164467D01*
X323342Y28902D02*
Y53086D01*
X327406Y48006D02*
X368300Y88900D01*
X327406Y23060D02*
Y48006D01*
X368300Y88900D02*
Y116894D01*
X302006Y66802D02*
X302260Y66548D01*
Y49276D02*
Y66548D01*
Y49276D02*
X312674Y38862D01*
X265630Y73914D02*
X310442D01*
X261874Y38862D02*
X263090Y40078D01*
X310442Y73914D02*
X312674Y71682D01*
Y38862D02*
Y71682D01*
X287274Y38862D02*
Y56388D01*
X291338Y60452D01*
X373380Y35052D02*
X415036D01*
X372872Y34544D02*
X373380Y35052D01*
X415036D02*
Y63046D01*
X417268Y65278D01*
X438670D02*
X444004Y70612D01*
X417268Y65278D02*
X438670D01*
X444004Y70612D02*
X453892D01*
X423618Y57912D02*
X453892D01*
X341376Y23114D02*
X419154D01*
X421386Y25346D01*
Y55680D02*
X423618Y57912D01*
X421386Y25346D02*
Y55680D01*
X536702Y50546D02*
X543306Y57150D01*
X553832Y55900D02*
Y57150D01*
X517144Y70612D02*
X526193Y79661D01*
X502164Y70612D02*
X517144D01*
X53594Y75946D02*
X54102Y76454D01*
Y88307D01*
X59436Y93641D02*
Y94234D01*
X54102Y88307D02*
X59436Y93641D01*
X437388Y83312D02*
X453892D01*
X427228Y73152D02*
X437388Y83312D01*
X543306Y57150D02*
X553832D01*
X524764Y36576D02*
Y55626D01*
X553466Y84328D01*
X524764Y36576D02*
X589788D01*
X287274Y98431D02*
Y115062D01*
X293370Y92202D02*
Y92335D01*
X287274Y98431D02*
X293370Y92335D01*
X617220Y126438D02*
Y168308D01*
X614988Y124206D02*
X617220Y126438D01*
X312674Y115062D02*
X312801Y115189D01*
Y132207D01*
X312928Y132334D01*
X378206Y133096D02*
X550472D01*
X554228Y136852D01*
Y167348D01*
X555188Y168308D01*
X378460Y143256D02*
X484378D01*
X378206Y143002D02*
X378460Y143256D01*
X484378D02*
X493155Y152033D01*
X261874Y115062D02*
Y139700D01*
X265938Y143764D01*
X493155Y152033D02*
Y168308D01*
X188468Y131318D02*
X198628D01*
X185674Y128524D02*
X188468Y131318D01*
X185674Y115062D02*
Y128524D01*
X377952Y152400D02*
X427790D01*
X430022Y154632D02*
Y169324D01*
X427790Y152400D02*
X430022Y154632D01*
X365791Y168562D02*
X366522D01*
X361696Y164467D02*
X365791Y168562D01*
X589788Y36576D02*
X617982Y64770D01*
X553466Y84328D02*
Y101600D01*
X567649Y57333D02*
Y101417D01*
Y57333D02*
X567832Y57150D01*
X569752Y103886D02*
X583438D01*
X597154Y90170D02*
X617982D01*
X583438Y103886D02*
X597154Y90170D01*
X567466Y101600D02*
X569752Y103886D01*
X538226Y80010D02*
Y112322D01*
X540458Y114554D02*
X593598D01*
X567466Y101600D02*
X567649Y101417D01*
X304471Y158571D02*
Y168891D01*
Y158571D02*
X336550Y126492D01*
Y116586D02*
Y126492D01*
Y116586D02*
X338074Y115062D01*
X304292Y169070D02*
X304471Y168891D01*
X221742Y23060D02*
X223974Y20828D01*
X218440Y49276D02*
X221742Y45974D01*
X223974Y20828D02*
X325174D01*
X221742Y23060D02*
Y45974D01*
X225806Y28902D02*
X228038Y26670D01*
X321110D01*
X221488Y54102D02*
X225806Y49784D01*
Y28902D02*
Y49784D01*
X198120Y25854D02*
Y47044D01*
X200352Y49276D02*
X218440D01*
X198120Y47044D02*
X200352Y49276D01*
X191008Y54102D02*
X221488D01*
X175460Y23622D02*
X195888D01*
X198120Y25854D01*
X173228D02*
X175460Y23622D01*
X151384Y75946D02*
X173228Y54102D01*
Y25854D02*
Y54102D01*
X104394Y75946D02*
X151384D01*
X187815Y41003D02*
Y50909D01*
X191008Y54102D01*
X325174Y20828D02*
X327406Y23060D01*
X321110Y26670D02*
X323342Y28902D01*
X370532Y119126D02*
X397056D01*
X368300Y116894D02*
X370532Y119126D01*
X397056D02*
X399288Y116894D01*
Y105926D02*
Y116894D01*
X185674Y38862D02*
X187815Y41003D01*
X538226Y112322D02*
X540458Y114554D01*
X593598D02*
X617982Y90170D01*
X522224Y64008D02*
X538226Y80010D01*
X485648Y66240D02*
X487880Y64008D01*
X485648Y66240D02*
Y86106D01*
X487880Y64008D02*
X522224D01*
X485648Y86106D02*
X489204Y89662D01*
X515928D01*
X471255Y104140D02*
X515928D01*
Y89662D02*
X518160Y91894D01*
X515928Y104140D02*
X518160Y101908D01*
Y91894D02*
Y101908D01*
X463127Y96012D02*
X471255Y104140D01*
X518160Y83312D02*
X524002Y89154D01*
X475996Y60706D02*
Y91948D01*
X456124Y36576D02*
X524764D01*
X453892Y38808D02*
X456124Y36576D01*
X453892Y38808D02*
Y57912D01*
X78994Y50546D02*
X104394Y75946D01*
X211074Y115062D02*
Y137160D01*
X183896Y143510D02*
X204724D01*
X211074Y137160D01*
X178054Y149352D02*
X183896Y143510D01*
X178054Y149352D02*
Y167800D01*
X235204Y116332D02*
Y136144D01*
Y116332D02*
X236474Y115062D01*
X235204Y136144D02*
X241300Y142240D01*
Y168308D01*
X502164Y83312D02*
X518160D01*
X480060Y96012D02*
X502164D01*
X475996Y91948D02*
X480060Y96012D01*
X453892Y57912D02*
X473202D01*
X475996Y60706D01*
X338074Y38862D02*
X338843Y38093D01*
Y25647D02*
Y38093D01*
Y25647D02*
X341376Y23114D01*
X379034Y58928D02*
X379288Y59182D01*
X362150Y58928D02*
X379034D01*
X359918Y56696D02*
X362150Y58928D01*
X359918Y44450D02*
Y56696D01*
X354330Y38862D02*
X359918Y44450D01*
X338074Y38862D02*
X354330D01*
X160274Y78594D02*
X165154Y73714D01*
X160274Y78594D02*
Y115062D01*
X165154Y73714D02*
X258318D01*
X261874Y70158D01*
Y38862D02*
Y70158D01*
X265630Y73914D01*
X159512Y115062D02*
X160274D01*
X142748Y131826D02*
X159512Y115062D01*
X142748Y131826D02*
Y235148D01*
X177856Y270256D01*
X16764Y12646D02*
X18996Y10414D01*
X202946D01*
X211074Y18542D02*
Y38862D01*
X202946Y10414D02*
X211074Y18542D01*
X16764Y12646D02*
Y145342D01*
X23622Y20774D02*
Y137214D01*
Y20774D02*
X25854Y18542D01*
X150114D02*
X158242Y26670D01*
X25854Y18542D02*
X150114D01*
X25854Y139446D02*
X50292D01*
X23622Y137214D02*
X25854Y139446D01*
X16764Y145342D02*
X18996Y147574D01*
X46990D01*
X50292Y139446D02*
X57350Y146504D01*
X46990Y147574D02*
X50800Y151384D01*
X158242Y26670D02*
Y36830D01*
X160274Y38862D01*
X59236Y146504D02*
X59436Y146304D01*
X57350Y146504D02*
X59236D01*
X59436Y146304D02*
X112522D01*
X115062Y148844D01*
Y167800D01*
X50800Y167546D02*
X51054Y167800D01*
X50800Y151384D02*
Y167546D01*
X51816Y188562D02*
Y244856D01*
X51054Y187800D02*
X51816Y188562D01*
X114836Y188025D02*
Y244856D01*
Y188025D02*
X115062Y187800D01*
X177856Y187998D02*
X178054Y187800D01*
X177856Y187998D02*
Y244856D01*
X240877Y188731D02*
Y244856D01*
Y188731D02*
X241300Y188308D01*
X303897Y189465D02*
Y244856D01*
Y189465D02*
X304292Y189070D01*
X366917Y188957D02*
Y244856D01*
X366522Y188562D02*
X366917Y188957D01*
X429937Y189409D02*
Y244856D01*
Y189409D02*
X430022Y189324D01*
X492958Y188506D02*
X493155Y188308D01*
X492958Y188506D02*
Y244856D01*
X555978Y189098D02*
Y244856D01*
X555188Y188308D02*
X555978Y189098D01*
X617220Y188308D02*
X618998Y190086D01*
Y244856D01*
X555978Y270256D02*
X618998D01*
X492958D02*
X555978D01*
X429937D02*
X492958D01*
X366917D02*
X429937D01*
X303897D02*
X366917D01*
X240877D02*
X303897D01*
X177856D02*
X240877D01*
X114836D02*
X177856D01*
X51816D02*
X114836D01*
D32*
X160274Y38862D02*
D03*
X185674D02*
D03*
X211074D02*
D03*
X236474D02*
D03*
X261874D02*
D03*
X287274D02*
D03*
X312674D02*
D03*
X338074D02*
D03*
X160274Y115062D02*
D03*
X185674D02*
D03*
X211074D02*
D03*
X236474D02*
D03*
X261874D02*
D03*
X287274D02*
D03*
X312674D02*
D03*
D33*
X338074D02*
D03*
D34*
X429006Y96520D02*
D03*
X412496Y85090D02*
D03*
X425958Y123190D02*
D03*
X379984Y85090D02*
D03*
X361188Y66548D02*
D03*
X302260D02*
D03*
X372872Y34544D02*
D03*
X291338Y60452D02*
D03*
X536702Y50546D02*
D03*
X526193Y79661D02*
D03*
X59436Y94234D02*
D03*
X427228Y73152D02*
D03*
X293370Y92202D02*
D03*
X312928Y132334D02*
D03*
X378206Y133096D02*
D03*
Y143002D02*
D03*
X265938Y143764D02*
D03*
X377952Y152400D02*
D03*
X198628Y131318D02*
D03*
M02*
