G04*
G04 #@! TF.GenerationSoftware,Altium Limited,Altium Designer,24.1.2 (44)*
G04*
G04 Layer_Color=0*
%FSLAX44Y44*%
%MOMM*%
G71*
G04*
G04 #@! TF.SameCoordinates,BD343A0D-4BD6-4D64-9A7B-49F0AB29FDDA*
G04*
G04*
G04 #@! TF.FilePolarity,Positive*
G04*
G01*
G75*
%ADD36C,0.1000*%
D36*
X612982Y77470D02*
X622982D01*
X617982Y72470D02*
Y82470D01*
X73994Y76096D02*
X83994D01*
X78994Y71096D02*
Y81096D01*
X613998Y257556D02*
X623998D01*
X618998Y252556D02*
Y262556D01*
X550978Y257556D02*
X560978D01*
X555978Y252556D02*
Y262556D01*
X487957Y257556D02*
X497957D01*
X492958Y252556D02*
Y262556D01*
X424937Y257556D02*
X434937D01*
X429937Y252556D02*
Y262556D01*
X361917Y257556D02*
X371917D01*
X366917Y252556D02*
Y262556D01*
X478028Y71962D02*
Y81962D01*
X473028Y76962D02*
X483028D01*
X298897Y257556D02*
X308897D01*
X303897Y252556D02*
Y262556D01*
X235877Y257556D02*
X245877D01*
X240877Y252556D02*
Y262556D01*
X172857Y257556D02*
X182857D01*
X177856Y252556D02*
Y262556D01*
X109836Y257556D02*
X119836D01*
X114836Y252556D02*
Y262556D01*
X46816Y257556D02*
X56816D01*
X51816Y252556D02*
Y262556D01*
M02*
