G04*
G04 #@! TF.GenerationSoftware,Altium Limited,Altium Designer,24.1.2 (44)*
G04*
G04 Layer_Color=16711935*
%FSLAX44Y44*%
%MOMM*%
G71*
G04*
G04 #@! TF.SameCoordinates,BD343A0D-4BD6-4D64-9A7B-49F0AB29FDDA*
G04*
G04*
G04 #@! TF.FilePolarity,Positive*
G04*
G01*
G75*
%ADD11C,0.2000*%
G36*
X617875Y84239D02*
X612861D01*
X612871Y84229D01*
X612910Y84190D01*
X612959Y84122D01*
X613027Y84034D01*
X613115Y83927D01*
X613203Y83800D01*
X613310Y83654D01*
X613408Y83488D01*
Y83478D01*
X613417Y83468D01*
X613456Y83410D01*
X613505Y83322D01*
X613564Y83215D01*
X613632Y83088D01*
X613690Y82951D01*
X613759Y82805D01*
X613817Y82669D01*
X613047D01*
Y82678D01*
X613037Y82698D01*
X613018Y82737D01*
X612988Y82776D01*
X612959Y82834D01*
X612930Y82903D01*
X612842Y83059D01*
X612735Y83234D01*
X612608Y83429D01*
X612462Y83624D01*
X612305Y83810D01*
X612296Y83820D01*
X612286Y83829D01*
X612228Y83888D01*
X612140Y83975D01*
X612032Y84083D01*
X611896Y84200D01*
X611749Y84317D01*
X611594Y84424D01*
X611437Y84512D01*
Y85029D01*
X617875D01*
Y84239D01*
D02*
G37*
G36*
X616041Y80991D02*
X616119D01*
X616295Y80981D01*
X616499Y80952D01*
X616704Y80923D01*
X616909Y80874D01*
X617085Y80806D01*
X617104Y80796D01*
X617153Y80767D01*
X617231Y80718D01*
X617329Y80659D01*
X617446Y80571D01*
X617553Y80464D01*
X617660Y80328D01*
X617758Y80181D01*
X617767Y80162D01*
X617797Y80103D01*
X617826Y80016D01*
X617865Y79899D01*
X617914Y79752D01*
X617943Y79586D01*
X617972Y79391D01*
X617982Y79187D01*
Y79109D01*
X617972Y79050D01*
X617963Y78982D01*
X617953Y78894D01*
X617924Y78709D01*
X617865Y78504D01*
X617777Y78289D01*
X617729Y78182D01*
X617660Y78084D01*
X617592Y77987D01*
X617504Y77899D01*
X617494D01*
X617485Y77880D01*
X617455Y77860D01*
X617416Y77831D01*
X617358Y77792D01*
X617299Y77762D01*
X617221Y77714D01*
X617143Y77675D01*
X617046Y77636D01*
X616938Y77597D01*
X616821Y77558D01*
X616685Y77528D01*
X616548Y77499D01*
X616392Y77480D01*
X616236Y77470D01*
X616061D01*
X615953Y78231D01*
X615963D01*
X615983D01*
X616022D01*
X616070Y78240D01*
X616129D01*
X616197Y78250D01*
X616353Y78279D01*
X616529Y78309D01*
X616695Y78358D01*
X616841Y78426D01*
X616909Y78465D01*
X616968Y78504D01*
X616978Y78513D01*
X617007Y78552D01*
X617056Y78601D01*
X617094Y78679D01*
X617143Y78777D01*
X617192Y78894D01*
X617221Y79030D01*
X617231Y79187D01*
Y79245D01*
X617221Y79303D01*
X617211Y79372D01*
X617192Y79460D01*
X617173Y79557D01*
X617133Y79645D01*
X617085Y79733D01*
X617075Y79742D01*
X617056Y79772D01*
X617026Y79811D01*
X616978Y79859D01*
X616929Y79918D01*
X616860Y79967D01*
X616782Y80016D01*
X616695Y80055D01*
X616685D01*
X616646Y80074D01*
X616587Y80084D01*
X616499Y80103D01*
X616382Y80123D01*
X616246Y80133D01*
X616080Y80152D01*
X615885D01*
X611467D01*
Y81001D01*
X615836D01*
X615846D01*
X615875D01*
X615914D01*
X615973D01*
X616041Y80991D01*
D02*
G37*
G36*
X92288Y80749D02*
X92415Y80729D01*
X92561Y80700D01*
X92727Y80661D01*
X92893Y80602D01*
X93059Y80524D01*
X93068D01*
X93078Y80514D01*
X93137Y80485D01*
X93215Y80436D01*
X93312Y80368D01*
X93420Y80280D01*
X93537Y80173D01*
X93644Y80046D01*
X93741Y79910D01*
X93751Y79890D01*
X93780Y79841D01*
X93820Y79763D01*
X93858Y79666D01*
X93897Y79539D01*
X93937Y79402D01*
X93966Y79256D01*
X93975Y79090D01*
Y79071D01*
Y79022D01*
X93966Y78944D01*
X93946Y78847D01*
X93917Y78730D01*
X93878Y78603D01*
X93829Y78466D01*
X93751Y78339D01*
X93741Y78320D01*
X93712Y78281D01*
X93654Y78222D01*
X93585Y78144D01*
X93488Y78057D01*
X93381Y77969D01*
X93244Y77871D01*
X93088Y77793D01*
X93098D01*
X93117Y77783D01*
X93146D01*
X93186Y77764D01*
X93283Y77735D01*
X93410Y77676D01*
X93546Y77608D01*
X93693Y77510D01*
X93839Y77393D01*
X93966Y77247D01*
X93975Y77227D01*
X94015Y77169D01*
X94063Y77081D01*
X94132Y76964D01*
X94190Y76818D01*
X94239Y76642D01*
X94278Y76437D01*
X94288Y76213D01*
Y76203D01*
Y76174D01*
Y76135D01*
X94278Y76076D01*
X94268Y75999D01*
X94258Y75920D01*
X94239Y75823D01*
X94210Y75725D01*
X94141Y75501D01*
X94093Y75374D01*
X94024Y75257D01*
X93956Y75140D01*
X93878Y75023D01*
X93780Y74906D01*
X93673Y74789D01*
X93663Y74779D01*
X93644Y74760D01*
X93615Y74740D01*
X93566Y74701D01*
X93507Y74653D01*
X93429Y74604D01*
X93342Y74555D01*
X93254Y74506D01*
X93146Y74448D01*
X93029Y74399D01*
X92903Y74350D01*
X92766Y74301D01*
X92620Y74262D01*
X92464Y74243D01*
X92298Y74223D01*
X92132Y74214D01*
X92054D01*
X91995Y74223D01*
X91917Y74233D01*
X91840Y74243D01*
X91742Y74253D01*
X91644Y74272D01*
X91420Y74331D01*
X91186Y74428D01*
X91069Y74477D01*
X90962Y74545D01*
X90845Y74623D01*
X90737Y74711D01*
X90728Y74721D01*
X90718Y74731D01*
X90689Y74760D01*
X90650Y74799D01*
X90611Y74857D01*
X90562Y74916D01*
X90503Y74984D01*
X90455Y75062D01*
X90337Y75257D01*
X90240Y75482D01*
X90152Y75735D01*
X90123Y75872D01*
X90103Y76018D01*
X90893Y76125D01*
Y76115D01*
X90903Y76096D01*
Y76057D01*
X90923Y76018D01*
X90952Y75901D01*
X91001Y75755D01*
X91059Y75599D01*
X91137Y75433D01*
X91235Y75286D01*
X91342Y75160D01*
X91362Y75150D01*
X91401Y75111D01*
X91469Y75072D01*
X91566Y75013D01*
X91674Y74965D01*
X91810Y74916D01*
X91966Y74877D01*
X92132Y74867D01*
X92191D01*
X92230Y74877D01*
X92327Y74887D01*
X92454Y74916D01*
X92610Y74965D01*
X92766Y75023D01*
X92922Y75121D01*
X93068Y75247D01*
X93088Y75267D01*
X93127Y75316D01*
X93186Y75394D01*
X93264Y75511D01*
X93332Y75647D01*
X93390Y75813D01*
X93429Y75999D01*
X93449Y76203D01*
Y76213D01*
Y76223D01*
Y76252D01*
X93439Y76291D01*
X93429Y76389D01*
X93400Y76515D01*
X93361Y76652D01*
X93293Y76808D01*
X93205Y76954D01*
X93088Y77091D01*
X93068Y77110D01*
X93029Y77149D01*
X92951Y77198D01*
X92844Y77266D01*
X92717Y77335D01*
X92561Y77383D01*
X92395Y77422D01*
X92200Y77442D01*
X92113D01*
X92044Y77432D01*
X91966Y77422D01*
X91869Y77413D01*
X91762Y77393D01*
X91644Y77364D01*
X91732Y78057D01*
X91781D01*
X91820Y78047D01*
X91947D01*
X92035Y78057D01*
X92161Y78076D01*
X92298Y78105D01*
X92444Y78154D01*
X92600Y78212D01*
X92756Y78300D01*
X92776Y78310D01*
X92825Y78349D01*
X92883Y78417D01*
X92961Y78505D01*
X93039Y78612D01*
X93098Y78749D01*
X93146Y78915D01*
X93166Y79110D01*
Y79120D01*
Y79129D01*
Y79178D01*
X93146Y79256D01*
X93127Y79363D01*
X93098Y79471D01*
X93039Y79588D01*
X92971Y79715D01*
X92873Y79822D01*
X92864Y79832D01*
X92825Y79871D01*
X92756Y79919D01*
X92669Y79968D01*
X92561Y80027D01*
X92435Y80066D01*
X92288Y80105D01*
X92122Y80114D01*
X92044D01*
X91957Y80095D01*
X91859Y80076D01*
X91732Y80046D01*
X91605Y79988D01*
X91479Y79919D01*
X91352Y79822D01*
X91342Y79812D01*
X91303Y79773D01*
X91254Y79705D01*
X91196Y79607D01*
X91128Y79490D01*
X91069Y79344D01*
X91010Y79168D01*
X90971Y78964D01*
X90181Y79100D01*
Y79110D01*
X90191Y79139D01*
X90201Y79178D01*
X90211Y79227D01*
X90230Y79295D01*
X90250Y79373D01*
X90318Y79549D01*
X90396Y79744D01*
X90513Y79949D01*
X90650Y80144D01*
X90825Y80319D01*
X90835Y80329D01*
X90845Y80339D01*
X90874Y80358D01*
X90923Y80388D01*
X90971Y80417D01*
X91030Y80456D01*
X91176Y80544D01*
X91362Y80622D01*
X91586Y80690D01*
X91830Y80739D01*
X91966Y80758D01*
X92191D01*
X92288Y80749D01*
D02*
G37*
G36*
X88084Y74321D02*
X87294D01*
Y79334D01*
X87285Y79324D01*
X87246Y79285D01*
X87177Y79237D01*
X87090Y79168D01*
X86982Y79081D01*
X86855Y78993D01*
X86709Y78885D01*
X86543Y78788D01*
X86533D01*
X86524Y78778D01*
X86465Y78739D01*
X86377Y78691D01*
X86270Y78632D01*
X86143Y78564D01*
X86007Y78505D01*
X85861Y78437D01*
X85724Y78378D01*
Y79149D01*
X85734D01*
X85753Y79159D01*
X85792Y79178D01*
X85831Y79207D01*
X85890Y79237D01*
X85958Y79266D01*
X86114Y79354D01*
X86290Y79461D01*
X86485Y79588D01*
X86680Y79734D01*
X86865Y79890D01*
X86875Y79900D01*
X86885Y79910D01*
X86943Y79968D01*
X87031Y80056D01*
X87138Y80163D01*
X87255Y80300D01*
X87372Y80446D01*
X87480Y80602D01*
X87567Y80758D01*
X88084D01*
Y74321D01*
D02*
G37*
G36*
X82047Y80719D02*
X82125D01*
X82320Y80709D01*
X82525Y80690D01*
X82739Y80651D01*
X82944Y80612D01*
X83042Y80583D01*
X83130Y80553D01*
X83139D01*
X83149Y80544D01*
X83208Y80524D01*
X83286Y80475D01*
X83383Y80407D01*
X83500Y80329D01*
X83617Y80222D01*
X83734Y80095D01*
X83841Y79939D01*
X83851Y79919D01*
X83881Y79861D01*
X83929Y79773D01*
X83978Y79656D01*
X84027Y79510D01*
X84076Y79344D01*
X84105Y79168D01*
X84115Y78973D01*
Y78964D01*
Y78944D01*
Y78905D01*
X84105Y78856D01*
Y78798D01*
X84095Y78730D01*
X84056Y78573D01*
X84007Y78388D01*
X83929Y78203D01*
X83812Y78008D01*
X83744Y77910D01*
X83666Y77822D01*
X83646Y77803D01*
X83617Y77783D01*
X83588Y77744D01*
X83539Y77715D01*
X83481Y77666D01*
X83412Y77627D01*
X83334Y77579D01*
X83247Y77530D01*
X83139Y77481D01*
X83032Y77432D01*
X82905Y77383D01*
X82778Y77335D01*
X82632Y77296D01*
X82476Y77266D01*
X82310Y77237D01*
X82330Y77227D01*
X82369Y77208D01*
X82427Y77179D01*
X82495Y77140D01*
X82661Y77032D01*
X82749Y76974D01*
X82817Y76915D01*
X82837Y76896D01*
X82886Y76857D01*
X82954Y76779D01*
X83042Y76681D01*
X83149Y76554D01*
X83266Y76408D01*
X83393Y76242D01*
X83520Y76057D01*
X84632Y74321D01*
X83568D01*
X82720Y75647D01*
Y75657D01*
X82700Y75677D01*
X82681Y75706D01*
X82661Y75745D01*
X82593Y75842D01*
X82505Y75969D01*
X82408Y76115D01*
X82301Y76262D01*
X82203Y76398D01*
X82105Y76525D01*
X82096Y76535D01*
X82066Y76574D01*
X82018Y76632D01*
X81969Y76701D01*
X81823Y76837D01*
X81754Y76906D01*
X81676Y76954D01*
X81666Y76964D01*
X81647Y76974D01*
X81608Y76993D01*
X81559Y77023D01*
X81442Y77081D01*
X81296Y77130D01*
X81286D01*
X81267Y77140D01*
X81228D01*
X81179Y77149D01*
X81110Y77159D01*
X81032D01*
X80935Y77169D01*
X79843D01*
Y74321D01*
X78994D01*
Y80729D01*
X81969D01*
X82047Y80719D01*
D02*
G37*
G36*
X625406Y255098D02*
X625396Y254932D01*
X625386Y254757D01*
X625367Y254562D01*
X625338Y254376D01*
X625308Y254220D01*
Y254211D01*
X625299Y254191D01*
Y254172D01*
X625279Y254133D01*
X625250Y254025D01*
X625201Y253899D01*
X625143Y253752D01*
X625065Y253596D01*
X624967Y253440D01*
X624850Y253284D01*
Y253274D01*
X624831Y253265D01*
X624772Y253196D01*
X624674Y253109D01*
X624548Y253001D01*
X624392Y252874D01*
X624206Y252748D01*
X623992Y252631D01*
X623748Y252523D01*
X623738D01*
X623719Y252514D01*
X623680Y252504D01*
X623631Y252484D01*
X623572Y252465D01*
X623494Y252445D01*
X623406Y252416D01*
X623309Y252396D01*
X623202Y252377D01*
X623085Y252348D01*
X622831Y252309D01*
X622548Y252279D01*
X622236Y252270D01*
X622226D01*
X622207D01*
X622168D01*
X622109D01*
X622051Y252279D01*
X621973D01*
X621797Y252289D01*
X621602Y252309D01*
X621378Y252348D01*
X621153Y252387D01*
X620939Y252445D01*
X620929D01*
X620910Y252455D01*
X620880Y252465D01*
X620841Y252474D01*
X620744Y252514D01*
X620607Y252562D01*
X620461Y252621D01*
X620305Y252699D01*
X620149Y252787D01*
X620002Y252884D01*
X619983Y252894D01*
X619944Y252933D01*
X619876Y252982D01*
X619788Y253060D01*
X619700Y253138D01*
X619603Y253245D01*
X619505Y253352D01*
X619417Y253469D01*
X619408Y253479D01*
X619388Y253528D01*
X619349Y253596D01*
X619300Y253684D01*
X619251Y253791D01*
X619203Y253918D01*
X619154Y254064D01*
X619105Y254230D01*
Y254250D01*
X619086Y254308D01*
X619076Y254396D01*
X619056Y254523D01*
X619037Y254669D01*
X619017Y254845D01*
X619008Y255040D01*
X618998Y255254D01*
Y257556D01*
X625406D01*
Y255098D01*
D02*
G37*
G36*
X623826Y250807D02*
X623836Y250787D01*
X623855Y250748D01*
X623884Y250709D01*
X623914Y250651D01*
X623943Y250582D01*
X624031Y250426D01*
X624138Y250251D01*
X624265Y250056D01*
X624411Y249860D01*
X624567Y249675D01*
X624577Y249665D01*
X624587Y249656D01*
X624645Y249597D01*
X624733Y249509D01*
X624840Y249402D01*
X624977Y249285D01*
X625123Y249168D01*
X625279Y249061D01*
X625435Y248973D01*
Y248456D01*
X618998D01*
Y249246D01*
X624011D01*
X624001Y249256D01*
X623962Y249295D01*
X623914Y249363D01*
X623845Y249451D01*
X623758Y249558D01*
X623670Y249685D01*
X623563Y249831D01*
X623465Y249997D01*
Y250007D01*
X623455Y250017D01*
X623416Y250075D01*
X623367Y250163D01*
X623309Y250270D01*
X623241Y250397D01*
X623182Y250534D01*
X623114Y250680D01*
X623055Y250816D01*
X623826D01*
Y250807D01*
D02*
G37*
G36*
X562386Y255098D02*
X562376Y254932D01*
X562366Y254757D01*
X562347Y254562D01*
X562318Y254376D01*
X562288Y254220D01*
Y254211D01*
X562279Y254191D01*
Y254172D01*
X562259Y254133D01*
X562230Y254025D01*
X562181Y253899D01*
X562122Y253752D01*
X562044Y253596D01*
X561947Y253440D01*
X561830Y253284D01*
Y253274D01*
X561810Y253265D01*
X561752Y253196D01*
X561654Y253108D01*
X561527Y253001D01*
X561371Y252874D01*
X561186Y252748D01*
X560971Y252631D01*
X560728Y252523D01*
X560718D01*
X560698Y252514D01*
X560659Y252504D01*
X560611Y252484D01*
X560552Y252465D01*
X560474Y252445D01*
X560386Y252416D01*
X560289Y252396D01*
X560181Y252377D01*
X560064Y252348D01*
X559811Y252309D01*
X559528Y252279D01*
X559216Y252270D01*
X559206D01*
X559187D01*
X559147D01*
X559089D01*
X559030Y252279D01*
X558952D01*
X558777Y252289D01*
X558582Y252309D01*
X558358Y252348D01*
X558133Y252387D01*
X557919Y252445D01*
X557909D01*
X557889Y252455D01*
X557860Y252465D01*
X557821Y252474D01*
X557724Y252514D01*
X557587Y252562D01*
X557441Y252621D01*
X557285Y252699D01*
X557129Y252787D01*
X556982Y252884D01*
X556963Y252894D01*
X556924Y252933D01*
X556856Y252982D01*
X556768Y253060D01*
X556680Y253138D01*
X556582Y253245D01*
X556485Y253352D01*
X556397Y253469D01*
X556387Y253479D01*
X556368Y253528D01*
X556329Y253596D01*
X556280Y253684D01*
X556231Y253791D01*
X556183Y253918D01*
X556134Y254064D01*
X556085Y254230D01*
Y254250D01*
X556065Y254308D01*
X556056Y254396D01*
X556036Y254523D01*
X556017Y254669D01*
X555997Y254845D01*
X555987Y255040D01*
X555978Y255254D01*
Y257556D01*
X562386D01*
Y255098D01*
D02*
G37*
G36*
X556153Y251519D02*
X556231Y251509D01*
X556319Y251499D01*
X556417Y251470D01*
X556514Y251441D01*
X556524D01*
X556534Y251431D01*
X556592Y251411D01*
X556670Y251372D01*
X556787Y251314D01*
X556914Y251245D01*
X557060Y251148D01*
X557207Y251050D01*
X557363Y250924D01*
X557372D01*
X557382Y250904D01*
X557441Y250855D01*
X557528Y250777D01*
X557645Y250660D01*
X557782Y250514D01*
X557948Y250338D01*
X558133Y250124D01*
X558338Y249890D01*
X558348Y249880D01*
X558377Y249841D01*
X558416Y249792D01*
X558484Y249724D01*
X558553Y249636D01*
X558640Y249539D01*
X558826Y249324D01*
X559050Y249090D01*
X559274Y248856D01*
X559382Y248739D01*
X559489Y248641D01*
X559596Y248554D01*
X559694Y248475D01*
X559703D01*
X559713Y248456D01*
X559743Y248437D01*
X559781Y248417D01*
X559879Y248358D01*
X560006Y248290D01*
X560152Y248222D01*
X560308Y248163D01*
X560484Y248124D01*
X560650Y248105D01*
X560659D01*
X560669D01*
X560728Y248115D01*
X560815Y248124D01*
X560923Y248144D01*
X561049Y248193D01*
X561176Y248251D01*
X561313Y248329D01*
X561440Y248446D01*
X561449Y248466D01*
X561488Y248505D01*
X561537Y248583D01*
X561605Y248680D01*
X561664Y248807D01*
X561713Y248953D01*
X561752Y249129D01*
X561762Y249324D01*
Y249383D01*
X561752Y249422D01*
X561742Y249519D01*
X561722Y249646D01*
X561674Y249792D01*
X561615Y249948D01*
X561527Y250095D01*
X561410Y250231D01*
X561391Y250241D01*
X561352Y250280D01*
X561274Y250338D01*
X561166Y250397D01*
X561030Y250465D01*
X560874Y250514D01*
X560689Y250553D01*
X560474Y250572D01*
X560562Y251382D01*
X560572D01*
X560601D01*
X560650Y251372D01*
X560708Y251362D01*
X560786Y251343D01*
X560874Y251333D01*
X561069Y251275D01*
X561293Y251197D01*
X561518Y251089D01*
X561742Y250943D01*
X561839Y250865D01*
X561937Y250768D01*
X561947Y250758D01*
X561957Y250738D01*
X561986Y250709D01*
X562015Y250670D01*
X562044Y250611D01*
X562093Y250543D01*
X562132Y250465D01*
X562181Y250377D01*
X562220Y250280D01*
X562269Y250173D01*
X562308Y250046D01*
X562337Y249919D01*
X562396Y249626D01*
X562405Y249470D01*
X562415Y249305D01*
Y249217D01*
X562405Y249149D01*
X562396Y249070D01*
X562386Y248983D01*
X562376Y248885D01*
X562347Y248778D01*
X562288Y248544D01*
X562200Y248300D01*
X562142Y248173D01*
X562074Y248056D01*
X561986Y247949D01*
X561898Y247841D01*
X561888Y247832D01*
X561879Y247822D01*
X561849Y247793D01*
X561810Y247754D01*
X561752Y247715D01*
X561693Y247666D01*
X561547Y247568D01*
X561362Y247471D01*
X561147Y247383D01*
X560903Y247315D01*
X560767Y247305D01*
X560630Y247295D01*
X560611D01*
X560562D01*
X560484Y247305D01*
X560386Y247315D01*
X560269Y247334D01*
X560142Y247364D01*
X560006Y247403D01*
X559869Y247461D01*
X559850Y247471D01*
X559801Y247490D01*
X559733Y247529D01*
X559635Y247588D01*
X559518Y247656D01*
X559382Y247744D01*
X559245Y247861D01*
X559089Y247988D01*
X559070Y248007D01*
X559011Y248056D01*
X558923Y248144D01*
X558865Y248202D01*
X558796Y248271D01*
X558718Y248349D01*
X558631Y248446D01*
X558543Y248544D01*
X558436Y248651D01*
X558328Y248768D01*
X558211Y248905D01*
X558094Y249041D01*
X557958Y249197D01*
X557948Y249207D01*
X557928Y249226D01*
X557899Y249265D01*
X557860Y249314D01*
X557762Y249431D01*
X557636Y249578D01*
X557499Y249724D01*
X557363Y249880D01*
X557246Y250007D01*
X557197Y250056D01*
X557148Y250104D01*
X557138Y250114D01*
X557109Y250134D01*
X557070Y250173D01*
X557011Y250221D01*
X556885Y250329D01*
X556729Y250436D01*
Y247285D01*
X555978D01*
Y251528D01*
X555987D01*
X556026D01*
X556085D01*
X556153Y251519D01*
D02*
G37*
G36*
X499473Y255098D02*
X499463Y254932D01*
X499453Y254757D01*
X499434Y254562D01*
X499404Y254376D01*
X499375Y254220D01*
Y254211D01*
X499366Y254191D01*
Y254172D01*
X499346Y254133D01*
X499317Y254025D01*
X499268Y253899D01*
X499209Y253752D01*
X499131Y253596D01*
X499034Y253440D01*
X498917Y253284D01*
Y253274D01*
X498897Y253265D01*
X498839Y253196D01*
X498741Y253109D01*
X498615Y253001D01*
X498458Y252874D01*
X498273Y252748D01*
X498059Y252631D01*
X497815Y252523D01*
X497805D01*
X497785Y252514D01*
X497746Y252504D01*
X497698Y252484D01*
X497639Y252465D01*
X497561Y252445D01*
X497473Y252416D01*
X497376Y252396D01*
X497268Y252377D01*
X497151Y252348D01*
X496898Y252309D01*
X496615Y252279D01*
X496303Y252270D01*
X496293D01*
X496274D01*
X496235D01*
X496176D01*
X496118Y252279D01*
X496040D01*
X495864Y252289D01*
X495669Y252309D01*
X495445Y252348D01*
X495220Y252387D01*
X495006Y252445D01*
X494996D01*
X494976Y252455D01*
X494947Y252465D01*
X494908Y252474D01*
X494811Y252514D01*
X494674Y252562D01*
X494528Y252621D01*
X494372Y252699D01*
X494216Y252787D01*
X494069Y252884D01*
X494050Y252894D01*
X494011Y252933D01*
X493942Y252982D01*
X493855Y253060D01*
X493767Y253138D01*
X493669Y253245D01*
X493572Y253352D01*
X493484Y253469D01*
X493474Y253479D01*
X493455Y253528D01*
X493416Y253596D01*
X493367Y253684D01*
X493318Y253791D01*
X493270Y253918D01*
X493221Y254064D01*
X493172Y254230D01*
Y254250D01*
X493153Y254308D01*
X493143Y254396D01*
X493123Y254523D01*
X493104Y254669D01*
X493084Y254845D01*
X493074Y255040D01*
X493065Y255254D01*
Y257556D01*
X499473D01*
Y255098D01*
D02*
G37*
G36*
X494869Y250621D02*
X494859D01*
X494840Y250611D01*
X494801D01*
X494762Y250592D01*
X494645Y250563D01*
X494498Y250514D01*
X494342Y250455D01*
X494177Y250378D01*
X494030Y250280D01*
X493904Y250173D01*
X493894Y250153D01*
X493855Y250114D01*
X493816Y250046D01*
X493757Y249948D01*
X493708Y249841D01*
X493660Y249704D01*
X493621Y249548D01*
X493611Y249383D01*
Y249324D01*
X493621Y249285D01*
X493630Y249188D01*
X493660Y249061D01*
X493708Y248905D01*
X493767Y248749D01*
X493865Y248592D01*
X493991Y248446D01*
X494011Y248427D01*
X494059Y248388D01*
X494138Y248329D01*
X494255Y248251D01*
X494391Y248183D01*
X494557Y248124D01*
X494742Y248085D01*
X494947Y248066D01*
X494957D01*
X494967D01*
X494996D01*
X495035Y248076D01*
X495132Y248085D01*
X495259Y248115D01*
X495396Y248154D01*
X495552Y248222D01*
X495698Y248310D01*
X495835Y248427D01*
X495854Y248446D01*
X495893Y248485D01*
X495942Y248563D01*
X496010Y248671D01*
X496078Y248797D01*
X496127Y248953D01*
X496166Y249119D01*
X496186Y249314D01*
Y249402D01*
X496176Y249470D01*
X496166Y249548D01*
X496157Y249646D01*
X496137Y249753D01*
X496108Y249870D01*
X496800Y249783D01*
Y249734D01*
X496791Y249695D01*
Y249568D01*
X496800Y249480D01*
X496820Y249353D01*
X496849Y249217D01*
X496898Y249070D01*
X496956Y248914D01*
X497044Y248758D01*
X497054Y248739D01*
X497093Y248690D01*
X497161Y248632D01*
X497249Y248554D01*
X497356Y248475D01*
X497493Y248417D01*
X497659Y248368D01*
X497854Y248349D01*
X497863D01*
X497873D01*
X497922D01*
X498000Y248368D01*
X498107Y248388D01*
X498215Y248417D01*
X498332Y248475D01*
X498458Y248544D01*
X498566Y248641D01*
X498576Y248651D01*
X498615Y248690D01*
X498663Y248758D01*
X498712Y248846D01*
X498770Y248953D01*
X498810Y249080D01*
X498849Y249226D01*
X498858Y249392D01*
Y249470D01*
X498839Y249558D01*
X498819Y249656D01*
X498790Y249783D01*
X498731Y249909D01*
X498663Y250036D01*
X498566Y250163D01*
X498556Y250173D01*
X498517Y250212D01*
X498449Y250260D01*
X498351Y250319D01*
X498234Y250387D01*
X498088Y250446D01*
X497912Y250504D01*
X497707Y250543D01*
X497844Y251333D01*
X497854D01*
X497883Y251324D01*
X497922Y251314D01*
X497971Y251304D01*
X498039Y251285D01*
X498117Y251265D01*
X498293Y251197D01*
X498488Y251119D01*
X498693Y251002D01*
X498888Y250865D01*
X499063Y250690D01*
X499073Y250680D01*
X499083Y250670D01*
X499102Y250641D01*
X499131Y250592D01*
X499161Y250543D01*
X499200Y250485D01*
X499287Y250338D01*
X499366Y250153D01*
X499434Y249929D01*
X499482Y249685D01*
X499502Y249548D01*
Y249324D01*
X499492Y249226D01*
X499473Y249100D01*
X499444Y248953D01*
X499404Y248788D01*
X499346Y248622D01*
X499268Y248456D01*
Y248446D01*
X499258Y248437D01*
X499229Y248378D01*
X499180Y248300D01*
X499112Y248202D01*
X499024Y248095D01*
X498917Y247978D01*
X498790Y247871D01*
X498653Y247773D01*
X498634Y247764D01*
X498585Y247734D01*
X498507Y247695D01*
X498410Y247656D01*
X498283Y247617D01*
X498146Y247578D01*
X498000Y247549D01*
X497834Y247539D01*
X497815D01*
X497766D01*
X497688Y247549D01*
X497590Y247568D01*
X497473Y247598D01*
X497346Y247637D01*
X497210Y247686D01*
X497083Y247764D01*
X497064Y247773D01*
X497025Y247803D01*
X496966Y247861D01*
X496888Y247929D01*
X496800Y248027D01*
X496712Y248134D01*
X496615Y248271D01*
X496537Y248427D01*
Y248417D01*
X496527Y248398D01*
Y248368D01*
X496508Y248329D01*
X496478Y248232D01*
X496420Y248105D01*
X496352Y247968D01*
X496254Y247822D01*
X496137Y247676D01*
X495991Y247549D01*
X495971Y247539D01*
X495913Y247500D01*
X495825Y247451D01*
X495708Y247383D01*
X495562Y247325D01*
X495386Y247276D01*
X495181Y247237D01*
X494957Y247227D01*
X494947D01*
X494918D01*
X494879D01*
X494820Y247237D01*
X494742Y247246D01*
X494664Y247256D01*
X494567Y247276D01*
X494469Y247305D01*
X494245Y247373D01*
X494118Y247422D01*
X494001Y247490D01*
X493884Y247559D01*
X493767Y247637D01*
X493650Y247734D01*
X493533Y247841D01*
X493523Y247851D01*
X493504Y247871D01*
X493484Y247900D01*
X493445Y247949D01*
X493396Y248007D01*
X493348Y248085D01*
X493299Y248173D01*
X493250Y248261D01*
X493191Y248368D01*
X493143Y248485D01*
X493094Y248612D01*
X493045Y248749D01*
X493006Y248895D01*
X492987Y249051D01*
X492967Y249217D01*
X492957Y249383D01*
Y249461D01*
X492967Y249519D01*
X492977Y249597D01*
X492987Y249675D01*
X492996Y249773D01*
X493016Y249870D01*
X493074Y250095D01*
X493172Y250329D01*
X493221Y250446D01*
X493289Y250553D01*
X493367Y250670D01*
X493455Y250777D01*
X493465Y250787D01*
X493474Y250797D01*
X493504Y250826D01*
X493543Y250865D01*
X493601Y250904D01*
X493660Y250953D01*
X493728Y251011D01*
X493806Y251060D01*
X494001Y251177D01*
X494225Y251275D01*
X494479Y251363D01*
X494616Y251392D01*
X494762Y251411D01*
X494869Y250621D01*
D02*
G37*
G36*
X436345Y255098D02*
X436336Y254932D01*
X436326Y254757D01*
X436306Y254562D01*
X436277Y254376D01*
X436248Y254220D01*
Y254211D01*
X436238Y254191D01*
Y254172D01*
X436218Y254133D01*
X436189Y254025D01*
X436141Y253899D01*
X436082Y253752D01*
X436004Y253596D01*
X435906Y253440D01*
X435789Y253284D01*
Y253274D01*
X435770Y253265D01*
X435711Y253196D01*
X435614Y253108D01*
X435487Y253001D01*
X435331Y252874D01*
X435146Y252748D01*
X434931Y252631D01*
X434687Y252523D01*
X434677D01*
X434658Y252514D01*
X434619Y252504D01*
X434570Y252484D01*
X434512Y252465D01*
X434434Y252445D01*
X434346Y252416D01*
X434248Y252396D01*
X434141Y252377D01*
X434024Y252348D01*
X433770Y252309D01*
X433488Y252279D01*
X433175Y252270D01*
X433166D01*
X433146D01*
X433107D01*
X433049D01*
X432990Y252279D01*
X432912D01*
X432737Y252289D01*
X432541Y252309D01*
X432317Y252348D01*
X432093Y252387D01*
X431878Y252445D01*
X431868D01*
X431849Y252455D01*
X431820Y252465D01*
X431781Y252474D01*
X431683Y252514D01*
X431547Y252562D01*
X431400Y252621D01*
X431244Y252699D01*
X431088Y252787D01*
X430942Y252884D01*
X430922Y252894D01*
X430883Y252933D01*
X430815Y252982D01*
X430727Y253060D01*
X430639Y253138D01*
X430542Y253245D01*
X430444Y253352D01*
X430357Y253469D01*
X430347Y253479D01*
X430327Y253528D01*
X430288Y253596D01*
X430240Y253684D01*
X430191Y253791D01*
X430142Y253918D01*
X430093Y254064D01*
X430045Y254230D01*
Y254250D01*
X430025Y254308D01*
X430015Y254396D01*
X429996Y254523D01*
X429976Y254669D01*
X429957Y254845D01*
X429947Y255040D01*
X429937Y255254D01*
Y257556D01*
X436345D01*
Y255098D01*
D02*
G37*
G36*
X436336Y248758D02*
Y248115D01*
X432190D01*
Y247246D01*
X431469D01*
Y248115D01*
X429937D01*
Y248905D01*
X431469D01*
Y251684D01*
X432190D01*
X436336Y248758D01*
D02*
G37*
G36*
X373432Y255098D02*
X373423Y254932D01*
X373413Y254757D01*
X373393Y254562D01*
X373364Y254376D01*
X373335Y254220D01*
Y254211D01*
X373325Y254191D01*
Y254172D01*
X373306Y254133D01*
X373276Y254025D01*
X373228Y253899D01*
X373169Y253752D01*
X373091Y253596D01*
X372993Y253440D01*
X372876Y253284D01*
Y253274D01*
X372857Y253265D01*
X372798Y253196D01*
X372701Y253109D01*
X372574Y253001D01*
X372418Y252874D01*
X372233Y252748D01*
X372018Y252631D01*
X371774Y252523D01*
X371764D01*
X371745Y252514D01*
X371706Y252504D01*
X371657Y252484D01*
X371599Y252465D01*
X371521Y252445D01*
X371433Y252416D01*
X371335Y252396D01*
X371228Y252377D01*
X371111Y252348D01*
X370857Y252309D01*
X370574Y252279D01*
X370262Y252270D01*
X370253D01*
X370233D01*
X370194D01*
X370136D01*
X370077Y252279D01*
X369999D01*
X369823Y252289D01*
X369628Y252309D01*
X369404Y252348D01*
X369180Y252387D01*
X368965Y252445D01*
X368955D01*
X368936Y252455D01*
X368907Y252465D01*
X368868Y252474D01*
X368770Y252514D01*
X368634Y252562D01*
X368487Y252621D01*
X368331Y252699D01*
X368175Y252787D01*
X368029Y252884D01*
X368009Y252894D01*
X367970Y252933D01*
X367902Y252982D01*
X367814Y253060D01*
X367727Y253138D01*
X367629Y253245D01*
X367531Y253352D01*
X367444Y253469D01*
X367434Y253479D01*
X367414Y253528D01*
X367375Y253596D01*
X367327Y253684D01*
X367278Y253791D01*
X367229Y253918D01*
X367180Y254064D01*
X367132Y254230D01*
Y254250D01*
X367112Y254308D01*
X367102Y254396D01*
X367083Y254523D01*
X367063Y254669D01*
X367044Y254845D01*
X367034Y255040D01*
X367024Y255254D01*
Y257556D01*
X373432D01*
Y255098D01*
D02*
G37*
G36*
X368760Y250592D02*
X368751D01*
X368731D01*
X368702Y250582D01*
X368663Y250572D01*
X368555Y250543D01*
X368419Y250504D01*
X368273Y250455D01*
X368126Y250378D01*
X367980Y250290D01*
X367853Y250173D01*
X367844Y250153D01*
X367804Y250114D01*
X367766Y250046D01*
X367707Y249948D01*
X367658Y249831D01*
X367609Y249695D01*
X367570Y249539D01*
X367561Y249373D01*
Y249314D01*
X367570Y249275D01*
X367580Y249168D01*
X367609Y249032D01*
X367668Y248885D01*
X367736Y248719D01*
X367844Y248563D01*
X367902Y248485D01*
X367980Y248407D01*
X367990D01*
X368000Y248388D01*
X368058Y248349D01*
X368156Y248280D01*
X368282Y248212D01*
X368448Y248144D01*
X368643Y248076D01*
X368868Y248037D01*
X369121Y248017D01*
X369131D01*
X369151D01*
X369189D01*
X369229Y248027D01*
X369287D01*
X369355Y248037D01*
X369511Y248066D01*
X369677Y248105D01*
X369853Y248173D01*
X370028Y248271D01*
X370184Y248398D01*
X370204Y248417D01*
X370243Y248466D01*
X370311Y248544D01*
X370379Y248661D01*
X370448Y248797D01*
X370516Y248973D01*
X370555Y249168D01*
X370574Y249383D01*
Y249451D01*
X370565Y249519D01*
X370555Y249617D01*
X370526Y249724D01*
X370496Y249841D01*
X370448Y249958D01*
X370389Y250075D01*
X370379Y250085D01*
X370360Y250124D01*
X370321Y250182D01*
X370272Y250251D01*
X370204Y250319D01*
X370126Y250397D01*
X370038Y250475D01*
X369941Y250543D01*
X370048Y251285D01*
X373335Y250660D01*
Y247481D01*
X372584D01*
Y250036D01*
X370857Y250387D01*
X370867Y250378D01*
X370877Y250358D01*
X370896Y250329D01*
X370926Y250290D01*
X370955Y250231D01*
X370984Y250173D01*
X371062Y250017D01*
X371140Y249841D01*
X371199Y249636D01*
X371247Y249412D01*
X371267Y249178D01*
Y249100D01*
X371257Y249041D01*
X371247Y248963D01*
X371238Y248885D01*
X371218Y248788D01*
X371199Y248690D01*
X371121Y248466D01*
X371082Y248349D01*
X371023Y248232D01*
X370955Y248105D01*
X370877Y247988D01*
X370789Y247871D01*
X370682Y247764D01*
X370672Y247754D01*
X370653Y247734D01*
X370623Y247705D01*
X370574Y247676D01*
X370516Y247627D01*
X370448Y247578D01*
X370370Y247529D01*
X370282Y247471D01*
X370175Y247412D01*
X370067Y247364D01*
X369941Y247315D01*
X369814Y247266D01*
X369668Y247237D01*
X369521Y247208D01*
X369355Y247188D01*
X369189Y247178D01*
X369180D01*
X369151D01*
X369102D01*
X369043Y247188D01*
X368965Y247198D01*
X368877Y247208D01*
X368780Y247217D01*
X368673Y247237D01*
X368438Y247305D01*
X368195Y247393D01*
X368058Y247451D01*
X367931Y247520D01*
X367804Y247598D01*
X367687Y247686D01*
X367678Y247695D01*
X367658Y247715D01*
X367619Y247754D01*
X367570Y247803D01*
X367512Y247861D01*
X367444Y247939D01*
X367375Y248027D01*
X367307Y248134D01*
X367229Y248241D01*
X367161Y248368D01*
X367093Y248514D01*
X367034Y248661D01*
X366985Y248827D01*
X366946Y248992D01*
X366927Y249178D01*
X366917Y249373D01*
Y249461D01*
X366927Y249519D01*
X366936Y249587D01*
X366946Y249675D01*
X366956Y249773D01*
X366976Y249880D01*
X367034Y250104D01*
X367122Y250338D01*
X367180Y250455D01*
X367249Y250572D01*
X367317Y250690D01*
X367405Y250797D01*
X367414Y250807D01*
X367424Y250816D01*
X367453Y250846D01*
X367492Y250885D01*
X367541Y250924D01*
X367600Y250972D01*
X367668Y251021D01*
X367746Y251080D01*
X367931Y251187D01*
X368156Y251294D01*
X368409Y251372D01*
X368555Y251402D01*
X368702Y251421D01*
X368760Y250592D01*
D02*
G37*
G36*
X483061Y79771D02*
Y79761D01*
Y79732D01*
Y79683D01*
Y79615D01*
X483051Y79527D01*
Y79439D01*
X483041Y79332D01*
X483032Y79215D01*
X483002Y78971D01*
X482963Y78717D01*
X482914Y78464D01*
X482836Y78240D01*
Y78230D01*
X482827Y78210D01*
X482817Y78181D01*
X482797Y78142D01*
X482739Y78045D01*
X482661Y77908D01*
X482553Y77762D01*
X482417Y77606D01*
X482241Y77459D01*
X482046Y77313D01*
X482037D01*
X482017Y77294D01*
X481988Y77284D01*
X481939Y77255D01*
X481890Y77235D01*
X481822Y77206D01*
X481734Y77167D01*
X481646Y77137D01*
X481549Y77108D01*
X481432Y77069D01*
X481315Y77040D01*
X481178Y77020D01*
X480886Y76981D01*
X480554Y76962D01*
X480466D01*
X480408Y76972D01*
X480330D01*
X480242Y76981D01*
X480144Y76991D01*
X480037Y77001D01*
X479803Y77040D01*
X479559Y77089D01*
X479306Y77167D01*
X479081Y77264D01*
X479072D01*
X479052Y77284D01*
X479033Y77294D01*
X478993Y77323D01*
X478886Y77391D01*
X478769Y77498D01*
X478633Y77625D01*
X478506Y77771D01*
X478379Y77957D01*
X478272Y78162D01*
Y78171D01*
X478262Y78191D01*
X478252Y78220D01*
X478233Y78269D01*
X478213Y78327D01*
X478194Y78405D01*
X478174Y78493D01*
X478155Y78591D01*
X478125Y78698D01*
X478106Y78815D01*
X478086Y78952D01*
X478067Y79088D01*
X478047Y79244D01*
X478038Y79410D01*
X478028Y79586D01*
Y79771D01*
Y83477D01*
X478876D01*
Y79771D01*
Y79761D01*
Y79732D01*
Y79693D01*
Y79634D01*
Y79566D01*
X478886Y79488D01*
X478896Y79303D01*
X478915Y79108D01*
X478935Y78903D01*
X478974Y78708D01*
X478993Y78620D01*
X479023Y78542D01*
X479033Y78522D01*
X479052Y78474D01*
X479091Y78405D01*
X479150Y78318D01*
X479218Y78220D01*
X479315Y78113D01*
X479423Y78015D01*
X479559Y77927D01*
X479579Y77918D01*
X479627Y77898D01*
X479706Y77859D01*
X479813Y77830D01*
X479949Y77791D01*
X480105Y77752D01*
X480281Y77732D01*
X480476Y77723D01*
X480564D01*
X480632Y77732D01*
X480710D01*
X480798Y77742D01*
X480993Y77771D01*
X481217Y77830D01*
X481432Y77898D01*
X481637Y78005D01*
X481734Y78064D01*
X481812Y78142D01*
Y78152D01*
X481832Y78162D01*
X481851Y78191D01*
X481871Y78230D01*
X481910Y78279D01*
X481939Y78337D01*
X481978Y78415D01*
X482017Y78503D01*
X482046Y78610D01*
X482085Y78727D01*
X482124Y78854D01*
X482154Y79010D01*
X482173Y79176D01*
X482193Y79352D01*
X482212Y79556D01*
Y79771D01*
Y83477D01*
X483061D01*
Y79771D01*
D02*
G37*
G36*
X486426Y83497D02*
X486504Y83487D01*
X486591Y83477D01*
X486689Y83468D01*
X486796Y83438D01*
X487030Y83380D01*
X487274Y83292D01*
X487401Y83233D01*
X487518Y83165D01*
X487625Y83077D01*
X487733Y82990D01*
X487743Y82980D01*
X487752Y82970D01*
X487781Y82941D01*
X487821Y82902D01*
X487859Y82843D01*
X487908Y82785D01*
X488006Y82639D01*
X488103Y82453D01*
X488191Y82239D01*
X488259Y81995D01*
X488269Y81858D01*
X488279Y81722D01*
Y81702D01*
Y81653D01*
X488269Y81575D01*
X488259Y81478D01*
X488240Y81361D01*
X488211Y81234D01*
X488172Y81097D01*
X488113Y80961D01*
X488103Y80941D01*
X488084Y80893D01*
X488045Y80824D01*
X487986Y80727D01*
X487918Y80610D01*
X487830Y80473D01*
X487713Y80337D01*
X487586Y80181D01*
X487567Y80161D01*
X487518Y80103D01*
X487430Y80015D01*
X487372Y79956D01*
X487304Y79888D01*
X487225Y79810D01*
X487128Y79722D01*
X487030Y79634D01*
X486923Y79527D01*
X486806Y79420D01*
X486670Y79303D01*
X486533Y79186D01*
X486377Y79049D01*
X486367Y79039D01*
X486348Y79020D01*
X486309Y78991D01*
X486260Y78952D01*
X486143Y78854D01*
X485997Y78727D01*
X485850Y78591D01*
X485694Y78454D01*
X485567Y78337D01*
X485519Y78288D01*
X485470Y78240D01*
X485460Y78230D01*
X485441Y78201D01*
X485402Y78162D01*
X485353Y78103D01*
X485246Y77976D01*
X485138Y77820D01*
X488289D01*
Y77069D01*
X484046D01*
Y77079D01*
Y77118D01*
Y77176D01*
X484056Y77245D01*
X484065Y77323D01*
X484075Y77410D01*
X484104Y77508D01*
X484134Y77606D01*
Y77615D01*
X484143Y77625D01*
X484163Y77684D01*
X484202Y77762D01*
X484260Y77879D01*
X484329Y78005D01*
X484426Y78152D01*
X484524Y78298D01*
X484651Y78454D01*
Y78464D01*
X484670Y78474D01*
X484719Y78532D01*
X484797Y78620D01*
X484914Y78737D01*
X485060Y78874D01*
X485236Y79039D01*
X485450Y79225D01*
X485684Y79429D01*
X485694Y79439D01*
X485733Y79468D01*
X485782Y79508D01*
X485850Y79576D01*
X485938Y79644D01*
X486036Y79732D01*
X486250Y79917D01*
X486484Y80141D01*
X486718Y80366D01*
X486835Y80473D01*
X486933Y80581D01*
X487021Y80688D01*
X487099Y80785D01*
Y80795D01*
X487118Y80805D01*
X487138Y80834D01*
X487157Y80873D01*
X487216Y80971D01*
X487284Y81097D01*
X487352Y81244D01*
X487411Y81400D01*
X487450Y81575D01*
X487469Y81741D01*
Y81751D01*
Y81761D01*
X487460Y81819D01*
X487450Y81907D01*
X487430Y82014D01*
X487382Y82141D01*
X487323Y82268D01*
X487245Y82404D01*
X487128Y82531D01*
X487108Y82541D01*
X487070Y82580D01*
X486991Y82629D01*
X486894Y82697D01*
X486767Y82755D01*
X486621Y82804D01*
X486445Y82843D01*
X486250Y82853D01*
X486192D01*
X486153Y82843D01*
X486055Y82833D01*
X485928Y82814D01*
X485782Y82765D01*
X485626Y82707D01*
X485480Y82619D01*
X485343Y82502D01*
X485333Y82482D01*
X485294Y82443D01*
X485236Y82365D01*
X485177Y82258D01*
X485109Y82121D01*
X485060Y81966D01*
X485021Y81780D01*
X485002Y81566D01*
X484192Y81653D01*
Y81663D01*
Y81692D01*
X484202Y81741D01*
X484212Y81800D01*
X484231Y81878D01*
X484241Y81966D01*
X484299Y82161D01*
X484378Y82385D01*
X484485Y82609D01*
X484631Y82833D01*
X484709Y82931D01*
X484807Y83029D01*
X484816Y83038D01*
X484836Y83048D01*
X484865Y83077D01*
X484904Y83107D01*
X484963Y83136D01*
X485031Y83185D01*
X485109Y83224D01*
X485197Y83272D01*
X485294Y83312D01*
X485402Y83360D01*
X485528Y83399D01*
X485655Y83428D01*
X485948Y83487D01*
X486104Y83497D01*
X486270Y83506D01*
X486357D01*
X486426Y83497D01*
D02*
G37*
G36*
X310412Y255098D02*
X310402Y254932D01*
X310393Y254757D01*
X310373Y254562D01*
X310344Y254376D01*
X310315Y254220D01*
Y254211D01*
X310305Y254191D01*
Y254172D01*
X310285Y254133D01*
X310256Y254025D01*
X310207Y253899D01*
X310149Y253752D01*
X310071Y253596D01*
X309973Y253440D01*
X309856Y253284D01*
Y253274D01*
X309837Y253265D01*
X309778Y253196D01*
X309681Y253108D01*
X309554Y253001D01*
X309398Y252874D01*
X309212Y252748D01*
X308998Y252631D01*
X308754Y252523D01*
X308744D01*
X308725Y252514D01*
X308686Y252504D01*
X308637Y252484D01*
X308578Y252465D01*
X308500Y252445D01*
X308413Y252416D01*
X308315Y252396D01*
X308208Y252377D01*
X308091Y252348D01*
X307837Y252309D01*
X307554Y252279D01*
X307242Y252270D01*
X307232D01*
X307213D01*
X307174D01*
X307115D01*
X307057Y252279D01*
X306979D01*
X306803Y252289D01*
X306608Y252309D01*
X306384Y252348D01*
X306160Y252387D01*
X305945Y252445D01*
X305935D01*
X305916Y252455D01*
X305886Y252465D01*
X305847Y252474D01*
X305750Y252514D01*
X305613Y252562D01*
X305467Y252621D01*
X305311Y252699D01*
X305155Y252787D01*
X305009Y252884D01*
X304989Y252894D01*
X304950Y252933D01*
X304882Y252982D01*
X304794Y253060D01*
X304706Y253138D01*
X304609Y253245D01*
X304511Y253352D01*
X304423Y253469D01*
X304414Y253479D01*
X304394Y253528D01*
X304355Y253596D01*
X304306Y253684D01*
X304258Y253791D01*
X304209Y253918D01*
X304160Y254064D01*
X304111Y254230D01*
Y254250D01*
X304092Y254308D01*
X304082Y254396D01*
X304063Y254523D01*
X304043Y254669D01*
X304023Y254845D01*
X304014Y255040D01*
X304004Y255254D01*
Y257556D01*
X310412D01*
Y255098D01*
D02*
G37*
G36*
X307301Y251450D02*
X307457Y251441D01*
X307632Y251421D01*
X307827Y251402D01*
X308032Y251372D01*
X308257Y251343D01*
X308481Y251294D01*
X308705Y251236D01*
X308920Y251168D01*
X309144Y251089D01*
X309339Y251002D01*
X309534Y250894D01*
X309700Y250777D01*
X309710Y250768D01*
X309729Y250748D01*
X309768Y250719D01*
X309817Y250670D01*
X309876Y250602D01*
X309934Y250534D01*
X310002Y250446D01*
X310071Y250348D01*
X310139Y250241D01*
X310207Y250114D01*
X310266Y249987D01*
X310324Y249841D01*
X310373Y249685D01*
X310412Y249519D01*
X310432Y249343D01*
X310441Y249158D01*
Y249090D01*
X310432Y249031D01*
Y248973D01*
X310422Y248895D01*
X310393Y248719D01*
X310334Y248524D01*
X310256Y248319D01*
X310159Y248115D01*
X310090Y248017D01*
X310012Y247920D01*
Y247910D01*
X309993Y247900D01*
X309934Y247841D01*
X309837Y247764D01*
X309710Y247666D01*
X309544Y247559D01*
X309349Y247471D01*
X309115Y247383D01*
X308852Y247334D01*
X308793Y248115D01*
X308803D01*
X308813D01*
X308871Y248134D01*
X308949Y248163D01*
X309047Y248193D01*
X309271Y248290D01*
X309368Y248349D01*
X309456Y248417D01*
X309476Y248427D01*
X309515Y248475D01*
X309564Y248544D01*
X309632Y248631D01*
X309690Y248749D01*
X309749Y248885D01*
X309788Y249041D01*
X309798Y249207D01*
Y249275D01*
X309788Y249343D01*
X309768Y249431D01*
X309749Y249539D01*
X309710Y249656D01*
X309651Y249763D01*
X309583Y249880D01*
X309573Y249900D01*
X309534Y249939D01*
X309466Y250007D01*
X309378Y250085D01*
X309271Y250182D01*
X309134Y250280D01*
X308969Y250377D01*
X308783Y250465D01*
X308774D01*
X308764Y250475D01*
X308725Y250485D01*
X308686Y250494D01*
X308637Y250514D01*
X308569Y250534D01*
X308491Y250553D01*
X308403Y250572D01*
X308305Y250592D01*
X308198Y250611D01*
X308071Y250631D01*
X307945Y250651D01*
X307798Y250660D01*
X307642Y250670D01*
X307476Y250680D01*
X307311D01*
X307320Y250670D01*
X307369Y250631D01*
X307447Y250572D01*
X307545Y250485D01*
X307652Y250387D01*
X307759Y250270D01*
X307857Y250134D01*
X307945Y249987D01*
X307954Y249968D01*
X307974Y249919D01*
X308013Y249831D01*
X308052Y249724D01*
X308091Y249597D01*
X308130Y249451D01*
X308149Y249295D01*
X308159Y249129D01*
Y249051D01*
X308149Y248992D01*
X308140Y248924D01*
X308130Y248846D01*
X308091Y248661D01*
X308013Y248456D01*
X307974Y248339D01*
X307915Y248232D01*
X307847Y248115D01*
X307769Y247997D01*
X307681Y247890D01*
X307574Y247783D01*
X307564Y247773D01*
X307545Y247764D01*
X307515Y247734D01*
X307467Y247695D01*
X307408Y247656D01*
X307340Y247607D01*
X307262Y247559D01*
X307174Y247500D01*
X307067Y247451D01*
X306959Y247403D01*
X306833Y247354D01*
X306706Y247315D01*
X306560Y247276D01*
X306413Y247246D01*
X306247Y247237D01*
X306082Y247227D01*
X306072D01*
X306052D01*
X306023D01*
X305984D01*
X305926Y247237D01*
X305867D01*
X305711Y247256D01*
X305545Y247295D01*
X305350Y247334D01*
X305155Y247403D01*
X304960Y247490D01*
X304950D01*
X304940Y247500D01*
X304911Y247520D01*
X304872Y247539D01*
X304784Y247598D01*
X304667Y247676D01*
X304541Y247783D01*
X304414Y247910D01*
X304287Y248046D01*
X304170Y248212D01*
X304160Y248232D01*
X304131Y248290D01*
X304082Y248388D01*
X304033Y248505D01*
X303985Y248661D01*
X303936Y248836D01*
X303906Y249031D01*
X303897Y249236D01*
Y249275D01*
X303906Y249334D01*
Y249402D01*
X303916Y249480D01*
X303936Y249578D01*
X303955Y249685D01*
X303985Y249802D01*
X304023Y249929D01*
X304072Y250065D01*
X304131Y250192D01*
X304199Y250329D01*
X304287Y250465D01*
X304384Y250602D01*
X304492Y250729D01*
X304618Y250846D01*
X304628Y250855D01*
X304657Y250875D01*
X304697Y250904D01*
X304755Y250943D01*
X304833Y250992D01*
X304931Y251041D01*
X305048Y251099D01*
X305184Y251148D01*
X305340Y251206D01*
X305516Y251265D01*
X305711Y251314D01*
X305926Y251362D01*
X306160Y251402D01*
X306423Y251431D01*
X306696Y251450D01*
X306998Y251460D01*
X307008D01*
X307018D01*
X307047D01*
X307076D01*
X307174D01*
X307301Y251450D01*
D02*
G37*
G36*
X247285Y255098D02*
X247275Y254932D01*
X247265Y254757D01*
X247246Y254562D01*
X247216Y254376D01*
X247187Y254220D01*
Y254211D01*
X247177Y254191D01*
Y254172D01*
X247158Y254133D01*
X247129Y254025D01*
X247080Y253899D01*
X247021Y253752D01*
X246943Y253596D01*
X246846Y253440D01*
X246729Y253284D01*
Y253274D01*
X246709Y253265D01*
X246651Y253196D01*
X246553Y253109D01*
X246426Y253001D01*
X246270Y252874D01*
X246085Y252748D01*
X245870Y252631D01*
X245627Y252523D01*
X245617D01*
X245597Y252514D01*
X245558Y252504D01*
X245509Y252484D01*
X245451Y252465D01*
X245373Y252445D01*
X245285Y252416D01*
X245188Y252396D01*
X245080Y252377D01*
X244963Y252348D01*
X244710Y252309D01*
X244427Y252279D01*
X244115Y252270D01*
X244105D01*
X244085D01*
X244046D01*
X243988D01*
X243929Y252279D01*
X243851D01*
X243676Y252289D01*
X243481Y252309D01*
X243256Y252348D01*
X243032Y252387D01*
X242817Y252445D01*
X242808D01*
X242788Y252455D01*
X242759Y252465D01*
X242720Y252474D01*
X242622Y252514D01*
X242486Y252562D01*
X242339Y252621D01*
X242183Y252699D01*
X242027Y252787D01*
X241881Y252884D01*
X241862Y252894D01*
X241823Y252933D01*
X241754Y252982D01*
X241667Y253060D01*
X241579Y253138D01*
X241481Y253245D01*
X241384Y253352D01*
X241296Y253469D01*
X241286Y253479D01*
X241267Y253528D01*
X241228Y253596D01*
X241179Y253684D01*
X241130Y253791D01*
X241081Y253918D01*
X241033Y254064D01*
X240984Y254230D01*
Y254250D01*
X240964Y254308D01*
X240954Y254396D01*
X240935Y254523D01*
X240916Y254669D01*
X240896Y254845D01*
X240886Y255040D01*
X240877Y255254D01*
Y257556D01*
X247285D01*
Y255098D01*
D02*
G37*
G36*
X247207Y247227D02*
X246592D01*
X246582Y247237D01*
X246563Y247256D01*
X246524Y247286D01*
X246475Y247334D01*
X246407Y247383D01*
X246329Y247451D01*
X246231Y247529D01*
X246134Y247607D01*
X246017Y247695D01*
X245880Y247793D01*
X245744Y247900D01*
X245588Y247998D01*
X245422Y248105D01*
X245246Y248222D01*
X245051Y248329D01*
X244856Y248446D01*
X244846Y248456D01*
X244807Y248475D01*
X244749Y248505D01*
X244671Y248544D01*
X244573Y248592D01*
X244456Y248651D01*
X244319Y248719D01*
X244173Y248788D01*
X244017Y248856D01*
X243842Y248934D01*
X243656Y249012D01*
X243461Y249090D01*
X243061Y249236D01*
X242632Y249373D01*
X242622D01*
X242593Y249383D01*
X242554Y249392D01*
X242496Y249412D01*
X242418Y249431D01*
X242330Y249451D01*
X242222Y249470D01*
X242115Y249500D01*
X241988Y249519D01*
X241852Y249548D01*
X241559Y249597D01*
X241228Y249636D01*
X240877Y249665D01*
Y250475D01*
X240886D01*
X240916D01*
X240954D01*
X241013Y250465D01*
X241081D01*
X241169Y250455D01*
X241276Y250446D01*
X241384Y250436D01*
X241511Y250417D01*
X241657Y250397D01*
X241803Y250378D01*
X241959Y250348D01*
X242135Y250319D01*
X242310Y250280D01*
X242700Y250182D01*
X242710D01*
X242749Y250173D01*
X242808Y250153D01*
X242886Y250134D01*
X242983Y250104D01*
X243091Y250065D01*
X243217Y250026D01*
X243364Y249978D01*
X243510Y249919D01*
X243676Y249860D01*
X244027Y249724D01*
X244398Y249558D01*
X244768Y249373D01*
X244778Y249363D01*
X244817Y249344D01*
X244866Y249314D01*
X244934Y249275D01*
X245022Y249226D01*
X245119Y249168D01*
X245227Y249100D01*
X245353Y249032D01*
X245617Y248856D01*
X245900Y248661D01*
X246182Y248456D01*
X246456Y248232D01*
Y251372D01*
X247207D01*
Y247227D01*
D02*
G37*
G36*
X184372Y255098D02*
X184362Y254932D01*
X184352Y254757D01*
X184333Y254562D01*
X184303Y254376D01*
X184274Y254220D01*
Y254211D01*
X184264Y254191D01*
Y254172D01*
X184245Y254133D01*
X184216Y254025D01*
X184167Y253899D01*
X184108Y253752D01*
X184030Y253596D01*
X183933Y253440D01*
X183816Y253284D01*
Y253274D01*
X183796Y253265D01*
X183738Y253196D01*
X183640Y253108D01*
X183513Y253001D01*
X183357Y252874D01*
X183172Y252748D01*
X182957Y252631D01*
X182714Y252523D01*
X182704D01*
X182684Y252514D01*
X182645Y252504D01*
X182597Y252484D01*
X182538Y252465D01*
X182460Y252445D01*
X182372Y252416D01*
X182275Y252396D01*
X182167Y252377D01*
X182050Y252348D01*
X181797Y252309D01*
X181514Y252279D01*
X181202Y252270D01*
X181192D01*
X181173D01*
X181133D01*
X181075D01*
X181017Y252279D01*
X180938D01*
X180763Y252289D01*
X180568Y252309D01*
X180343Y252348D01*
X180119Y252387D01*
X179905Y252445D01*
X179895D01*
X179875Y252455D01*
X179846Y252465D01*
X179807Y252474D01*
X179709Y252514D01*
X179573Y252562D01*
X179427Y252621D01*
X179271Y252699D01*
X179114Y252787D01*
X178968Y252884D01*
X178949Y252894D01*
X178910Y252933D01*
X178841Y252982D01*
X178754Y253060D01*
X178666Y253138D01*
X178568Y253245D01*
X178471Y253352D01*
X178383Y253469D01*
X178373Y253479D01*
X178354Y253528D01*
X178315Y253596D01*
X178266Y253684D01*
X178217Y253791D01*
X178168Y253918D01*
X178120Y254064D01*
X178071Y254230D01*
Y254250D01*
X178051Y254308D01*
X178042Y254396D01*
X178022Y254523D01*
X178003Y254669D01*
X177983Y254845D01*
X177973Y255040D01*
X177964Y255254D01*
Y257556D01*
X184372D01*
Y255098D01*
D02*
G37*
G36*
X179924Y251421D02*
X179973D01*
X180041Y251411D01*
X180178Y251392D01*
X180343Y251353D01*
X180519Y251294D01*
X180695Y251226D01*
X180860Y251119D01*
X180870D01*
X180880Y251099D01*
X180929Y251060D01*
X181007Y250982D01*
X181094Y250885D01*
X181192Y250758D01*
X181290Y250602D01*
X181377Y250416D01*
X181446Y250212D01*
Y250221D01*
X181455Y250231D01*
X181475Y250290D01*
X181524Y250377D01*
X181572Y250485D01*
X181651Y250611D01*
X181738Y250729D01*
X181836Y250846D01*
X181953Y250943D01*
X181972Y250953D01*
X182011Y250982D01*
X182080Y251021D01*
X182177Y251060D01*
X182294Y251099D01*
X182431Y251138D01*
X182577Y251168D01*
X182743Y251177D01*
X182753D01*
X182772D01*
X182811D01*
X182860Y251168D01*
X182918Y251158D01*
X182987Y251148D01*
X183153Y251119D01*
X183338Y251060D01*
X183533Y250963D01*
X183640Y250914D01*
X183738Y250846D01*
X183835Y250768D01*
X183923Y250680D01*
X183933Y250670D01*
X183943Y250660D01*
X183972Y250631D01*
X184001Y250592D01*
X184030Y250534D01*
X184079Y250475D01*
X184118Y250407D01*
X184167Y250319D01*
X184255Y250134D01*
X184323Y249900D01*
X184382Y249636D01*
X184391Y249500D01*
X184401Y249343D01*
Y249265D01*
X184391Y249207D01*
Y249129D01*
X184372Y249051D01*
X184342Y248856D01*
X184284Y248641D01*
X184196Y248417D01*
X184138Y248300D01*
X184079Y248193D01*
X184001Y248085D01*
X183913Y247988D01*
X183904Y247978D01*
X183894Y247968D01*
X183864Y247939D01*
X183825Y247910D01*
X183777Y247871D01*
X183718Y247822D01*
X183582Y247724D01*
X183406Y247637D01*
X183201Y247549D01*
X182977Y247490D01*
X182850Y247481D01*
X182723Y247471D01*
X182704D01*
X182645D01*
X182567Y247481D01*
X182460Y247500D01*
X182333Y247529D01*
X182206Y247568D01*
X182070Y247627D01*
X181943Y247705D01*
X181933Y247715D01*
X181894Y247744D01*
X181836Y247803D01*
X181758Y247880D01*
X181680Y247978D01*
X181602Y248105D01*
X181514Y248251D01*
X181446Y248417D01*
Y248407D01*
X181436Y248388D01*
X181426Y248358D01*
X181407Y248319D01*
X181358Y248212D01*
X181299Y248085D01*
X181212Y247939D01*
X181104Y247793D01*
X180968Y247646D01*
X180821Y247520D01*
X180802Y247510D01*
X180743Y247471D01*
X180656Y247422D01*
X180529Y247364D01*
X180382Y247305D01*
X180207Y247256D01*
X180012Y247217D01*
X179797Y247208D01*
X179788D01*
X179758D01*
X179719D01*
X179661Y247217D01*
X179592Y247227D01*
X179505Y247237D01*
X179310Y247276D01*
X179095Y247354D01*
X178978Y247393D01*
X178861Y247451D01*
X178744Y247520D01*
X178627Y247598D01*
X178520Y247685D01*
X178412Y247793D01*
X178403Y247803D01*
X178393Y247822D01*
X178363Y247851D01*
X178325Y247900D01*
X178286Y247959D01*
X178237Y248027D01*
X178188Y248105D01*
X178139Y248202D01*
X178081Y248310D01*
X178032Y248427D01*
X177983Y248554D01*
X177944Y248690D01*
X177905Y248827D01*
X177876Y248983D01*
X177866Y249149D01*
X177856Y249324D01*
Y249412D01*
X177866Y249480D01*
X177876Y249558D01*
X177886Y249656D01*
X177905Y249753D01*
X177925Y249870D01*
X177993Y250114D01*
X178042Y250241D01*
X178090Y250368D01*
X178159Y250494D01*
X178227Y250621D01*
X178315Y250738D01*
X178412Y250855D01*
X178422Y250865D01*
X178442Y250885D01*
X178471Y250904D01*
X178510Y250943D01*
X178568Y250992D01*
X178637Y251041D01*
X178715Y251089D01*
X178802Y251138D01*
X178900Y251197D01*
X179007Y251245D01*
X179241Y251343D01*
X179378Y251382D01*
X179514Y251402D01*
X179661Y251421D01*
X179817Y251431D01*
X179827D01*
X179846D01*
X179875D01*
X179924Y251421D01*
D02*
G37*
G36*
X121351Y255098D02*
X121342Y254932D01*
X121332Y254757D01*
X121313Y254562D01*
X121283Y254376D01*
X121254Y254220D01*
Y254211D01*
X121244Y254191D01*
Y254172D01*
X121225Y254133D01*
X121195Y254025D01*
X121147Y253899D01*
X121088Y253752D01*
X121010Y253596D01*
X120913Y253440D01*
X120795Y253284D01*
Y253274D01*
X120776Y253265D01*
X120717Y253196D01*
X120620Y253109D01*
X120493Y253001D01*
X120337Y252874D01*
X120152Y252748D01*
X119937Y252631D01*
X119693Y252523D01*
X119684D01*
X119664Y252514D01*
X119625Y252504D01*
X119576Y252484D01*
X119518Y252465D01*
X119440Y252445D01*
X119352Y252416D01*
X119254Y252396D01*
X119147Y252377D01*
X119030Y252348D01*
X118777Y252309D01*
X118494Y252279D01*
X118182Y252270D01*
X118172D01*
X118152D01*
X118113D01*
X118055D01*
X117996Y252279D01*
X117918D01*
X117743Y252289D01*
X117548Y252309D01*
X117323Y252348D01*
X117099Y252387D01*
X116884Y252445D01*
X116875D01*
X116855Y252455D01*
X116826Y252465D01*
X116787Y252474D01*
X116689Y252514D01*
X116553Y252562D01*
X116406Y252621D01*
X116250Y252699D01*
X116094Y252787D01*
X115948Y252884D01*
X115928Y252894D01*
X115890Y252933D01*
X115821Y252982D01*
X115733Y253060D01*
X115646Y253138D01*
X115548Y253245D01*
X115450Y253352D01*
X115363Y253469D01*
X115353Y253479D01*
X115333Y253528D01*
X115295Y253596D01*
X115246Y253684D01*
X115197Y253791D01*
X115148Y253918D01*
X115099Y254064D01*
X115051Y254230D01*
Y254250D01*
X115031Y254308D01*
X115021Y254396D01*
X115002Y254523D01*
X114982Y254669D01*
X114963Y254845D01*
X114953Y255040D01*
X114943Y255254D01*
Y257556D01*
X121351D01*
Y255098D01*
D02*
G37*
G36*
X119381Y251411D02*
X119459Y251402D01*
X119557Y251392D01*
X119664Y251372D01*
X119781Y251353D01*
X120025Y251285D01*
X120162Y251236D01*
X120288Y251177D01*
X120425Y251119D01*
X120552Y251041D01*
X120669Y250953D01*
X120786Y250855D01*
X120795Y250846D01*
X120815Y250826D01*
X120844Y250797D01*
X120883Y250748D01*
X120922Y250699D01*
X120971Y250631D01*
X121030Y250553D01*
X121088Y250455D01*
X121137Y250358D01*
X121195Y250251D01*
X121293Y250007D01*
X121322Y249870D01*
X121351Y249724D01*
X121371Y249568D01*
X121381Y249412D01*
Y249353D01*
X121371Y249305D01*
Y249256D01*
X121361Y249188D01*
X121342Y249032D01*
X121293Y248856D01*
X121234Y248671D01*
X121156Y248466D01*
X121039Y248271D01*
Y248261D01*
X121020Y248251D01*
X121000Y248222D01*
X120981Y248183D01*
X120903Y248095D01*
X120795Y247978D01*
X120649Y247851D01*
X120493Y247715D01*
X120298Y247588D01*
X120074Y247481D01*
X120064D01*
X120044Y247471D01*
X120006Y247451D01*
X119957Y247442D01*
X119898Y247412D01*
X119820Y247393D01*
X119723Y247373D01*
X119615Y247344D01*
X119498Y247315D01*
X119362Y247295D01*
X119215Y247266D01*
X119059Y247246D01*
X118884Y247237D01*
X118699Y247217D01*
X118494Y247208D01*
X118279D01*
X118269D01*
X118221D01*
X118162D01*
X118074D01*
X117977Y247217D01*
X117850D01*
X117723Y247227D01*
X117577Y247237D01*
X117265Y247276D01*
X116933Y247325D01*
X116611Y247393D01*
X116465Y247432D01*
X116319Y247481D01*
X116309D01*
X116289Y247490D01*
X116250Y247510D01*
X116202Y247529D01*
X116133Y247559D01*
X116065Y247588D01*
X115909Y247676D01*
X115724Y247793D01*
X115538Y247929D01*
X115363Y248085D01*
X115207Y248271D01*
Y248280D01*
X115187Y248290D01*
X115177Y248319D01*
X115148Y248368D01*
X115119Y248417D01*
X115090Y248475D01*
X115021Y248622D01*
X114953Y248807D01*
X114895Y249012D01*
X114856Y249256D01*
X114836Y249509D01*
Y249578D01*
X114846Y249636D01*
Y249695D01*
X114856Y249773D01*
X114885Y249948D01*
X114934Y250143D01*
X115012Y250348D01*
X115109Y250543D01*
X115246Y250738D01*
X115255Y250748D01*
X115265Y250758D01*
X115324Y250816D01*
X115421Y250894D01*
X115548Y250992D01*
X115714Y251089D01*
X115919Y251177D01*
X116153Y251255D01*
X116426Y251304D01*
X116484Y250553D01*
X116475D01*
X116465D01*
X116436Y250543D01*
X116397Y250534D01*
X116299Y250514D01*
X116192Y250475D01*
X116065Y250426D01*
X115938Y250368D01*
X115811Y250290D01*
X115714Y250192D01*
X115704Y250182D01*
X115675Y250143D01*
X115636Y250085D01*
X115597Y249997D01*
X115558Y249900D01*
X115519Y249783D01*
X115490Y249646D01*
X115480Y249490D01*
Y249431D01*
X115490Y249363D01*
X115499Y249275D01*
X115519Y249178D01*
X115548Y249070D01*
X115587Y248963D01*
X115646Y248856D01*
X115655Y248846D01*
X115675Y248807D01*
X115714Y248758D01*
X115763Y248700D01*
X115821Y248622D01*
X115899Y248554D01*
X115987Y248475D01*
X116084Y248407D01*
X116094Y248398D01*
X116133Y248378D01*
X116202Y248349D01*
X116289Y248300D01*
X116397Y248261D01*
X116523Y248212D01*
X116670Y248163D01*
X116836Y248115D01*
X116845D01*
X116855Y248105D01*
X116884D01*
X116914Y248095D01*
X117011Y248076D01*
X117138Y248056D01*
X117284Y248037D01*
X117440Y248017D01*
X117616Y247998D01*
X117801D01*
X117811D01*
X117840D01*
X117889D01*
X117957D01*
X117938Y248007D01*
X117899Y248046D01*
X117821Y248095D01*
X117743Y248173D01*
X117645Y248261D01*
X117538Y248378D01*
X117440Y248505D01*
X117343Y248651D01*
X117333Y248671D01*
X117304Y248719D01*
X117275Y248807D01*
X117235Y248914D01*
X117187Y249041D01*
X117157Y249188D01*
X117128Y249353D01*
X117118Y249529D01*
Y249607D01*
X117128Y249665D01*
X117138Y249734D01*
X117148Y249812D01*
X117187Y249997D01*
X117255Y250212D01*
X117304Y250319D01*
X117362Y250436D01*
X117430Y250543D01*
X117509Y250660D01*
X117596Y250768D01*
X117694Y250875D01*
X117704Y250885D01*
X117723Y250894D01*
X117752Y250924D01*
X117801Y250963D01*
X117860Y251002D01*
X117928Y251050D01*
X118006Y251099D01*
X118104Y251148D01*
X118201Y251197D01*
X118318Y251245D01*
X118445Y251294D01*
X118581Y251333D01*
X118728Y251372D01*
X118874Y251402D01*
X119040Y251411D01*
X119215Y251421D01*
X119225D01*
X119254D01*
X119313D01*
X119381Y251411D01*
D02*
G37*
G36*
X58331Y255098D02*
X58321Y254932D01*
X58312Y254757D01*
X58292Y254562D01*
X58263Y254376D01*
X58234Y254220D01*
Y254211D01*
X58224Y254191D01*
Y254172D01*
X58204Y254133D01*
X58175Y254025D01*
X58127Y253899D01*
X58068Y253752D01*
X57990Y253596D01*
X57892Y253440D01*
X57775Y253284D01*
Y253274D01*
X57756Y253265D01*
X57697Y253196D01*
X57600Y253108D01*
X57473Y253001D01*
X57317Y252874D01*
X57132Y252748D01*
X56917Y252631D01*
X56673Y252523D01*
X56663D01*
X56644Y252514D01*
X56605Y252504D01*
X56556Y252484D01*
X56498Y252465D01*
X56420Y252445D01*
X56332Y252416D01*
X56234Y252396D01*
X56127Y252377D01*
X56010Y252348D01*
X55756Y252309D01*
X55473Y252279D01*
X55161Y252270D01*
X55152D01*
X55132D01*
X55093D01*
X55035D01*
X54976Y252279D01*
X54898D01*
X54722Y252289D01*
X54527Y252309D01*
X54303Y252348D01*
X54079Y252387D01*
X53864Y252445D01*
X53854D01*
X53835Y252455D01*
X53806Y252465D01*
X53767Y252474D01*
X53669Y252514D01*
X53533Y252562D01*
X53386Y252621D01*
X53230Y252699D01*
X53074Y252787D01*
X52928Y252884D01*
X52908Y252894D01*
X52869Y252933D01*
X52801Y252982D01*
X52713Y253060D01*
X52625Y253138D01*
X52528Y253245D01*
X52430Y253352D01*
X52343Y253469D01*
X52333Y253479D01*
X52313Y253528D01*
X52274Y253596D01*
X52225Y253684D01*
X52177Y253791D01*
X52128Y253918D01*
X52079Y254064D01*
X52031Y254230D01*
Y254250D01*
X52011Y254308D01*
X52001Y254396D01*
X51982Y254523D01*
X51962Y254669D01*
X51943Y254845D01*
X51933Y255040D01*
X51923Y255254D01*
Y257556D01*
X58331D01*
Y255098D01*
D02*
G37*
G36*
X56751Y250807D02*
X56761Y250787D01*
X56781Y250748D01*
X56810Y250709D01*
X56839Y250651D01*
X56868Y250582D01*
X56956Y250426D01*
X57063Y250251D01*
X57190Y250056D01*
X57336Y249860D01*
X57492Y249675D01*
X57502Y249665D01*
X57512Y249656D01*
X57571Y249597D01*
X57658Y249509D01*
X57766Y249402D01*
X57902Y249285D01*
X58048Y249168D01*
X58204Y249061D01*
X58361Y248973D01*
Y248456D01*
X51923D01*
Y249246D01*
X56936D01*
X56927Y249256D01*
X56888Y249295D01*
X56839Y249363D01*
X56771Y249451D01*
X56683Y249558D01*
X56595Y249685D01*
X56488Y249831D01*
X56390Y249997D01*
Y250007D01*
X56381Y250016D01*
X56342Y250075D01*
X56293Y250163D01*
X56234Y250270D01*
X56166Y250397D01*
X56108Y250534D01*
X56039Y250680D01*
X55981Y250816D01*
X56751D01*
Y250807D01*
D02*
G37*
G36*
X55366Y246437D02*
X55473D01*
X55600Y246427D01*
X55737Y246418D01*
X56029Y246388D01*
X56332Y246349D01*
X56634Y246300D01*
X56771Y246261D01*
X56907Y246222D01*
X56917D01*
X56936Y246213D01*
X56975Y246193D01*
X57024Y246174D01*
X57083Y246154D01*
X57151Y246125D01*
X57307Y246047D01*
X57483Y245949D01*
X57658Y245832D01*
X57824Y245696D01*
X57980Y245530D01*
Y245520D01*
X58000Y245510D01*
X58019Y245481D01*
X58039Y245442D01*
X58097Y245345D01*
X58175Y245208D01*
X58243Y245042D01*
X58302Y244837D01*
X58341Y244613D01*
X58361Y244359D01*
Y244272D01*
X58351Y244174D01*
X58331Y244057D01*
X58312Y243920D01*
X58273Y243764D01*
X58214Y243608D01*
X58146Y243462D01*
X58136Y243443D01*
X58107Y243394D01*
X58058Y243326D01*
X58000Y243228D01*
X57912Y243130D01*
X57805Y243023D01*
X57688Y242916D01*
X57551Y242818D01*
X57531Y242809D01*
X57483Y242779D01*
X57395Y242731D01*
X57288Y242672D01*
X57151Y242614D01*
X56985Y242545D01*
X56800Y242477D01*
X56595Y242418D01*
X56585D01*
X56566Y242409D01*
X56537D01*
X56488Y242399D01*
X56439Y242379D01*
X56371Y242370D01*
X56283Y242360D01*
X56195Y242341D01*
X56088Y242331D01*
X55981Y242321D01*
X55854Y242301D01*
X55717Y242292D01*
X55571Y242282D01*
X55425D01*
X55083Y242272D01*
X55074D01*
X55035D01*
X54976D01*
X54898D01*
X54801Y242282D01*
X54693D01*
X54566Y242292D01*
X54430Y242301D01*
X54137Y242331D01*
X53835Y242370D01*
X53533Y242428D01*
X53396Y242467D01*
X53259Y242506D01*
X53250D01*
X53230Y242516D01*
X53191Y242526D01*
X53142Y242545D01*
X53084Y242575D01*
X53025Y242604D01*
X52869Y242682D01*
X52694Y242779D01*
X52518Y242896D01*
X52343Y243033D01*
X52186Y243199D01*
Y243209D01*
X52167Y243218D01*
X52157Y243248D01*
X52128Y243277D01*
X52070Y243384D01*
X52001Y243511D01*
X51933Y243687D01*
X51874Y243881D01*
X51835Y244106D01*
X51816Y244359D01*
Y244447D01*
X51826Y244515D01*
X51835Y244594D01*
X51855Y244681D01*
X51874Y244779D01*
X51894Y244886D01*
X51972Y245120D01*
X52031Y245247D01*
X52089Y245364D01*
X52167Y245491D01*
X52255Y245608D01*
X52352Y245715D01*
X52469Y245823D01*
X52479Y245832D01*
X52508Y245852D01*
X52557Y245881D01*
X52625Y245920D01*
X52713Y245969D01*
X52821Y246018D01*
X52947Y246076D01*
X53103Y246135D01*
X53269Y246193D01*
X53464Y246252D01*
X53679Y246300D01*
X53913Y246349D01*
X54176Y246388D01*
X54449Y246418D01*
X54762Y246437D01*
X55083Y246447D01*
X55093D01*
X55132D01*
X55191D01*
X55269D01*
X55366Y246437D01*
D02*
G37*
%LPC*%
G36*
X81862Y80017D02*
X79843D01*
Y77900D01*
X81754D01*
X81862Y77910D01*
X81988Y77920D01*
X82135Y77930D01*
X82291Y77949D01*
X82437Y77979D01*
X82564Y78018D01*
X82583Y78027D01*
X82622Y78037D01*
X82681Y78066D01*
X82749Y78105D01*
X82827Y78164D01*
X82915Y78232D01*
X82993Y78310D01*
X83061Y78398D01*
X83071Y78408D01*
X83090Y78447D01*
X83120Y78495D01*
X83149Y78573D01*
X83178Y78651D01*
X83208Y78749D01*
X83227Y78856D01*
X83237Y78973D01*
Y78983D01*
Y78993D01*
Y79051D01*
X83217Y79129D01*
X83198Y79237D01*
X83159Y79354D01*
X83100Y79481D01*
X83013Y79607D01*
X82905Y79724D01*
X82886Y79734D01*
X82847Y79773D01*
X82759Y79822D01*
X82652Y79871D01*
X82505Y79929D01*
X82330Y79968D01*
X82115Y80007D01*
X81862Y80017D01*
D02*
G37*
G36*
X624655Y256707D02*
X619749D01*
Y255245D01*
X619759Y255137D01*
X619768Y254991D01*
X619778Y254835D01*
X619798Y254669D01*
X619827Y254513D01*
X619866Y254367D01*
X619876Y254347D01*
X619885Y254308D01*
X619915Y254240D01*
X619954Y254162D01*
X620002Y254064D01*
X620051Y253967D01*
X620120Y253879D01*
X620197Y253791D01*
X620207Y253782D01*
X620256Y253742D01*
X620324Y253684D01*
X620412Y253616D01*
X620529Y253547D01*
X620666Y253469D01*
X620831Y253391D01*
X621007Y253323D01*
X621017D01*
X621027Y253313D01*
X621056Y253304D01*
X621095Y253294D01*
X621144Y253284D01*
X621202Y253265D01*
X621348Y253235D01*
X621534Y253206D01*
X621748Y253177D01*
X621982Y253157D01*
X622246Y253148D01*
X622256D01*
X622295D01*
X622343D01*
X622412D01*
X622499Y253157D01*
X622597Y253167D01*
X622704Y253177D01*
X622812Y253186D01*
X623065Y253225D01*
X623319Y253284D01*
X623563Y253372D01*
X623680Y253421D01*
X623787Y253479D01*
X623797D01*
X623806Y253499D01*
X623836Y253508D01*
X623875Y253538D01*
X623972Y253606D01*
X624079Y253703D01*
X624206Y253820D01*
X624323Y253957D01*
X624431Y254113D01*
X624518Y254279D01*
X624528Y254298D01*
X624538Y254347D01*
X624557Y254425D01*
X624587Y254542D01*
X624616Y254698D01*
X624635Y254884D01*
X624645Y255108D01*
X624655Y255371D01*
Y256707D01*
D02*
G37*
G36*
X561635Y256707D02*
X556729D01*
Y255245D01*
X556738Y255137D01*
X556748Y254991D01*
X556758Y254835D01*
X556777Y254669D01*
X556807Y254513D01*
X556846Y254367D01*
X556856Y254347D01*
X556865Y254308D01*
X556894Y254240D01*
X556934Y254162D01*
X556982Y254064D01*
X557031Y253967D01*
X557099Y253879D01*
X557177Y253791D01*
X557187Y253781D01*
X557236Y253742D01*
X557304Y253684D01*
X557392Y253616D01*
X557509Y253547D01*
X557645Y253469D01*
X557811Y253391D01*
X557987Y253323D01*
X557997D01*
X558006Y253313D01*
X558036Y253304D01*
X558075Y253294D01*
X558123Y253284D01*
X558182Y253265D01*
X558328Y253235D01*
X558514Y253206D01*
X558728Y253177D01*
X558962Y253157D01*
X559226Y253147D01*
X559235D01*
X559274D01*
X559323D01*
X559391D01*
X559479Y253157D01*
X559577Y253167D01*
X559684Y253177D01*
X559791Y253186D01*
X560045Y253225D01*
X560299Y253284D01*
X560542Y253372D01*
X560659Y253421D01*
X560767Y253479D01*
X560776D01*
X560786Y253499D01*
X560815Y253508D01*
X560854Y253538D01*
X560952Y253606D01*
X561059Y253703D01*
X561186Y253820D01*
X561303Y253957D01*
X561410Y254113D01*
X561498Y254279D01*
X561508Y254298D01*
X561518Y254347D01*
X561537Y254425D01*
X561566Y254542D01*
X561596Y254698D01*
X561615Y254884D01*
X561625Y255108D01*
X561635Y255371D01*
Y256707D01*
D02*
G37*
G36*
X498722Y256707D02*
X493816D01*
Y255245D01*
X493825Y255137D01*
X493835Y254991D01*
X493845Y254835D01*
X493865Y254669D01*
X493894Y254513D01*
X493933Y254367D01*
X493942Y254347D01*
X493952Y254308D01*
X493982Y254240D01*
X494021Y254162D01*
X494069Y254064D01*
X494118Y253967D01*
X494186Y253879D01*
X494264Y253791D01*
X494274Y253782D01*
X494323Y253742D01*
X494391Y253684D01*
X494479Y253616D01*
X494596Y253547D01*
X494733Y253469D01*
X494898Y253391D01*
X495074Y253323D01*
X495084D01*
X495093Y253313D01*
X495123Y253304D01*
X495162Y253294D01*
X495210Y253284D01*
X495269Y253265D01*
X495415Y253235D01*
X495601Y253206D01*
X495815Y253177D01*
X496049Y253157D01*
X496313Y253148D01*
X496322D01*
X496361D01*
X496410D01*
X496478D01*
X496566Y253157D01*
X496664Y253167D01*
X496771Y253177D01*
X496878Y253186D01*
X497132Y253225D01*
X497385Y253284D01*
X497629Y253372D01*
X497746Y253421D01*
X497854Y253479D01*
X497863D01*
X497873Y253499D01*
X497902Y253508D01*
X497942Y253538D01*
X498039Y253606D01*
X498146Y253703D01*
X498273Y253820D01*
X498390Y253957D01*
X498497Y254113D01*
X498585Y254279D01*
X498595Y254298D01*
X498605Y254347D01*
X498624Y254425D01*
X498653Y254542D01*
X498683Y254698D01*
X498702Y254884D01*
X498712Y255108D01*
X498722Y255371D01*
Y256707D01*
D02*
G37*
G36*
X435594Y256707D02*
X430688D01*
Y255245D01*
X430698Y255137D01*
X430708Y254991D01*
X430718Y254835D01*
X430737Y254669D01*
X430766Y254513D01*
X430805Y254367D01*
X430815Y254347D01*
X430825Y254308D01*
X430854Y254240D01*
X430893Y254162D01*
X430942Y254064D01*
X430991Y253967D01*
X431059Y253879D01*
X431137Y253791D01*
X431147Y253781D01*
X431195Y253742D01*
X431264Y253684D01*
X431352Y253616D01*
X431469Y253547D01*
X431605Y253469D01*
X431771Y253391D01*
X431946Y253323D01*
X431956D01*
X431966Y253313D01*
X431995Y253304D01*
X432034Y253294D01*
X432083Y253284D01*
X432141Y253265D01*
X432288Y253235D01*
X432473Y253206D01*
X432688Y253177D01*
X432922Y253157D01*
X433185Y253147D01*
X433195D01*
X433234D01*
X433283D01*
X433351D01*
X433439Y253157D01*
X433536Y253167D01*
X433644Y253177D01*
X433751Y253186D01*
X434004Y253225D01*
X434258Y253284D01*
X434502Y253372D01*
X434619Y253421D01*
X434726Y253479D01*
X434736D01*
X434746Y253499D01*
X434775Y253508D01*
X434814Y253538D01*
X434911Y253606D01*
X435019Y253703D01*
X435146Y253820D01*
X435263Y253957D01*
X435370Y254113D01*
X435458Y254279D01*
X435467Y254298D01*
X435477Y254347D01*
X435497Y254425D01*
X435526Y254542D01*
X435555Y254698D01*
X435575Y254884D01*
X435584Y255108D01*
X435594Y255371D01*
Y256707D01*
D02*
G37*
G36*
X432190Y250914D02*
Y248905D01*
X435058D01*
X432190Y250914D01*
D02*
G37*
G36*
X372681Y256707D02*
X367775D01*
Y255245D01*
X367785Y255137D01*
X367795Y254991D01*
X367804Y254835D01*
X367824Y254669D01*
X367853Y254513D01*
X367892Y254367D01*
X367902Y254347D01*
X367912Y254308D01*
X367941Y254240D01*
X367980Y254162D01*
X368029Y254064D01*
X368078Y253967D01*
X368146Y253879D01*
X368224Y253791D01*
X368234Y253782D01*
X368282Y253742D01*
X368351Y253684D01*
X368438Y253616D01*
X368555Y253547D01*
X368692Y253469D01*
X368858Y253391D01*
X369034Y253323D01*
X369043D01*
X369053Y253313D01*
X369082Y253304D01*
X369121Y253294D01*
X369170Y253284D01*
X369229Y253265D01*
X369375Y253235D01*
X369560Y253206D01*
X369775Y253177D01*
X370009Y253157D01*
X370272Y253148D01*
X370282D01*
X370321D01*
X370370D01*
X370438D01*
X370526Y253157D01*
X370623Y253167D01*
X370731Y253177D01*
X370838Y253186D01*
X371091Y253225D01*
X371345Y253284D01*
X371589Y253372D01*
X371706Y253421D01*
X371813Y253479D01*
X371823D01*
X371833Y253499D01*
X371862Y253508D01*
X371901Y253538D01*
X371999Y253606D01*
X372106Y253703D01*
X372233Y253820D01*
X372350Y253957D01*
X372457Y254113D01*
X372545Y254279D01*
X372555Y254298D01*
X372564Y254347D01*
X372584Y254425D01*
X372613Y254542D01*
X372642Y254698D01*
X372662Y254884D01*
X372672Y255108D01*
X372681Y255371D01*
Y256707D01*
D02*
G37*
G36*
X309661Y256707D02*
X304755D01*
Y255245D01*
X304765Y255137D01*
X304775Y254991D01*
X304784Y254835D01*
X304804Y254669D01*
X304833Y254513D01*
X304872Y254367D01*
X304882Y254347D01*
X304892Y254308D01*
X304921Y254240D01*
X304960Y254162D01*
X305009Y254064D01*
X305057Y253967D01*
X305126Y253879D01*
X305204Y253791D01*
X305214Y253781D01*
X305262Y253742D01*
X305331Y253684D01*
X305418Y253616D01*
X305535Y253547D01*
X305672Y253469D01*
X305838Y253391D01*
X306013Y253323D01*
X306023D01*
X306033Y253313D01*
X306062Y253304D01*
X306101Y253294D01*
X306150Y253284D01*
X306208Y253265D01*
X306355Y253235D01*
X306540Y253206D01*
X306755Y253177D01*
X306989Y253157D01*
X307252Y253147D01*
X307262D01*
X307301D01*
X307349D01*
X307418D01*
X307506Y253157D01*
X307603Y253167D01*
X307710Y253177D01*
X307818Y253186D01*
X308071Y253225D01*
X308325Y253284D01*
X308569Y253372D01*
X308686Y253421D01*
X308793Y253479D01*
X308803D01*
X308813Y253499D01*
X308842Y253508D01*
X308881Y253538D01*
X308978Y253606D01*
X309086Y253703D01*
X309212Y253820D01*
X309329Y253957D01*
X309437Y254113D01*
X309525Y254279D01*
X309534Y254298D01*
X309544Y254347D01*
X309564Y254425D01*
X309593Y254542D01*
X309622Y254698D01*
X309642Y254884D01*
X309651Y255108D01*
X309661Y255371D01*
Y256707D01*
D02*
G37*
G36*
X306072Y250553D02*
X306052D01*
X306003D01*
X305926Y250543D01*
X305828Y250534D01*
X305701Y250514D01*
X305574Y250485D01*
X305438Y250446D01*
X305292Y250387D01*
X305272Y250377D01*
X305233Y250358D01*
X305165Y250319D01*
X305087Y250260D01*
X304989Y250192D01*
X304901Y250114D01*
X304804Y250016D01*
X304726Y249909D01*
X304716Y249900D01*
X304697Y249851D01*
X304667Y249792D01*
X304638Y249714D01*
X304599Y249617D01*
X304570Y249500D01*
X304550Y249383D01*
X304541Y249256D01*
Y249207D01*
X304550Y249168D01*
X304560Y249080D01*
X304589Y248953D01*
X304638Y248827D01*
X304706Y248680D01*
X304804Y248534D01*
X304940Y248397D01*
X304960Y248378D01*
X305018Y248339D01*
X305106Y248280D01*
X305223Y248212D01*
X305379Y248154D01*
X305574Y248095D01*
X305789Y248056D01*
X306033Y248037D01*
X306042D01*
X306062D01*
X306101D01*
X306140Y248046D01*
X306199D01*
X306267Y248056D01*
X306413Y248076D01*
X306579Y248124D01*
X306755Y248183D01*
X306920Y248271D01*
X307076Y248388D01*
X307096Y248407D01*
X307135Y248446D01*
X307203Y248524D01*
X307271Y248631D01*
X307340Y248758D01*
X307408Y248914D01*
X307447Y249090D01*
X307467Y249285D01*
Y249334D01*
X307457Y249373D01*
X307447Y249470D01*
X307418Y249597D01*
X307369Y249734D01*
X307301Y249890D01*
X307203Y250036D01*
X307076Y250182D01*
X307057Y250202D01*
X307008Y250241D01*
X306920Y250299D01*
X306813Y250368D01*
X306667Y250436D01*
X306491Y250494D01*
X306296Y250534D01*
X306072Y250553D01*
D02*
G37*
G36*
X246534Y256707D02*
X241628D01*
Y255245D01*
X241637Y255137D01*
X241647Y254991D01*
X241657Y254835D01*
X241676Y254669D01*
X241706Y254513D01*
X241745Y254367D01*
X241754Y254347D01*
X241764Y254308D01*
X241793Y254240D01*
X241832Y254162D01*
X241881Y254064D01*
X241930Y253967D01*
X241998Y253879D01*
X242076Y253791D01*
X242086Y253782D01*
X242135Y253742D01*
X242203Y253684D01*
X242291Y253616D01*
X242408Y253547D01*
X242544Y253469D01*
X242710Y253391D01*
X242886Y253323D01*
X242896D01*
X242905Y253313D01*
X242934Y253304D01*
X242973Y253294D01*
X243022Y253284D01*
X243081Y253265D01*
X243227Y253235D01*
X243412Y253206D01*
X243627Y253177D01*
X243861Y253157D01*
X244125Y253148D01*
X244134D01*
X244173D01*
X244222D01*
X244290D01*
X244378Y253157D01*
X244476Y253167D01*
X244583Y253177D01*
X244690Y253186D01*
X244944Y253225D01*
X245197Y253284D01*
X245441Y253372D01*
X245558Y253421D01*
X245665Y253479D01*
X245675D01*
X245685Y253499D01*
X245714Y253508D01*
X245753Y253538D01*
X245851Y253606D01*
X245958Y253703D01*
X246085Y253820D01*
X246202Y253957D01*
X246309Y254113D01*
X246397Y254279D01*
X246407Y254298D01*
X246417Y254347D01*
X246436Y254425D01*
X246465Y254542D01*
X246495Y254698D01*
X246514Y254884D01*
X246524Y255108D01*
X246534Y255371D01*
Y256707D01*
D02*
G37*
G36*
X183621Y256707D02*
X178715D01*
Y255245D01*
X178724Y255137D01*
X178734Y254991D01*
X178744Y254835D01*
X178763Y254669D01*
X178793Y254513D01*
X178832Y254367D01*
X178841Y254347D01*
X178851Y254308D01*
X178880Y254240D01*
X178920Y254162D01*
X178968Y254064D01*
X179017Y253967D01*
X179085Y253879D01*
X179163Y253791D01*
X179173Y253781D01*
X179222Y253742D01*
X179290Y253684D01*
X179378Y253616D01*
X179495Y253547D01*
X179632Y253469D01*
X179797Y253391D01*
X179973Y253323D01*
X179983D01*
X179992Y253313D01*
X180022Y253304D01*
X180061Y253294D01*
X180109Y253284D01*
X180168Y253265D01*
X180314Y253235D01*
X180499Y253206D01*
X180714Y253177D01*
X180948Y253157D01*
X181212Y253147D01*
X181221D01*
X181260D01*
X181309D01*
X181377D01*
X181465Y253157D01*
X181563Y253167D01*
X181670Y253177D01*
X181777Y253186D01*
X182031Y253225D01*
X182284Y253284D01*
X182528Y253372D01*
X182645Y253421D01*
X182753Y253479D01*
X182762D01*
X182772Y253499D01*
X182801Y253508D01*
X182840Y253538D01*
X182938Y253606D01*
X183045Y253703D01*
X183172Y253820D01*
X183289Y253957D01*
X183396Y254113D01*
X183484Y254279D01*
X183494Y254298D01*
X183504Y254347D01*
X183523Y254425D01*
X183552Y254542D01*
X183582Y254698D01*
X183601Y254884D01*
X183611Y255108D01*
X183621Y255371D01*
Y256707D01*
D02*
G37*
G36*
X182772Y250368D02*
X182753D01*
X182694D01*
X182616Y250348D01*
X182509Y250329D01*
X182392Y250299D01*
X182275Y250251D01*
X182148Y250182D01*
X182031Y250085D01*
X182021Y250075D01*
X181992Y250036D01*
X181943Y249968D01*
X181894Y249880D01*
X181836Y249773D01*
X181797Y249636D01*
X181758Y249490D01*
X181748Y249324D01*
Y249246D01*
X181768Y249168D01*
X181787Y249061D01*
X181816Y248944D01*
X181865Y248817D01*
X181933Y248690D01*
X182031Y248573D01*
X182041Y248563D01*
X182080Y248524D01*
X182138Y248475D01*
X182226Y248427D01*
X182323Y248368D01*
X182450Y248329D01*
X182587Y248290D01*
X182733Y248280D01*
X182743D01*
X182753D01*
X182801D01*
X182889Y248300D01*
X182987Y248319D01*
X183094Y248358D01*
X183221Y248407D01*
X183338Y248485D01*
X183455Y248583D01*
X183465Y248592D01*
X183504Y248631D01*
X183552Y248700D01*
X183611Y248788D01*
X183660Y248895D01*
X183708Y249022D01*
X183748Y249158D01*
X183757Y249324D01*
Y249402D01*
X183738Y249480D01*
X183718Y249587D01*
X183689Y249704D01*
X183630Y249831D01*
X183562Y249958D01*
X183465Y250075D01*
X183455Y250085D01*
X183416Y250124D01*
X183348Y250163D01*
X183270Y250221D01*
X183172Y250270D01*
X183045Y250319D01*
X182918Y250358D01*
X182772Y250368D01*
D02*
G37*
G36*
X179807Y250621D02*
X179797D01*
X179748D01*
X179690Y250611D01*
X179602Y250602D01*
X179505Y250582D01*
X179388Y250553D01*
X179271Y250514D01*
X179153Y250465D01*
X179144Y250455D01*
X179105Y250436D01*
X179046Y250397D01*
X178978Y250348D01*
X178900Y250280D01*
X178812Y250202D01*
X178734Y250104D01*
X178666Y249997D01*
X178656Y249977D01*
X178637Y249939D01*
X178617Y249880D01*
X178588Y249792D01*
X178549Y249685D01*
X178529Y249578D01*
X178510Y249451D01*
X178500Y249314D01*
Y249256D01*
X178510Y249217D01*
X178520Y249119D01*
X178549Y248983D01*
X178588Y248836D01*
X178656Y248680D01*
X178744Y248534D01*
X178861Y248388D01*
X178880Y248368D01*
X178929Y248329D01*
X179007Y248271D01*
X179114Y248202D01*
X179241Y248134D01*
X179407Y248076D01*
X179583Y248037D01*
X179788Y248017D01*
X179797D01*
X179817D01*
X179846D01*
X179885Y248027D01*
X179983Y248037D01*
X180119Y248066D01*
X180266Y248105D01*
X180422Y248173D01*
X180578Y248271D01*
X180724Y248397D01*
X180743Y248417D01*
X180782Y248466D01*
X180841Y248544D01*
X180919Y248651D01*
X180987Y248788D01*
X181046Y248953D01*
X181085Y249139D01*
X181104Y249343D01*
Y249392D01*
X181094Y249431D01*
X181085Y249539D01*
X181056Y249665D01*
X181017Y249812D01*
X180948Y249968D01*
X180860Y250114D01*
X180734Y250260D01*
X180714Y250280D01*
X180665Y250319D01*
X180587Y250377D01*
X180480Y250436D01*
X180343Y250504D01*
X180187Y250563D01*
X180002Y250602D01*
X179807Y250621D01*
D02*
G37*
G36*
X120600Y256707D02*
X115694D01*
Y255245D01*
X115704Y255137D01*
X115714Y254991D01*
X115724Y254835D01*
X115743Y254669D01*
X115772Y254513D01*
X115811Y254367D01*
X115821Y254347D01*
X115831Y254308D01*
X115860Y254240D01*
X115899Y254162D01*
X115948Y254064D01*
X115997Y253967D01*
X116065Y253879D01*
X116143Y253791D01*
X116153Y253782D01*
X116202Y253742D01*
X116270Y253684D01*
X116358Y253616D01*
X116475Y253547D01*
X116611Y253469D01*
X116777Y253391D01*
X116953Y253323D01*
X116962D01*
X116972Y253313D01*
X117001Y253304D01*
X117040Y253294D01*
X117089Y253284D01*
X117148Y253265D01*
X117294Y253235D01*
X117479Y253206D01*
X117694Y253177D01*
X117928Y253157D01*
X118191Y253148D01*
X118201D01*
X118240D01*
X118289D01*
X118357D01*
X118445Y253157D01*
X118542Y253167D01*
X118650Y253177D01*
X118757Y253186D01*
X119011Y253225D01*
X119264Y253284D01*
X119508Y253372D01*
X119625Y253421D01*
X119732Y253479D01*
X119742D01*
X119752Y253499D01*
X119781Y253508D01*
X119820Y253538D01*
X119918Y253606D01*
X120025Y253703D01*
X120152Y253820D01*
X120269Y253957D01*
X120376Y254113D01*
X120464Y254279D01*
X120474Y254298D01*
X120483Y254347D01*
X120503Y254425D01*
X120532Y254542D01*
X120561Y254698D01*
X120581Y254884D01*
X120591Y255108D01*
X120600Y255371D01*
Y256707D01*
D02*
G37*
G36*
X119186Y250611D02*
X119176D01*
X119157D01*
X119128D01*
X119089Y250602D01*
X118972Y250592D01*
X118835Y250563D01*
X118669Y250524D01*
X118503Y250455D01*
X118347Y250368D01*
X118191Y250251D01*
X118172Y250231D01*
X118133Y250182D01*
X118074Y250104D01*
X118006Y249997D01*
X117928Y249860D01*
X117869Y249704D01*
X117830Y249529D01*
X117811Y249334D01*
Y249285D01*
X117821Y249246D01*
X117830Y249149D01*
X117860Y249022D01*
X117908Y248885D01*
X117967Y248729D01*
X118064Y248583D01*
X118191Y248446D01*
X118211Y248427D01*
X118260Y248388D01*
X118347Y248329D01*
X118464Y248261D01*
X118621Y248202D01*
X118796Y248144D01*
X119011Y248105D01*
X119245Y248085D01*
X119254D01*
X119274D01*
X119313D01*
X119362Y248095D01*
X119420D01*
X119479Y248105D01*
X119635Y248134D01*
X119810Y248173D01*
X119986Y248241D01*
X120162Y248329D01*
X120327Y248446D01*
X120347Y248466D01*
X120386Y248514D01*
X120454Y248583D01*
X120532Y248690D01*
X120600Y248817D01*
X120669Y248963D01*
X120708Y249129D01*
X120727Y249314D01*
Y249363D01*
X120717Y249402D01*
X120708Y249500D01*
X120679Y249626D01*
X120620Y249773D01*
X120542Y249919D01*
X120444Y250075D01*
X120376Y250153D01*
X120298Y250231D01*
X120279Y250251D01*
X120220Y250290D01*
X120122Y250348D01*
X119996Y250417D01*
X119840Y250494D01*
X119645Y250553D01*
X119430Y250592D01*
X119186Y250611D01*
D02*
G37*
G36*
X57580Y256707D02*
X52674D01*
Y255245D01*
X52684Y255137D01*
X52694Y254991D01*
X52703Y254835D01*
X52723Y254669D01*
X52752Y254513D01*
X52791Y254367D01*
X52801Y254347D01*
X52811Y254308D01*
X52840Y254240D01*
X52879Y254162D01*
X52928Y254064D01*
X52977Y253967D01*
X53045Y253879D01*
X53123Y253791D01*
X53133Y253781D01*
X53181Y253742D01*
X53250Y253684D01*
X53337Y253616D01*
X53454Y253547D01*
X53591Y253469D01*
X53757Y253391D01*
X53932Y253323D01*
X53942D01*
X53952Y253313D01*
X53981Y253304D01*
X54020Y253294D01*
X54069Y253284D01*
X54127Y253265D01*
X54274Y253235D01*
X54459Y253206D01*
X54674Y253177D01*
X54908Y253157D01*
X55171Y253147D01*
X55181D01*
X55220D01*
X55269D01*
X55337D01*
X55425Y253157D01*
X55522Y253167D01*
X55630Y253177D01*
X55737Y253186D01*
X55990Y253225D01*
X56244Y253284D01*
X56488Y253372D01*
X56605Y253421D01*
X56712Y253479D01*
X56722D01*
X56732Y253499D01*
X56761Y253508D01*
X56800Y253538D01*
X56898Y253606D01*
X57005Y253703D01*
X57132Y253820D01*
X57249Y253957D01*
X57356Y254113D01*
X57444Y254279D01*
X57453Y254298D01*
X57463Y254347D01*
X57483Y254425D01*
X57512Y254542D01*
X57541Y254698D01*
X57561Y254884D01*
X57571Y255108D01*
X57580Y255371D01*
Y256707D01*
D02*
G37*
G36*
X55366Y245637D02*
X55083D01*
X55064D01*
X55015D01*
X54937D01*
X54830Y245627D01*
X54703D01*
X54557Y245618D01*
X54391Y245608D01*
X54225Y245588D01*
X53874Y245549D01*
X53523Y245481D01*
X53367Y245442D01*
X53220Y245393D01*
X53084Y245335D01*
X52977Y245276D01*
X52967D01*
X52957Y245257D01*
X52899Y245208D01*
X52811Y245130D01*
X52723Y245023D01*
X52625Y244886D01*
X52538Y244730D01*
X52479Y244555D01*
X52469Y244457D01*
X52460Y244359D01*
Y244311D01*
X52469Y244272D01*
X52489Y244174D01*
X52528Y244047D01*
X52586Y243901D01*
X52674Y243755D01*
X52733Y243677D01*
X52811Y243599D01*
X52889Y243521D01*
X52977Y243452D01*
X52986D01*
X53006Y243433D01*
X53035Y243413D01*
X53084Y243394D01*
X53142Y243365D01*
X53230Y243335D01*
X53328Y243306D01*
X53435Y243267D01*
X53572Y243228D01*
X53718Y243199D01*
X53893Y243169D01*
X54089Y243140D01*
X54303Y243111D01*
X54537Y243101D01*
X54801Y243082D01*
X55083D01*
X55103D01*
X55152D01*
X55230D01*
X55337Y243092D01*
X55464D01*
X55610Y243101D01*
X55766Y243111D01*
X55942Y243130D01*
X56293Y243169D01*
X56634Y243238D01*
X56800Y243277D01*
X56946Y243326D01*
X57073Y243384D01*
X57180Y243452D01*
X57190D01*
X57200Y243472D01*
X57258Y243521D01*
X57346Y243599D01*
X57444Y243706D01*
X57541Y243843D01*
X57629Y243999D01*
X57688Y244174D01*
X57697Y244272D01*
X57707Y244369D01*
Y244418D01*
X57697Y244457D01*
X57688Y244555D01*
X57649Y244681D01*
X57590Y244818D01*
X57512Y244964D01*
X57395Y245110D01*
X57317Y245179D01*
X57239Y245237D01*
X57229D01*
X57210Y245257D01*
X57171Y245276D01*
X57122Y245296D01*
X57054Y245325D01*
X56975Y245364D01*
X56868Y245403D01*
X56751Y245432D01*
X56615Y245471D01*
X56459Y245510D01*
X56283Y245540D01*
X56078Y245579D01*
X55864Y245598D01*
X55630Y245618D01*
X55366Y245637D01*
D02*
G37*
%LPD*%
D11*
X603782Y48570D02*
X632182D01*
Y106370D01*
X603782D02*
X632182D01*
X603782Y48570D02*
Y106370D01*
X29094Y125996D02*
X128894D01*
Y26196D02*
Y125996D01*
X29094Y26196D02*
X128894D01*
X29094D02*
Y125996D01*
X436546Y47437D02*
Y106487D01*
Y47437D02*
X519510D01*
Y106487D01*
X436546D02*
X519510D01*
M02*
