G04*
G04 #@! TF.GenerationSoftware,Altium Limited,Altium Designer,24.1.2 (44)*
G04*
G04 Layer_Physical_Order=2*
G04 Layer_Color=16711680*
%FSLAX44Y44*%
%MOMM*%
G71*
G04*
G04 #@! TF.SameCoordinates,BD343A0D-4BD6-4D64-9A7B-49F0AB29FDDA*
G04*
G04*
G04 #@! TF.FilePolarity,Positive*
G04*
G01*
G75*
%ADD22C,1.5700*%
%ADD23R,1.5700X1.5700*%
%ADD24R,1.2500X1.2500*%
%ADD25C,1.2500*%
%ADD26R,1.4500X1.4500*%
%ADD27C,1.4500*%
%ADD31C,0.3810*%
%ADD32C,1.5000*%
%ADD33R,1.5000X1.5000*%
%ADD34C,0.6000*%
G36*
X665480Y0D02*
X0D01*
Y300990D01*
X665480D01*
Y0D01*
D02*
G37*
%LPC*%
G36*
X628788Y280046D02*
X620268D01*
Y271526D01*
X628788D01*
Y280046D01*
D02*
G37*
G36*
X565768D02*
X557248D01*
Y271526D01*
X565768D01*
Y280046D01*
D02*
G37*
G36*
X502748D02*
X494228D01*
Y271526D01*
X502748D01*
Y280046D01*
D02*
G37*
G36*
X439727D02*
X431207D01*
Y271526D01*
X439727D01*
Y280046D01*
D02*
G37*
G36*
X376707D02*
X368187D01*
Y271526D01*
X376707D01*
Y280046D01*
D02*
G37*
G36*
X313687D02*
X305167D01*
Y271526D01*
X313687D01*
Y280046D01*
D02*
G37*
G36*
X250667D02*
X242147D01*
Y271526D01*
X250667D01*
Y280046D01*
D02*
G37*
G36*
X187646D02*
X179126D01*
Y271526D01*
X187646D01*
Y280046D01*
D02*
G37*
G36*
X124626D02*
X116106D01*
Y271526D01*
X124626D01*
Y280046D01*
D02*
G37*
G36*
X61606D02*
X53086D01*
Y271526D01*
X61606D01*
Y280046D01*
D02*
G37*
G36*
X428667D02*
X420147D01*
Y271526D01*
X428667D01*
Y280046D01*
D02*
G37*
G36*
X365647D02*
X357127D01*
Y271526D01*
X365647D01*
Y280046D01*
D02*
G37*
G36*
X302627D02*
X294107D01*
Y271526D01*
X302627D01*
Y280046D01*
D02*
G37*
G36*
X239607D02*
X231087D01*
Y271526D01*
X239607D01*
Y280046D01*
D02*
G37*
G36*
X176586D02*
X168066D01*
Y271526D01*
X176586D01*
Y280046D01*
D02*
G37*
G36*
X113566D02*
X105046D01*
Y271526D01*
X113566D01*
Y280046D01*
D02*
G37*
G36*
X50546D02*
X42026D01*
Y271526D01*
X50546D01*
Y280046D01*
D02*
G37*
G36*
X554708D02*
X546188D01*
Y271526D01*
X554708D01*
Y280046D01*
D02*
G37*
G36*
X617728D02*
X609208D01*
Y271526D01*
X617728D01*
Y280046D01*
D02*
G37*
G36*
X491688D02*
X483168D01*
Y271526D01*
X491688D01*
Y280046D01*
D02*
G37*
G36*
X628788Y268986D02*
X620268D01*
Y260466D01*
X628788D01*
Y268986D01*
D02*
G37*
G36*
X617728D02*
X609208D01*
Y260466D01*
X617728D01*
Y268986D01*
D02*
G37*
G36*
X565768D02*
X557248D01*
Y260466D01*
X565768D01*
Y268986D01*
D02*
G37*
G36*
X554708D02*
X546188D01*
Y260466D01*
X554708D01*
Y268986D01*
D02*
G37*
G36*
X502748D02*
X494228D01*
Y260466D01*
X502748D01*
Y268986D01*
D02*
G37*
G36*
X491688D02*
X483168D01*
Y260466D01*
X491688D01*
Y268986D01*
D02*
G37*
G36*
X439727D02*
X431207D01*
Y260466D01*
X439727D01*
Y268986D01*
D02*
G37*
G36*
X428667D02*
X420147D01*
Y260466D01*
X428667D01*
Y268986D01*
D02*
G37*
G36*
X376707D02*
X368187D01*
Y260466D01*
X376707D01*
Y268986D01*
D02*
G37*
G36*
X365647D02*
X357127D01*
Y260466D01*
X365647D01*
Y268986D01*
D02*
G37*
G36*
X313687D02*
X305167D01*
Y260466D01*
X313687D01*
Y268986D01*
D02*
G37*
G36*
X302627D02*
X294107D01*
Y260466D01*
X302627D01*
Y268986D01*
D02*
G37*
G36*
X250667D02*
X242147D01*
Y260466D01*
X250667D01*
Y268986D01*
D02*
G37*
G36*
X239607D02*
X231087D01*
Y260466D01*
X239607D01*
Y268986D01*
D02*
G37*
G36*
X187646D02*
X179126D01*
Y260466D01*
X187646D01*
Y268986D01*
D02*
G37*
G36*
X176586D02*
X168066D01*
Y260466D01*
X176586D01*
Y268986D01*
D02*
G37*
G36*
X124626D02*
X116106D01*
Y260466D01*
X124626D01*
Y268986D01*
D02*
G37*
G36*
X113566D02*
X105046D01*
Y260466D01*
X113566D01*
Y268986D01*
D02*
G37*
G36*
X61606D02*
X53086D01*
Y260466D01*
X61606D01*
Y268986D01*
D02*
G37*
G36*
X50546D02*
X42026D01*
Y260466D01*
X50546D01*
Y268986D01*
D02*
G37*
G36*
X619953Y252106D02*
X618044D01*
X616200Y251612D01*
X614546Y250657D01*
X613197Y249308D01*
X612242Y247654D01*
X611748Y245811D01*
Y243902D01*
X612242Y242058D01*
X613197Y240404D01*
X614546Y239055D01*
X616200Y238100D01*
X618044Y237606D01*
X619953D01*
X621796Y238100D01*
X623450Y239055D01*
X624799Y240404D01*
X625754Y242058D01*
X626248Y243902D01*
Y245811D01*
X625754Y247654D01*
X624799Y249308D01*
X623450Y250657D01*
X621796Y251612D01*
X619953Y252106D01*
D02*
G37*
G36*
X556932D02*
X555023D01*
X553179Y251612D01*
X551526Y250657D01*
X550176Y249308D01*
X549222Y247654D01*
X548728Y245811D01*
Y243902D01*
X549222Y242058D01*
X550176Y240404D01*
X551526Y239055D01*
X553179Y238100D01*
X555023Y237606D01*
X556932D01*
X558776Y238100D01*
X560429Y239055D01*
X561779Y240404D01*
X562733Y242058D01*
X563228Y243902D01*
Y245811D01*
X562733Y247654D01*
X561779Y249308D01*
X560429Y250657D01*
X558776Y251612D01*
X556932Y252106D01*
D02*
G37*
G36*
X493912D02*
X492003D01*
X490159Y251612D01*
X488506Y250657D01*
X487156Y249308D01*
X486202Y247654D01*
X485708Y245811D01*
Y243902D01*
X486202Y242058D01*
X487156Y240404D01*
X488506Y239055D01*
X490159Y238100D01*
X492003Y237606D01*
X493912D01*
X495756Y238100D01*
X497409Y239055D01*
X498759Y240404D01*
X499714Y242058D01*
X500208Y243902D01*
Y245811D01*
X499714Y247654D01*
X498759Y249308D01*
X497409Y250657D01*
X495756Y251612D01*
X493912Y252106D01*
D02*
G37*
G36*
X430892D02*
X428983D01*
X427139Y251612D01*
X425486Y250657D01*
X424136Y249308D01*
X423181Y247654D01*
X422687Y245811D01*
Y243902D01*
X423181Y242058D01*
X424136Y240404D01*
X425486Y239055D01*
X427139Y238100D01*
X428983Y237606D01*
X430892D01*
X432736Y238100D01*
X434389Y239055D01*
X435739Y240404D01*
X436693Y242058D01*
X437187Y243902D01*
Y245811D01*
X436693Y247654D01*
X435739Y249308D01*
X434389Y250657D01*
X432736Y251612D01*
X430892Y252106D01*
D02*
G37*
G36*
X367872D02*
X365963D01*
X364119Y251612D01*
X362466Y250657D01*
X361116Y249308D01*
X360161Y247654D01*
X359667Y245811D01*
Y243902D01*
X360161Y242058D01*
X361116Y240404D01*
X362466Y239055D01*
X364119Y238100D01*
X365963Y237606D01*
X367872D01*
X369716Y238100D01*
X371369Y239055D01*
X372719Y240404D01*
X373673Y242058D01*
X374167Y243902D01*
Y245811D01*
X373673Y247654D01*
X372719Y249308D01*
X371369Y250657D01*
X369716Y251612D01*
X367872Y252106D01*
D02*
G37*
G36*
X304851D02*
X302942D01*
X301098Y251612D01*
X299445Y250657D01*
X298095Y249308D01*
X297141Y247654D01*
X296647Y245811D01*
Y243902D01*
X297141Y242058D01*
X298095Y240404D01*
X299445Y239055D01*
X301098Y238100D01*
X302942Y237606D01*
X304851D01*
X306695Y238100D01*
X308348Y239055D01*
X309698Y240404D01*
X310653Y242058D01*
X311147Y243902D01*
Y245811D01*
X310653Y247654D01*
X309698Y249308D01*
X308348Y250657D01*
X306695Y251612D01*
X304851Y252106D01*
D02*
G37*
G36*
X241831D02*
X239922D01*
X238078Y251612D01*
X236425Y250657D01*
X235075Y249308D01*
X234121Y247654D01*
X233627Y245811D01*
Y243902D01*
X234121Y242058D01*
X235075Y240404D01*
X236425Y239055D01*
X238078Y238100D01*
X239922Y237606D01*
X241831D01*
X243675Y238100D01*
X245328Y239055D01*
X246678Y240404D01*
X247633Y242058D01*
X248127Y243902D01*
Y245811D01*
X247633Y247654D01*
X246678Y249308D01*
X245328Y250657D01*
X243675Y251612D01*
X241831Y252106D01*
D02*
G37*
G36*
X178811D02*
X176902D01*
X175058Y251612D01*
X173405Y250657D01*
X172055Y249308D01*
X171101Y247654D01*
X170606Y245811D01*
Y243902D01*
X171101Y242058D01*
X172055Y240404D01*
X173405Y239055D01*
X175058Y238100D01*
X176902Y237606D01*
X178811D01*
X180655Y238100D01*
X182308Y239055D01*
X183658Y240404D01*
X184612Y242058D01*
X185106Y243902D01*
Y245811D01*
X184612Y247654D01*
X183658Y249308D01*
X182308Y250657D01*
X180655Y251612D01*
X178811Y252106D01*
D02*
G37*
G36*
X115791D02*
X113882D01*
X112038Y251612D01*
X110385Y250657D01*
X109035Y249308D01*
X108081Y247654D01*
X107586Y245811D01*
Y243902D01*
X108081Y242058D01*
X109035Y240404D01*
X110385Y239055D01*
X112038Y238100D01*
X113882Y237606D01*
X115791D01*
X117635Y238100D01*
X119288Y239055D01*
X120638Y240404D01*
X121592Y242058D01*
X122086Y243902D01*
Y245811D01*
X121592Y247654D01*
X120638Y249308D01*
X119288Y250657D01*
X117635Y251612D01*
X115791Y252106D01*
D02*
G37*
G36*
X52771D02*
X50862D01*
X49018Y251612D01*
X47364Y250657D01*
X46015Y249308D01*
X45060Y247654D01*
X44566Y245811D01*
Y243902D01*
X45060Y242058D01*
X46015Y240404D01*
X47364Y239055D01*
X49018Y238100D01*
X50862Y237606D01*
X52771D01*
X54614Y238100D01*
X56268Y239055D01*
X57617Y240404D01*
X58572Y242058D01*
X59066Y243902D01*
Y245811D01*
X58572Y247654D01*
X57617Y249308D01*
X56268Y250657D01*
X54614Y251612D01*
X52771Y252106D01*
D02*
G37*
G36*
X378549Y155400D02*
X377355D01*
X376253Y154943D01*
X375652Y154342D01*
X202946D01*
X202203Y154194D01*
X201573Y153773D01*
X197255Y149455D01*
X196833Y148825D01*
X196686Y148082D01*
Y133618D01*
X196085Y133017D01*
X195628Y131915D01*
Y130721D01*
X196085Y129619D01*
X196929Y128775D01*
X198031Y128318D01*
X199225D01*
X200327Y128775D01*
X201171Y129619D01*
X201628Y130721D01*
Y131915D01*
X201171Y133017D01*
X200570Y133618D01*
Y147277D01*
X203750Y150458D01*
X375652D01*
X376253Y149857D01*
X377355Y149400D01*
X378549D01*
X379651Y149857D01*
X380495Y150701D01*
X380952Y151803D01*
Y152997D01*
X380495Y154099D01*
X379651Y154943D01*
X378549Y155400D01*
D02*
G37*
G36*
X266535Y146764D02*
X265341D01*
X264239Y146307D01*
X263395Y145463D01*
X262938Y144361D01*
Y143167D01*
X263395Y142065D01*
X264239Y141221D01*
X265341Y140764D01*
X266535D01*
X267637Y141221D01*
X268238Y141822D01*
X375448D01*
X375663Y141303D01*
X376507Y140459D01*
X377609Y140002D01*
X378803D01*
X379905Y140459D01*
X380749Y141303D01*
X381206Y142405D01*
Y143599D01*
X380749Y144701D01*
X379905Y145545D01*
X378803Y146002D01*
X377609D01*
X376881Y145700D01*
X376851Y145706D01*
X268238D01*
X267637Y146307D01*
X266535Y146764D01*
D02*
G37*
G36*
X378803Y136096D02*
X377609D01*
X376507Y135639D01*
X375663Y134795D01*
X375448Y134276D01*
X315228D01*
X314627Y134877D01*
X313525Y135334D01*
X312331D01*
X311229Y134877D01*
X310385Y134033D01*
X309928Y132931D01*
Y131737D01*
X310385Y130635D01*
X311229Y129791D01*
X312331Y129334D01*
X313525D01*
X314627Y129791D01*
X315228Y130392D01*
X376851D01*
X376881Y130398D01*
X377609Y130096D01*
X378803D01*
X379905Y130553D01*
X380749Y131397D01*
X381206Y132499D01*
Y133693D01*
X380749Y134795D01*
X379905Y135639D01*
X378803Y136096D01*
D02*
G37*
G36*
X161596Y125102D02*
X161544D01*
Y116332D01*
X170314D01*
Y116384D01*
X169630Y118937D01*
X168308Y121227D01*
X166439Y123096D01*
X164149Y124418D01*
X161596Y125102D01*
D02*
G37*
G36*
X159004D02*
X158952D01*
X156399Y124418D01*
X154109Y123096D01*
X152240Y121227D01*
X150918Y118937D01*
X150234Y116384D01*
Y116332D01*
X159004D01*
Y125102D01*
D02*
G37*
G36*
X345574Y122562D02*
X330574D01*
Y107562D01*
X345574D01*
Y122562D01*
D02*
G37*
G36*
X313661D02*
X311687D01*
X309779Y122051D01*
X308069Y121063D01*
X306672Y119667D01*
X305685Y117957D01*
X305174Y116049D01*
Y114075D01*
X305685Y112167D01*
X306672Y110457D01*
X308069Y109060D01*
X309779Y108073D01*
X311687Y107562D01*
X313661D01*
X315569Y108073D01*
X317279Y109060D01*
X318675Y110457D01*
X319663Y112167D01*
X320174Y114075D01*
Y116049D01*
X319663Y117957D01*
X318675Y119667D01*
X317279Y121063D01*
X315569Y122051D01*
X313661Y122562D01*
D02*
G37*
G36*
X288261D02*
X286287D01*
X284379Y122051D01*
X282669Y121063D01*
X281273Y119667D01*
X280285Y117957D01*
X279774Y116049D01*
Y114075D01*
X280285Y112167D01*
X281273Y110457D01*
X282669Y109060D01*
X284379Y108073D01*
X286287Y107562D01*
X288261D01*
X290169Y108073D01*
X291879Y109060D01*
X293276Y110457D01*
X294263Y112167D01*
X294774Y114075D01*
Y116049D01*
X294263Y117957D01*
X293276Y119667D01*
X291879Y121063D01*
X290169Y122051D01*
X288261Y122562D01*
D02*
G37*
G36*
X262861D02*
X260887D01*
X258979Y122051D01*
X257269Y121063D01*
X255872Y119667D01*
X254885Y117957D01*
X254374Y116049D01*
Y114075D01*
X254885Y112167D01*
X255872Y110457D01*
X257269Y109060D01*
X258979Y108073D01*
X260887Y107562D01*
X262861D01*
X264769Y108073D01*
X266479Y109060D01*
X267875Y110457D01*
X268863Y112167D01*
X269374Y114075D01*
Y116049D01*
X268863Y117957D01*
X267875Y119667D01*
X266479Y121063D01*
X264769Y122051D01*
X262861Y122562D01*
D02*
G37*
G36*
X237461D02*
X235487D01*
X233579Y122051D01*
X231869Y121063D01*
X230473Y119667D01*
X229485Y117957D01*
X228974Y116049D01*
Y114075D01*
X229485Y112167D01*
X230473Y110457D01*
X231869Y109060D01*
X233579Y108073D01*
X235487Y107562D01*
X237461D01*
X239369Y108073D01*
X241079Y109060D01*
X242475Y110457D01*
X243463Y112167D01*
X243974Y114075D01*
Y116049D01*
X243463Y117957D01*
X242475Y119667D01*
X241079Y121063D01*
X239369Y122051D01*
X237461Y122562D01*
D02*
G37*
G36*
X212061D02*
X210087D01*
X208179Y122051D01*
X206469Y121063D01*
X205072Y119667D01*
X204085Y117957D01*
X203574Y116049D01*
Y114075D01*
X204085Y112167D01*
X205072Y110457D01*
X206469Y109060D01*
X208179Y108073D01*
X210087Y107562D01*
X212061D01*
X213969Y108073D01*
X215679Y109060D01*
X217076Y110457D01*
X218063Y112167D01*
X218574Y114075D01*
Y116049D01*
X218063Y117957D01*
X217076Y119667D01*
X215679Y121063D01*
X213969Y122051D01*
X212061Y122562D01*
D02*
G37*
G36*
X186661D02*
X184687D01*
X182779Y122051D01*
X181069Y121063D01*
X179673Y119667D01*
X178685Y117957D01*
X178174Y116049D01*
Y114075D01*
X178685Y112167D01*
X179673Y110457D01*
X181069Y109060D01*
X182779Y108073D01*
X184687Y107562D01*
X186661D01*
X188569Y108073D01*
X190279Y109060D01*
X191675Y110457D01*
X192663Y112167D01*
X193174Y114075D01*
Y116049D01*
X192663Y117957D01*
X191675Y119667D01*
X190279Y121063D01*
X188569Y122051D01*
X186661Y122562D01*
D02*
G37*
G36*
X170314Y113792D02*
X161544D01*
Y105022D01*
X161596D01*
X164149Y105706D01*
X166439Y107028D01*
X168308Y108897D01*
X169630Y111187D01*
X170314Y113740D01*
Y113792D01*
D02*
G37*
G36*
X159004D02*
X150234D01*
Y113740D01*
X150918Y111187D01*
X152240Y108897D01*
X154109Y107028D01*
X156399Y105706D01*
X158952Y105022D01*
X159004D01*
Y113792D01*
D02*
G37*
G36*
X430276Y101990D02*
Y97790D01*
X434476D01*
X433703Y99658D01*
X432144Y101217D01*
X430276Y101990D01*
D02*
G37*
G36*
X619350Y100560D02*
X619252D01*
Y91440D01*
X628372D01*
Y91538D01*
X627664Y94180D01*
X626296Y96550D01*
X624362Y98484D01*
X621992Y99852D01*
X619350Y100560D01*
D02*
G37*
G36*
X616712D02*
X616614D01*
X613972Y99852D01*
X611602Y98484D01*
X609668Y96550D01*
X608300Y94180D01*
X607592Y91538D01*
Y91440D01*
X616712D01*
Y100560D01*
D02*
G37*
G36*
X434476Y95250D02*
X430276D01*
Y91050D01*
X432144Y91823D01*
X433703Y93382D01*
X434476Y95250D01*
D02*
G37*
G36*
X378714Y90560D02*
X376846Y89787D01*
X375287Y88228D01*
X374514Y86360D01*
X378714D01*
Y90560D01*
D02*
G37*
G36*
X426555Y126190D02*
X425361D01*
X424259Y125733D01*
X423415Y124889D01*
X422958Y123787D01*
Y122937D01*
X420278Y120257D01*
X419857Y119626D01*
X419709Y118883D01*
Y85178D01*
X419306Y84902D01*
X418036Y85573D01*
Y86192D01*
X417193Y88228D01*
X415634Y89787D01*
X413766Y90560D01*
Y85090D01*
X411226D01*
Y90560D01*
X409358Y89787D01*
X407799Y88228D01*
X407304Y87032D01*
X385176D01*
X384681Y88228D01*
X383122Y89787D01*
X381254Y90560D01*
Y85090D01*
X379984D01*
Y83820D01*
X374514D01*
X375182Y82206D01*
X374644Y80936D01*
X328973D01*
X316333Y93575D01*
X315703Y93996D01*
X314960Y94144D01*
X295670D01*
X295069Y94745D01*
X293967Y95202D01*
X292773D01*
X291671Y94745D01*
X290827Y93901D01*
X290370Y92799D01*
Y91605D01*
X290827Y90503D01*
X291671Y89659D01*
X292773Y89202D01*
X293967D01*
X295069Y89659D01*
X295670Y90260D01*
X314156D01*
X326795Y77621D01*
X327425Y77200D01*
X328168Y77052D01*
X417068D01*
X417811Y77200D01*
X418441Y77621D01*
X423025Y82204D01*
X423446Y82834D01*
X423593Y83577D01*
Y92302D01*
X424863Y92828D01*
X425868Y91823D01*
X427736Y91050D01*
Y96520D01*
Y101990D01*
X425868Y101217D01*
X424863Y100212D01*
X423593Y100738D01*
Y118079D01*
X425705Y120190D01*
X426555D01*
X427657Y120647D01*
X428501Y121491D01*
X428958Y122593D01*
Y123787D01*
X428501Y124889D01*
X427657Y125733D01*
X426555Y126190D01*
D02*
G37*
G36*
X628372Y88900D02*
X619252D01*
Y79780D01*
X619350D01*
X621992Y80488D01*
X624362Y81856D01*
X626296Y83790D01*
X627664Y86160D01*
X628372Y88802D01*
Y88900D01*
D02*
G37*
G36*
X616712D02*
X607592D01*
Y88802D01*
X608300Y86160D01*
X609668Y83790D01*
X611602Y81856D01*
X613972Y80488D01*
X616614Y79780D01*
X616712D01*
Y88900D01*
D02*
G37*
G36*
X105637Y82196D02*
X103151D01*
X100854Y81244D01*
X99095Y79486D01*
X98144Y77189D01*
Y74703D01*
X99095Y72406D01*
X100854Y70648D01*
X103151Y69696D01*
X105637D01*
X107934Y70648D01*
X109692Y72406D01*
X110644Y74703D01*
Y77189D01*
X109692Y79486D01*
X107934Y81244D01*
X105637Y82196D01*
D02*
G37*
G36*
X59844D02*
X47344D01*
Y69696D01*
X59844D01*
Y82196D01*
D02*
G37*
G36*
X366658Y65278D02*
X362458D01*
Y61078D01*
X364326Y61851D01*
X365885Y63410D01*
X366658Y65278D01*
D02*
G37*
G36*
X625832Y72620D02*
X610132D01*
Y56920D01*
X625832D01*
Y72620D01*
D02*
G37*
G36*
X80237Y56796D02*
X77751D01*
X75454Y55844D01*
X73696Y54086D01*
X72744Y51789D01*
Y49303D01*
X73696Y47006D01*
X75454Y45248D01*
X77751Y44296D01*
X80237D01*
X82534Y45248D01*
X84292Y47006D01*
X85244Y49303D01*
Y51789D01*
X84292Y54086D01*
X82534Y55844D01*
X80237Y56796D01*
D02*
G37*
G36*
X313996Y48902D02*
X313944D01*
Y40132D01*
X322714D01*
Y40184D01*
X322030Y42737D01*
X320708Y45027D01*
X318839Y46896D01*
X316549Y48218D01*
X313996Y48902D01*
D02*
G37*
G36*
X263196D02*
X263144D01*
Y40132D01*
X271914D01*
Y40184D01*
X271230Y42737D01*
X269908Y45027D01*
X268039Y46896D01*
X265749Y48218D01*
X263196Y48902D01*
D02*
G37*
G36*
X311404D02*
X311352D01*
X308799Y48218D01*
X306509Y46896D01*
X304640Y45027D01*
X303318Y42737D01*
X302634Y40184D01*
Y40132D01*
X311404D01*
Y48902D01*
D02*
G37*
G36*
X260604D02*
X260552D01*
X257999Y48218D01*
X255709Y46896D01*
X253840Y45027D01*
X252518Y42737D01*
X251834Y40184D01*
Y40132D01*
X260604D01*
Y48902D01*
D02*
G37*
G36*
X60033Y97234D02*
X58839D01*
X57737Y96777D01*
X56893Y95933D01*
X56436Y94831D01*
Y93637D01*
X56893Y92535D01*
X57737Y91691D01*
X58839Y91234D01*
X60033D01*
X61135Y91691D01*
X61736Y92292D01*
X231690D01*
X252203Y71779D01*
X252833Y71357D01*
X253577Y71210D01*
X297428D01*
X297914Y70036D01*
X297563Y69686D01*
X296790Y67818D01*
X302260D01*
Y65278D01*
X296790D01*
X297458Y63664D01*
X296920Y62394D01*
X293638D01*
X293037Y62995D01*
X291935Y63452D01*
X290741D01*
X289639Y62995D01*
X288795Y62151D01*
X288338Y61049D01*
Y59855D01*
X288795Y58753D01*
X289639Y57909D01*
X290741Y57452D01*
X291935D01*
X293037Y57909D01*
X293638Y58510D01*
X346160D01*
X369872Y34797D01*
Y33947D01*
X370329Y32845D01*
X371173Y32001D01*
X372275Y31544D01*
X373469D01*
X374571Y32001D01*
X375415Y32845D01*
X375872Y33947D01*
Y35141D01*
X375415Y36243D01*
X374571Y37087D01*
X373469Y37544D01*
X372619D01*
X348337Y61825D01*
X347707Y62246D01*
X346964Y62394D01*
X307692D01*
X307159Y63481D01*
X307778Y64606D01*
X355996D01*
X356491Y63410D01*
X358050Y61851D01*
X359918Y61078D01*
Y66548D01*
X361188D01*
Y67818D01*
X366658D01*
X365885Y69686D01*
X365534Y70036D01*
X366020Y71210D01*
X424928D01*
X425286Y70852D01*
Y45720D01*
X425434Y44977D01*
X425855Y44347D01*
X429919Y40283D01*
X430549Y39862D01*
X431292Y39714D01*
X527812D01*
X528555Y39862D01*
X529185Y40283D01*
X536449Y47546D01*
X537299D01*
X538401Y48003D01*
X539245Y48847D01*
X539702Y49949D01*
Y51143D01*
X539245Y52245D01*
X538644Y52846D01*
Y58674D01*
X538497Y59417D01*
X538075Y60047D01*
X538075Y60047D01*
X528135Y69988D01*
Y77361D01*
X528736Y77962D01*
X529193Y79064D01*
Y80258D01*
X528736Y81360D01*
X527892Y82204D01*
X526790Y82661D01*
X525596D01*
X524493Y82204D01*
X523650Y81360D01*
X523193Y80258D01*
Y79064D01*
X523650Y77962D01*
X524251Y77361D01*
Y69183D01*
X524398Y68440D01*
X524819Y67810D01*
X534760Y57870D01*
Y52846D01*
X534159Y52245D01*
X533702Y51143D01*
Y50293D01*
X527007Y43598D01*
X432096D01*
X429170Y46525D01*
Y70852D01*
X429771Y71453D01*
X430228Y72555D01*
Y73749D01*
X429771Y74851D01*
X428927Y75695D01*
X427825Y76152D01*
X426631D01*
X425529Y75695D01*
X424928Y75094D01*
X254381D01*
X233868Y95607D01*
X233238Y96028D01*
X232495Y96176D01*
X61736D01*
X61135Y96777D01*
X60033Y97234D01*
D02*
G37*
G36*
X339061Y46362D02*
X337087D01*
X335179Y45851D01*
X333469Y44864D01*
X332072Y43467D01*
X331085Y41757D01*
X330574Y39849D01*
Y37875D01*
X331085Y35967D01*
X332072Y34257D01*
X333469Y32861D01*
X335179Y31873D01*
X337087Y31362D01*
X339061D01*
X340969Y31873D01*
X342679Y32861D01*
X344076Y34257D01*
X345063Y35967D01*
X345574Y37875D01*
Y39849D01*
X345063Y41757D01*
X344076Y43467D01*
X342679Y44864D01*
X340969Y45851D01*
X339061Y46362D01*
D02*
G37*
G36*
X288261D02*
X286287D01*
X284379Y45851D01*
X282669Y44864D01*
X281273Y43467D01*
X280285Y41757D01*
X279774Y39849D01*
Y37875D01*
X280285Y35967D01*
X281273Y34257D01*
X282669Y32861D01*
X284379Y31873D01*
X286287Y31362D01*
X288261D01*
X290169Y31873D01*
X291879Y32861D01*
X293276Y34257D01*
X294263Y35967D01*
X294774Y37875D01*
Y39849D01*
X294263Y41757D01*
X293276Y43467D01*
X291879Y44864D01*
X290169Y45851D01*
X288261Y46362D01*
D02*
G37*
G36*
X237461D02*
X235487D01*
X233579Y45851D01*
X231869Y44864D01*
X230473Y43467D01*
X229485Y41757D01*
X228974Y39849D01*
Y37875D01*
X229485Y35967D01*
X230473Y34257D01*
X231869Y32861D01*
X233579Y31873D01*
X235487Y31362D01*
X237461D01*
X239369Y31873D01*
X241079Y32861D01*
X242475Y34257D01*
X243463Y35967D01*
X243974Y37875D01*
Y39849D01*
X243463Y41757D01*
X242475Y43467D01*
X241079Y44864D01*
X239369Y45851D01*
X237461Y46362D01*
D02*
G37*
G36*
X212061D02*
X210087D01*
X208179Y45851D01*
X206469Y44864D01*
X205072Y43467D01*
X204085Y41757D01*
X203574Y39849D01*
Y37875D01*
X204085Y35967D01*
X205072Y34257D01*
X206469Y32861D01*
X208179Y31873D01*
X210087Y31362D01*
X212061D01*
X213969Y31873D01*
X215679Y32861D01*
X217076Y34257D01*
X218063Y35967D01*
X218574Y37875D01*
Y39849D01*
X218063Y41757D01*
X217076Y43467D01*
X215679Y44864D01*
X213969Y45851D01*
X212061Y46362D01*
D02*
G37*
G36*
X186661D02*
X184687D01*
X182779Y45851D01*
X181069Y44864D01*
X179673Y43467D01*
X178685Y41757D01*
X178174Y39849D01*
Y37875D01*
X178685Y35967D01*
X179673Y34257D01*
X181069Y32861D01*
X182779Y31873D01*
X184687Y31362D01*
X186661D01*
X188569Y31873D01*
X190279Y32861D01*
X191675Y34257D01*
X192663Y35967D01*
X193174Y37875D01*
Y39849D01*
X192663Y41757D01*
X191675Y43467D01*
X190279Y44864D01*
X188569Y45851D01*
X186661Y46362D01*
D02*
G37*
G36*
X161261D02*
X159287D01*
X157379Y45851D01*
X155669Y44864D01*
X154272Y43467D01*
X153285Y41757D01*
X152774Y39849D01*
Y37875D01*
X153285Y35967D01*
X154272Y34257D01*
X155669Y32861D01*
X157379Y31873D01*
X159287Y31362D01*
X161261D01*
X163169Y31873D01*
X164879Y32861D01*
X166276Y34257D01*
X167263Y35967D01*
X167774Y37875D01*
Y39849D01*
X167263Y41757D01*
X166276Y43467D01*
X164879Y44864D01*
X163169Y45851D01*
X161261Y46362D01*
D02*
G37*
G36*
X322714Y37592D02*
X313944D01*
Y28822D01*
X313996D01*
X316549Y29506D01*
X318839Y30828D01*
X320708Y32697D01*
X322030Y34987D01*
X322714Y37540D01*
Y37592D01*
D02*
G37*
G36*
X311404D02*
X302634D01*
Y37540D01*
X303318Y34987D01*
X304640Y32697D01*
X306509Y30828D01*
X308799Y29506D01*
X311352Y28822D01*
X311404D01*
Y37592D01*
D02*
G37*
G36*
X271914D02*
X263144D01*
Y28822D01*
X263196D01*
X265749Y29506D01*
X268039Y30828D01*
X269908Y32697D01*
X271230Y34987D01*
X271914Y37540D01*
Y37592D01*
D02*
G37*
G36*
X260604D02*
X251834D01*
Y37540D01*
X252518Y34987D01*
X253840Y32697D01*
X255709Y30828D01*
X257999Y29506D01*
X260552Y28822D01*
X260604D01*
Y37592D01*
D02*
G37*
%LPD*%
D22*
X617982Y90170D02*
D03*
D23*
Y64770D02*
D03*
D24*
X53594Y75946D02*
D03*
D25*
X104394D02*
D03*
X78994Y50546D02*
D03*
D26*
X51816Y270256D02*
D03*
X618998D02*
D03*
X555978D02*
D03*
X492958D02*
D03*
X429937D02*
D03*
X366917D02*
D03*
X303897D02*
D03*
X240877D02*
D03*
X177856D02*
D03*
X114836D02*
D03*
D27*
X618998Y244856D02*
D03*
X555978D02*
D03*
X492958D02*
D03*
X429937D02*
D03*
X366917D02*
D03*
X303897D02*
D03*
X240877D02*
D03*
X177856D02*
D03*
X114836D02*
D03*
X51816D02*
D03*
D31*
X379984Y85090D02*
X412496D01*
X421651Y83577D02*
Y118883D01*
X425958Y123190D01*
X328168Y78994D02*
X417068D01*
X421651Y83577D01*
X302260Y66548D02*
X361188D01*
X291338Y60452D02*
X346964D01*
X372872Y34544D01*
X536702Y50546D02*
Y58674D01*
X526193Y69183D02*
Y79661D01*
Y69183D02*
X536702Y58674D01*
X527812Y41656D02*
X536702Y50546D01*
X253577Y73152D02*
X427228D01*
X232495Y94234D02*
X253577Y73152D01*
X59436Y94234D02*
X232495D01*
X431292Y41656D02*
X527812D01*
X427228Y45720D02*
Y73152D01*
Y45720D02*
X431292Y41656D01*
X293370Y92202D02*
X314960D01*
X328168Y78994D01*
X377613Y133096D02*
X378206D01*
X312928Y132334D02*
X376851D01*
X377613Y133096D01*
X376851Y143764D02*
X377613Y143002D01*
X265938Y143764D02*
X376851D01*
X377613Y143002D02*
X378206D01*
X198628Y131318D02*
Y148082D01*
X202946Y152400D02*
X377952D01*
X198628Y148082D02*
X202946Y152400D01*
D32*
X160274Y38862D02*
D03*
X185674D02*
D03*
X211074D02*
D03*
X236474D02*
D03*
X261874D02*
D03*
X287274D02*
D03*
X312674D02*
D03*
X338074D02*
D03*
X160274Y115062D02*
D03*
X185674D02*
D03*
X211074D02*
D03*
X236474D02*
D03*
X261874D02*
D03*
X287274D02*
D03*
X312674D02*
D03*
D33*
X338074D02*
D03*
D34*
X429006Y96520D02*
D03*
X412496Y85090D02*
D03*
X425958Y123190D02*
D03*
X379984Y85090D02*
D03*
X361188Y66548D02*
D03*
X302260D02*
D03*
X372872Y34544D02*
D03*
X291338Y60452D02*
D03*
X536702Y50546D02*
D03*
X526193Y79661D02*
D03*
X59436Y94234D02*
D03*
X427228Y73152D02*
D03*
X293370Y92202D02*
D03*
X312928Y132334D02*
D03*
X378206Y133096D02*
D03*
Y143002D02*
D03*
X265938Y143764D02*
D03*
X377952Y152400D02*
D03*
X198628Y131318D02*
D03*
M02*
