G04*
G04 #@! TF.GenerationSoftware,Altium Limited,Altium Designer,24.1.2 (44)*
G04*
G04 Layer_Color=32768*
%FSLAX44Y44*%
%MOMM*%
G71*
G04*
G04 #@! TF.SameCoordinates,BD343A0D-4BD6-4D64-9A7B-49F0AB29FDDA*
G04*
G04*
G04 #@! TF.FilePolarity,Positive*
G04*
G01*
G75*
%ADD11C,0.2000*%
D11*
X618998Y279783D02*
G03*
X618998Y235329I0J-22227D01*
G01*
D02*
G03*
X618998Y279783I0J22227D01*
G01*
X555978D02*
G03*
X555978Y235329I0J-22227D01*
G01*
D02*
G03*
X555978Y279783I0J22227D01*
G01*
X492957D02*
G03*
X492957Y235329I0J-22227D01*
G01*
D02*
G03*
X492957Y279783I0J22227D01*
G01*
X429937D02*
G03*
X429937Y235329I0J-22227D01*
G01*
D02*
G03*
X429937Y279783I0J22227D01*
G01*
X366917D02*
G03*
X366917Y235329I0J-22227D01*
G01*
D02*
G03*
X366917Y279783I0J22227D01*
G01*
X303897D02*
G03*
X303897Y235329I0J-22227D01*
G01*
D02*
G03*
X303897Y279783I0J22227D01*
G01*
X240877D02*
G03*
X240877Y235329I0J-22227D01*
G01*
D02*
G03*
X240877Y279783I0J22227D01*
G01*
X177856D02*
G03*
X177856Y235329I0J-22227D01*
G01*
D02*
G03*
X177856Y279783I0J22227D01*
G01*
X114836D02*
G03*
X114836Y235329I0J-22227D01*
G01*
D02*
G03*
X114836Y279783I0J22227D01*
G01*
X51816D02*
G03*
X51816Y235329I0J-22227D01*
G01*
D02*
G03*
X51816Y279783I0J22227D01*
G01*
X603782Y48570D02*
X632182D01*
Y106370D01*
X603782D02*
X632182D01*
X603782Y48570D02*
Y106370D01*
X29094Y125996D02*
X128894D01*
Y26196D02*
Y125996D01*
X29094Y26196D02*
X128894D01*
X29094D02*
Y125996D01*
X436546Y47437D02*
Y106487D01*
Y47437D02*
X519510D01*
Y106487D01*
X436546D02*
X519510D01*
M02*
