G04*
G04 #@! TF.GenerationSoftware,Altium Limited,Altium Designer,24.1.2 (44)*
G04*
G04 Layer_Color=32768*
%FSLAX44Y44*%
%MOMM*%
G71*
G04*
G04 #@! TF.SameCoordinates,BD343A0D-4BD6-4D64-9A7B-49F0AB29FDDA*
G04*
G04*
G04 #@! TF.FilePolarity,Positive*
G04*
G01*
G75*
%ADD36C,0.1000*%
%ADD37C,0.0500*%
D36*
X612220Y178308D02*
X622220D01*
X617220Y173308D02*
Y183308D01*
X550187Y178308D02*
X560187D01*
X555188Y173308D02*
Y183308D01*
X488155Y178308D02*
X498155D01*
X493155Y173308D02*
Y183308D01*
X425022Y179324D02*
X435022D01*
X430022Y174324D02*
Y184324D01*
X389288Y54182D02*
Y64182D01*
X384288Y59182D02*
X394288D01*
X361522Y178562D02*
X371522D01*
X366522Y173562D02*
Y183562D01*
X389288Y100926D02*
Y110926D01*
X384288Y105926D02*
X394288D01*
X244174Y76962D02*
X254174D01*
X249174Y71962D02*
Y81962D01*
X299292Y179070D02*
X309292D01*
X304292Y174070D02*
Y184070D01*
X560466Y96600D02*
Y106600D01*
X555466Y101600D02*
X565466D01*
X236300Y178308D02*
X246300D01*
X241300Y173308D02*
Y183308D01*
X173054Y177800D02*
X183054D01*
X178054Y172800D02*
Y182800D01*
X560832Y52150D02*
Y62150D01*
X555832Y57150D02*
X565832D01*
X110062Y177800D02*
X120062D01*
X115062Y172800D02*
Y182800D01*
X46054Y177800D02*
X56054D01*
X51054Y172800D02*
Y182800D01*
D37*
X629720Y157308D02*
Y199308D01*
X604720Y157308D02*
Y199308D01*
X629720D01*
X604720Y157308D02*
X629720D01*
X567687D02*
Y199308D01*
X542688Y157308D02*
Y199308D01*
X567687D01*
X542688Y157308D02*
X567687D01*
X505655D02*
Y199308D01*
X480655Y157308D02*
Y199308D01*
X505655D01*
X480655Y157308D02*
X505655D01*
X442522Y158324D02*
Y200324D01*
X417522Y158324D02*
Y200324D01*
X442522D01*
X417522Y158324D02*
X442522D01*
X368288Y71682D02*
X410288D01*
X368288Y46682D02*
X410288D01*
X368288D02*
Y71682D01*
X410288Y46682D02*
Y71682D01*
X379022Y157562D02*
Y199562D01*
X354022Y157562D02*
Y199562D01*
X379022D01*
X354022Y157562D02*
X379022D01*
X368288Y118426D02*
X410288D01*
X368288Y93426D02*
X410288D01*
X368288D02*
Y118426D01*
X410288Y93426D02*
Y118426D01*
X148174Y28462D02*
Y125462D01*
X350174Y28462D02*
Y125462D01*
X148174Y28462D02*
X350174D01*
X148174Y125462D02*
X350174D01*
X316792Y158070D02*
Y200070D01*
X291792Y158070D02*
Y200070D01*
X316792D01*
X291792Y158070D02*
X316792D01*
X546966Y110100D02*
X573966D01*
X546966Y93100D02*
X573966D01*
X546966D02*
Y110100D01*
X573966Y93100D02*
Y110100D01*
X253800Y157308D02*
Y199308D01*
X228800Y157308D02*
Y199308D01*
X253800D01*
X228800Y157308D02*
X253800D01*
X190554Y156800D02*
Y198800D01*
X165554Y156800D02*
Y198800D01*
X190554D01*
X165554Y156800D02*
X190554D01*
X547332Y65650D02*
X574332D01*
X547332Y48650D02*
X574332D01*
X547332D02*
Y65650D01*
X574332Y48650D02*
Y65650D01*
X127562Y156800D02*
Y198800D01*
X102562Y156800D02*
Y198800D01*
X127562D01*
X102562Y156800D02*
X127562D01*
X63554D02*
Y198800D01*
X38554Y156800D02*
Y198800D01*
X63554D01*
X38554Y156800D02*
X63554D01*
M02*
