M48
;Layer_Color=9474304
;FILE_FORMAT=4:4
METRIC,LZ
;TYPE=PLATED
T01F00S00C0.3000
T02F00S00C0.7500
T03F00S00C0.9000
T04F00S00C0.9500
T05F00S00C1.0200
%
T01
X00059436Y00094234
X00198628Y00131318
X00312928Y00132334
X0029337Y00092202
X00291338Y00060452
X0030226Y00066548
X00361188
X00379984Y0008509
X00378206Y00133096
X00372872Y00034544
X00412496Y0008509
X00427228Y00073152
X00429006Y0009652
X00425958Y0012319
X00526193Y00079661
X00536702Y00050546
X00378206Y00143002
X00377952Y001524
X00265938Y00143764
T02
X00053594Y00075946
X00104394
X00078994Y00050546
T03
X00160274Y00038862
X00185674
X00211074
X00236474
X00261874
X00287274
X00312674
X00338074
Y00115062
X00312674
X00287274
X00261874
X00236474
X00211074
X00185674
X00160274
T04
X00429937Y00244856
Y00270256
X00492958
Y00244856
X00555978
Y00270256
X00618998
Y00244856
X00366917
Y00270256
X00303897
Y00244856
X00240877
Y00270256
X00177856
Y00244856
X00114836
Y00270256
X00051816
Y00244856
T05
X00617982Y0006477
Y0009017
M30
